<svg xmlns="http://www.w3.org/2000/svg" viewBox="0 0 500 436.437"><path class="android-logo-text-color" d="M57.935,362.574v9.2s-7.17-10.845-23.064-10.845v0C17.679,360.927,0,374.7,0,398.818c0,22.045,15.544,37.617,34.871,37.617,15.954,0,23.064-10.709,23.064-10.709v4.668a4.924,4.924,0,0,0,4.668,4.668H74.135V362.574ZM37.787,421.868c-10.644,0-21.306-8.62-21.306-23.211,0-13.172,9.176-22.908,21.276-22.908,14.153,0,21.577,12.447,21.577,23.064C59.334,410.638,50.519,421.868,37.787,421.868ZM96.65,435.062a4.534,4.534,0,0,1-4.668-4.4c0-.091,0-.181,0-.272v-67.82h16.2v8.971c3.671-5.518,10.843-10.64,21.851-10.64,17.992,0,27.573,14.342,27.573,27.754v46.4H146.348a4.961,4.961,0,0,1-4.942-4.942V392.228c0-7.434-4.555-16.462-15.089-16.462-11.366,0-18.135,10.742-18.135,20.855v38.441ZM227.9,326.33v45.442s-7.17-10.845-23.064-10.845h0c-17.193,0-34.871,13.777-34.871,37.891,0,22.045,15.543,37.617,34.871,37.617,15.953,0,23.064-10.709,23.064-10.709v4.668a4.924,4.924,0,0,0,4.668,4.668H244.1V326.33Zm-20.152,95.538c-10.643,0-21.3-8.62-21.3-23.211,0-13.172,9.17-22.908,21.27-22.908,14.153,0,21.577,12.447,21.577,23.064C229.3,410.638,220.481,421.868,207.748,421.868Zm58.864,13.194a4.534,4.534,0,0,1-4.668-4.4c0-.091,0-.181,0-.272v-67.82h16.2v12.082c2.788-6.768,8.805-12.905,19.5-12.905a33.8,33.8,0,0,1,5.766.549v16.749a23.3,23.3,0,0,0-7.688-1.373c-11.367,0-17.573,10.742-17.573,20.856v36.53Zm135.09,0a4.534,4.534,0,0,1-4.667-4.4q0-.136,0-.273v-67.82h16.2v72.488ZM483.8,326.33v45.442s-7.17-10.845-23.064-10.845c-17.193,0-34.871,13.777-34.871,37.891,0,22.045,15.543,37.617,34.871,37.617,15.954,0,23.064-10.709,23.064-10.709v4.668a4.924,4.924,0,0,0,4.668,4.668H500V326.33Zm-20.148,95.538c-10.644,0-21.306-8.62-21.306-23.211,0-13.172,9.175-22.908,21.276-22.908,14.153,0,21.577,12.447,21.577,23.064C485.2,410.638,476.384,421.868,463.652,421.868ZM405.007,325.51a10.715,10.715,0,1,1-10.715,10.715h0A10.715,10.715,0,0,1,405.007,325.51ZM346.128,360.9h0c-18,0-37.787,13.44-37.787,37.786,0,22.187,16.849,37.748,37.748,37.748,25.755,0,38.331-20.7,38.331-37.607C384.42,378.085,368.226,360.9,346.128,360.9Zm.1,60.662c-10.993,0-21.68-8.947-21.68-22.617,0-13.9,10.164-22.921,21.643-22.921v0c12.451,0,21.738,10.035,21.738,22.7C367.925,411.616,358.066,421.562,346.225,421.562Z"/><path class="android-logo-mark-color" d="M372.031,84.422l41.448-71.8a8.422,8.422,0,0,0-3.046-11.478,8.311,8.311,0,0,0-11.374,2.962l-.049.084L357.018,76.916A256.12,256.12,0,0,0,250.133,54.124c-38.783,0-74.847,8.159-106.885,22.792L101.256,4.19A8.4,8.4,0,1,0,86.5,12.213q.114.209.238.409l41.448,71.8C56.707,123.151,8.3,195.5.3,280.187H499.966C491.97,195.5,443.559,123.151,372.031,84.422ZM156.357,189.081a20.95,20.95,0,0,1-20.942,20.937v0a20.942,20.942,0,1,1,20.942-20.942Zm229.381,0A20.952,20.952,0,0,1,364.8,210.018l0,0a20.942,20.942,0,1,1,20.942-20.942Z"/></svg>