<svg xmlns="http://www.w3.org/2000/svg" viewBox="0 0 500 500">
  <path fill="currentColor" d="M63.4 244.7c-2.5-3.5-7.8-6.8-14.1-6.8-12.1 0-21.2 10.3-21.2 22.9s9.2 22.9 21.2 22.9c6.3 0 11.6-3.3 14.1-6.8v3.1a2.732 2.732 0 002.7 2.7H73v-44.1h-9.7v6.1zM51 274.9c-7.8 0-13.1-6.2-13.1-14.1s5.3-14.1 13.1-14.1 13.1 6.2 13.1 14.1-5.2 14.1-13.1 14.1zm390.9-38.7l9.8-16.9c.6-1 .2-2.2-.7-2.8s-2.2-.2-2.8.7l-9.9 17.2c-7.6-3.5-16.1-5.4-25.2-5.4-9.1 0-17.6 1.9-25.2 5.4l-9.9-17.2c-.6-1-1.8-1.3-2.8-.7s-1.3 1.8-.7 2.8l9.8 16.9c-16.8 9.1-28.3 26.1-30 46.2h117.5c-1.6-20-13.1-37-29.9-46.2zm-55.8 29.5c-2.7 0-4.9-2.2-4.9-4.9s2.2-4.9 4.9-4.9 4.9 2.2 4.9 4.9-2.2 4.9-4.9 4.9zm54.1 0c-2.7 0-4.9-2.2-4.9-4.9s2.2-4.9 4.9-4.9 4.9 2.2 4.9 4.9-2.2 4.9-4.9 4.9zM124 256.3v26.5h-6.9a2.732 2.732 0 01-2.7-2.7v-22.2c0-7-3.5-11.2-9.2-11.2-6.4 0-11.4 5-11.4 14.4v21.7h-6.9a2.732 2.732 0 01-2.7-2.7v-41.3h9.7v6c2.6-4.4 7.7-6.9 13.4-6.9 10.1 0 16.7 7.3 16.7 18.4zm199-11.6c-2.5-3.5-7.8-6.8-14.1-6.8-12.1 0-21.2 10.3-21.2 22.9s9.2 22.9 21.2 22.9c6.3 0 11.6-3.3 14.1-6.8v3.1a2.732 2.732 0 002.7 2.7h6.9v-66.1H323v28.1zm-12.4 30.2c-7.8 0-13.1-6.2-13.1-14.1s5.3-14.1 13.1-14.1 13.1 6.2 13.1 14.1-5.2 14.1-13.1 14.1zm-31.3-56.8c1.2 1.2 1.9 2.8 1.9 4.6 0 3.6-2.8 6.5-6.4 6.5-3.5 0-6.5-2.9-6.5-6.5 0-3.5 3-6.4 6.5-6.4 1.7-.1 3.3.6 4.5 1.8zm-9.4 20.7h9.7v44.1h-6.9c-1.5 0-2.8-1.2-2.8-2.8v-41.3zM167 244.7c-2.5-3.5-7.8-6.8-14.1-6.8-12.1 0-21.2 10.3-21.2 22.9s9.2 22.9 21.2 22.9c6.3 0 11.6-3.3 14.1-6.8v3.1a2.732 2.732 0 002.7 2.7h6.9v-66.1H167v28.1zm-12.3 30.2c-7.8 0-13.1-6.2-13.1-14.1s5.3-14.1 13.1-14.1 13.1 6.2 13.1 14.1-5.3 14.1-13.1 14.1zm84.3-37c-13 0-23.1 10.1-23.1 22.9 0 12.8 10 22.9 23.1 22.9 13 0 23.1-10.1 23.1-22.9 0-12.7-10.1-22.9-23.1-22.9zm0 36.9c-7.8 0-13.3-6.1-13.3-13.9 0-7.8 5.5-13.9 13.3-13.9 7.8 0 13.2 6.1 13.2 13.9 0 7.8-5.5 13.9-13.2 13.9zm-29.9-36.4c1.3 0 2.5.1 3.8.4v10c-1.7-.5-3.1-.8-4.8-.8-5.6 0-10.6 4.7-10.6 13.5V283h-6.9a2.732 2.732 0 01-2.7-2.7V239h9.7v7.8c1.5-5.2 6.4-8.4 11.5-8.4z"/>
</svg>
