<svg xmlns="http://www.w3.org/2000/svg" viewBox="0 0 3283.215 500">
<path d="M157.305 160.566c47 0 86.176 24.153 104.458 50.271V167.1h71.8v326.359h-51.4a20.4 20.4 0 01-20.4-20.412v-23.306C243.481 475.859 204.305 500 157.305 500 67.894 500 0 423.636 0 330.283s67.894-169.717 157.305-169.717m13.059 65.282c-58.106 0-97.27 45.694-97.27 104.435s39.164 104.458 97.27 104.458 97.27-45.717 97.27-104.458-39.165-104.435-97.27-104.435M415.092 167.1h71.823v44.388c19.565-32.635 56.788-50.918 99.211-50.918 75.718 0 124.67 53.53 124.67 136.423V493.46h-51.387a20.407 20.407 0 01-20.424-20.4v-164.3c0-51.588-26.106-82.9-67.87-82.9-47.647 0-84.2 37.2-84.2 107.034V493.46H435.5a20.4 20.4 0 01-20.412-20.4V167.1zm509.83-6.531c47 0 86.165 24.153 104.447 50.271V3.92h71.788v489.539h-51.388a20.4 20.4 0 01-20.4-20.412v-23.306C1011.087 475.859 971.922 500 924.922 500c-89.434 0-157.317-76.364-157.317-169.717s67.883-169.717 157.317-169.717m13.06 65.282c-58.083 0-97.259 45.694-97.259 104.435s39.177 104.458 97.259 104.458 97.258-45.717 97.258-104.458-39.177-104.435-97.258-104.435M1182.71 167.1h71.8v58.1c12.4-37.223 48.953-61.376 86.176-61.376a140.855 140.855 0 0128.059 2.624v73.764c-12.4-3.929-22.835-5.894-35.894-5.894-41.129 0-78.341 34.6-78.341 99.882v159.26h-51.388a20.4 20.4 0 01-20.411-20.4V167.1zM1562.36 500c-96.611 0-171.011-75.07-171.011-169.694 0-94.658 74.4-169.728 171.011-169.728s171.011 75.07 171.011 169.728c0 94.624-74.4 169.694-171.011 169.694m0-66.565c57.435 0 97.918-45.058 97.918-103.129 0-58.093-40.483-103.14-97.918-103.14-58.094 0-98.564 45.047-98.564 103.14 0 58.071 40.47 103.129 98.564 103.129m265.094-337.483c-26.105 0-48.282-21.529-48.282-48.3 0-26.118 22.177-47.647 48.282-47.647a47.505 47.505 0 0147.671 47.647c0 26.776-20.906 48.305-47.671 48.305m-35.869 71.141h71.775v326.37H1812a20.414 20.414 0 01-20.411-20.411zm288.109-6.527c47 0 86.176 24.153 104.458 50.271V3.92h71.8v489.539h-51.4a20.4 20.4 0 01-20.4-20.412v-23.306C2165.87 475.859 2126.693 500 2079.694 500c-89.412 0-157.305-76.364-157.305-169.717s67.893-169.717 157.305-169.717m13.059 65.282c-58.082 0-97.259 45.694-97.259 104.435s39.177 104.458 97.259 104.458 97.269-45.717 97.269-104.458-39.176-104.435-97.269-104.435"/>
<path d="M3048.287 370.281a36.253 36.253 0 1136.247-36.259 36.3 36.3 0 01-36.247 36.259m-400.656 0a36.253 36.253 0 1136.247-36.259 36.3 36.3 0 01-36.247 36.259m413.657-218.352l72.446-125.47a15.072 15.072 0 00-26.106-15.071l-73.352 127.058c-56.094-25.6-119.094-39.858-186.317-39.858s-130.223 14.259-186.317 39.858L2588.29 11.388a15.072 15.072 0 00-26.106 15.071l72.446 125.47c-124.4 67.658-209.481 193.6-221.927 342.386h870.512c-12.458-148.787-97.54-274.728-221.927-342.386" fill="currentColor"/>
</svg>
