<svg xmlns="http://www.w3.org/2000/svg" viewBox="0 0 500 500">
  <path fill="currentColor" d="M345.9 244c-9.6 0-17.4-7.6-17.4-16.9s7.8-16.9 17.3-16.9c9.6 0 17.4 7.6 17.4 16.9 0 9.4-7.7 16.9-17.3 16.9m-191.8 0c-9.6 0-17.4-7.6-17.4-16.9s7.8-16.9 17.3-16.9c9.6 0 17.4 7.6 17.4 16.9.1 9.4-7.7 16.9-17.3 16.9m198-102l34.7-58.6c2-3.4.8-7.7-2.6-9.6s-7.9-.8-9.8 2.6l-35.1 59.4c-26.8-12-57-18.6-89.2-18.6s-62.3 6.7-89.2 18.6l-35.1-59.4c-2-3.4-6.4-4.5-9.8-2.6s-4.6 6.2-2.6 9.6l34.7 58.6C88.3 173.6 47.6 232.5 41.7 302h416.7c-6-69.5-46.8-128.4-106.3-160M70.7 370.4c8.7 0 15.9 4 19.3 8.4v-7.3h13.3v54.4h-9.5c-1 0-2-.4-2.7-1s-1.1-1.5-1.1-2.4v-3.9c-3.4 4.4-10.6 8.4-19.3 8.4-16.5 0-29.1-12.7-29.1-28.3s12.6-28.3 29.1-28.3m2.4 10.9c-10.7 0-18 7.6-18 17.4s7.2 17.4 18 17.4 18-7.6 18-17.4-7.2-17.4-18-17.4m45.2-9.8h13.3v7.4c3.6-5.4 10.5-8.5 18.3-8.5 14 0 23 8.9 23 22.7v32.7h-9.5c-1 0-2-.4-2.7-1-.7-.6-1.1-1.5-1.1-2.4V395c0-8.6-4.8-13.8-12.5-13.8-8.8 0-15.6 6.2-15.6 17.8v26.8H122c-1 0-2-.4-2.7-1-.7-.6-1.1-1.5-1.1-2.4l.1-50.9zm94.2-1.1c8.7 0 15.9 4 19.3 8.4v-34.5H245v81.6h-9.5c-1 0-2-.4-2.7-1s-1.1-1.5-1.1-2.4v-3.9c-3.4 4.4-10.6 8.4-19.3 8.4-16.5 0-29.1-12.7-29.1-28.3s12.7-28.3 29.2-28.3m2.4 10.9c-10.7 0-18 7.6-18 17.4s7.2 17.4 18 17.4c10.7 0 18-7.6 18-17.4s-7.3-17.4-18-17.4m45.2-9.8h13.3v9.7c2.3-6.2 9-10.2 15.9-10.2 1.7 0 3.5.1 5.2.4v12.3c-2.3-.7-4.2-1-6.6-1-7.6 0-14.5 5.8-14.5 16.6v26.5h-9.5c-1 0-2-.4-2.7-1-.7-.6-1.1-1.5-1.1-2.4v-50.9zm70.1 55.5c-17.8 0-31.6-12.5-31.6-28.3s13.7-28.3 31.6-28.3 31.6 12.5 31.6 28.3-13.7 28.3-31.6 28.3m0-11.1c10.6 0 18.1-7.5 18.1-17.2s-7.5-17.2-18.1-17.2c-10.7 0-18.2 7.5-18.2 17.2s7.5 17.2 18.2 17.2m49-56.2c-4.8 0-8.9-3.6-8.9-8.1 0-4.4 4.1-7.9 8.9-7.9 2.3 0 4.6.8 6.2 2.3s2.6 3.5 2.6 5.6c0 4.5-3.9 8.1-8.8 8.1m-6.6 11.8h13.3v54.4h-9.5c-2.1 0-3.8-1.5-3.8-3.4v-51zm53.2-1.1c8.7 0 15.9 4 19.3 8.4v-34.5h13.3v81.6h-9.5c-1 0-2-.4-2.7-1s-1.1-1.5-1.1-2.4v-3.9c-3.4 4.4-10.6 8.4-19.3 8.4-16.5 0-29.1-12.7-29.1-28.3s12.6-28.3 29.1-28.3m2.4 10.9c-10.7 0-18 7.6-18 17.4s7.2 17.4 18 17.4c10.7 0 18-7.6 18-17.4s-7.3-17.4-18-17.4"/>
</svg>
