<svg xmlns="http://www.w3.org/2000/svg" viewBox="0 0 500 500">
  <path fill="currentColor" d="M286.4 150.5v38.8h45v13.9h-45v114.6c0 11.7 1.8 20.7 5.3 26.9 3.5 6.2 9.5 9.3 18.1 9.3 3.5 0 7-.2 10.5-.7 2.5-.4 5-1 7.4-1.8l1.7 13.2c-5.4 2.7-12.6 4-21.7 4-7.4 0-13.6-1.3-18.4-4-4.7-2.5-8.7-6.4-11.5-11.2-2.8-4.8-4.8-10.5-5.9-17.2-1.2-7.2-1.7-14.5-1.7-21.8V203.2h-26.7v-13.9h26.7v-32.2l16.2-6.6zm-137.6 37.8c30.9 0 43 23.8 43 23.8s-23.8 13.1-23.8 45c0 35.9 29.6 48.3 29.6 48.3s-20.7 63-48.6 63c-12.8 0-22.8-9.4-36.3-9.4-13.8 0-27.5 9.7-36.4 9.7-25.5 0-57.7-59.7-57.7-107.7 0-47.2 27.3-72 52.9-72 16.6 0 29.5 10.4 38.2 10.4 7.4-.1 21.2-11.1 39.1-11.1zm208.7 1l37.2 109.1c3.2 8.5 6 16.6 8.5 24.2 2.5 7.6 4.9 15 7.1 22.3h.7c2.3-7.1 4.7-14.5 7.3-22.2 2.6-7.7 5.5-15.8 8.6-24.3l37.6-109.1h16.9L416.7 365h-13.9l-62.3-175.7h17zm-205.6-58.1s3 19.3-11.4 38c-15.3 19.9-32.7 16.6-32.7 16.6s-3.3-15.6 9.6-33.9c14.4-20.6 34.5-20.7 34.5-20.7z"/>
</svg>
