<svg viewBox="-50 -137 604.16 604.16" xmlns="http://www.w3.org/2000/svg"><path d="m422.91333 181.69285c-.2731-49.42451 22.3987-86.727214 68.28953-114.200833-25.67697-36.225365-64.46102-56.156618-115.68244-60.0628404-48.48533-3.7701829-101.47792 27.8767424-120.87145 27.8767424-20.48295 0-67.47323-26.5293237-104.34654-26.5293237-76.2106 1.2113805-157.2015625 59.9278017-157.2015625 179.3802747q0 52.92461 19.6676425 109.35131c17.482793 49.42451 80.581303 170.62753 146.41187 168.6099 34.41737-.80725 58.72881-24.10756 103.52622-24.10756 43.43187 0 65.96712 24.10756 104.34653 24.10756 66.37679-.9453 123.46697-111.10586 140.12944-160.66441-89.0496-41.34297-84.26924-121.20202-84.26924-123.76082zm-77.30303-221.128376c37.28599-43.63269 33.87116-83.360154 32.77874-97.635634-32.91529 1.88559-71.01557 22.08593-92.73653 46.999747-23.90179 26.664367-37.96875 59.658718-34.96458 96.8303793 35.64735 2.6908405 68.15297-15.3548173 94.92237-46.1944923z" stroke-width="1.00218797"/></svg>
