<svg xmlns="http://www.w3.org/2000/svg" viewBox="0 0 1050 500"><path d="M607.569 40.671v81.7h102.16v29.286h-102.16V392.87q0 37 11.914 56.643 11.907 19.656 41.1 19.648a158.21 158.21 0 0023.813-1.539 103.485 103.485 0 0016.9-3.855l3.842 27.746q-18.429 8.472-49.159 8.487-25.355 0-41.862-8.487A66.077 66.077 0 01588 468.01q-9.6-15.037-13.447-36.218a255.693 255.693 0 01-3.843-45.855V151.656h-60.684V122.37h60.685V54.536zm-312.154 79.563c70.053 0 97.6 50.009 97.6 50.009s-53.894 27.641-53.894 94.728c0 75.679 67.134 101.751 67.134 101.751s-46.923 132.531-110.318 132.531c-29.115 0-51.751-19.693-82.428-19.693-31.259 0-62.294 20.425-82.488 20.425C73.135 500 0 374.268 0 273.219c0-99.435 61.907-151.6 119.956-151.6 37.752 0 67.045 21.845 86.658 21.845 16.843.004 48.101-23.23 88.801-23.23zm473.466 2.121l84.5 229.665q10.745 26.985 19.2 50.861t16.119 47.005h1.534q7.662-22.344 16.515-46.632 8.825-24.272 19.584-51.249l85.257-229.665H1050L903.283 492.26h-31.5l-141.312-369.9zM302.43 0s6.775 40.715-25.764 79.922c-34.728 41.881-74.207 35.022-74.207 35.022s-7.417-32.93 21.7-71.435C256.9.209 302.43 0 302.43 0z" fill="#231f20"/></svg>