<svg width="16px" height="16px" viewBox="0 0 18 18" version="1.1">
  <path fill="currentColor" d="M9.80600008,3.70497721 L10.0026766,3.91341299 C10.3395912,4.27047156 10.3232612,4.83304792 9.96620263,5.16996246 C9.60914407,5.506877 9.04656771,5.49054704 8.70965317,5.13348847 L6.96514684,3.2846786 C6.63565055,2.93548182 6.64299055,2.38774031 6.98172564,2.04749815 L8.75957666,0.261737321 C9.10593801,-0.0861650232 9.66874994,-0.0874142435 10.0166523,0.25894711 C10.3645546,0.605308463 10.3658039,1.16812039 10.0194425,1.51602274 L9.6665071,1.87052837 C13.504726,2.45885805 16.4444444,5.77501389 16.4444444,9.77777778 C16.4444444,14.1960558 12.8627224,17.7777778 8.44444444,17.7777778 C4.02616645,17.7777778 0.444444444,14.1960558 0.444444444,9.77777778 C0.444444444,9.286858 0.842413556,8.88888889 1.33333333,8.88888889 C1.82425311,8.88888889 2.22222222,9.286858 2.22222222,9.77777778 C2.22222222,13.2142162 5.008006,16 8.44444444,16 C11.8808829,16 14.6666667,13.2142162 14.6666667,9.77777778 C14.6666667,6.80903759 12.5875701,4.32589641 9.80600008,3.70497721 Z"></path>
  <path fill="currentColor" stroke="#FFFFFF" stroke-width="0.5" d="M6.06933316,12.1777776 L6.06933316,8.17777761 L5.18366452,8.47300049 C5.13709178,8.48852474 5.08675223,8.46335496 5.07122798,8.41678222 C5.06820675,8.40771853 5.0666665,8.39822705 5.0666665,8.38867308 L5.0666665,7.84551336 C5.0666665,7.80983697 5.08799681,7.77761727 5.12083984,7.76368387 L6.22335982,7.29594812 C6.23434079,7.29128952 6.24614707,7.28888872 6.25807536,7.28888872 L6.83377761,7.28888872 C6.88286959,7.28888872 6.9226665,7.32868563 6.9226665,7.37777761 L6.9226665,12.1777776 C6.9226665,12.2268696 6.88286959,12.2666665 6.83377761,12.2666665 L6.15822205,12.2666665 C6.10913007,12.2666665 6.06933316,12.2268696 6.06933316,12.1777776 Z M9.19314269,12.2666665 C8.51758713,12.2666665 8.19758713,11.9466665 8.19758713,11.2711109 L8.19758713,8.28444427 C8.19758713,7.60888872 8.51758713,7.28888872 9.19314269,7.28888872 L10.8073649,7.28888872 C11.4829205,7.28888872 11.8029205,7.60888872 11.8029205,8.28444427 L11.8029205,11.2711109 C11.8029205,11.9466665 11.4829205,12.2666665 10.8073649,12.2666665 L9.19314269,12.2666665 Z M9.32114269,11.4844443 L10.6793649,11.4844443 C10.878476,11.4844443 10.9495871,11.4133332 10.9495871,11.2213332 L10.9495871,8.33422205 C10.9495871,8.14222205 10.878476,8.07111094 10.6793649,8.07111094 L9.32114269,8.07111094 C9.12203158,8.07111094 9.05092047,8.14222205 9.05092047,8.33422205 L9.05092047,11.2213332 C9.05092047,11.4133332 9.12203158,11.4844443 9.32114269,11.4844443 Z"></path>
</svg>
