<svg aria-hidden="true" data-icon="bell-regular" role="img" xmlns="http://www.w3.org/2000/svg" viewBox="0 0 512 585.141"><path fill="currentColor" d="M502.159,414.044c-22.08-23.725-63.394-59.417-63.394-176.33,0-88.8-62.263-159.886-146.217-177.326V36.571a36.548,36.548,0,1,0-73.1,0V60.388C135.5,77.828,73.235,148.914,73.235,237.714c0,116.913-41.314,152.605-63.394,176.33A35.71,35.71,0,0,0,0,438.856c.126,18.743,14.834,36.571,36.685,36.571H475.314c21.851,0,36.571-17.828,36.685-36.571a35.691,35.691,0,0,0-9.84-24.812ZM77.178,420.57c24.251-31.966,50.765-84.948,50.891-182.194,0-.228-.069-.434-.069-.662a128,128,0,0,1,256,0c0,.228-.069.434-.069.662.126,97.257,26.64,150.24,50.891,182.194ZM256,585.141A73.129,73.129,0,0,0,329.108,512H182.892A73.129,73.129,0,0,0,256,585.141Z"/></svg>
