<svg aria-hidden="true" data-icon="bell-solid" role="img" xmlns="http://www.w3.org/2000/svg" viewBox="0 0 512 585.183">
<path d="M256,585.183a73.135,73.135,0,0,0,73.111-73.149H182.889A73.135,73.135,0,0,0,256,585.183ZM502.161,414.074c-22.08-23.728-63.393-59.42-63.393-176.344,0-88.8-62.264-159.895-146.222-177.337V36.573a36.546,36.546,0,1,0-73.092,0v23.82C135.5,77.835,73.232,148.925,73.232,237.73c0,116.924-41.313,152.616-63.393,176.344A35.711,35.711,0,0,0,0,438.888c.125,18.744,14.834,36.573,36.685,36.573H475.314c21.851,0,36.573-17.829,36.685-36.573a35.692,35.692,0,0,0-9.838-24.814Z"/>
</svg>
