
<svg xmlns="http://www.w3.org/2000/svg" viewBox="0 0 500 500">
  <path fill="currentColor" d="M420.8 339.6c-18.1-18.1-40.6-40.6-40.6-128.6 0-64.6-47.1-118.2-108.8-128.4 3-4.3 4.6-9.5 4.6-14.8 0-14.4-11.7-26-26-26s-26 11.7-26 26c0 5.5 1.7 10.6 4.6 14.8-61.7 10.2-108.8 63.8-108.8 128.4 0 88-22.5 110.5-40.6 128.6-24.5 24.5-7.1 66.7 27.6 66.7h91.1c0 28.7 23.4 52.1 52.1 52.1s52.1-23.4 52.1-52.1h91.1c34.7-.1 52.2-42.1 27.6-66.7zM250 432.3c-14.4 0-26-11.7-26-26h52c0 14.3-11.6 26-26 26zm143.2-52.1H106.8c-11.6 0-17.4-14.1-9.2-22.2 28.4-28.4 48.2-60.1 48.2-147 0-57.6 46.6-104.2 104.2-104.2S354.2 153.4 354.2 211c0 86.6 19.7 118.5 48.2 147 8.2 8.2 2.3 22.2-9.2 22.2z"/>
</svg>
