<svg viewBox="0 0 512 512" xmlns="http://www.w3.org/2000/svg"><path fill="currentColor" d="m176.25215 287.56357h-39.50473a11.839149 12.078598 0 0 1 -11.85211-11.99044v-39.96781a11.839149 12.078598 0 0 1 11.85211-11.99044h39.50473a11.839149 12.078598 0 0 1 11.85125 11.99044v39.96781a11.839149 12.078598 0 0 1 -11.85125 11.99044zm106.66296-11.99044v-39.96781a11.839149 12.078598 0 0 0 -11.85124-11.99044h-39.50474a11.839149 12.078598 0 0 0 -11.85125 11.99044v39.96781a11.839149 12.078598 0 0 0 11.85125 11.99044h39.50474a11.839149 12.078598 0 0 0 11.85124-11.99044zm94.81258 0v-39.96781a11.839149 12.078598 0 0 0 -11.85211-11.99044h-39.50474a11.839149 12.078598 0 0 0 -11.85125 11.99044v39.96781a11.839149 12.078598 0 0 0 11.85125 11.99044h39.50474a11.839149 12.078598 0 0 0 11.85211-11.99044zm-94.81258 95.92347v-39.96782a11.839149 12.078598 0 0 0 -11.85124-11.99043h-39.50474a11.839149 12.078598 0 0 0 -11.85125 11.99043v39.96782a11.839149 12.078598 0 0 0 11.85125 11.99043h39.50474a11.839149 12.078598 0 0 0 11.85124-11.99043zm-94.81171 0v-39.96782a11.839149 12.078598 0 0 0 -11.85125-11.99043h-39.50473a11.839149 12.078598 0 0 0 -11.85211 11.99043v39.96782a11.839149 12.078598 0 0 0 11.85211 11.99043h39.50473a11.839149 12.078598 0 0 0 11.85125-11.99043zm189.62429 0v-39.96782a11.839149 12.078598 0 0 0 -11.85211-11.99043h-39.50474a11.839149 12.078598 0 0 0 -11.85125 11.99043v39.96782a11.839149 12.078598 0 0 0 11.85125 11.99043h39.50474a11.839149 12.078598 0 0 0 11.85211-11.99043zm94.81171-259.79301v351.71996c0 26.47858-21.23356 47.96173-47.40586 47.96173h-347.644082c-26.172297 0-47.405855-21.48315-47.405855-47.96173v-351.71996c0-26.478581 21.233558-47.961734 47.405855-47.961734h47.405852v-51.95825a11.839149 12.078598 0 0 1 11.85211-11.99043297h39.50473a11.839149 12.078598 0 0 1 11.85125 11.99043297v51.95825h126.41619v-51.95825a11.839149 12.078598 0 0 1 11.85125-11.99043297h39.50474a11.839149 12.078598 0 0 1 11.85211 11.99043297v51.95825h47.40585c26.1723 0 47.40586 21.483153 47.40586 47.961734zm-47.40586 345.72474v-297.76301h-347.644082v297.76301a5.9187106 6.0384174 0 0 0 5.92562 5.99522h335.792842a5.9187106 6.0384174 0 0 0 5.92562-5.99522z" stroke-width=".87286675"/></svg>
