<svg xmlns="http://www.w3.org/2000/svg" viewBox="0 0 500 500">
  <path fill="currentColor" d="M393.2 93.8h-39.1V51.4c0-5.4-4.4-9.8-9.8-9.8h-6.5c-5.4 0-9.8 4.4-9.8 9.8v42.3H171.9V51.4c0-5.4-4.4-9.8-9.8-9.8h-6.5c-5.4 0-9.8 4.4-9.8 9.8v42.3h-39.1c-21.6 0-39.1 17.5-39.1 39.1v286.5c0 21.6 17.5 39.1 39.1 39.1h286.5c21.6 0 39.1-17.5 39.1-39.1V132.8c0-21.6-17.5-39-39.1-39zm-286.4 26h286.5c7.2 0 13 5.9 13 13v39.1H93.8v-39.1c0-7.1 5.8-13 13-13zm286.4 312.5H106.8c-7.2 0-13-5.9-13-13V197.9h312.5v221.4c-.1 7.1-5.9 13-13.1 13zm-205-130.2h-32.6c-5.4 0-9.8-4.4-9.8-9.8v-32.6c0-5.4 4.4-9.8 9.8-9.8h32.6c5.4 0 9.8 4.4 9.8 9.8v32.6c-.1 5.4-4.5 9.8-9.8 9.8zm78.1 0h-32.6c-5.4 0-9.8-4.4-9.8-9.8v-32.6c0-5.4 4.4-9.8 9.8-9.8h32.6c5.4 0 9.8 4.4 9.8 9.8v32.6c-.1 5.4-4.5 9.8-9.8 9.8zm78.1 0h-32.6c-5.4 0-9.8-4.4-9.8-9.8v-32.6c0-5.4 4.4-9.8 9.8-9.8h32.6c5.4 0 9.8 4.4 9.8 9.8v32.6c0 5.4-4.4 9.8-9.8 9.8zm-78.1 78.1h-32.6c-5.4 0-9.8-4.4-9.8-9.8v-32.6c0-5.4 4.4-9.8 9.8-9.8h32.6c5.4 0 9.8 4.4 9.8 9.8v32.6c-.1 5.4-4.5 9.8-9.8 9.8zm-78.1 0h-32.6c-5.4 0-9.8-4.4-9.8-9.8v-32.6c0-5.4 4.4-9.8 9.8-9.8h32.6c5.4 0 9.8 4.4 9.8 9.8v32.6c-.1 5.4-4.5 9.8-9.8 9.8zm156.2 0h-32.6c-5.4 0-9.8-4.4-9.8-9.8v-32.6c0-5.4 4.4-9.8 9.8-9.8h32.6c5.4 0 9.8 4.4 9.8 9.8v32.6c0 5.4-4.4 9.8-9.8 9.8z"/>
</svg>
