<svg width="27" height="20" xmlns="http://www.w3.org/2000/svg"><path d="M26.031 9.973c-1.71-.009-1.994-.04-2.459.223v-.223c-2.043 0-2.413-.076-2.928.232v-.232h-3.528v.228c-.514-.29-.965-.228-3.415-.228v.25c-.284-.165-.654-.25-1.096-.25H9.988l-.708.768c-.573-.63-.474-.518-.7-.768H4.832v4.12h3.7c.149-.155.582-.62.726-.776.573.638.465.522.695.777h2.206c0-.656.005-.37.005-1.027.519.009 1.096-.009 1.547-.277 0 .62-.004.764-.004 1.304h1.786c0-.826.005-.33.005-1.13.28 0 .347 0 .424.005.004.058 0 0 0 1.125 6.893 0 6.582.049 7.07-.201v.2c1.57 0 2.472.099 3.045-.272v4.036c0 1.183-.97 2.143-2.166 2.143H2.21a2.155 2.155 0 0 1-2.165-2.143V8.763h1.2l.289-.683H2.4c.19.447.099.232.288.683h2.387v-.509l.23.51h1.331c.108-.246.117-.26.23-.51v.51h6.113V7.642c.29 0 .361-.005.442.009 0 0-.009.486.005 1.107h3v-.397c.334.263.785.397 1.34.397h1.21c.189-.451.098-.237.288-.683h.857l.298.683H22.8V7.78c.532.88.352.576.595.978h1.877V4.652h-1.8v.821c-.55-.902-.284-.464-.505-.821h-1.954v.92c-.28-.652-.207-.483-.397-.92h-1.461c-.018 0-.104.009-.104-.014h-1.245c-.578 0-1.042.143-1.385.416v-.416h-1.8v.237c-.488-.272-.934-.228-2.906-.237-.004 0-.523-.004-.523 0H6.546c-.113.273-.307.733-.569 1.34-.126-.268-.496-1.063-.627-1.34H3.275v.942l-.406-.942H1.078C.924 4.991.46 6.067.036 7.045V2.143C.036.96 1.006 0 2.2 0h21.656c1.195 0 2.165.96 2.165 2.143v7.83h.01zm-8.418-3.598c-.014.009-.063.098-.063.34 0 .267.04.343.05.352.008.004.049.022.153.022l.329-.754c-.05 0-.095-.005-.14-.005-.253 0-.316.032-.33.045zm-.898 5.844c.415.147.496.424.496.821l-.004.616h-.75l.005-.513c0-.527-.171-.616-.667-.616H15l-.004 1.13h-.749l.005-3.095h1.777c.587 0 1.223.103 1.223.835-.005.34-.19.683-.537.822zm-.284-.688c0-.285-.253-.33-.483-.33H15v.696h.934c.253 0 .497-.058.497-.366zm8.197-.317h1.358v-.652h-1.484c-.578 0-1.074.295-1.074.925 0 1.473 1.926.571 1.926 1.223 0 .227-.194.286-.378.286h-1.444l-.005.66h1.444c.379 0 .794-.08 1.015-.397v-1.152c-.474-.616-1.773-.058-1.773-.603 0-.258.208-.29.415-.29zm-4.475-.013v-.639h-2.49l-.005 3.094h2.49l.005-.638-1.742-.014v-.616h1.71v-.63h-1.705v-.557h1.737zm1.904 1.79h-1.453l-.005.66h1.453c.668 0 1.182-.25 1.182-.981 0-1.482-1.935-.5-1.935-1.174 0-.25.22-.286.415-.286h1.371v-.652h-1.498c-.577 0-1.06.295-1.06.924 0 1.473 1.927.558 1.927 1.223-.005.241-.212.286-.397.286zm-3.524-7.085c-.785-.013-1.498-.183-1.498.88 0 .527.127.888.727.888h.333l1.06-2.433h1.12l1.258 2.92V5.24h1.142l1.312 2.147V5.241h.763v3.08h-1.065l-1.407-2.317v2.317h-1.52l-.299-.683h-1.547l-.289.683h-.866c-1.029 0-1.489-.526-1.489-1.517 0-1.04.474-1.576 1.534-1.576h.727v.678h.004zM19.178 7h1.029l-.505-1.232L19.178 7zm-3.275-1.768h-.763v3.094h.763V5.232zm-1.72 1.665c.43.148.497.411.497.822v.602h-.749c-.013-.66.163-1.12-.667-1.12h-.813v1.12h-.74V5.228l1.765.013c.6 0 1.236.09 1.236.822.004.357-.194.7-.528.834zm-.301-.683c0-.285-.253-.33-.483-.33h-.948v.683h.934c.258 0 .497-.058.497-.353zm-2.685-.33v-.652H8.693v3.094h2.504v-.639H9.442v-.616h1.706v-.629H9.442v-.558h1.755zM7.38 8.326v-2.42l-1.082 2.42h-.659l-1.083-2.42v2.42H3.031l-.288-.683H1.186l-.289.683H.09l1.34-3.094h1.105l1.268 2.933V5.232h1.222l.98 2.098.888-2.098h1.245v3.094H7.38zM2.476 7l-.518-1.232L1.452 7h1.024zm11.415 4.576c0 1.245-1.372 1.04-2.225 1.04l-.004 1.04h-1.453l-.92-1.027-.961 1.027h-2.95l.004-3.094h3l.925 1.018.947-1.018h2.378c.704 0 1.259.242 1.259 1.014zm-5.085.527L8 11.2H6.117v.558h1.638v.63H6.117v.615H7.95l.857-.901zm2.112-1.21l-1.142 1.223 1.142 1.255v-2.478zm2.179.683c0-.272-.208-.375-.46-.375h-.97v.786h.956c.266 0 .474-.125.474-.411z" fill="#006FCF" fill-rule="nonzero"/></svg>