<svg xmlns="http://www.w3.org/2000/svg" viewBox="0 0 500 500">
  <path fill="currentColor" d="M458.3 249.5c-27.4-.1-32-.6-39.4 3.5v-3.5c-32.8 0-38.7-1.2-46.9 3.6v-3.6h-56.5v3.6c-8.2-4.5-15.5-3.6-54.7-3.6v3.9c-4.6-2.6-10.5-3.9-17.6-3.9h-41.9c-2.5 2.7-9 9.6-11.4 12-9.2-9.8-7.6-8.1-11.2-12h-60.1v64.4h59.3c2.4-2.4 9.3-9.7 11.6-12.1 9.2 10 7.4 8.2 11.1 12.1H236c0-10.3.1-5.8.1-16 8.3.1 17.6-.1 24.8-4.3 0 9.7-.1 11.9-.1 20.4h28.6c0-12.9.1-5.2.1-17.6 4.5 0 5.6 0 6.8.1.1.9 0 0 0 17.6 110.5 0 105.5.8 113.3-3.1v3.1c25.2 0 39.6 1.5 48.8-4.3v63.1c0 18.5-15.5 33.5-34.7 33.5H76.5c-19.2 0-34.7-15-34.7-33.5V230.6H61c3-7 1.6-3.7 4.6-10.7h13.9c3 7 1.6 3.6 4.6 10.7h38.2v-8c1.6 3.5.8 1.7 3.7 8h21.3c1.7-3.8 1.9-4 3.7-8v8h98v-17.5c4.6 0 5.8-.1 7.1.1 0 0-.1 7.6.1 17.3h48.1v-6.2c5.4 4.1 12.6 6.2 21.5 6.2h19.4c3-7 1.6-3.7 4.6-10.7h13.7c4.7 10.5.1.3 4.8 10.7h38.2v-15.3c8.5 13.7 5.6 9 9.5 15.3h30.1v-64.2h-28.8v12.8c-8.8-14.1-4.6-7.3-8.1-12.8h-31.3v14.4c-4.5-10.2-3.3-7.5-6.4-14.4h-23.4c-.3 0-1.7.1-1.7-.2h-20c-9.3 0-16.7 2.2-22.2 6.5v-6.5h-28.8v3.7c-7.8-4.3-15-3.6-46.6-3.7-.1 0-8.4-.1-8.4 0H146c-1.8 4.3-4.9 11.4-9.1 20.9-2-4.2-8-16.6-10-20.9H93.6v14.7c-5.4-12.1-3.4-7.7-6.5-14.7H58.4c-2.5 5.5-9.9 22.3-16.7 37.6v-76.6c0-18.5 15.5-33.5 34.7-33.5h347c19.2 0 34.7 15 34.7 33.5v122.3h.2zm-135-56.2c-.2.1-1 1.5-1 5.3 0 4.2.7 5.4.8 5.5.1.1.8.3 2.5.3l5.3-11.8c-.8 0-1.5-.1-2.2-.1-4.1.1-5.1.6-5.4.8zM309 284.6c6.7 2.3 8 6.6 8 12.8l-.1 9.6h-12l.1-8c0-8.2-2.7-9.6-10.7-9.6h-12.7l-.1 17.6h-12l.1-48.3H298c9.4 0 19.6 1.6 19.6 13-.1 5.4-3.1 10.7-8.6 12.9zm-4.6-10.8c0-4.5-4-5.2-7.7-5.2h-15.2v10.9h15c4 .1 7.9-.8 7.9-5.7zm131.4-4.9h21.8v-10.2h-23.8c-9.3 0-17.2 4.6-17.2 14.4 0 23 30.9 8.9 30.9 19.1 0 3.6-3.1 4.5-6.1 4.5h-23.1l-.1 10.3h23.1c6.1 0 12.7-1.3 16.3-6.2v-18c-7.6-9.6-28.4-.9-28.4-9.4-.1-4 3.2-4.5 6.6-4.5zm-71.7-.2v-10h-39.9l-.1 48.3H364l.1-10-27.9-.2v-9.6h27.4v-9.8h-27.3v-8.7h27.8zm30.5 28h-23.3l-.1 10.3h23.3c10.7 0 18.9-3.9 18.9-15.3 0-23.2-31-7.8-31-18.3 0-3.9 3.5-4.5 6.7-4.5h22v-10.2h-24c-9.3 0-17 4.6-17 14.4 0 23 30.9 8.7 30.9 19.1-.1 3.8-3.5 4.5-6.4 4.5zM338.1 186c-12.6-.2-24-2.9-24 13.7 0 8.2 2 13.9 11.6 13.9h5.4l17-38H366l20.2 45.6v-45.6h18.3l21 33.6v-33.6h12.2v48.1h-17.1L398 187.5v36.2h-24.4L369 213h-24.8l-4.6 10.7h-13.9c-16.5 0-23.9-8.2-23.9-23.7 0-16.3 7.6-24.6 24.6-24.6H338l.1 10.6zm10.3 17h16.5l-8.1-19.3-8.4 19.3zm-52.5-27.6h-12.2v48.3h12.2v-48.3zm-27.5 26c6.9 2.3 8 6.4 8 12.8v9.4h-12c-.2-10.3 2.6-17.5-10.7-17.5h-13v17.5h-11.9v-48.3l28.3.2c9.6 0 19.8 1.4 19.8 12.8 0 5.7-3.1 11-8.5 13.1zm-4.8-10.6c0-4.5-4-5.2-7.7-5.2h-15.2v10.7h15c4 0 7.9-.9 7.9-5.5zm-43.1-5.2v-10.2h-40.1v48.3h40.1v-10h-28.1v-9.6h27.3v-9.8h-27.3v-8.7h28.1zm-61.1 38.2V186L142 223.8h-10.6L114.1 186v37.8H89.7L85 213.1H60.1l-4.6 10.7h-13L64 175.4h17.7l20.3 45.8v-45.8h19.6l15.7 32.8 14.2-32.8h20v48.3h-12.1v.1zM80.8 203l-8.3-19.3-8.1 19.3h16.4zm182.9 71.5c0 19.5-22 16.3-35.6 16.3L228 307h-23.3L190 291l-15.4 16h-47.3l.1-48.3h48.1l14.8 15.9 15.2-15.9h38.1c11.2 0 20.1 3.8 20.1 15.8zm-81.5 8.3l-12.9-14.1h-30.1v8.7h26.2v9.8h-26.2v9.6h29.4l13.6-14zm33.9-18.9L197.8 283l18.3 19.6v-38.7zm34.9 10.6c0-4.3-3.3-5.9-7.4-5.9h-15.5V281h15.3c4.3 0 7.6-2 7.6-6.5z"/>
</svg>
