<svg width="26" height="20" xmlns="http://www.w3.org/2000/svg"><path d="M3.747 8.04c0 .353-.145.692-.402.924-.221.197-.524.286-.989.286h-.19V6.83h.19c.465 0 .754.076.989.295.257.223.402.563.402.915zm19.04-1.254h-.222v1.111h.212c.465 0 .713-.196.713-.571 0-.353-.248-.54-.704-.54zM26 2.143v15.714C26 19.04 25.03 20 23.833 20H2.167C.97 20 0 19.04 0 17.857V2.143C0 .96.97 0 2.167 0h21.666C25.03 0 26 .96 26 2.143zm-6.68 7.723h2.044V9.25h-1.322v-.991h1.277v-.616h-1.277V6.83h1.322v-.625H19.32v3.661zm-3.892-3.66l1.58 3.758h.389l1.602-3.759h-.79L17.207 8.67l-.989-2.465h-.79zm-3.746 1.856c0 1.099.898 1.992 2.013 1.992 1.11 0 2.013-.889 2.013-1.992a2.001 2.001 0 0 0-2.013-1.99c-1.11 0-2.013.888-2.013 1.99zm-3.07-.022c0 1.451 1.517 2.344 2.858 1.706v-.849c-.871.862-2.113.26-2.113-.857 0-1.058 1.206-1.745 2.113-.848v-.848c-1.363-.67-2.857.303-2.857 1.696zm-1.53 1.264a.856.856 0 0 1-.79-.483l-.465.442c.804 1.166 2.555.813 2.555-.504 0-.585-.243-.848-1.065-1.143-.433-.152-.555-.263-.555-.46 0-.388.654-.63 1.124-.111l.379-.482c-.862-.764-2.243-.398-2.243.638 0 .504.234.768.911 1.013 1.16.407.664 1.09.15 1.09zM4.492 8.04c0-1.076-.813-1.835-1.991-1.835H1.444v3.661h1.057c1.394 0 1.99-1 1.99-1.826zm1.056-1.835h-.723v3.661h.723v-3.66zm19.008 5.224c-1.504.928-10.22 5.553-18.778 7.142h18.1c.37 0 .678-.303.678-.67V11.43zm0-1.563l-1.17-1.54c.547-.112.845-.473.845-1.036 0-1.272-1.368-1.09-2.388-1.09v3.662h.722V8.397h.1l1.001 1.465h.89v.004z" fill="#FF6602" fill-rule="nonzero"/></svg>