<svg xmlns="http://www.w3.org/2000/svg" viewBox="0 0 500 500">
  <path fill="currentColor" d="M101.7 219.3c0 5.5-2.3 10.8-6.4 14.4-3.5 3.1-8.4 4.5-15.8 4.5h-3v-37.8h3c7.5 0 12.1 1.2 15.8 4.6 4.1 3.5 6.4 8.8 6.4 14.3zm305.1-19.6h-3.5v17.4h3.4c7.5 0 11.4-3.1 11.4-8.9 0-5.6-4-8.5-11.3-8.5zm51.5-72.6v245.5c0 18.5-15.6 33.5-34.7 33.5H76.4c-19.2 0-34.7-15-34.7-33.5V127.1c0-18.5 15.6-33.5 34.7-33.5h347.2c19.2.1 34.7 15.1 34.7 33.5zm-107 120.7H384v-9.6h-21.2v-15.5h20.5v-9.6h-20.5v-12.7H384v-9.8h-32.8l.1 57.2zm-62.4-57.2l25.3 58.7h6.2l25.7-58.7h-12.7l-16.1 38.5-15.8-38.5h-12.6zm-60 29c0 17.2 14.4 31.1 32.3 31.1 17.8 0 32.3-13.9 32.3-31.1-.1-17.1-14.5-31.1-32.4-31.1-17.8 0-32.2 13.9-32.2 31.1zm-49.2-.3c0 22.7 24.3 36.6 45.8 26.6v-13.3c-14 13.5-33.9 4-33.9-13.4 0-16.5 19.3-27.3 33.9-13.3v-13.1c-21.9-10.5-45.8 4.7-45.8 26.5zM155.2 239c-5.5 0-10-2.6-12.7-7.5l-7.5 6.9c12.9 18.2 40.9 12.7 40.9-7.9 0-9.1-3.9-13.3-17.1-17.9-6.9-2.4-8.9-4.1-8.9-7.2 0-6.1 10.5-9.8 18-1.7l6.1-7.5c-13.8-11.9-36-6.2-36 10 0 7.9 3.8 12 14.6 15.8 18.8 6.4 10.8 17 2.6 17zm-41.6-19.7c0-16.8-13-28.7-31.9-28.7H64.8v57.2h16.9c22.4 0 31.9-15.6 31.9-28.5zm17-28.7H119v57.2h11.6v-57.2zm304.6 81.6c-24.1 14.5-163.8 86.8-300.9 111.6h290.1c5.9 0 10.9-4.7 10.9-10.5V272.2h-.1zm0-24.4l-18.7-24.1c8.8-1.7 13.5-7.4 13.5-16.2 0-19.9-21.9-17-38.3-17v57.2h11.6v-22.9h1.6l16.1 22.9 14.2.1z"/>
</svg>
