<svg xmlns="http://www.w3.org/2000/svg" viewBox="0 0 500 500">
  <path fill="currentColor" d="M423.6 88H76.4c-19.2 0-34.7 15.6-34.7 34.7v254.6c0 19.2 15.6 34.7 34.7 34.7h347.2c19.2 0 34.7-15.6 34.7-34.7V122.7c0-19.2-15.5-34.7-34.7-34.7zM76.4 111.1h347.2c6.4 0 11.6 5.2 11.6 11.6v34.7H64.8v-34.7c0-6.4 5.2-11.6 11.6-11.6zm347.2 277.8H76.4c-6.4 0-11.6-5.2-11.6-11.6V226.9h370.4v150.5c0 6.3-5.2 11.5-11.6 11.5zm-243-60.8v5.8c0 4.8-3.9 8.7-8.7 8.7h-52.1c-4.8 0-8.7-3.9-8.7-8.7v-5.8c0-4.8 3.9-8.7 8.7-8.7h52.1c4.7 0 8.7 4 8.7 8.7zm138.8 0v5.8c0 4.8-3.9 8.7-8.7 8.7h-98.4c-4.8 0-8.7-3.9-8.7-8.7v-5.8c0-4.8 3.9-8.7 8.7-8.7h98.4c4.8 0 8.7 4 8.7 8.7z"/>
</svg>
