<svg xmlns="http://www.w3.org/2000/svg" viewBox="0 0 500 500">
  <path fill="currentColor" d="M391 356.9c0 4.7-3.3 8.2-8.1 8.2-4.9 0-8.1-3.6-8.1-8.2 0-4.5 3.2-8.2 8.1-8.2 4.8 0 8.1 3.6 8.1 8.2zm-224.8-8.2c-5.1 0-8.1 3.6-8.1 8.2 0 4.5 3 8.2 8.1 8.2 4.7 0 7.9-3.4 7.9-8.2-.1-4.6-3.2-8.2-7.9-8.2zm85-.2c-3.9 0-6.3 2.4-6.9 6.1h13.8c-.6-4-3.2-6.1-6.9-6.1zm77.9.2c-4.9 0-7.9 3.6-7.9 8.2 0 4.5 3 8.2 7.9 8.2s8.1-3.4 8.1-8.2c0-4.6-3.1-8.2-8.1-8.2zm76.6 18.2c0 .2.2.3.2.8 0 .2-.2.3-.2.8-.2.2-.2.3-.4.6-.2.2-.4.3-.8.3-.2.2-.4.2-.8.2-.2 0-.4 0-.8-.2-.2 0-.4-.2-.6-.3-.2-.2-.4-.3-.4-.6-.2-.3-.2-.6-.2-.8 0-.3 0-.6.2-.8 0-.3.2-.6.4-.8.2-.2.4-.2.6-.3.4-.2.6-.2.8-.2.4 0 .6 0 .8.2.4.2.6.2.8.3.3.2.2.4.4.8zm-1.5 1c.4 0 .4-.2.6-.2.2-.2.2-.3.2-.6s0-.3-.2-.6c-.2 0-.4-.2-.8-.2h-1.2v2.4h.6v-1h.2l.8 1h.6l-.8-.8zm54.1-240.8v245.5c0 18.5-15.6 33.5-34.7 33.5H76.4c-19.2 0-34.7-15-34.7-33.5V127.1c0-18.5 15.6-33.5 34.7-33.5h347.2c19.2.1 34.7 15.1 34.7 33.5zM88 224.5c0 53.4 44.9 96.6 100.2 96.6 19.7 0 39-5.7 55.3-16.1-52.7-41.4-52.4-119.4 0-160.8-16.3-10.5-35.7-16.1-55.3-16.1-55.3 0-100.2 43.3-100.2 96.4zm162 75.9c51-38.4 50.8-113.1 0-151.7-50.8 38.6-51 113.4 0 151.7zm-102.9 53.2c0-6.1-4.1-10-10.6-10.3-3.3 0-6.9 1-9.3 4.5-1.7-2.9-4.7-4.5-8.8-4.5-2.7 0-5.5 1-7.7 3.8V344h-5.9v25.6h5.9c0-13.2-1.8-21.1 6.5-21.1 7.4 0 5.9 7.1 5.9 21.1h5.7c0-12.8-1.8-21.1 6.5-21.1 7.4 0 5.9 7 5.9 21.1h5.9v-16zm32.4-9.5h-5.7v3.1c-2-2.3-4.7-3.8-8.5-3.8-7.5 0-13.2 5.7-13.2 13.5s5.7 13.5 13.2 13.5c3.8 0 6.5-1.3 8.5-3.8v3.2h5.7v-25.7zm29.3 17.8c0-10.5-16.6-5.7-16.6-10.6 0-4 8.6-3.3 13.4-.8l2.4-4.5c-6.8-4.3-21.8-4.2-21.8 5.7 0 10 16.6 5.8 16.6 10.5 0 4.4-9.8 4-15 .6l-2.5 4.4c8.1 5.3 23.5 4.2 23.5-5.3zm25.6 6.5l-1.6-4.7c-2.7 1.5-8.8 3.1-8.8-2.9v-11.6h9.5V344H224v-7.8h-5.9v7.8h-5.5v5.1h5.5v11.6c0 12.4 12.5 10.2 16.3 7.7zm9.7-9.3H264c0-11.3-5.4-15.8-12.6-15.8-7.7 0-13.2 5.5-13.2 13.5 0 14.3 16.3 16.7 24.5 9.9l-2.7-4.2c-5.7 4.5-14.3 4-15.9-3.4zm42.7-15c-3.3-1.4-8.4-1.3-11 3.1v-3.1h-5.9v25.6h5.9v-14.4c0-8.1 6.9-7 9.3-5.9l1.7-5.3zm7.7 12.8c0-8 8.4-10.5 15-5.9l2.7-4.5c-8.4-6.3-23.7-2.9-23.7 10.5 0 13.8 16.2 16.6 23.7 10.5l-2.7-4.5c-6.7 4.4-15 1.7-15-6.1zm48.2-12.8h-5.9v3.1c-6-7.7-21.6-3.3-21.6 9.7 0 13.4 16.2 17.2 21.6 9.7v3.2h5.9v-25.7zm24.4 0c-1.7-.8-8-2-11 3.1v-3.1h-5.7v25.6h5.7v-14.4c0-7.7 6.5-7.2 9.3-5.9l1.7-5.3zm29.2-10.4h-5.7v13.5c-5.9-7.6-21.6-3.6-21.6 9.7 0 13.5 16.3 17.2 21.6 9.7v3.2h5.7v-36.1zm5.5-52.4v3.2h.6v-3.2h1.4v-.6h-3.3v.6h1.3zm4.7 86.4c0-.3 0-.8-.2-1.1-.2-.2-.4-.6-.6-.8-.2-.2-.6-.3-.8-.6-.4 0-.8-.2-1.2-.2-.2 0-.6.2-1 .2-.4.2-.6.3-.8.6-.4.2-.6.6-.6.8-.2.3-.2.8-.2 1.1 0 .2 0 .6.2 1 0 .2.2.6.6.8.2.2.4.3.8.6.4.2.8.2 1 .2.4 0 .8 0 1.2-.2.2-.2.6-.3.8-.6.2-.2.4-.6.6-.8.2-.5.2-.8.2-1zm2.4-87h-1l-1.2 2.4-1.2-2.4h-1v3.8h.6v-2.9l1.2 2.4h.8l1-2.4v2.9h.8v-3.8zm3.1-56.2c0-53.2-44.9-96.5-100.2-96.5-19.7 0-39 5.7-55.3 16.1 52.2 41.4 53 119.6 0 160.8 16.3 10.5 35.8 16.1 55.3 16.1 55.3.1 100.2-43.1 100.2-96.5z"/>
</svg>
