<svg width="26" height="20" xmlns="http://www.w3.org/2000/svg"><path d="M21.798 16.844c0 .303-.208.522-.506.522-.307 0-.506-.232-.506-.522 0-.29.2-.523.506-.523.298 0 .506.233.506.523zm-14.03-.523c-.32 0-.505.233-.505.523 0 .29.185.522.505.522.294 0 .492-.219.492-.522-.004-.29-.198-.523-.492-.523zm5.304-.013c-.244 0-.392.156-.429.388h.863c-.041-.254-.2-.388-.434-.388zm4.866.013c-.307 0-.492.233-.492.523 0 .29.185.522.492.522s.506-.219.506-.522c0-.29-.199-.523-.506-.523zm4.78 1.166c0 .013.014.022.014.049 0 .013-.014.022-.014.049-.013.013-.013.022-.022.036-.014.013-.023.022-.05.022-.013.013-.022.013-.05.013-.013 0-.022 0-.05-.013-.013 0-.022-.014-.035-.022-.014-.014-.023-.023-.023-.036-.013-.023-.013-.036-.013-.05 0-.022 0-.035.013-.048 0-.023.014-.036.023-.05.013-.013.022-.013.036-.022.022-.013.036-.013.05-.013.022 0 .036 0 .05.013.022.014.035.014.049.023.013.008.009.026.022.049zm-.099.062c.023 0 .023-.013.036-.013.014-.014.014-.023.014-.036 0-.013 0-.022-.014-.036-.013 0-.022-.013-.05-.013h-.072v.156h.036v-.062h.014l.05.062h.036l-.05-.058zM26 2.143v15.714C26 19.04 25.03 20 23.833 20H2.167C.97 20 0 19.04 0 17.857V2.143C0 .96.97 0 2.167 0h21.666C25.03 0 26 .96 26 2.143zM2.889 8.375c0 3.415 2.803 6.183 6.252 6.183a6.344 6.344 0 0 0 3.453-1.031c-3.29-2.648-3.268-7.643 0-10.29A6.307 6.307 0 0 0 9.14 2.205c-3.449-.004-6.252 2.768-6.252 6.17zM13 13.232c3.182-2.455 3.169-7.24 0-9.71-3.169 2.47-3.182 7.26 0 9.71zm-6.423 3.406c0-.388-.258-.642-.664-.656-.207 0-.429.063-.578.29-.108-.183-.293-.29-.55-.29a.575.575 0 0 0-.479.241v-.196h-.37v1.638h.37c0-.844-.113-1.348.407-1.348.46 0 .37.455.37 1.348h.356c0-.817-.113-1.348.406-1.348.46 0 .37.446.37 1.348h.37v-1.027h-.008zm2.026-.611h-.356v.196a.653.653 0 0 0-.528-.24c-.465 0-.822.365-.822.86 0 .5.357.862.822.862a.629.629 0 0 0 .528-.24v.205h.356v-1.643zm1.829 1.143c0-.67-1.034-.366-1.034-.679 0-.254.537-.214.835-.049l.149-.29c-.424-.273-1.363-.268-1.363.366 0 .638 1.033.37 1.033.67 0 .28-.609.258-.934.035l-.158.281c.506.34 1.472.268 1.472-.334zm1.598.415l-.1-.304c-.171.094-.55.197-.55-.183v-.74h.59v-.331h-.59v-.5h-.37v.5h-.344v.326h.343v.745c0 .786.781.643 1.02.487zm.6-.598h1.241c0-.724-.334-1.01-.785-1.01-.479 0-.822.353-.822.862 0 .915 1.02 1.067 1.526.634l-.172-.268c-.352.286-.884.26-.988-.218zm2.668-.96c-.208-.09-.524-.08-.687.196v-.196h-.37v1.638h.37v-.924c0-.518.43-.45.578-.375l.109-.34zm.478.817c0-.51.524-.674.934-.375l.172-.29c-.524-.407-1.476-.183-1.476.67 0 .883 1.011 1.062 1.476.669l-.172-.29c-.415.29-.934.116-.934-.384zm3.01-.817h-.37v.196c-.374-.49-1.349-.214-1.349.62 0 .858 1.011 1.103 1.35.621v.206h.37v-1.643zm1.522 0c-.108-.054-.497-.13-.686.196v-.196h-.357v1.638h.357v-.924c0-.491.406-.46.578-.375l.108-.34zm1.82-.665h-.358v.861c-.37-.486-1.35-.227-1.35.62 0 .867 1.016 1.099 1.35.621v.206h.357v-2.308zm.342-3.353v.205h.036v-.205h.086v-.036h-.208v.036h.086zm.298 5.527c0-.023 0-.05-.013-.072-.014-.013-.023-.035-.037-.049-.013-.013-.036-.022-.05-.036-.022 0-.049-.013-.071-.013-.014 0-.037.013-.064.013a.236.236 0 0 0-.05.036c-.022.014-.035.036-.035.05-.014.022-.014.048-.014.07 0 .014 0 .036.014.063 0 .014.013.036.036.05a.156.156 0 0 0 .05.035c.022.013.049.013.063.013.022 0 .05 0 .072-.013.013-.013.036-.022.05-.036.013-.013.022-.035.036-.049.013-.027.013-.049.013-.062zm.145-5.567h-.064l-.072.156-.072-.156h-.063v.24h.036v-.182l.072.156h.05l.063-.156v.183h.05v-.241zm.198-3.594c0-3.402-2.803-6.174-6.252-6.174a6.344 6.344 0 0 0-3.453 1.031c3.255 2.647 3.304 7.656 0 10.29a6.329 6.329 0 0 0 3.453 1.032c3.449.004 6.252-2.764 6.252-6.179z" fill="#000" fill-rule="nonzero"/></svg>