<svg xmlns="http://www.w3.org/2000/svg" viewBox="0 0 500 500">
  <path fill="currentColor" d="M381.7 236.3s5.5 26.6 6.7 32.2h-24.2c2.4-6.4 11.6-31.1 11.6-31.1-.1.2 2.4-6.5 3.8-10.7l2.1 9.6zm76.6-109.2v245.5c0 18.5-15.6 33.5-34.7 33.5H76.4c-19.2 0-34.7-15-34.7-33.5V127.1c0-18.5 15.6-33.5 34.7-33.5h347.2c19.2.1 34.7 15.1 34.7 33.5zM152 307.7l45.7-111H167l-28.4 75.8-3.1-15.4-10.1-51.1c-1.7-7.1-6.8-9.1-13.2-9.4H65.3l-.5 2.2c11.4 2.9 21.6 7 30.5 12.2l25.9 96.6H152zm68.3.2l18.2-111.2h-29.1l-18.2 111.2h29.1zm101.2-36.4c.1-12.7-7.7-22.3-24.4-30.3-10.2-5.1-16.4-8.5-16.4-13.7.1-4.7 5.3-9.6 16.7-9.6 9.5-.2 16.4 2 21.6 4.2l2.6 1.2 4-24c-5.7-2.2-14.8-4.7-26-4.7-28.7 0-48.9 15.2-49 36.8-.2 16 14.5 24.8 25.5 30.2 11.2 5.4 15 9 15 13.8-.1 7.4-9.1 10.9-17.4 10.9-11.6 0-17.8-1.8-27.3-5.9l-3.8-1.8-4.1 25c6.8 3.1 19.4 5.8 32.4 5.9 30.5 0 50.4-14.9 50.6-38zm102.1 36.4l-23.4-111.2h-22.5c-6.9 0-12.2 2-15.2 9.2l-43.2 101.9h30.5s5-13.7 6.1-16.7h37.3c.9 3.9 3.5 16.7 3.5 16.7h26.9z"/>
</svg>
