<svg width="26" height="20" xmlns="http://www.w3.org/2000/svg"><path d="M21.22 8.897s.343 1.661.42 2.01h-1.508c.149-.398.722-1.943.722-1.943-.009.014.15-.406.24-.665l.126.598zM26 2.143v15.714C26 19.04 25.03 20 23.833 20H2.167C.97 20 0 19.04 0 17.857V2.143C0 .96.97 0 2.167 0h21.666C25.03 0 26 .96 26 2.143zM6.884 13.357L9.736 6.43H7.818L6.044 11.16l-.194-.96-.632-3.188c-.104-.442-.424-.567-.821-.584H1.476l-.032.138c.714.179 1.35.437 1.905.763l1.616 6.027h1.919zm4.26.01l1.138-6.938h-1.814l-1.133 6.937h1.81zm6.316-2.269c.009-.79-.479-1.393-1.521-1.888-.637-.317-1.025-.531-1.025-.857.009-.295.33-.599 1.043-.599a3.14 3.14 0 0 1 1.35.264l.162.076.248-1.5a4.552 4.552 0 0 0-1.625-.295c-1.792 0-3.051.947-3.06 2.295-.014.995.902 1.549 1.588 1.884.7.339.94.562.94.861-.01.465-.57.679-1.088.679-.723 0-1.11-.112-1.702-.37l-.24-.112-.252 1.558c.424.192 1.21.361 2.022.37 1.905.005 3.146-.928 3.16-2.366zm6.373 2.268L22.371 6.43h-1.404c-.433 0-.763.125-.948.575l-2.695 6.362h1.905s.312-.857.38-1.04h2.328c.055.245.217 1.04.217 1.04h1.68z" fill="#192061" fill-rule="nonzero"/></svg>