<svg xmlns="http://www.w3.org/2000/svg" viewBox="0 0 500 500">
  <path fill="currentColor" d="M250 48.2C138.5 48.2 48.2 138.5 48.2 250S138.5 451.8 250 451.8 451.8 361.5 451.8 250 361.5 48.2 250 48.2zm0 377.6c-96.6 0-175.8-78.2-175.8-175.8 0-96.6 78.2-175.8 175.8-175.8 96.6 0 175.8 78.2 175.8 175.8 0 96.6-78.2 175.8-175.8 175.8zM365.3 202L218.4 347.7c-3.8 3.8-10 3.8-13.8-.1l-69.9-70.5c-3.8-3.8-3.8-10 .1-13.8l6.9-6.9c3.8-3.8 10-3.8 13.8.1l56.1 56.6 133-131.9c3.8-3.8 10-3.8 13.8.1l6.9 6.9c3.8 3.8 3.8 10 0 13.8z"/>
</svg>
