<svg width="10" height="10" xmlns="http://www.w3.org/2000/svg"><path d="M9.677 8.122c.43.431.43 1.129 0 1.56a1.11 1.11 0 0 1-.784.327c-.275 0-.56-.112-.775-.328L5 6.563 1.882 9.681a1.11 1.11 0 0 1-.784.328c-.275 0-.56-.112-.775-.328a1.102 1.102 0 0 1 0-1.559l3.118-3.118L.323 1.886a1.102 1.102 0 0 1 0-1.559C.538.112.823 0 1.098 0c.284 0 .569.112.784.327L5 3.445 8.118.327c.215-.215.5-.327.775-.327.284 0 .569.112.784.327.43.431.43 1.129 0 1.56L6.559 5.003l3.118 3.118z" fill="#E4002B" fill-rule="evenodd"/></svg>
