<svg viewBox="0 0 500 500">
<path fill="currentColor" d="M250,0C111.929,0,0,111.929,0,250S111.929,500,250,500,500,388.071,500,250,388.071,0,250,0ZM355.342,339.208l-16.134,16.134a7.092,7.092,0,0,1-10.029,0L250,276.163l-79.179,79.179a7.092,7.092,0,0,1-10.029,0l-16.134-16.134a7.092,7.092,0,0,1,0-10.029L223.837,250l-79.179-79.179a7.092,7.092,0,0,1,0-10.029l16.134-16.134a7.092,7.092,0,0,1,10.029,0L250,223.837l79.179-79.179a7.092,7.092,0,0,1,10.029,0l16.134,16.134a7.092,7.092,0,0,1,0,10.029L276.163,250l79.179,79.179A7.092,7.092,0,0,1,355.342,339.208Z"/>
</svg>