<svg xmlns="http://www.w3.org/2000/svg" viewBox="0 0 500 500">
  <path fill="currentColor" d="M250 48.2C138.5 48.2 48.2 138.5 48.2 250S138.5 451.8 250 451.8 451.8 361.5 451.8 250 361.5 48.2 250 48.2zm77.1 145.4L270.8 250l56.4 56.4c3.8 3.8 3.8 10 0 13.8l-6.9 6.9c-3.8 3.8-10 3.8-13.8 0L250 270.8l-56.4 56.4c-3.8 3.8-10 3.8-13.8 0l-6.9-6.9c-3.8-3.8-3.8-10 0-13.8l56.4-56.4-56.4-56.4c-3.8-3.8-3.8-10 0-13.8l6.9-6.9c3.8-3.8 10-3.8 13.8 0l56.4 56.4 56.4-56.4c3.8-3.8 10-3.8 13.8 0l6.9 6.9c3.8 3.7 3.8 9.9 0 13.7z"/>
</svg>
