<svg viewBox="0 0 16 16" version="1.1">
  <path fill="currentColor" d="M12.015008,12.8792035 C11.5016266,13.270533 10.9250434,13.5884978 10.3023808,13.8166292 L9.92197097,15.6460384 C9.87909867,15.8522134 9.69741976,16 9.48683453,16 L6.51316547,16 C6.30258024,16 6.12090133,15.8522134 6.07802903,15.6460384 L5.69761917,13.8166292 C5.07495663,13.5884978 4.49837335,13.270533 3.98499203,12.8792035 L2.14064078,13.4874949 C1.94065189,13.5534539 1.72182545,13.4700086 1.61653284,13.2876365 L0.129698307,10.7123635 C0.0244056925,10.5299914 0.0615532263,10.2987595 0.21866981,10.1585435 L1.60161134,8.92436136 C1.55491084,8.62276373 1.53071301,8.3140998 1.53071301,8 C1.53071301,7.6859002 1.55491084,7.37723627 1.60161134,7.07563864 L0.21866981,5.84145647 C0.0615532263,5.7012405 0.0244056925,5.47000863 0.129698307,5.28763648 L1.61653284,2.71236352 C1.72182545,2.52999137 1.94065189,2.44654614 2.14064078,2.51250511 L3.98499203,3.12079646 C4.49837335,2.72946705 5.07495663,2.41150224 5.69761917,2.18337082 L6.07802903,0.353961579 C6.12090133,0.147786642 6.30258024,1.49706181e-16 6.51316547,1.11022302e-16 L9.48683453,-1.11022302e-16 C9.69741976,-1.49706181e-16 9.87909867,0.147786642 9.92197097,0.353961579 L10.3023808,2.18337082 C10.9250434,2.41150224 11.5016266,2.72946705 12.015008,3.12079646 L13.8593592,2.51250511 C14.0593481,2.44654614 14.2781745,2.52999137 14.3834672,2.71236352 L15.8703017,5.28763648 C15.9755943,5.47000863 15.9384468,5.7012405 15.7813302,5.84145647 L14.3983887,7.07563864 C14.4450892,7.37723627 14.469287,7.6859002 14.469287,8 C14.469287,8.3140998 14.4450892,8.62276373 14.3983887,8.92436136 L15.7813302,10.1585435 C15.9384468,10.2987595 15.9755943,10.5299914 15.8703017,10.7123635 L14.3834672,13.2876365 C14.2781745,13.4700086 14.0593481,13.5534539 13.8593592,13.4874949 L12.015008,12.8792035 Z M8,12.4444444 C10.5520632,12.4444444 12.6209193,10.4545989 12.6209193,8 C12.6209193,5.54540111 10.5520632,3.55555556 8,3.55555556 C5.44793675,3.55555556 3.37908072,5.54540111 3.37908072,8 C3.37908072,10.4545989 5.44793675,12.4444444 8,12.4444444 Z"></path>
</svg>
