<svg xmlns="http://www.w3.org/2000/svg" viewBox="0 0 500 500">
  <path fill="currentColor" d="M434.5 285.2L408 269.9c1.7-13.2 1.7-26.6 0-39.8l26.5-15.3c7.8-4.5 11.6-13.8 9-22.4-9.1-30.7-25.4-58.4-46.8-81.1-6.2-6.6-16.1-8-24-3.5l-26.5 15.3c-10.6-8.1-22.2-14.8-34.5-19.9V72.6c0-9.1-6.2-16.9-15-19-30.6-7.3-62.8-7.3-93.4 0-8.8 2.1-15 10-15 19v30.6c-12.3 5.2-23.9 11.9-34.5 19.9l-26.5-15.3c-7.8-4.5-17.7-3.1-24 3.5-21.5 22.7-37.7 50.3-46.8 81.1-2.6 8.6 1.2 17.9 9 22.4L92 230.1c-1.7 13.2-1.7 26.6 0 39.8l-26.5 15.3c-7.8 4.5-11.6 13.8-9 22.4 9.1 30.7 25.4 58.4 46.8 81.1 6.2 6.6 16.1 8 24 3.5l26.5-15.3c10.6 8.1 22.2 14.8 34.5 19.9v30.6c0 9.1 6.2 16.9 15 19 30.6 7.3 62.8 7.3 93.4 0 8.8-2.1 15-10 15-19v-30.6c12.3-5.2 23.9-11.9 34.5-19.9l26.5 15.3c7.8 4.5 17.7 3.1 24-3.5 21.5-22.7 37.7-50.3 46.8-81.1 2.5-8.6-1.2-17.9-9-22.4zM381.2 367l-37.7-21.8c-22 18.8-29.8 23.5-57.8 33.4v43.5c-23.6 4.9-47.8 4.9-71.4 0v-43.5c-27.4-9.7-35.3-14.2-57.8-33.4L118.8 367c-16-18-28.2-39.1-35.7-61.8l37.7-21.8c-5.3-28.8-5.3-38 0-66.8l-37.7-21.8c7.5-22.8 19.7-43.8 35.7-61.8l37.7 21.8c22.3-19.1 30.2-23.7 57.8-33.4V77.9c23.6-4.9 47.8-4.9 71.4 0v43.5c27.7 9.8 35.5 14.4 57.8 33.4l37.7-21.8c16 18 28.2 39.1 35.7 61.8l-37.7 21.8c5.3 28.8 5.3 38 0 66.8l37.7 21.8c-7.5 22.7-19.7 43.8-35.7 61.8z"/>
  <path fill="currentColor" d="M250 171.9c-43.1 0-78.1 35-78.1 78.1 0 43.1 35 78.1 78.1 78.1 43.1 0 78.1-35 78.1-78.1 0-43.1-35-78.1-78.1-78.1zm0 130.2c-28.7 0-52.1-23.4-52.1-52.1s23.4-52.1 52.1-52.1 52.1 23.4 52.1 52.1-23.4 52.1-52.1 52.1z"/>
</svg>
