<svg width="22px" height="16px" viewBox="0 0 22 16" version="1.1">
  <path fill="#FFFFFF" d="M11.3340733,2.66666667 L9.77777778,2.66666667 C9.11742849,2.66666667 8.54117007,3.02670251 8.23459301,3.56118374 C8.1568855,3.55744651 8.07867235,3.55555556 8,3.55555556 C5.44793675,3.55555556 3.37908072,5.54540111 3.37908072,8 C3.37908072,10.4545989 5.44793675,12.4444444 8,12.4444444 C8.07867235,12.4444444 8.1568855,12.4425535 8.23459301,12.4388163 C8.54117007,12.9732975 9.11742849,13.3333333 9.77777778,13.3333333 L11.3340733,13.3333333 C11.0078313,13.5224054 10.6628266,13.6845689 10.3023808,13.8166292 L9.92197097,15.6460384 C9.87909867,15.8522134 9.69741976,16 9.48683453,16 L6.51316547,16 C6.30258024,16 6.12090133,15.8522134 6.07802903,15.6460384 L5.69761917,13.8166292 C5.07495663,13.5884978 4.49837335,13.270533 3.98499203,12.8792035 L2.14064078,13.4874949 C1.94065189,13.5534539 1.72182545,13.4700086 1.61653284,13.2876365 L0.129698307,10.7123635 C0.0244056925,10.5299914 0.0615532263,10.2987595 0.21866981,10.1585435 L1.60161134,8.92436136 C1.55491084,8.62276373 1.53071301,8.3140998 1.53071301,8 C1.53071301,7.6859002 1.55491084,7.37723627 1.60161134,7.07563864 L0.21866981,5.84145647 C0.0615532263,5.7012405 0.0244056925,5.47000863 0.129698307,5.28763648 L1.61653284,2.71236352 C1.72182545,2.52999137 1.94065189,2.44654614 2.14064078,2.51250511 L3.98499203,3.12079646 C4.49837335,2.72946705 5.07495663,2.41150224 5.69761917,2.18337082 L6.07802903,0.353961579 C6.12090133,0.147786642 6.30258024,1.49706181e-16 6.51316547,1.11022302e-16 L9.48683453,-1.11022302e-16 C9.69741976,-1.49706181e-16 9.87909867,0.147786642 9.92197097,0.353961579 L10.3023808,2.18337082 C10.6628266,2.31543115 11.0078313,2.47759465 11.3340733,2.66666667 Z"></path>
  <g transform="translate(8.888889, 3.555556)">
    <rect fill="#E4002B" width="12.4444444" height="8.88888889" rx="0.888888889"></rect>
    <g transform="translate(1.777778, 1.777778)" fill="#FFFFFF">
      <path d="M0,5.33333333 L0,0 L1.05176664,0 L1.05176664,2.10285714 L2.86314252,2.10285714 L2.86314252,0 L3.91490916,0 L3.91490916,5.33333333 L2.86314252,5.33333333 L2.86314252,3.10857143 L1.05176664,3.10857143 L1.05176664,5.33333333 L0,5.33333333 Z M5.06893089,5.33333333 L5.06893089,0 L7.86633799,0 C8.56021181,0 8.88888889,0.342857143 8.88888889,1.06666667 L8.88888889,4.26666667 C8.88888889,4.99047619 8.56021181,5.33333333 7.86633799,5.33333333 L5.06893089,5.33333333 Z M6.12069753,4.32761905 L7.69104355,4.32761905 C7.80060257,4.32761905 7.83712225,4.28952381 7.83712225,4.1752381 L7.83712225,1.15809524 C7.83712225,1.04380952 7.80060257,1.00571429 7.69104355,1.00571429 L6.12069753,1.00571429 L6.12069753,4.32761905 Z"></path>
    </g>
  </g>
</svg>