<svg xmlns="http://www.w3.org/2000/svg" viewBox="0 0 500 500">
  <path fill="currentColor" d="M171.9 250c0 23.2 10.1 44 26.2 58.3v-54.6c-.1-1.2-.1-2.4-.1-3.7s.1-2.4.1-3.7v-54.6C182 206 171.9 226.8 171.9 250z"/>
  <path fill="currentColor" d="M214.3 422.1v-43.5c-27.4-9.7-35.3-14.2-57.8-33.4L118.8 367c-16-18-28.2-39.1-35.7-61.8l37.7-21.8c-5.3-28.8-5.3-38 0-66.8l-37.7-21.8c7.5-22.8 19.7-43.8 35.7-61.8l37.7 21.8c22.3-19.1 30.2-23.7 57.8-33.4V77.9c11.8-2.4 23.7-3.6 35.7-3.6v-26c-15.7 0-31.4 1.8-46.7 5.4-8.8 2.1-15 10-15 19v30.6c-12.3 5.2-23.9 11.9-34.5 19.9l-26.5-15.3c-7.8-4.5-17.7-3.1-24 3.5-21.5 22.7-37.7 50.3-46.8 81.1-2.6 8.6 1.2 17.9 9 22.4L92 230.2c-1.7 13.2-1.7 26.6 0 39.8l-26.5 15.3c-7.8 4.5-11.6 13.8-9 22.4 9.1 30.7 25.4 58.4 46.8 81.1 6.2 6.6 16.1 8 24 3.5l26.5-15.3c10.6 8.1 22.2 14.8 34.5 19.9v30.6c0 9.1 6.2 16.9 15 19 15.3 3.6 31 5.4 46.7 5.4v-26c-12-.1-23.9-1.3-35.7-3.8z"/>
  <path class="hd_bg" fill="#ff140f" d="M218.9 148.2h208.3c11.5 0 20.8 9.3 20.8 20.8v158.3c0 11.5-9.3 20.8-20.8 20.8H218.9c-11.5 0-20.8-9.3-20.8-20.8V169c0-11.5 9.3-20.8 20.8-20.8z"/>
  <path class="hd_text" fill="#ffffff" d="M257.3 304.2c1.8 0 2.6-.9 2.6-2.6v-39.1h32.8v39.1c0 1.7.9 2.6 2.6 2.6h18.2c1.8 0 2.6-.9 2.6-2.6v-99c0-1.8-.9-2.6-2.6-2.6h-18.2c-1.8 0-2.6.9-2.6 2.6v38.2h-32.8v-38.2c0-1.8-.9-2.6-2.6-2.6h-18.2c-1.8 0-2.6.9-2.6 2.6v99c0 1.7.9 2.6 2.6 2.6h18.2zm119.9 0c5.8 0 11.3-.7 16.3-2 5-1.4 9.4-3.6 13.1-6.8 3.7-3.2 6.7-7.3 8.8-12.5 2.1-5.2 3.1-11.5 3.1-19.1v-23.2c0-7.6-1-14-3.1-19.1-2.1-5.2-5-9.3-8.8-12.5-3.7-3.2-8.1-5.5-13.1-6.9-5-1.4-10.4-2.1-16.3-2.1h-35.9c-1.8 0-2.6.9-2.6 2.6v99c0 1.7.9 2.6 2.6 2.6h35.9zm.3-22.1h-15.3v-60.4h15.3c5.6 0 9.9 1.4 12.7 4.2 2.8 2.8 4.2 7.3 4.2 13.4v25.4c0 6.1-1.4 10.5-4.2 13.3-2.8 2.8-7.1 4.1-12.7 4.1z"/>
</svg>
