<svg xmlns="http://www.w3.org/2000/svg" viewBox="0 0 500 500">
  <path fill="currentColor" d="M217.3 270.8c6.6 0 11.9 5.3 11.9 11.9v74.4c0 4.9-4 8.9-8.9 8.9h-6c-4.9 0-8.9-4-8.9-8.9v-45.7L82 434.9c-3.5 3.5-9.1 3.5-12.6 0l-4.2-4.2c-3.5-3.5-3.5-9.1 0-12.6l123.4-123.4h-45.7c-4.9 0-8.9-4-8.9-8.9v-6c0-4.9 4-8.9 8.9-8.9h74.4zm139.8 0c4.9 0 8.9 4 8.9 8.9v6c0 4.9-4 8.9-8.9 8.9h-45.7L434.9 418c3.5 3.5 3.5 9.1 0 12.6l-4.2 4.2c-3.5 3.5-9.1 3.5-12.6 0L294.6 311.5v45.7c0 4.9-4 8.9-8.9 8.9h-6c-4.9 0-8.9-4-8.9-8.9v-74.4c0-6.6 5.3-11.9 11.9-11.9h74.4zM418 65.1c3.5-3.5 9.1-3.5 12.6 0l4.2 4.2c3.5 3.5 3.5 9.1 0 12.6L311.5 205.4h45.7c4.9 0 8.9 4 8.9 8.9v6c0 4.9-4 8.9-8.9 8.9h-74.4c-6.6 0-11.9-5.3-11.9-11.9v-74.4c0-4.9 4-8.9 8.9-8.9h6c4.9 0 8.9 4 8.9 8.9v45.7L418 65.1zm-336 0l123.4 123.4v-45.7c0-4.9 4-8.9 8.9-8.9h6c4.9 0 8.9 4 8.9 8.9v74.4c0 6.6-5.3 11.9-11.9 11.9h-74.4c-4.9 0-8.9-4-8.9-8.9v-6c0-4.9 4-8.9 8.9-8.9h45.7L65.1 82c-3.5-3.5-3.5-9.1 0-12.6l4.2-4.2c3.5-3.6 9.2-3.6 12.7-.1z"/>
</svg>
