<svg width="16px" height="16px" viewBox="0 0 16 16"> 
  <g id="Artboard" transform="translate(-465.000000, -96.000000)" fill="#FFFFFF"> 
    <g id="icons/scrubber/Minimize-–-2PT" transform="translate(465.000000, 96.000000)"> 
      <path d="M1.76889468,2.99842245 L1.76889468,4.86223958 C1.76889468,5.10769947 1.56991012,5.30668403 1.32445023,5.30668403 L0.444444444,5.30668403 C0.198984556,5.30668403 1.41082469e-16,5.10769947 1.11022302e-16,4.86223958 L1.11022302e-16,0.444444444 C8.09621357e-17,0.198984556 0.198984556,2.67134855e-16 0.444444444,2.22044605e-16 L1.76889468,0 L4.86223958,1.11022302e-16 C5.10769947,6.59320524e-17 5.30668403,0.198984556 5.30668403,0.444444444 L5.30668403,1.32445023 C5.30668403,1.56991012 5.10769947,1.76889468 4.86223958,1.76889468 L2.99842245,1.76889468 L6.08801271,4.85848494 C6.26157907,5.0320513 6.26157907,5.31345795 6.08801271,5.4870243 L5.4870243,6.08801271 C5.31345795,6.26157907 5.0320513,6.26157907 4.85848494,6.08801271 L1.76889468,2.99842245 Z" transform="translate(3.109094, 3.109094) scale(-1, -1) translate(-3.109094, -3.109094) "></path> 
      <path d="M11.5466725,2.99842245 L11.5466725,4.86223958 C11.5466725,5.10769947 11.3476879,5.30668403 11.102228,5.30668403 L10.2222222,5.30668403 C9.97676233,5.30668403 9.77777778,5.10769947 9.77777778,4.86223958 L9.77777778,0.444444444 C9.77777778,0.198984556 9.97676233,2.67134855e-16 10.2222222,2.22044605e-16 L11.5466725,0 L14.6400174,1.11022302e-16 C14.8854772,6.59320524e-17 15.0844618,0.198984556 15.0844618,0.444444444 L15.0844618,1.32445023 C15.0844618,1.56991012 14.8854772,1.76889468 14.6400174,1.76889468 L12.7762002,1.76889468 L15.8657905,4.85848494 C16.0393568,5.0320513 16.0393568,5.31345795 15.8657905,5.4870243 L15.2648021,6.08801271 C15.0912357,6.26157907 14.8098291,6.26157907 14.6362627,6.08801271 L11.5466725,2.99842245 Z" id="Combined-Shape-Copy" transform="translate(12.886872, 3.109094) scale(1, -1) translate(-12.886872, -3.109094) "></path> 
      <path d="M11.5466725,12.7762002 L11.5466725,14.6400174 C11.5466725,14.8854772 11.3476879,15.0844618 11.102228,15.0844618 L10.2222222,15.0844618 C9.97676233,15.0844618 9.77777778,14.8854772 9.77777778,14.6400174 L9.77777778,10.2222222 C9.77777778,9.97676233 9.97676233,9.77777778 10.2222222,9.77777778 L11.5466725,9.77777778 L14.6400174,9.77777778 C14.8854772,9.77777778 15.0844618,9.97676233 15.0844618,10.2222222 L15.0844618,11.102228 C15.0844618,11.3476879 14.8854772,11.5466725 14.6400174,11.5466725 L12.7762002,11.5466725 L15.8657905,14.6362627 C16.0393568,14.8098291 16.0393568,15.0912357 15.8657905,15.2648021 L15.2648021,15.8657905 C15.0912357,16.0393568 14.8098291,16.0393568 14.6362627,15.8657905 L11.5466725,12.7762002 Z" id="Combined-Shape-Copy-2"></path> 
      <path d="M1.76889468,12.7762002 L1.76889468,14.6400174 C1.76889468,14.8854772 1.56991012,15.0844618 1.32445023,15.0844618 L0.444444444,15.0844618 C0.198984556,15.0844618 1.41082469e-16,14.8854772 1.11022302e-16,14.6400174 L1.11022302e-16,10.2222222 C8.09621357e-17,9.97676233 0.198984556,9.77777778 0.444444444,9.77777778 L1.76889468,9.77777778 L4.86223958,9.77777778 C5.10769947,9.77777778 5.30668403,9.97676233 5.30668403,10.2222222 L5.30668403,11.102228 C5.30668403,11.3476879 5.10769947,11.5466725 4.86223958,11.5466725 L2.99842245,11.5466725 L6.08801271,14.6362627 C6.26157907,14.8098291 6.26157907,15.0912357 6.08801271,15.2648021 L5.4870243,15.8657905 C5.31345795,16.0393568 5.0320513,16.0393568 4.85848494,15.8657905 L1.76889468,12.7762002 Z" id="Combined-Shape-Copy-3" transform="translate(3.109094, 12.886872) scale(-1, 1) translate(-3.109094, -12.886872) "></path> 
    </g>
  </g>
</svg>
