<svg xmlns="http://www.w3.org/2000/svg" viewBox="0 0 500 500">
  <path fill="currentColor" d="M432 337.9l.2 84.6c0 5.4-4.4 9.8-9.8 9.8l-84.6-.2c-5.4 0-9.8-4.4-9.8-9.8v-8.1c0-5.4 4.4-9.8 9.8-9.8l47.2.2.6-.6L250 268.4 114.3 404.1l.6.6 47.2-.2c5.4 0 9.8 4.4 9.8 9.8v8.1c0 5.4-4.4 9.8-9.8 9.8l-84.6.2c-5.4 0-9.8-4.4-9.8-9.8l.2-84.6c0-5.4 4.4-9.8 9.8-9.8h8.1c5.4 0 9.8 4.4 9.8 9.8l-.2 47.2.6.6L231.6 250 95.9 114.3l-.6.6.2 47.2c0 5.4-4.4 9.8-9.8 9.8h-8.1c-5.4 0-9.8-4.4-9.8-9.8l-.2-84.6c0-5.4 4.4-9.8 9.8-9.8l84.6.2c5.4 0 9.8 4.4 9.8 9.8v8.1c0 5.4-4.4 9.8-9.8 9.8l-47.2-.2-.6.6L250 231.6 385.7 95.9l-.6-.6-47.2.2c-5.4 0-9.8-4.4-9.8-9.8v-8.1c0-5.4 4.4-9.8 9.8-9.8l84.6-.2c5.4 0 9.8 4.4 9.8 9.8l-.2 84.6c0 5.4-4.4 9.8-9.8 9.8h-8.1c-5.4 0-9.8-4.4-9.8-9.8l.2-47.2-.6-.6L268.4 250l135.7 135.7.6-.6-.2-47.2c0-5.4 4.4-9.8 9.8-9.8h8.1c5.3 0 9.6 4.4 9.6 9.8z"/>
</svg>
