<svg xmlns="http://www.w3.org/2000/svg" viewBox="0 0 500 500">
  <path fill="currentColor" d="M183.1 336c-3.4-3.4-3.4-8.9 0-12.3L416.9 89.9l-.5-.5-65.1.2c-4.8 0-8.7-3.9-8.7-8.7v-7.2c0-4.8 3.9-8.7 8.7-8.7l98.4-.2c4.8 0 8.7 3.9 8.7 8.7l-.2 98.4c0 4.8-3.9 8.7-8.7 8.7h-7.2c-4.8 0-8.7-3.9-8.7-8.7l.2-65.1-.5-.5L199.5 340c-3.4 3.4-8.9 3.4-12.3 0l-4.1-4zm167.8-112.6l-5.8 5.8c-1.6 1.6-2.5 3.8-2.5 6.1v165.2c0 6.4-5.2 11.6-11.6 11.6H76.4c-6.4 0-11.6-5.2-11.6-11.6V145.8c0-6.4 5.2-11.6 11.6-11.6h245.9c2.3 0 4.5-.9 6.1-2.5l5.8-5.8c5.5-5.5 1.6-14.8-6.1-14.8H76.4c-19.2 0-34.7 15.5-34.7 34.7v254.6c0 19.2 15.5 34.7 34.7 34.7H331c19.2 0 34.7-15.5 34.7-34.7V229.5c0-7.7-9.3-11.6-14.8-6.1z"/>
</svg>
