<svg xmlns="http://www.w3.org/2000/svg" viewBox="0 0 500 500">
  <path fill="currentColor"  d="M197.9 178.4v-39.1c0-10.8-8.7-19.5-19.5-19.5h-32.6V48.2c0-3.6-2.9-6.5-6.5-6.5h-13c-3.6 0-6.5 2.9-6.5 6.5v71.6H87.2c-10.8 0-19.5 8.7-19.5 19.5v39.1c0 10.8 8.7 19.5 19.5 19.5h32.6v253.9c0 3.6 2.9 6.5 6.5 6.5h13c3.6 0 6.5-2.9 6.5-6.5V197.9h32.6c10.8 0 19.5-8.7 19.5-19.5zm97.7 123.7H263V48.2c0-3.6-2.9-6.5-6.5-6.5h-13c-3.6 0-6.5 2.9-6.5 6.5v253.9h-32.6c-10.8 0-19.5 8.7-19.5 19.5v39.1c0 10.8 8.7 19.5 19.5 19.5H237v71.6c0 3.6 2.9 6.5 6.5 6.5h13c3.6 0 6.5-2.9 6.5-6.5v-71.6h32.6c10.8 0 19.5-8.7 19.5-19.5v-39.1c0-10.8-8.7-19.5-19.5-19.5zm117.2-130.2h-32.6V48.2c0-3.6-2.9-6.5-6.5-6.5h-13c-3.6 0-6.5 2.9-6.5 6.5v123.7h-32.6c-10.8 0-19.5 8.7-19.5 19.5v39.1c0 10.8 8.7 19.5 19.5 19.5h32.6v201.8c0 3.6 2.9 6.5 6.5 6.5h13c3.6 0 6.5-2.9 6.5-6.5V250h32.6c10.8 0 19.5-8.7 19.5-19.5v-39.1c0-10.8-8.7-19.5-19.5-19.5z"/>
</svg>
