<svg xmlns="http://www.w3.org/2000/svg" viewBox="0 0 500 500">
  <path fill="currentColor" d="M227.9 361.2c-.3-.1-.6-.2-.9-.2-14-1.1-27.9-3.5-41.5-7.1-14.2-3.8-28.1-8.9-41.4-15.3-20.3-9.8-39.2-22.5-55.9-37.8-.7-.5-1.2-1.3-1.5-2.1-.3-.9-.2-1.8.4-2.6.6-.7 1.5-1.1 2.4-1 .9.1 1.7.4 2.5.9 3.7 2.1 7.3 4.2 11.1 6.1 8.7 4.6 17.6 8.8 26.7 12.5 14.5 5.9 29.5 10.8 44.7 14.5 8.7 2.1 17.5 4 26.4 5.3 5.8.9 11.7 1.7 17.5 2.3 5.5.6 11 .9 16.5 1.3 8.3.5 16.7.6 25.1.3 5.6-.2 11.2-.6 16.8-1 7.2-.6 14.4-1.5 21.5-2.7 13.5-2.1 26.8-5.2 39.9-9 11.5-3.4 22.9-7.4 34-12.2 1.2-.5 2.5-.8 3.8-.6 2.7.3 4.5 2.6 4.1 5.1-.2 1.3-1 2.5-2.1 3.2-1.3 1-2.6 1.9-3.9 2.9-9.9 6.9-20.3 12.7-31.3 17.5-14.8 6.5-30.3 11.5-46.1 14.8-6.6 1.4-13.2 2.6-19.9 3.4-3.5.5-7 .7-10.5 1.1-.3.1-.6.1-.9.2l-37.5.2zm227.7-178.9c-.5-1.1-1.5-1.4-2.6-1.4h-9.4c-.6 0-1.2.1-1.8.2-1.1.1-2.1.7-2.5 1.7-.5 1.1-1 2.3-1.4 3.4-5.9 16.8-11.7 33.6-17.6 50.4-1.6 4.7-3.3 9.5-4.9 14.2-.1.3-.1.7-.6.9l-.3-.9c-7.4-21.3-14.8-42.6-22.3-63.9-.4-1.2-.9-2.5-1.4-3.7-.5-1.3-1.7-2.3-3.1-2.3-.4 0-.8-.1-1.2-.1h-10.4c-.4 0-.7.1-1.1.1-.8.1-1.4.8-1.4 1.6 0 .7.1 1.4.3 2 .3.9.6 1.8 1 2.6 4.2 10.6 8.3 21.1 12.5 31.7 5.8 14.8 11.7 29.6 17.5 44.4.3.7.7 1.4 1 2.2.5 1 1.5 1.7 2.6 1.8.8.1 1.6.2 2.4.2h7.8c.8 0 1.5-.1 2.3-.2 1.2-.1 2.2-.8 2.7-1.9.3-.7.7-1.4.9-2.1 3.4-8.6 6.8-17.3 10.2-25.9 6.4-16.2 12.7-32.4 19.1-48.6.6-1.6 1.3-3.3 1.9-4.9v-1.5zm-228.8 45.6h51.4c2.5-.1 3.3-.8 3.7-3.3.8-5.2 1-10.5.7-15.8-.2-3.6-1-7.2-2.1-10.6-2.5-7.1-6.9-12.5-13.5-16-4.6-2.4-9.5-3.4-14.5-3.6-3.8-.2-7.7 0-11.5.6-4.1.6-8 1.9-11.7 3.8-7.6 4-12.8 10.2-16.1 18-2.8 6.5-3.8 13.4-4.1 20.4-.2 4.2 0 8.4.5 12.6.5 4.5 1.5 8.9 3.1 13.1 2.5 6.4 6.3 11.8 11.9 15.8 4.9 3.5 10.4 5.5 16.3 6.4 4.8.8 9.6 1 14.4.7 5.5-.3 11-1.2 16.3-2.8 2.4-.6 4.7-1.5 6.9-2.6 1.5-.7 2.5-2.2 2.4-3.9v-5.6c0-.4-.1-.8-.2-1.2-.3-1.2-1.1-1.8-2.4-1.6-.6.1-1.1.2-1.7.4-6.4 2-12.9 3.7-19.7 4-5 .2-9.9 0-14.7-1.3-7.3-2-12.3-6.6-14.9-13.9-1.1-3.3-1.8-6.8-2.1-10.3-.1-1-.1-2-.2-3.1l1.8-.2zm-1.6-11.3c0-.6.1-1.2.1-1.8.4-4.3 1.3-8.5 3.3-12.4 3-6 7.9-9.5 14.4-10.8 3.7-.7 7.5-.7 11.2.1 6.5 1.4 10.5 5.5 12.3 11.9.7 2.5 1 5.1 1 7.7v3.9c0 .4-.1.9-.2 1.4h-42.1zM60.5 195.8V265c.1 1.3 1.1 2.3 2.4 2.5.5.1 1 .1 1.5.1h8.7c.5 0 1 0 1.5-.1 1.3-.1 2.3-1.2 2.4-2.6v-1.6-67.4c0-.5 0-1 .1-1.7H100.6c1.6-.1 2.6-1.1 2.6-2.7.1-2.6.1-5.2 0-7.8 0-1.5-.9-2.3-2.3-2.6-.5-.1-.9-.1-1.4-.1H78.3c-.4 0-.8 0-1.3-.1 0-.5-.1-.8-.1-1.2V165c0-1.4.2-2.8.4-4.1.8-4.2 3.3-6.9 7.5-7.8 3.4-.8 6.7-.8 10.1-.5 2 .2 4.1.6 6.1.8 2 .2 3-.6 3.1-2.6v-.7-4.5c0-.7-.1-1.3-.2-2-.1-1.1-.8-2-1.8-2.4-.6-.3-1.3-.5-1.9-.7-3-.8-6-1.3-9.1-1.5-4.9-.4-9.7-.2-14.4 1.2-6.6 1.9-11.3 6-14 12.4-1.6 3.9-2.4 8.1-2.4 12.3-.1 5 0 10.1-.1 15.1v1.2c-.2.1-.3.1-.5.1-3.3.4-6.5.8-9.8 1.3-1.3.2-2.5.4-3.7.7-1 .2-1.7 1.1-1.8 2.1-.3 2.2-.3 4.4 0 6.6.1 1 .8 1.8 1.7 2 .6.1 1.1.2 1.7.2h11c.4 0 .8 0 1.3.1v1.5zM322 181.3c-3.4.4-6.7.8-10.1 1.3-1.2.1-2.3.3-3.4.6-1.3.2-2.2 1.4-2.1 2.7-.1 1.8-.1 3.7 0 5.5.1 1.7 1.1 2.6 2.8 2.8h11.5c.4 0 .8.1 1.3.1v50.4c0 3.1.3 6.2 1.1 9.1 1.4 5.3 4.4 9.5 9.3 12.1 3.2 1.6 6.8 2.5 10.4 2.7 5 .4 10 0 14.9-1 1.5-.3 3.1-.8 4.5-1.3 1.3-.4 2.3-1.6 2.3-3 .1-2.5.1-5 .1-7.5 0-.1 0-.2-.1-.3-.3-1.3-.8-1.8-2.2-1.8-.9 0-1.7.2-2.5.3-3.2.7-6.5 1-9.8 1-1.9 0-3.8-.3-5.7-.9-2.6-.8-4.5-2.9-5.1-5.5-.4-1.6-.6-3.2-.6-4.8v-48.6c0-.3 0-.7.1-1.1h22c2.4 0 3.4-1 3.4-3.4v-.1-6.1c0-.5-.1-1-.2-1.4-.2-1-.9-1.8-1.9-2-.6-.1-1.1-.2-1.7-.2h-20.4c-.4 0-.8 0-1.3-.1v-1.3V160c0-2.2-.9-3.3-3.1-3.3-2.5-.1-5.1-.1-7.6 0-2 .1-3 1.1-3.2 3.1-.1 1.2-.3 2.3-.4 3.5-.5 4.9-1 9.9-1.5 14.8-.1 1-.2 2-.4 3.1-.2 0-.3.1-.4.1zm-149.5 11.2c-.3-2.8-.7-5.6-1-8.3-.3-2.2-1.4-3.2-3.5-3.2-2.7-.1-5.4-.1-8.1 0-1.9 0-2.9 1.1-3.1 3v79.9c0 .4 0 .9.1 1.3.2 1.2 1.1 2.1 2.3 2.2.5.1 1.1.1 1.6.1h8.4c.6 0 1.2 0 1.7-.1 1.2-.1 2.2-1 2.3-2.2.1-.7.2-1.4.1-2.2v-58.2c-.1-.8.3-1.5 1-2 7-5.5 15.9-8.1 24.8-7.3 1.2.1 2.3.2 3.5.2 2.1 0 3.1-1 3.1-3.1v-9c0-2-.8-3-2.8-3.1-1.6-.1-3.1-.2-4.7-.2-4.9 0-9.8 1.3-14.1 3.7-3.9 2.2-7.1 5.1-10.2 8.3l-1.4 1.4c.1-.5 0-.8 0-1.2zm-37.9-7.5v-1c-.1-1.8-.9-2.8-2.6-3H121.4c-.4 0-.9.1-1.3.2-1 .2-1.9 1-2 2.1-.1.6-.2 1.2-.2 1.8v78.6c0 .6.1 1.2.2 1.8.2 1.1 1 2 2.1 2.1.6.1 1.2.2 1.8.2h8.5c.6 0 1.2-.1 1.7-.1 1.1-.1 1.9-.9 2.1-2 .1-.5.2-1.1.2-1.6v-39.6l.1-39.5zm250.6 116.8c1.7.2 3.4.7 4.9 1.4 1.9.9 2.9 2.3 3.2 4.4.4 2.4 0 4.7-.3 7-.9 4.9-2.1 9.6-3.8 14.3-1.9 5.4-4 10.7-6 16.1-.2.4-.3.9-.4 1.4-.3 1.6.7 2.6 2.4 2.2.9-.2 1.8-.7 2.5-1.4 5.7-4.9 9.9-11 13.2-17.7 2.9-5.9 5-12.1 6.3-18.5.9-4.4 1.6-8.8 1.3-13.4-.1-1-.3-2.1-.5-3.1s-.8-1.8-1.7-2.2c-1.1-.6-2.2-1-3.3-1.4-4.1-1.3-8.3-1.8-12.5-2-4.9-.3-9.8-.1-14.7.5-5 .6-9.9 1.8-14.6 3.5-3.7 1.4-7.3 3.2-10.6 5.5-.9.5-1.6 1.3-2 2.2-.6 1.4-.1 2.5 1.4 2.7.3.1.7.1 1 0 3.6-.4 7.1-.8 10.7-1.1 5-.6 10-.8 15-.8 2.8-.1 5.6 0 8.5.4zM116 156.8c.3 3.9 3 7.2 6.7 8.2 2.2.6 4.5.7 6.7.2 3.9-.9 6.3-3.3 7.2-7.3.4-1.6.4-3.2.1-4.8-.7-3.9-3-6.5-6.8-7.6-2-.5-4-.6-6-.2-2.5.4-4.7 1.7-6.1 3.8-1.2 1.8-1.8 4-1.7 6.2-.1.5-.1 1-.1 1.5z"/>
</svg>
