<svg xmlns="http://www.w3.org/2000/svg" viewBox="0 0 932.393 500"><path d="M416.005 500a11.5 11.5 0 00-1.955-.5 537.6 537.6 0 01-94.016-16.042 528.989 528.989 0 01-93.894-34.435A532.547 532.547 0 0199.3 364.148a10.675 10.675 0 01-3.345-4.675 5.915 5.915 0 016.305-7.92 13.8 13.8 0 015.636 2.058c8.358 4.627 16.666 9.35 25.116 13.805a666.133 666.133 0 0060.652 28.071 727.639 727.639 0 00101.46 32.629c19.773 4.807 39.694 8.938 59.838 11.859 13.213 1.917 26.454 3.717 39.731 5.1 12.43 1.291 24.916 2.069 37.39 2.877 18.934 1.227 37.9 1.27 56.85.65 12.723-.417 25.441-1.269 38.132-2.291 16.334-1.314 32.591-3.4 48.778-5.967a733.326 733.326 0 0090.4-20.213 693.876 693.876 0 0077-27.351 16.671 16.671 0 018.635-1.37c6.032.717 10.146 5.81 9.223 11.522a11.512 11.512 0 01-4.652 7.3c-2.885 2.236-5.857 4.365-8.854 6.45a414.814 414.814 0 01-71.05 39.313 540.71 540.71 0 01-104.591 33.26q-22.457 4.772-45.218 7.716c-7.93 1.017-15.906 1.682-23.859 2.531a13.722 13.722 0 00-1.968.5zM932.393 97.952c-1.186-2.539-3.362-3.2-5.927-3.129h-.234c-7 0-13.991-.021-20.986.017-1.391.008-2.781.229-4.17.366a6.559 6.559 0 00-5.664 3.912c-1.171 2.533-2.355 5.075-3.281 7.7q-19.965 56.668-39.854 113.366l-11.2 31.854c-.259.733-.278 1.663-1.315 2.09-.291-.738-.565-1.371-.793-2.02q-25.242-71.845-50.491-143.69c-.977-2.78-2.1-5.514-3.253-8.225a7.681 7.681 0 00-7.128-5.126c-.929-.04-1.854-.232-2.782-.235q-11.775-.028-23.551 0a11.95 11.95 0 00-2.525.337 3.643 3.643 0 00-3.1 3.594 14.9 14.9 0 00.645 4.551c.582 2.006 1.415 3.942 2.19 5.889q14.166 35.6 28.349 71.2 19.875 49.872 39.771 99.735c.66 1.654 1.479 3.247 2.271 4.845a7.214 7.214 0 005.9 4.025 44.161 44.161 0 005.337.406q8.861.073 17.722 0a47.76 47.76 0 005.107-.379 7.459 7.459 0 006.226-4.3c.747-1.535 1.518-3.065 2.147-4.649q11.553-29.119 23.067-58.256 21.629-54.568 43.265-109.13c1.45-3.66 2.839-7.344 4.257-11.017zm-518.87 102.4h114.5c.7 0 1.4.018 2.1-.006 5.772-.2 7.594-1.783 8.437-7.488a156.913 156.913 0 001.524-35.534 93.51 93.51 0 00-4.8-23.907c-5.622-15.894-15.536-28.176-30.67-35.965-10.343-5.324-21.486-7.593-32.989-8.185a120.5 120.5 0 00-26.023 1.3 86.6 86.6 0 00-26.472 8.59c-17.133 9.039-28.979 22.892-36.555 40.545-6.278 14.632-8.642 30.081-9.249 45.857a180.107 180.107 0 001.2 28.373 119.142 119.142 0 007.061 29.358c5.613 14.376 14.238 26.5 26.922 35.51 11.117 7.9 23.634 12.293 36.985 14.485a148.062 148.062 0 0032.744 1.539 170.934 170.934 0 0036.9-6.2 85.771 85.771 0 0015.67-5.9 9.069 9.069 0 005.426-8.752c-.031-4.2.044-8.393.02-12.588a11.055 11.055 0 00-.377-2.755c-.742-2.8-2.518-4-5.353-3.583a25.645 25.645 0 00-3.852.872c-14.575 4.489-29.251 8.343-44.634 8.891-11.24.4-22.357-.038-33.264-3.025-16.649-4.558-27.988-14.88-33.835-31.171a87.821 87.821 0 01-4.658-23.217c-.168-2.223-.268-4.452-.42-7.051zm-3.511-25.45c.093-1.4.139-2.688.269-3.965.992-9.716 3.031-19.157 7.523-27.928 6.876-13.43 17.823-21.423 32.6-24.162a63.513 63.513 0 0125.457.177c14.644 3.234 23.807 12.348 27.869 26.688a65.242 65.242 0 012.352 17.25c.028 2.95-.011 5.9-.08 8.852-.023.991-.231 1.977-.369 3.088zM36.353 128.1v152.261a24.553 24.553 0 00.109 3.258 5.916 5.916 0 005.41 5.518 24.261 24.261 0 003.477.283q9.91.039 19.822 0a23.544 23.544 0 003.475-.291 5.883 5.883 0 005.364-5.784c.1-1.159.087-2.329.087-3.5q.006-75.78.01-151.561c0-1.137.092-2.274.155-3.726H124.79c.932 0 1.869.007 2.795-.078 3.572-.329 5.879-2.4 5.99-5.956.181-5.823.156-11.659.014-17.484-.081-3.312-1.95-5.276-5.205-5.953a16.055 16.055 0 00-3.238-.257q-24.02-.023-48.039-.016c-.9 0-1.806-.077-2.87-.125-.051-1.056-.126-1.893-.127-2.73-.008-11.036-.072-22.074.038-33.109a54.081 54.081 0 01.937-9.254c1.767-9.533 7.371-15.445 16.928-17.615 7.6-1.726 15.27-1.7 22.949-1.013 4.634.413 9.23 1.237 13.851 1.811 4.431.55 6.786-1.417 7.143-5.869.043-.541.025-1.088.025-1.632 0-3.342.042-6.685-.018-10.026a36.495 36.495 0 00-.406-4.4 6.788 6.788 0 00-4.176-5.5 27.116 27.116 0 00-4.4-1.487A123.169 123.169 0 00106.335.382c-11-.854-21.9-.406-32.565 2.673-14.934 4.312-25.719 13.426-31.761 27.876a75.328 75.328 0 00-5.529 27.716c-.239 11.343-.1 22.693-.127 34.04v2.7a10.191 10.191 0 01-1.173.33c-7.395.937-14.8 1.822-22.184 2.818a75.2 75.2 0 00-8.446 1.575 5.257 5.257 0 00-4.04 4.654 53.267 53.267 0 00.022 14.862 5.118 5.118 0 003.944 4.444 16.194 16.194 0 003.9.474c8.318.041 16.635.016 24.953.027.909 0 1.819.087 3.024.149zm593.059-32.44c-7.628.956-15.26 1.876-22.882 2.874a78.448 78.448 0 00-7.786 1.353 5.949 5.949 0 00-4.856 6.057c-.136 4.114-.175 8.242 0 12.352.163 3.828 2.43 5.928 6.237 6.2.852.062 1.709.058 2.563.058l23.555.012c.895 0 1.79.123 2.914.206V238.077a77.037 77.037 0 002.5 20.52c3.28 11.952 9.9 21.325 21.1 27.118a58.225 58.225 0 0023.529 6.039 125.6 125.6 0 0033.851-2.23 87.925 87.925 0 0010.3-2.895 7.23 7.23 0 005.284-6.742c.231-5.579.184-11.169.243-16.755a3.176 3.176 0 00-.161-.678c-.673-3.029-1.9-4.089-5.047-3.968a39.274 39.274 0 00-5.764.737 104.4 104.4 0 01-22.218 2.193 44.393 44.393 0 01-12.841-1.992 16.947 16.947 0 01-11.593-12.341 40.474 40.474 0 01-1.417-10.826q-.022-54.566 0-109.129c0-.751.084-1.5.148-2.571h4.3c15.159 0 30.318.02 45.477-.014 5.38-.011 7.633-2.3 7.751-7.669v-.233c0-4.586.023-9.172-.016-13.757a15.182 15.182 0 00-.365-3.231 5.419 5.419 0 00-4.3-4.411A18.531 18.531 0 00716 94.84q-23.088-.041-46.176-.024c-.9 0-1.8-.085-2.915-.141v-2.994q0-21.918-.008-43.838c-.007-4.9-2.144-7.353-6.934-7.506a277.224 277.224 0 00-17.253 0c-4.423.131-6.824 2.548-7.368 6.912-.326 2.62-.6 5.246-.873 7.872q-1.724 16.685-3.436 33.37c-.239 2.3-.551 4.6-.829 6.9a6.277 6.277 0 01-.796.271zm-338.985 25.194c-.789-6.24-1.515-12.488-2.368-18.719-.663-4.849-3.107-7.172-7.846-7.271q-9.207-.191-18.423 0c-4.405.084-6.66 2.43-6.958 6.829-.026.387-.012.777-.012 1.166q0 89.195.012 178.388a14.966 14.966 0 00.3 3 5.652 5.652 0 005.2 4.881 25.745 25.745 0 003.709.294q9.561.043 19.124 0a30.437 30.437 0 003.943-.287 5.6 5.6 0 005.287-5.043 28.846 28.846 0 00.316-4.867q.022-65.409-.036-130.818a4.938 4.938 0 012.213-4.454 79.647 79.647 0 0156.17-16.371c2.633.2 5.266.489 7.9.516 4.813.051 7.024-2.143 7.061-6.948.052-6.762.042-13.525 0-20.287C366 96.4 364.1 94.185 359.7 93.79c-3.553-.318-7.135-.438-10.7-.419a64.582 64.582 0 00-31.869 8.366c-8.758 4.935-16.167 11.534-23.166 18.647l-3.092 3.141c-.207-1.212-.353-1.938-.446-2.671zm-85.873-16.831c0-.777.021-1.556-.008-2.332-.146-3.993-2.082-6.184-6-6.771a12.545 12.545 0 00-1.86-.093c-7.385-.006-14.771-.017-22.156.012a14.461 14.461 0 00-2.993.358 5.56 5.56 0 00-4.517 4.753 21 21 0 00-.351 3.935q-.024 88.26 0 176.518a22.094 22.094 0 00.356 3.936 5.656 5.656 0 004.825 4.736 26.98 26.98 0 004.172.344q9.678.053 19.356 0a25.592 25.592 0 003.938-.33 5.484 5.484 0 004.85-4.4 16.662 16.662 0 00.372-3.684q.03-44.538.015-89.075zM772.8 366.506a43.1 43.1 0 0111.2 3.036c4.285 1.928 6.519 5.238 7.211 9.839.8 5.321.106 10.546-.772 15.752a188.987 188.987 0 01-8.715 32.1c-4.336 12.133-9.028 24.139-13.55 36.2a18.391 18.391 0 00-.94 3.107c-.669 3.665 1.659 5.812 5.341 5.029a12.812 12.812 0 005.637-3.133c12.912-11.054 22.377-24.712 29.854-39.821a175.99 175.99 0 0014.368-41.488c2.113-9.9 3.548-19.885 2.964-30.046a43.708 43.708 0 00-1.134-6.874 7.048 7.048 0 00-3.864-5.007 58.447 58.447 0 00-7.47-3.2c-9.237-2.957-18.809-4.091-28.437-4.586a182.2 182.2 0 00-33.259 1.216 153.278 153.278 0 00-33.219 7.959 108.572 108.572 0 00-24 12.266 12.211 12.211 0 00-4.568 4.864c-1.428 3.148-.123 5.615 3.262 6.138a9.034 9.034 0 002.3.052c8.108-.846 16.212-1.746 24.322-2.58a304.548 304.548 0 0134.035-1.871 116.342 116.342 0 0119.434 1.048zM162.343 40.642a20.65 20.65 0 0015.162 18.392 30.6 30.6 0 0015.223.352c8.786-2.034 14.243-7.514 16.245-16.341a26.321 26.321 0 00.2-10.873c-1.7-8.817-6.781-14.659-15.531-17.039A30.98 30.98 0 00180 14.691a20.593 20.593 0 00-13.9 8.572 21.749 21.749 0 00-3.77 13.887c0 1.164-.083 2.336.013 3.492z" fill="#fc4c02"/></svg>