<svg xmlns="http://www.w3.org/2000/svg" viewBox="0 0 3879.526 500"><path fill="currentColor" class="flo-svg-logo-title" d="M704.943,210.856H888.582l-19.4,114.716H685.539L656.925,493.118H535.172L618.427,6.882H950.053L929.925,123.616H720.052ZM1350.4,166.925C1370.368,54.952,1477.167,0,1576.049,0s188.451,55.625,169.2,166.925l-29.235,166.2C1696.716,444.375,1593.28,500,1489.689,500c-98.882,0-187.83-55.625-168.529-166.874Zm91.172,166.2c-5.9,35.031,29.132,52.882,65.456,52.882,39.015,0,82.014-17.851,88.689-56.348l29.132-162.735c6.623-36.427-26.39-54.951-65.4-54.951s-82.014,18.524-88.638,54.951Zm729.9-99.658c47.552,22.612,53.451,66.439,45.069,115.13-20.439,106.851-97.589,144.52-190.831,144.52h-184.57L1924.181,7.3h185.191c79.22,0,136.759,44.551,121.65,134.327C2225.175,174.532,2205.771,212.874,2171.465,233.468ZM2039,417.106c51.019,1.346,91.276-18.524,100.486-71.251,9.107-52.778-21.629-74.045-75.391-73.372H1956.728l-25.1,144.623Zm36.945-215.874c38.911,0,71.044-17.8,78.6-62.352,6.675-37-20.905-54.8-58.471-54.8H1988.706l-20.129,117.148Zm328.573,291.886h-77.2l83.049-485.1h77.2Zm523.44-485.1h95.933L2770.3,242.368l171.945,250.75h-98.675l-138.26-194.556-39.429,34.254-26.958,160.3h-77.2l83.049-485.1h77.2L2685.073,222.5Zm249.094,202.836h216.755L3380.3,290.334H3163.548L3142.592,413.64h235.537l-13.453,79.478H3051.264L3134.313,7.3h313.412l-13.454,79.53H3198.734Zm521.888-6.209c79.944,15.781,167.494,46.621,141.467,160.354-19.921,92.517-113.991,135-200.559,135-72.441,0-137.586-39.067-157.715-116.475l76.892-32.909c12.573,46.621,51.381,69.233,95.674,69.233,48.277,0,97.9-18.524,108.093-61.006,13.246-54.8-37.2-69.233-93.967-78.133-77.409-12.315-151.972-49.985-135.879-146.642,20.439-88.378,110.576-132.93,193.78-132.93,71.148,0,133.292,26.752,152.8,103.488l-75.6,31.512c-12.522-45.224-46.156-62.351-89.724-62.351-46.362,0-94.07,21.939-103.539,63.024C3599.851,179.292,3650.25,195.074,3698.941,204.647ZM1165.613,373.931c-29.778-.038-55.415-17.607-50.6-45.977L1171.3,4.775H1053.331l-55.6,323.179c-17.666,104.132,52.906,162.959,147.657,162.959h74.974l20.1-116.983Z"/><path fill="currentColor" class="flo-svg-logo-graphic" d="M466.7,217.873,441.745,359.34C357.574,359.627,286.4,414.9,262.13,491.078H115.808c27.2-155.72,163.068-274.11,326.6-274.11Q454.652,216.968,466.7,217.873ZM0,4.833,179.725,145.969H479.362L504.249,4.833Z"/></svg>