<svg xmlns="http://www.w3.org/2000/svg" viewBox="0 0 5103.904 500"><path fill="currentColor" class="flo-svg-logo-title" d="M704.929,210.871H888.558l-19.4,114.684H685.526L656.913,493.118H535.166L618.418,6.882H950.026L929.9,123.635H720.037Zm645.418-43.954C1370.319,54.949,1477.113,0,1575.99,0s188.441,55.648,169.193,166.917L1715.95,333.109C1696.65,444.378,1593.22,500,1489.634,500c-98.877,0-187.82-55.622-168.521-166.891Zm91.168,166.192c-5.9,35.029,29.13,52.88,65.452,52.88,39.013,0,82.01-17.851,88.685-56.321l29.13-162.751c6.623-36.4-26.388-54.949-65.4-54.949s-82.01,18.549-88.632,54.949Zm729.86-99.653c47.55,22.611,53.448,66.461,45.066,115.124C2196,455.451,2118.858,493.118,2025.62,493.118H1841.06L1924.1,7.321h185.181c79.216,0,136.752,44.549,121.644,134.294C2225.082,174.523,2205.679,212.889,2171.375,233.456ZM2038.918,417.085c51.016,1.345,91.271-18.5,100.481-71.248,9.106-52.775-21.628-74.015-75.387-73.343H1956.649l-25.094,144.591Zm36.943-215.838c38.909,0,71.04-17.825,78.594-62.374,6.675-36.969-20.9-54.794-58.467-54.794H1988.625L1968.5,201.247Zm295.752-43.178c18.316-104.827,122.109-156.9,218.761-156.9,95.928,0,184.043,52.078,165.727,156.905L2723.607,342.4C2705.291,447.224,2599.48,499.974,2503.5,499.974c-96.653,0-182.75-52.75-164.382-157.577ZM2416.938,341.7c-9.107,52.078,42.945,78.8,100.636,78.8,58.416,0,120.4-26.724,129.56-78.8L2678.8,160.139c9.986-55.493-44.187-78.8-101.93-78.8-57.743.7-118.953,24.655-128.215,78.8Zm512.495,151.42L2874.9,8.02h80.509l31.873,303.513c-.673,0-1.759,90.444-1.759,90.444h6.053l30.786-93.833,114.5-228.851h65.091l34.408,230.222c-.673,0,4.191,91.142,4.191,91.142h6.053l26.595-90.443L3408.349,8.02h79.836l-220.572,485.1h-82.527l-34.822-237.051,1.4-60.977h-4.708s-22.2,60.3-21.524,60.3L3011.96,493.118ZM3604.706,8.02h77.2l-69.592,405.624h216.744L3815.6,493.118H3521.662Zm408.444,485.1h-77.2L4019,8.02h77.2Zm157.19,0,83.044-485.1h81.855l115.693,286.413,32.286,96.6,5.433-1.345,6.157-104.155L4542.617,8.02h77.819l-83.045,485.1h-90.6l-113.831-280.9L4304.608,119.7l-4.76,1.4-5.485,101.387L4248.21,493.118Zm569.514-337.093C4757.5,52.569,4857.875,1.164,4949.147,1.164,5018.273,1.164,5081.6,32,5103.9,106.69l-75.749,35.624c-13.245-43.152-53.6-60.977-94.479-60.977-51.741,0-107.57,25.353-116.728,76.732L4785.127,342.4c-9.158,52.776,39.582,78.1,91.944,78.1,52.983,0,111.606-25.327,120.091-78.1l6-38.366H4869.621l13.4-76.06h210.689L5074.36,341.7c-18.368,106.2-118.8,157.6-211.414,157.6-91.892,0-173.333-51.4-154.964-157.6Zm-3574.3,217.9c-29.776-.038-55.412-17.607-50.6-45.975l56.29-323.162H1053.276l-55.6,323.162c-17.666,104.127,52.9,162.951,147.649,162.951h74.97l20.1-116.977Z"/><path fill="currentColor" class="flo-svg-logo-graphic" d="M466.674,217.876l-24.952,141.46c-84.166.287-155.338,55.552-179.606,131.731H115.8c27.2-155.712,163.059-274.1,326.582-274.1Q454.629,216.971,466.674,217.876ZM0,4.846l179.716,141.13H479.338L504.223,4.846Z"/></svg>