<svg xmlns="http://www.w3.org/2000/svg" viewBox="0 0 5386.771 500"><path fill="currentColor" class="flo-svg-logo-title" d="M2164.828,232.841A93.657,93.657,0,0,1,2209.5,347.488c-20.453,107.649-97.423,144.25-190.539,144.25H1834.882l82.89-484.422h184.619c79.122,0,136.715,44.674,121.644,134.023A139.411,139.411,0,0,1,2164.828,232.841Zm-132.409,183a86.658,86.658,0,0,0,100.114-69.434h0c9.15-53.825-21.53-73.74-75.355-73.2H1949.529L1924.77,417.461Zm36.6-215.3A71.587,71.587,0,0,0,2147.6,138.1c7-36.6-20.992-53.825-58.131-53.825H1981.824l-19.915,116.8Zm622.213,291.192h-83.967l-23.683-125.95h-171.7l-64.052,125.95h-82.89L2518.993,7.311h80.737ZM2540.524,87.515l-29.066,78.046-59.207,121.106h117.338l-17.762-124.336V85.361Zm456.433,116.261c80.2,16.147,167.394,46.827,141.558,161.474-19.915,92.04-114.108,134.561-200.227,134.561A155.016,155.016,0,0,1,2780.581,383.55l76.97-32.833a93.117,93.117,0,0,0,95.269,68.9c48.443,0,97.961-18.3,107.65-60.822,13.456-53.825-37.139-68.9-93.655-78.046-76.97-10.765-151.248-50.6-135.638-147.479A190.538,190.538,0,0,1,3024.945.861,139.944,139.944,0,0,1,3175.654,104.2L3100.3,135.419a82.351,82.351,0,0,0-86.12-61.9,99.575,99.575,0,0,0-103.343,62.975c-12.38,41.984,37.677,58.132,86.12,67.282Zm378.387,6.459h215.3l-13.458,79.126h-215.3l-20.454,123.258h235.214l-13.456,79.123H3249.933L3332.823,7.32h313.259l-13.456,79.66H3397.412Zm657.737,22.606a93.655,93.655,0,0,1,44.675,114.647c-20.454,107.649-97.423,144.25-190.54,144.25h-184.08l82.89-484.422h184.619c79.122-.538,136.714,44.136,120.028,133.485a137.789,137.789,0,0,1-57.592,92.04Zm-132.408,183a86.657,86.657,0,0,0,100.113-69.434h0c9.151-53.825-21.53-73.74-75.354-73.2H3817.783l-24.76,144.25Zm36.6-215.3a71.586,71.586,0,0,0,78.584-62.436c7-36.6-20.991-53.825-58.13-53.825h-107.65l-19.915,116.8Zm619.527,291.2h-81.28l-25.3-125.95H4280.136l-64.051,125.95H4133.2L4387.252,7.316h80.2ZM4409.32,87.515l-29.6,78.045-59.207,121.106H4437.85l-17.769-124.335V85.361ZM4750.03,7.854h77.508l-69.973,404.761h215.3l-13.456,79.123H4667.135Zm413.374,0h77.507l-69.433,404.761h215.3l-13.456,79.123H5080.509ZM1161,377.629c-29.6,0-53.825-17.762-50.6-45.751L1164.224,8.931H1049.042L995.218,331.878c-17.762,103.344,53.824,161.474,146.941,161.474h74.816l20.992-115.723ZM926.322,124.115,946.237,7.854H615.754l-82.89,483.884H654.508l28.527-166.857h183l18.838-114.108h-183l15.071-86.658Zm419.294,43.06A215.3,215.3,0,0,1,1569.527.861c99.037,0,187.848,53.825,169.009,166.318l-29.6,165.242A215.3,215.3,0,0,1,1483.41,498.739c-98.5,0-186.771-53.825-167.394-166.318Zm90.426,165.242c-5.383,34.986,29.065,53.824,65.666,53.824a82.888,82.888,0,0,0,88.272-53.824l29.066-161.474c6.459-36.6-26.375-53.825-65.128-53.825s-81.814,18.3-88.273,53.825Z"/><path fill="currentColor" class="flo-svg-logo-graphic" d="M465.045,219.923l-25.3,141.021a187.307,187.307,0,0,0-178.7,130.794H115.185A331.559,331.559,0,0,1,438.133,218.847ZM502.184,7.854,477.425,148.336H179.236L0,7.854Z"/></svg>