<svg xmlns="http://www.w3.org/2000/svg" viewBox="0 0 4151.78 500"><path fill="currentColor" class="flo-svg-logo-title" d="M704.929,210.871H888.558l-19.4,114.684H685.526L656.913,493.118H535.166L618.418,6.882H950.026L929.9,123.635H720.037Zm645.418-43.954C1370.319,54.949,1477.113,0,1575.99,0s188.441,55.648,169.193,166.917L1715.95,333.109C1696.65,444.378,1593.22,500,1489.634,500c-98.877,0-187.82-55.622-168.521-166.891Zm91.168,166.192c-5.9,35.029,29.13,52.88,65.452,52.88,39.013,0,82.01-17.851,88.685-56.321l29.13-162.751c6.623-36.4-26.388-54.949-65.4-54.949s-82.01,18.549-88.632,54.949ZM1884.781,157.4C1902.425,53.914,2002.854,1.164,2095.471,1.164c69.126,0,134.94,36.322,155.895,111.011L2176.342,147.1C2161.078,103.249,2121.6,80.664,2080,80.664c-52.362,0-109.588,25.328-118.073,76.732l-31.2,186.372c-8.434,51.405,38.961,76.732,91.323,76.732,42.272,0,89.357-21.913,119-65.763l63.952,32.881c-48.171,75.361-126.61,112.356-196.409,112.356-90.547,0-172.66-52.077-155.016-156.206Zm502.871,335.722h-77.87l83.045-485.1h77.87l-35.184,203.523h211.362L2682.059,8.02h77.819l-83.045,485.1h-77.818l34.459-202.8H2422.06Zm572.93-282.273h216.743l-13.5,79.474H2947.077l-20.955,123.325h235.525L3148.2,493.118H2834.8l83.044-485.8h313.4l-13.453,79.5H2982.261Zm453.924,0h216.743l-13.5,79.474H3401l-20.955,123.325h235.525l-13.453,79.474h-313.4l83.045-485.8h313.4l-13.453,79.5H3436.186ZM3908.789,305.4h-57.071l-31.872,187.716h-77.871L3825.02,8.02h183.888c93.237,0,156.154,43.152,140.477,150.049-15.264,91.142-75.749,134.294-149.894,144.59l114.244,190.459H4019.1Zm61.416-69.2c53.708,0,92.048-23.309,101.258-77.43,9.261-54.122-23.646-72.619-75.387-71.248h-106.69L3863.515,236.2ZM1165.553,373.939c-29.776-.038-55.412-17.607-50.6-45.975L1171.243,4.8H1053.276l-55.6,323.162c-17.666,104.127,52.9,162.951,147.649,162.951h74.97l20.1-116.977Z"/><path fill="currentColor" class="flo-svg-logo-graphic" d="M466.674,217.889l-24.952,141.46c-84.166.287-155.338,55.552-179.606,131.731H115.8c27.2-155.712,163.059-274.1,326.582-274.1Q454.629,216.984,466.674,217.889ZM0,4.859l179.716,141.13H479.338L504.223,4.859Z"/></svg>