<svg xmlns="http://www.w3.org/2000/svg" viewBox="0 0 4747.356 500"><path fill="currentColor" class="flo-svg-logo-title" d="M704.929,210.871H888.558l-19.4,114.684H685.526L656.913,493.118H535.166L618.418,6.882H950.026L929.9,123.635H720.037Zm645.418-43.954C1370.319,54.949,1477.113,0,1575.99,0s188.441,55.648,169.193,166.917L1715.95,333.109C1696.65,444.378,1593.22,500,1489.634,500c-98.877,0-187.82-55.622-168.521-166.891Zm91.168,166.192c-5.9,35.029,29.13,52.88,65.452,52.88,39.013,0,82.01-17.851,88.685-56.321l29.13-162.751c6.623-36.4-26.388-54.949-65.4-54.949s-82.01,18.549-88.632,54.949ZM1884.781,157.4C1902.425,53.914,2002.854,1.164,2095.471,1.164c69.126,0,134.94,36.322,155.895,111.011L2176.342,147.1C2161.078,103.249,2121.6,80.664,2080,80.664c-52.362,0-109.588,25.328-118.073,76.732l-31.2,186.372c-8.434,51.405,38.961,76.732,91.323,76.732,42.272,0,89.357-21.913,119-65.763l63.952,32.881c-48.171,75.361-126.61,112.356-196.409,112.356-90.547,0-172.66-52.077-155.016-156.206Zm470.068.673c18.316-104.827,122.109-156.9,218.761-156.9,95.928,0,184.043,52.078,165.727,156.905L2706.843,342.4c-18.316,104.827-124.127,157.577-220.106,157.577-96.653,0-182.75-52.75-164.382-157.577ZM2400.174,341.7c-9.107,52.078,42.945,78.8,100.636,78.8,58.416,0,120.4-26.724,129.56-78.8l31.665-181.559c9.986-55.493-44.186-78.8-101.93-78.8-57.743.7-118.952,24.655-128.214,78.8ZM2908.478,8.02h86.563L3071.514,323.2,3258.093,8.02h87.235l-83.044,485.1h-77.819l37.771-222.693,37.409-131.552h-6.726l-59.554,114.451-107.932,172.66h-61.055l-48.429-172.66-19.507-116.495h-6.726L2940.4,271.123l-37.771,222h-77.2Zm842.138,225.436c47.55,22.611,53.449,66.461,45.067,115.124-20.438,106.871-97.584,144.538-190.821,144.538H3420.3l83.045-485.8h185.181c79.215,0,136.752,44.549,121.643,134.294C3804.323,174.523,3784.921,212.889,3750.616,233.456ZM3618.159,417.085c51.017,1.345,91.271-18.5,100.481-71.248,9.107-52.775-21.628-74.015-75.387-73.343H3535.891l-25.1,144.591ZM3655.1,201.247c38.909,0,71.041-17.825,78.6-62.374,6.674-36.969-20.9-54.794-58.468-54.794H3567.867l-20.128,117.168Zm620.376,291.871h-81.234L4169.1,367.051H3998.663l-64.056,126.067h-83.251L4105.508,8.02h81.234ZM4127.6,88.219,4098.058,166.3l-59.14,121.281H4156.37l-17.954-122.626-1.4-76.732Zm461.323-.7-68.867,405.6h-77.87l68.919-405.6H4366.8l14.177-80.2h366.378l-14.177,80.2ZM1165.553,373.933c-29.776-.039-55.412-17.607-50.6-45.975L1171.243,4.8H1053.276l-55.6,323.163c-17.666,104.126,52.9,162.95,147.649,162.95h74.97l20.1-116.976Z"/><path fill="currentColor" class="flo-svg-logo-graphic" d="M466.674,217.882l-24.952,141.46c-84.166.287-155.338,55.552-179.606,131.731H115.8C143,335.361,278.861,216.978,442.384,216.978Q454.629,216.978,466.674,217.882ZM0,4.853,179.716,145.982H479.338L504.223,4.853Z"/></svg>