<svg xmlns="http://www.w3.org/2000/svg" viewBox="0 0 4202.161 500"><path fill="currentColor" class="flo-svg-logo-title" d="M704.929,210.871H888.558l-19.4,114.684H685.526L656.913,493.118H535.166L618.418,6.882H950.026L929.9,123.635H720.037Zm645.418-43.954C1370.319,54.949,1477.113,0,1575.99,0s188.441,55.648,169.193,166.917L1715.95,333.109C1696.65,444.378,1593.22,500,1489.634,500c-98.877,0-187.82-55.622-168.521-166.891Zm91.168,166.192c-5.9,35.029,29.13,52.88,65.452,52.88,39.013,0,82.01-17.851,88.685-56.321l29.13-162.751c6.623-36.4-26.388-54.949-65.4-54.949s-82.01,18.549-88.632,54.949ZM2093.867,8.02c92.616,0,169.5,46.593,151.808,152.791L2213.906,343.1c-17.644,105.474-110.467,150.023-203.084,150.023H1840.387l83.044-485.1Zm-69.54,405.624c52.982,0,103.326-19.868,111.76-70.549l31.769-182.284c8.434-51.379-34.459-73.291-87.442-73.291h-93.289l-56.088,326.124ZM2701,493.118h-81.233l-25.146-126.067H2424.182l-64.056,126.067h-83.251L2531.027,8.02h81.234ZM2553.12,88.219,2523.576,166.3l-59.14,121.281h117.452l-17.954-122.626-1.4-76.732Zm258.188,404.9,83.045-485.1h81.854L3091.9,294.433l32.287,96.6,5.433-1.345,6.157-104.155L3183.586,8.02H3261.4l-83.044,485.1h-90.6l-113.83-280.9L2945.577,119.7l-4.761,1.4-5.484,101.387-46.153,270.631ZM3380.1,157.4C3397.742,53.914,3498.171,1.164,3590.788,1.164c69.126,0,134.941,36.322,155.9,111.011L3671.659,147.1c-15.263-43.851-54.742-66.436-96.342-66.436-52.362,0-109.587,25.328-118.073,76.732l-31.2,186.372c-8.433,51.405,38.961,76.732,91.323,76.732,42.273,0,89.357-21.913,119-65.763l63.952,32.881c-48.171,75.361-126.611,112.356-196.409,112.356-90.547,0-172.66-52.077-155.017-156.206ZM3931.5,210.845h216.743l-13.5,79.474H3918l-20.956,123.325h235.526l-13.453,79.474h-313.4l83.045-485.8h313.4l-13.453,79.5H3953.183Zm-2765.95,163.1c-29.776-.039-55.412-17.607-50.6-45.975L1171.243,4.8H1053.276l-55.6,323.163c-17.666,104.127,52.9,162.95,147.649,162.95h74.97l20.1-116.976Z"/><path fill="currentColor" class="flo-svg-logo-graphic" d="M466.674,217.889l-24.952,141.46c-84.166.287-155.338,55.552-179.606,131.732H115.8c27.2-155.713,163.059-274.1,326.582-274.1Q454.629,216.985,466.674,217.889ZM0,4.86,179.716,145.989H479.338L504.223,4.86Z"/></svg>