<svg xmlns="http://www.w3.org/2000/svg" viewBox="0 0 3792.061 500"><path fill="currentColor" class="flo-svg-logo-title" d="M704.929,210.871H888.558l-19.4,114.684H685.526L656.913,493.118H535.166L618.418,6.882H950.026L929.9,123.635H720.037Zm645.418-43.954C1370.319,54.949,1477.113,0,1575.99,0s188.441,55.648,169.193,166.917L1715.95,333.109C1696.65,444.378,1593.22,500,1489.634,500c-98.877,0-187.82-55.622-168.521-166.891Zm91.168,166.192c-5.9,35.029,29.13,52.88,65.452,52.88,39.013,0,82.01-17.851,88.685-56.321l29.13-162.751c6.623-36.4-26.388-54.949-65.4-54.949s-82.01,18.549-88.632,54.949Zm525.327-122.264h216.744l-13.5,79.474H1953.338l-20.955,123.325h235.525l-13.453,79.474H1841.06L1924.1,7.321h313.4l-13.453,79.5H1988.522ZM2378.029,8.02h77.2l-69.591,405.624h216.743l-13.453,79.474H2294.984Zm408.444,485.1h-77.2l83.044-485.1h77.2Zm412.014-405.6-68.867,405.6h-77.871l68.919-405.6H2976.363l14.177-80.2h366.378l-14.177,80.2ZM3521.4,210.845h216.744l-13.505,79.474H3507.9l-20.955,123.325h235.525l-13.453,79.474H3395.621l83.044-485.8h313.4l-13.453,79.5H3543.083ZM1165.553,373.918c-29.776-.038-55.412-17.607-50.6-45.975l56.29-323.162H1053.276l-55.6,323.162c-17.666,104.127,52.9,162.95,147.649,162.95h74.97l20.1-116.976Z"/><path fill="currentColor" class="flo-svg-logo-graphic" d="M466.674,217.867,441.722,359.328c-84.166.287-155.338,55.552-179.606,131.731H115.8c27.2-155.712,163.059-274.1,326.582-274.1Q454.629,216.963,466.674,217.867ZM0,4.838l179.716,141.13H479.338L504.223,4.838Z"/></svg>