<svg xmlns="http://www.w3.org/2000/svg" viewBox="0 0 2694.047 500"><path fill="currentColor" class="flo-svg-logo-title" d="M704.965,210.856H888.6L869.2,325.572H685.561L656.947,493.118H535.194L618.45,6.882H950.075l-20.128,116.76H720.074Zm645.452-43.931C1370.39,54.952,1477.189,0,1576.072,0s188.45,55.65,169.2,166.925l-29.236,166.2C1696.738,444.375,1593.3,500,1489.711,500c-98.882,0-187.83-55.625-168.529-166.874Zm91.173,166.2c-5.9,35.031,29.131,52.882,65.455,52.882,39.015,0,82.014-17.851,88.689-56.348l29.132-162.735c6.623-36.4-26.389-54.951-65.4-54.951s-82.014,18.55-88.637,54.951Zm523.543-109.282h205.992l-14.074,79.478H1951.007l-31.978,189.8h-77.874L1924.2,8.02h312.739l-13.505,79.505H1988.573Zm362.31-66.439c17.644-103.488,118.079-156.241,210.7-156.241,69.13,0,135,36.324,155.9,111.016l-75.028,34.928c-15.265-43.853-54.745-66.439-96.347-66.439-52.365,0-109.593,25.328-118.079,76.736l-31.2,186.381c-8.434,51.381,38.963,76.736,91.328,76.736,42.275,0,89.361-21.94,119.011-65.767l63.955,32.858C2599.511,463,2521.068,500,2451.266,500c-90.552,0-172.669-52.106-155.025-156.214ZM1165.613,373.944c-29.778-.039-55.415-17.608-50.6-45.978L1171.3,4.787H1053.331l-55.6,323.179c-17.666,104.133,52.906,162.959,147.657,162.959h74.974l20.1-116.982Z"/><path fill="currentColor" class="flo-svg-logo-graphic" d="M466.7,217.885,441.745,359.353c-84.171.287-155.346,55.555-179.615,131.738H115.808c27.2-155.721,163.068-274.11,326.6-274.11Q454.652,216.981,466.7,217.885ZM0,4.845,179.725,145.982H479.362L504.249,4.845Z"/></svg>