<svg xmlns="http://www.w3.org/2000/svg" viewBox="0 0 5446.689 500"><path fill="currentColor" class="flo-svg-logo-title" d="M704.929,210.871H888.558l-19.4,114.684H685.526L656.913,493.118H535.166L618.418,6.882H950.026L929.9,123.635H720.037Zm645.418-43.954C1370.319,54.949,1477.113,0,1575.99,0s188.441,55.648,169.193,166.917L1715.95,333.109C1696.65,444.378,1593.22,500,1489.634,500c-98.877,0-187.82-55.622-168.521-166.891Zm91.168,166.192c-5.9,35.029,29.13,52.88,65.452,52.88,39.013,0,82.01-17.851,88.685-56.321l29.13-162.751c6.623-36.4-26.388-54.949-65.4-54.949s-82.01,18.549-88.632,54.949Zm523.516-109.277h205.982l-14.074,79.5H1950.906L1918.93,493.118h-77.87L1924.1,8.02h312.723l-13.5,79.5H1988.47ZM2328,158.069c18.316-104.827,122.109-156.9,218.761-156.9,95.928,0,184.043,52.078,165.727,156.905L2679.99,342.4c-18.368,104.827-124.127,157.577-220.107,157.577-96.6,0-182.7-52.75-164.381-157.577ZM2373.32,341.7c-9.106,52.078,42.945,78.8,100.637,78.8,58.415,0,120.4-26.724,129.559-78.8l31.666-181.559c9.986-55.493-44.239-78.8-101.982-78.8-57.691.7-118.9,24.655-128.163,78.8Zm470.327-183.629c18.316-104.827,122.109-156.9,218.761-156.9,95.928,0,184.043,52.078,165.727,156.905L3195.641,342.4c-18.368,104.827-124.127,157.577-220.106,157.577-96.6,0-182.7-52.75-164.382-157.577ZM2888.972,341.7c-9.107,52.078,42.945,78.8,100.636,78.8,58.416,0,120.4-26.724,129.56-78.8l31.665-181.559c9.987-55.493-44.238-78.8-101.981-78.8-57.692.7-118.9,24.655-128.163,78.8ZM3561.658,87.52l-68.868,405.6h-77.87l68.919-405.6H3339.533l14.177-80.2h366.379l-14.177,80.2Zm527.4,145.936c47.55,22.611,53.448,66.461,45.066,115.124-20.438,106.871-97.584,144.538-190.821,144.538H3758.74l83.044-485.8h185.233c79.164,0,136.7,44.549,121.592,134.294C4142.762,174.523,4123.307,212.889,4089.055,233.456ZM3956.6,417.085c51.017,1.345,91.272-18.5,100.482-71.248,9.106-52.775-21.628-74.015-75.387-73.343H3874.329l-25.094,144.591Zm36.944-215.838c38.909,0,71.04-17.825,78.594-62.374,6.675-36.969-20.9-54.794-58.467-54.794H3906.305l-20.127,117.168Zm620.427,291.871h-81.234l-25.146-126.067H4337.153L4273.1,493.118h-83.252L4444,8.02h81.234Zm-147.876-404.9L4436.548,166.3l-59.14,121.281H4494.86l-17.954-122.626-1.4-76.732ZM4808,8.02h77.2L4815.6,413.644h216.743l-13.452,79.474H4724.953Zm414.343,0h77.2l-69.591,405.624h216.743l-13.453,79.474H5139.3Zm-4056.787,365.9c-29.776-.038-55.412-17.607-50.6-45.975l56.29-323.162H1053.276l-55.6,323.162c-17.666,104.127,52.9,162.95,147.649,162.95h74.97l20.1-116.976Z"/><path fill="currentColor" class="flo-svg-logo-graphic" d="M466.674,217.871,441.722,359.332c-84.166.287-155.338,55.552-179.606,131.731H115.8c27.2-155.712,163.059-274.1,326.582-274.1Q454.629,216.967,466.674,217.871ZM0,4.842l179.716,141.13H479.338L504.223,4.842Z"/></svg>