<svg xmlns="http://www.w3.org/2000/svg" viewBox="0 0 6381.133 500"><path fill="currentColor" class="flo-svg-logo-title" d="M704.929,210.871H888.558l-19.4,114.684H685.526L656.913,493.118H535.166L618.418,6.882H950.026L929.9,123.635H720.037Zm645.418-43.954C1370.319,54.949,1477.113,0,1575.99,0s188.441,55.648,169.193,166.917L1715.95,333.109C1696.65,444.378,1593.22,500,1489.634,500c-98.877,0-187.82-55.622-168.521-166.891Zm91.168,166.192c-5.9,35.029,29.13,52.88,65.452,52.88,39.013,0,82.01-17.851,88.685-56.321l29.13-162.751c6.623-36.4-26.388-54.949-65.4-54.949s-82.01,18.549-88.632,54.949Zm443.99-177.084C1903.149,52.569,2003.527,1.164,2094.8,1.164c69.126,0,132.457,30.838,154.757,105.526l-75.748,35.624c-13.246-43.152-53.6-60.977-94.48-60.977-51.741,0-107.569,25.353-116.728,76.732L1930.779,342.4c-9.159,52.776,39.582,78.1,91.944,78.1,52.982,0,111.605-25.327,120.091-78.1l6-38.366H2015.272l13.4-76.06h210.689L2220.011,341.7c-18.368,106.2-118.8,157.6-211.414,157.6-91.892,0-173.332-51.4-154.964-157.6Zm541.057,337.093,31.976-188.389L2344.5,8.02h89.254l76.991,220.624L2662.605,8.02h90.546L2536.356,304.729,2504.38,493.118ZM2861.5,8.02h86.563L3024.533,323.2,3211.112,8.02h87.235l-83.044,485.1h-77.819l37.771-222.693,37.409-131.552h-6.726l-59.554,114.451-107.932,172.66H2977.4l-48.429-172.66-19.507-116.495h-6.726l-9.313,134.294-37.771,222h-77.2Zm511.151,485.1,83.044-485.1h81.854l115.745,286.413,32.235,96.6,5.433-1.345,6.157-104.155L3744.925,8.02h77.818l-83.044,485.1h-90.6l-113.83-280.9L3506.916,119.7l-4.761,1.4-5.484,101.387-46.153,270.631Zm902.157,0h-81.233l-25.147-126.067H3997.99l-64.055,126.067h-83.252L4104.836,8.02h81.233Zm-147.876-404.9L4097.385,166.3l-59.14,121.281H4155.7l-17.954-122.626-1.4-76.732Zm457.34,116.443c79.94,15.781,167.485,46.593,141.46,160.346-19.921,92.487-113.986,134.966-200.549,134.966-72.437,0-137.579-39.039-157.707-116.469l76.888-32.882c12.573,46.593,51.379,69.2,95.669,69.2,48.274,0,97.894-18.523,108.087-61,13.246-54.793-37.2-69.2-93.962-78.1-77.4-12.34-151.963-50.007-135.872-146.634,20.438-88.4,110.571-132.923,193.771-132.923,71.144,0,133.285,26.75,152.791,103.482l-75.594,31.485c-12.521-45.2-46.153-62.322-89.719-62.322-46.36,0-94.065,21.912-103.534,63.02C4485.184,179.309,4535.58,195.09,4584.269,204.662ZM5091.849,87.52l-68.868,405.6h-77.87l68.919-405.6H4869.724l14.177-80.2H5250.28L5236.1,87.52Zm274.279,405.6h-77.2l83.045-485.1h77.2ZM5567.763,157.4C5585.407,53.914,5685.836,1.164,5778.453,1.164c69.126,0,134.992,36.322,155.9,111.011L5859.324,147.1c-15.263-43.851-54.742-66.436-96.342-66.436-52.362,0-109.587,25.328-118.073,76.732l-31.2,186.372c-8.434,51.405,38.961,76.732,91.323,76.732,42.273,0,89.357-21.913,119.005-65.763l63.952,32.881c-48.171,75.361-126.611,112.356-196.409,112.356-90.547,0-172.66-52.077-155.017-156.206Zm632.794,47.266c79.94,15.781,167.486,46.593,141.46,160.346C6322.1,457.5,6228.031,499.974,6141.468,499.974c-72.437,0-137.579-39.039-157.706-116.469l76.887-32.882c12.573,46.593,51.379,69.2,95.669,69.2,48.274,0,97.894-18.523,108.087-61,13.246-54.793-37.2-69.2-93.962-78.1-77.4-12.34-151.963-50.007-135.872-146.634,20.438-88.4,110.571-132.923,193.771-132.923,71.144,0,133.285,26.75,152.791,103.482l-75.594,31.485c-12.521-45.2-46.153-62.322-89.719-62.322-46.36,0-94.065,21.912-103.534,63.02C6101.472,179.309,6151.868,195.09,6200.557,204.662Zm-5035,169.274c-29.776-.038-55.412-17.607-50.6-45.975L1171.243,4.8H1053.276l-55.6,323.162c-17.666,104.127,52.9,162.951,147.649,162.951h74.97l20.1-116.977Z"/><path fill="currentColor" class="flo-svg-logo-graphic" d="M466.674,217.886l-24.952,141.46c-84.166.287-155.338,55.552-179.606,131.731H115.8c27.2-155.712,163.059-274.1,326.582-274.1Q454.629,216.981,466.674,217.886ZM0,4.856l179.716,141.13H479.338L504.223,4.856Z"/></svg>