<svg xmlns="http://www.w3.org/2000/svg" viewBox="0 0 5839.197 500"><path fill="currentColor" class="flo-svg-logo-title" d="M704.929,210.871H888.558l-19.4,114.684H685.526L656.913,493.118H535.166L618.418,6.882H950.026L929.9,123.635H720.037Zm645.418-43.954C1370.319,54.949,1477.113,0,1575.99,0s188.441,55.648,169.193,166.917L1715.95,333.109C1696.65,444.378,1593.22,500,1489.634,500c-98.877,0-187.82-55.622-168.521-166.891Zm91.168,166.192c-5.9,35.029,29.13,52.88,65.452,52.88,39.013,0,82.01-17.851,88.685-56.321l29.13-162.751c6.623-36.4-26.388-54.949-65.4-54.949s-82.01,18.549-88.632,54.949Zm443.99-177.084C1903.149,52.569,2003.527,1.164,2094.8,1.164c69.126,0,132.457,30.838,154.757,105.526l-75.748,35.624c-13.246-43.152-53.6-60.977-94.48-60.977-51.741,0-107.569,25.353-116.728,76.732L1930.779,342.4c-9.159,52.776,39.582,78.1,91.944,78.1,52.982,0,111.605-25.327,120.091-78.1l6-38.366H2015.272l13.4-76.06h210.689L2220.011,341.7c-18.368,106.2-118.8,157.6-211.414,157.6-91.892,0-173.332-51.4-154.964-157.6ZM2498.068,305.4H2441l-31.873,187.716h-77.87L2414.3,8.02h183.888c93.237,0,156.155,43.152,140.477,150.049-15.264,91.142-75.749,134.294-149.894,144.59l114.244,190.459H2608.38Zm61.417-69.2c53.707,0,92.1-23.309,101.257-77.43,9.262-54.122-23.646-72.619-75.387-71.248h-106.69L2452.794,236.2Zm633,256.92h-81.233l-25.147-126.067H2915.67l-64.055,126.067h-83.252L3022.516,8.02h81.233Zm-147.876-404.9L3015.065,166.3l-59.14,121.281h117.452l-17.954-122.626-1.4-76.732Zm341.233-80.2h183.887c109.381,0,150.205,80.845,136.752,159.673-13.5,80.819-81.854,157.551-190.562,157.551H3407.883l-28.561,167.874H3302.8Zm141.925,244.632c58.364,0,94.79-43.178,101.516-83.614,6.727-40.41-15.315-82.889-73.058-81.518H3448.862l-28.457,165.132ZM3862.584,8.02h183.888c109.38,0,150.2,80.845,136.751,159.673-13.5,80.819-81.854,157.551-190.562,157.551H3884.626l-28.561,167.874h-76.526ZM4004.51,252.652c58.364,0,94.789-43.178,101.516-83.614,6.726-40.41-15.316-82.889-73.059-81.518H3925.605l-28.458,165.132ZM4340,8.02h77.2L4347.6,413.644h216.743L4550.9,493.118H4256.954Zm408.444,485.1h-77.2L4754.29,8.02h77.2Zm157.241,0,83.045-485.1h81.854l115.693,286.413,32.287,96.6,5.432-1.345,6.158-104.155L5277.961,8.02h77.819l-83.045,485.1h-90.6l-113.831-280.9L5039.952,119.7l-4.76,1.4-5.484,101.387-46.153,270.631Zm569.463-337.093C5492.79,52.569,5593.168,1.164,5684.439,1.164,5753.565,1.164,5816.9,32,5839.2,106.69l-75.749,35.624c-13.246-43.152-53.552-60.977-94.531-60.977-51.638,0-107.518,25.353-116.676,76.732L5520.42,342.4c-9.158,52.776,39.582,78.1,91.944,78.1,52.983,0,111.606-25.327,120.091-78.1l6-38.366H5604.913l13.4-76.06H5829L5809.653,341.7c-18.42,106.2-118.8,157.6-211.414,157.6-91.892,0-173.333-51.4-154.965-157.6Zm-4309.594,217.9c-29.776-.038-55.412-17.606-50.6-45.975l56.29-323.162H1053.276l-55.6,323.162c-17.666,104.127,52.9,162.951,147.649,162.951h74.97l20.1-116.977Z"/><path fill="currentColor" class="flo-svg-logo-graphic" d="M466.674,217.871l-24.952,141.46c-84.166.287-155.338,55.552-179.606,131.731H115.8c27.2-155.712,163.059-274.1,326.582-274.1Q454.629,216.967,466.674,217.871ZM0,4.842,179.716,145.971H479.338L504.223,4.842Z"/></svg>