<svg xmlns="http://www.w3.org/2000/svg" viewBox="0 0 4261.249 500"><path fill="currentColor" class="flo-svg-logo-title" d="M704.929,210.871H888.558l-19.4,114.684H685.526L656.913,493.118H535.166L618.418,6.882H950.026L929.9,123.635H720.037Zm645.418-43.954C1370.319,54.949,1477.113,0,1575.99,0s188.441,55.648,169.193,166.917L1715.95,333.109C1696.65,444.378,1593.22,500,1489.634,500c-98.877,0-187.82-55.622-168.521-166.891Zm91.168,166.192c-5.9,35.029,29.13,52.88,65.452,52.88,39.013,0,82.01-17.851,88.685-56.321l29.13-162.751c6.623-36.4-26.388-54.949-65.4-54.949s-82.01,18.549-88.632,54.949Zm476.742,160.009h-77.87l83.044-485.1H2001.3l-35.184,203.523H2177.48L2212.664,8.02h77.819l-83.045,485.1H2129.62l34.459-202.8H1952.665Zm491.592-335.049c18.317-104.827,122.109-156.9,218.762-156.9,95.928,0,184.043,52.078,165.726,156.905L2761.844,342.4c-18.368,104.827-124.127,157.577-220.107,157.577-96.6,0-182.7-52.75-164.381-157.577ZM2455.175,341.7c-9.107,52.078,42.945,78.8,100.636,78.8,58.416,0,120.4-26.724,129.56-78.8l31.665-181.559c9.986-55.493-44.238-78.8-101.981-78.8-57.692.7-118.9,24.655-128.163,78.8ZM2925.5,158.069c18.316-104.827,122.109-156.9,218.761-156.9,95.928,0,184.043,52.078,165.727,156.905L3277.5,342.4c-18.368,104.827-124.127,157.577-220.107,157.577-96.6,0-182.7-52.75-164.381-157.577ZM2970.826,341.7c-9.106,52.078,42.945,78.8,100.637,78.8,58.415,0,120.4-26.724,129.559-78.8l31.666-181.559c9.986-55.493-44.239-78.8-101.982-78.8-57.691.7-118.9,24.655-128.162,78.8ZM3479.182,8.02H3663.07c109.381,0,150.2,80.845,136.752,159.673-13.5,80.819-81.854,157.551-190.562,157.551H3501.224l-28.561,167.874h-76.525Zm141.926,244.632c58.364,0,94.79-43.178,101.516-83.614,6.727-40.41-15.315-82.889-73.058-81.518H3542.2l-28.458,165.132Zm459.565-47.99c79.991,15.781,167.485,46.593,141.46,160.346-19.921,92.487-113.986,134.966-200.549,134.966-72.437,0-137.579-39.039-157.707-116.469l76.888-32.882c12.573,46.593,51.379,69.2,95.669,69.2,48.326,0,97.894-18.523,108.087-61,13.246-54.793-37.2-69.2-93.962-78.1-77.4-12.34-151.963-50.007-135.872-146.634,20.438-88.4,110.571-132.923,193.771-132.923,71.144,0,133.285,26.75,152.791,103.482l-75.594,31.485c-12.521-45.2-46.1-62.322-89.771-62.322-46.256,0-94.013,21.912-103.482,63.02C3981.588,179.309,4031.984,195.09,4080.673,204.662ZM1165.553,373.94c-29.776-.038-55.412-17.606-50.6-45.975L1171.243,4.8H1053.276l-55.6,323.162c-17.666,104.127,52.9,162.951,147.649,162.951h74.97l20.1-116.977Z"/><path fill="currentColor" class="flo-svg-logo-graphic" d="M466.674,217.89,441.722,359.35c-84.166.287-155.338,55.552-179.606,131.731H115.8c27.2-155.712,163.059-274.1,326.582-274.1Q454.629,216.986,466.674,217.89ZM0,4.861,179.716,145.99H479.338L504.223,4.861Z"/></svg>