<svg xmlns="http://www.w3.org/2000/svg" viewBox="0 0 4736.543 500"><path fill="currentColor" class="flo-svg-logo-title" d="M704.929,210.871H888.558l-19.4,114.684H685.526L656.913,493.118H535.166L618.418,6.882H950.026L929.9,123.635H720.037Zm645.418-43.954C1370.319,54.949,1477.113,0,1575.99,0s188.441,55.648,169.193,166.917L1715.95,333.109C1696.65,444.378,1593.22,500,1489.634,500c-98.877,0-187.82-55.622-168.521-166.891Zm91.168,166.192c-5.9,35.029,29.13,52.88,65.452,52.88,39.013,0,82.01-17.851,88.685-56.321l29.13-162.751c6.623-36.4-26.388-54.949-65.4-54.949s-82.01,18.549-88.632,54.949Zm476.742,160.009h-77.87l83.044-485.1H2001.3l-35.184,203.523H2177.48L2212.664,8.02h77.819l-83.045,485.1H2129.62l34.459-202.8H1952.665Zm491.592-335.049c18.317-104.827,122.109-156.9,218.762-156.9,95.928,0,184.043,52.078,165.726,156.905L2761.844,342.4c-18.368,104.827-124.127,157.577-220.107,157.577-96.6,0-182.7-52.75-164.381-157.577ZM2455.175,341.7c-9.107,52.078,42.945,78.8,100.636,78.8,58.416,0,120.4-26.724,129.56-78.8l31.665-181.559c9.986-55.493-44.238-78.8-101.981-78.8-57.692.7-118.9,24.655-128.163,78.8Zm469.653-184.3C2942.472,53.914,3042.9,1.164,3135.518,1.164c69.126,0,134.993,36.322,155.9,111.011L3216.389,147.1c-15.263-43.851-54.742-66.436-96.341-66.436-52.362,0-109.588,25.328-118.074,76.732l-31.2,186.372c-8.434,51.405,38.961,76.732,91.323,76.732,42.272,0,89.356-21.913,119-65.763l63.952,32.881c-48.171,75.361-126.61,112.356-196.409,112.356-90.547,0-172.66-52.077-155.016-156.206ZM3716.053,8.02h95.928L3558.4,242.355l171.936,250.763h-98.671L3493.411,298.546,3453.985,332.8l-26.958,160.319h-77.2l83.044-485.1h77.2L3473.18,222.487Zm249.03,202.825h216.743l-13.5,79.474H3951.579l-20.956,123.325h235.526L4152.7,493.118H3839.3l83.045-485.8h313.4l-13.453,79.5H3986.763Zm444.87,282.273,31.976-188.389L4327.891,8.02h89.254l76.991,220.624L4646,8.02h90.547l-216.8,296.709-31.976,188.389Zm-3244.4-119.2c-29.776-.038-55.412-17.607-50.6-45.975l56.29-323.162H1053.276l-55.6,323.162c-17.666,104.127,52.9,162.951,147.649,162.951h74.97l20.1-116.977Z"/><path fill="currentColor" class="flo-svg-logo-graphic" d="M466.674,217.872l-24.952,141.46c-84.166.287-155.338,55.552-179.606,131.731H115.8c27.2-155.712,163.059-274.1,326.582-274.1Q454.629,216.967,466.674,217.872ZM0,4.843,179.716,145.972H479.338L504.223,4.843Z"/></svg>