<svg xmlns="http://www.w3.org/2000/svg" viewBox="0 0 3375.079 500"><path fill="currentColor" class="flo-svg-logo-title" d="M704.929,210.871H888.558l-19.4,114.684H685.526L656.913,493.118H535.166L618.418,6.882H950.026L929.9,123.635H720.037Zm645.418-43.954C1370.319,54.949,1477.113,0,1575.99,0s188.441,55.648,169.193,166.917L1715.95,333.109C1696.65,444.378,1593.22,500,1489.634,500c-98.877,0-187.82-55.622-168.521-166.891Zm91.168,166.192c-5.9,35.029,29.13,52.88,65.452,52.88,39.013,0,82.01-17.851,88.685-56.321l29.13-162.751c6.623-36.4-26.388-54.949-65.4-54.949s-82.01,18.549-88.632,54.949ZM1924.1,8.02h77.2L1931.71,413.644h216.743L2135,493.118H1841.06Zm408.5,485.1h-77.2l83.045-485.1h77.2Zm327.676-176.773c-.672,0,6.934,91.116,6.934,91.116h6.726l36.012-92.487L2868.741,8.02h81.906L2696.5,493.118h-81.906L2525.853,8.02h82.527Zm444.146-105.5h216.743l-13.5,79.474H3090.917l-20.955,123.325h235.526l-13.453,79.474h-313.4l83.045-485.8h313.4l-13.452,79.5H3126.1ZM1165.553,373.93c-29.776-.038-55.412-17.607-50.6-45.975l56.29-323.162H1053.276l-55.6,323.162c-17.666,104.127,52.9,162.951,147.649,162.951h74.97l20.1-116.977Z"/><path fill="currentColor" class="flo-svg-logo-graphic" d="M466.674,217.88,441.722,359.34c-84.166.287-155.338,55.552-179.606,131.731H115.8c27.2-155.712,163.059-274.1,326.582-274.1Q454.629,216.975,466.674,217.88ZM0,4.85,179.716,145.98H479.338L504.223,4.85Z"/></svg>