<svg xmlns="http://www.w3.org/2000/svg" viewBox="0 0 5568.539 500"><path fill="currentColor" class="flo-svg-logo-title" d="M704.929,210.871H888.558l-19.4,114.684H685.526L656.913,493.118H535.166L618.418,6.882H950.026L929.9,123.635H720.037Zm645.418-43.954C1370.319,54.949,1477.113,0,1575.99,0s188.441,55.648,169.193,166.917L1715.95,333.109C1696.65,444.378,1593.22,500,1489.634,500c-98.877,0-187.82-55.622-168.521-166.891Zm91.168,166.192c-5.9,35.029,29.13,52.88,65.452,52.88,39.013,0,82.01-17.851,88.685-56.321l29.13-162.751c6.623-36.4-26.388-54.949-65.4-54.949s-82.01,18.549-88.632,54.949ZM1923.431,8.02h86.563L2086.468,323.2,2273.046,8.02h87.235l-83.044,485.1h-77.819l37.771-222.693L2274.6,138.873h-6.726l-59.554,114.451-107.932,172.66h-61.055L1990.9,253.324,1971.4,136.829h-6.726l-9.313,134.294-37.771,222h-77.2Zm888.964,485.1h-81.233l-25.147-126.067H2535.58l-64.055,126.067h-83.252L2642.426,8.02h81.233Zm-147.876-404.9L2634.975,166.3l-59.14,121.281h117.452l-17.954-122.626-1.4-76.732ZM3089.572,305.4H3032.5l-31.873,187.716h-77.87L3005.8,8.02h183.888c93.237,0,156.155,43.152,140.477,150.049-15.264,91.142-75.749,134.294-149.894,144.59l114.244,190.459h-94.634Zm61.417-69.2c53.707,0,92.1-23.309,101.257-77.43,9.262-54.122-23.646-72.619-75.387-71.248h-106.69L3044.3,236.2Zm299.581-78.8C3468.213,53.914,3568.643,1.164,3661.259,1.164c69.126,0,134.941,36.322,155.9,111.011L3742.131,147.1c-15.264-43.851-54.742-66.436-96.342-66.436-52.362,0-109.588,25.328-118.073,76.732l-31.2,186.372c-8.434,51.405,38.961,76.732,91.323,76.732,42.272,0,89.357-21.913,119-65.763l63.952,32.881c-48.171,75.361-126.61,112.356-196.409,112.356-90.547,0-172.66-52.077-155.016-156.206Zm502.82,335.722h-77.871l83.045-485.1h77.87L4001.25,211.543h211.362L4247.8,8.02h77.819l-83.045,485.1h-77.818l34.408-202.8H3987.8Zm524.4,0h-77.2l83.044-485.1h77.2Zm157.242,0,83.044-485.1h81.854L4915.67,294.433l32.235,96.6,5.433-1.345,6.157-104.155L5007.3,8.02h77.818l-83.044,485.1h-90.6l-113.83-280.9L4769.3,119.7l-4.76,1.4-5.485,101.387L4712.9,493.118Zm569.462-337.093C5222.133,52.569,5322.51,1.164,5413.782,1.164c69.126,0,132.457,30.838,154.757,105.526l-75.749,35.624c-13.245-43.152-53.6-60.977-94.479-60.977-51.741,0-107.57,25.353-116.728,76.732L5249.762,342.4c-9.158,52.776,39.582,78.1,91.944,78.1,52.983,0,111.606-25.327,120.091-78.1l6-38.366H5334.256l13.4-76.06h210.689L5539,341.7c-18.368,106.2-118.8,157.6-211.414,157.6-91.892,0-173.333-51.4-154.965-157.6ZM1165.553,373.933c-29.776-.038-55.412-17.606-50.6-45.975L1171.243,4.8H1053.276l-55.6,323.162c-17.666,104.127,52.9,162.951,147.649,162.951h74.97l20.1-116.977Z"/><path fill="currentColor" class="flo-svg-logo-graphic" d="M466.674,217.883l-24.952,141.46c-84.166.287-155.338,55.552-179.606,131.731H115.8c27.2-155.712,163.059-274.1,326.582-274.1Q454.629,216.979,466.674,217.883ZM0,4.854,179.716,145.983H479.338L504.223,4.854Z"/></svg>