<svg xmlns="http://www.w3.org/2000/svg" viewBox="0 0 4437.22 500"><path fill="currentColor" class="flo-svg-logo-title" d="M704.929,210.871H888.558l-19.4,114.684H685.526L656.913,493.118H535.166L618.418,6.882H950.026L929.9,123.635H720.037Zm645.418-43.954C1370.319,54.949,1477.113,0,1575.99,0s188.441,55.648,169.193,166.917L1715.95,333.109C1696.65,444.378,1593.22,500,1489.634,500c-98.877,0-187.82-55.622-168.521-166.891Zm91.168,166.192c-5.9,35.029,29.13,52.88,65.452,52.88,39.013,0,82.01-17.851,88.685-56.321l29.13-162.751c6.623-36.4-26.388-54.949-65.4-54.949s-82.01,18.549-88.632,54.949ZM2007.2,305.4h-57.07l-31.873,187.716h-77.87l83.044-485.1h183.888c93.238,0,156.155,43.152,140.477,150.049-15.263,91.142-75.749,134.294-149.894,144.59l114.245,190.459h-94.635Zm61.417-69.2c53.707,0,92.047-23.309,101.257-77.43,9.262-54.122-23.645-72.619-75.387-71.248H1987.8L1961.927,236.2Zm633.052,256.92h-81.233l-25.147-126.067H2424.854L2360.8,493.118h-83.252L2531.7,8.02h81.233Zm-147.876-404.9L2524.249,166.3l-59.14,121.281h117.452l-17.954-122.626-1.4-76.732ZM2843.647,157.4C2861.29,53.914,2961.72,1.164,3054.336,1.164c69.126,0,134.941,36.322,155.9,111.011L3135.208,147.1c-15.264-43.851-54.742-66.436-96.342-66.436-52.362,0-109.588,25.328-118.073,76.732l-31.2,186.372c-8.434,51.405,38.961,76.732,91.323,76.732,42.272,0,89.357-21.913,119-65.763l63.952,32.881c-48.171,75.361-126.61,112.356-196.409,112.356-90.547,0-172.66-52.077-155.016-156.206Zm502.82,335.722h-77.2l83.044-485.1h77.2Zm157.189,0L3586.7,8.02h81.855L3784.3,294.433l32.234,96.6,5.433-1.345,6.157-104.155L3875.933,8.02h77.819l-83.045,485.1h-90.6l-113.831-280.9L3637.924,119.7l-4.76,1.4-5.485,101.387-46.153,270.631ZM4073.17,156.025C4090.814,52.569,4191.192,1.164,4282.463,1.164c69.126,0,132.457,30.838,154.757,105.526l-75.749,35.624c-13.245-43.152-53.552-60.977-94.531-60.977-51.637,0-107.517,25.353-116.676,76.732L4118.444,342.4c-9.159,52.776,39.582,78.1,91.943,78.1,52.983,0,111.606-25.327,120.092-78.1l6-38.366H4202.937l13.4-76.06h210.689L4407.676,341.7c-18.42,106.2-118.8,157.6-211.414,157.6-91.892,0-173.332-51.4-154.964-157.6Zm-2907.617,217.9c-29.776-.039-55.412-17.607-50.6-45.975l56.29-323.162H1053.276l-55.6,323.162c-17.666,104.127,52.9,162.95,147.649,162.95h74.97l20.1-116.976Z"/><path fill="currentColor" class="flo-svg-logo-graphic" d="M466.674,217.872,441.722,359.333c-84.166.287-155.338,55.552-179.606,131.731H115.8c27.2-155.712,163.059-274.1,326.582-274.1Q454.629,216.968,466.674,217.872ZM0,4.843l179.716,141.13H479.338L504.223,4.843Z"/></svg>