<svg xmlns="http://www.w3.org/2000/svg" viewBox="0 0 4218.251 500"><path fill="currentColor" class="flo-svg-logo-title" d="M704.929,210.871H888.558l-19.4,114.684H685.526L656.913,493.118H535.166L618.418,6.882H950.026L929.9,123.635H720.037Zm645.418-43.954C1370.319,54.949,1477.113,0,1575.99,0s188.441,55.648,169.193,166.917L1715.95,333.109C1696.65,444.378,1593.22,500,1489.634,500c-98.877,0-187.82-55.622-168.521-166.891Zm91.168,166.192c-5.9,35.029,29.13,52.88,65.452,52.88,39.013,0,82.01-17.851,88.685-56.321l29.13-162.751c6.623-36.4-26.388-54.949-65.4-54.949s-82.01,18.549-88.632,54.949ZM2007.2,305.4h-57.07l-31.873,187.716h-77.87l83.044-485.1h183.888c93.238,0,156.155,43.152,140.477,150.049-15.263,91.142-75.749,134.294-149.894,144.59l114.245,190.459h-94.635Zm61.417-69.2c53.707,0,92.047-23.309,101.257-77.43,9.262-54.122-23.645-72.619-75.387-71.248H1987.8L1961.927,236.2Zm300.3-78.129c18.317-104.827,122.109-156.9,218.761-156.9,95.928,0,184.044,52.078,165.727,156.905L2720.917,342.4C2702.6,447.224,2596.79,499.974,2500.81,499.974c-96.652,0-182.749-52.75-164.381-157.577ZM2414.247,341.7c-9.106,52.078,42.945,78.8,100.637,78.8,58.415,0,120.4-26.724,129.559-78.8l31.666-181.559c9.986-55.493-44.187-78.8-101.93-78.8-57.743.7-118.953,24.655-128.214,78.8ZM3092.987,8.02c92.617,0,169.5,46.593,151.808,152.791L3213.026,343.1c-17.643,105.474-110.467,150.023-203.083,150.023H2839.507l83.045-485.1Zm-69.54,405.624c52.983,0,103.327-19.868,111.761-70.549l31.769-182.284c8.434-51.379-34.46-73.291-87.443-73.291h-93.289l-56.087,326.124Zm435.349-202.8H3675.54l-13.505,79.474H3445.292l-20.955,123.325h235.525l-13.452,79.474h-313.4l83.044-485.8h313.4L3716,86.822H3480.476Zm372.536-52.776c18.317-104.827,122.109-156.9,218.762-156.9,95.928,0,184.043,52.078,165.726,156.905L4183.327,342.4C4165.011,447.224,4059.2,499.974,3963.22,499.974c-96.652,0-182.749-52.75-164.381-157.577ZM3876.657,341.7c-9.106,52.078,42.946,78.8,100.637,78.8,58.416,0,120.4-26.724,129.56-78.8l31.665-181.559c9.986-55.493-44.187-78.8-101.93-78.8-57.743.7-118.953,24.655-128.214,78.8Zm-2711.1,32.225c-29.776-.039-55.412-17.607-50.6-45.975l56.29-323.162H1053.276l-55.6,323.162c-17.666,104.127,52.9,162.95,147.649,162.95h74.97l20.1-116.976Z"/><path fill="currentColor" class="flo-svg-logo-graphic" d="M466.674,217.872,441.722,359.333c-84.166.287-155.338,55.552-179.606,131.731H115.8c27.2-155.712,163.059-274.1,326.582-274.1Q454.629,216.968,466.674,217.872ZM0,4.843l179.716,141.13H479.338L504.223,4.843Z"/></svg>