<svg xmlns="http://www.w3.org/2000/svg" viewBox="0 0 5402.626 500"><path fill="currentColor" class="flo-svg-logo-title" d="M704.965,210.856H888.6L869.2,325.572H685.561L656.947,493.118H535.194L618.45,6.882H950.075L929.947,123.616H720.074Zm645.452-43.931C1370.39,54.952,1477.189,0,1576.072,0s188.45,55.625,169.2,166.925l-29.236,166.2C1696.738,444.375,1593.3,500,1489.711,500c-98.882,0-187.83-55.625-168.529-166.874Zm91.173,166.2c-5.9,35.031,29.131,52.882,65.455,52.882,39.015,0,82.014-17.851,88.689-56.348l29.132-162.735c6.623-36.427-26.389-54.951-65.4-54.951s-82.014,18.524-88.637,54.951Zm606.747-128.479C2128.281,220.428,2215.831,251.268,2189.8,365c-19.921,92.517-113.991,135-200.558,135-72.442,0-137.587-39.067-157.715-116.475l76.891-32.909c12.573,46.621,51.381,69.233,95.674,69.233,48.277,0,97.9-18.524,108.093-61.006,13.246-54.8-37.2-69.233-93.967-78.133-77.409-12.315-151.971-49.985-135.879-146.642,20.439-88.378,110.576-132.93,193.78-132.93,71.148,0,133.292,26.752,152.8,103.488l-75.6,31.512C2140.8,90.914,2107.17,73.787,2063.6,73.787c-46.362,0-94.07,21.939-103.539,63.024C1949.248,179.292,1999.646,195.074,2048.337,204.647Zm297.889-46.57C2364.543,53.244,2468.341,1.138,2565,1.138c95.933,0,184.053,52.106,165.736,156.939l-32.495,184.311C2679.87,447.221,2574.105,500,2478.121,500c-96.606,0-182.708-52.779-164.39-157.612Zm45.327,183.639c-9.107,52.054,42.948,78.806,100.642,78.806,58.419,0,120.408-26.752,129.566-78.806l31.667-181.569c9.987-55.521-44.24-78.806-101.986-78.806-57.7.673-118.908,24.63-128.17,78.806Zm549.933-117.872h205.992L3133.4,303.322H2927.36l-31.978,189.8h-77.874l83.049-485.1H3213.3l-13.5,79.479H2964.926ZM3517.5,87.5l-68.871,405.619h-77.875L3439.675,87.5H3295.362l14.177-80.2h366.4l-14.178,80.2Zm527.476,145.969c47.552,22.612,53.451,66.439,45.068,115.13-20.438,106.851-97.588,144.52-190.831,144.52h-184.57L3797.69,7.3h185.243c79.168,0,136.707,44.551,121.6,134.327C4098.684,174.532,4079.228,212.874,4044.974,233.468ZM3912.51,417.106c51.019,1.346,91.276-18.524,100.486-71.251,9.107-52.778-21.629-74.045-75.391-73.372H3830.237l-25.1,144.623Zm36.945-215.874c38.911,0,71.044-17.8,78.6-62.352,6.675-37-20.9-54.8-58.47-54.8H3862.215l-20.129,117.148Zm620.459,291.886h-81.238L4463.529,367.07H4293.085l-64.059,126.048H4145.77L4399.936,8.02h81.237ZM4422.03,88.223,4392.485,166.3l-59.143,121.288H4450.8l-17.955-122.633-1.4-76.736Zm341.923-80.2h77.2L4771.56,413.64h216.754l-13.453,79.478H4680.9Zm414.312,0h77.2l-69.595,405.62h216.754l-13.453,79.478H5095.217ZM1165.613,373.936c-29.778-.038-55.415-17.608-50.6-45.977L1171.3,4.78H1053.331l-55.6,323.179c-17.666,104.132,52.906,162.959,147.657,162.959h74.974l20.1-116.983Z"/><path fill="currentColor" class="flo-svg-logo-graphic" d="M466.7,217.878,441.745,359.345C357.574,359.632,286.4,414.9,262.13,491.083H115.808c27.2-155.72,163.068-274.11,326.6-274.11Q454.652,216.973,466.7,217.878ZM0,4.837,179.725,145.974H479.362L504.249,4.837Z"/></svg>