<svg xmlns="http://www.w3.org/2000/svg" viewBox="0 0 4422.562 500">
<path class="flo-svg-logo-graphic" fill="currentColor" d="M466.775,219.891,441.818,361.382c-84.184.287-155.371,55.564-179.645,131.76H115.827C143.036,337.4,278.922,218.987,442.48,218.987Q454.727,218.987,466.775,219.891ZM0,6.816l179.755,141.16H479.442L504.333,6.816Z"/>
<path fill="currentColor" class="flo-svg-logo-title" d="M702.847,210.863h183.7l-19.412,114.7H683.451l-28.61,167.586H533.06L616.295,6.881H948.019L927.867,123.637H717.941ZM1348.541,166.9C1368.529,54.953,1475.364,0,1574.283,0c98.9,0,188.51,55.643,169.229,166.9L1714.278,333.1C1695,444.373,1591.479,500,1487.862,500c-98.9,0-187.836-55.627-168.555-166.9ZM1439.758,333.1c-5.913,35.032,29.135,52.884,65.464,52.884,39.039,0,82.036-17.852,88.72-56.316L1623.061,166.9c6.636-36.412-26.359-54.937-65.4-54.937-39.023,0-82.053,18.525-88.688,54.937ZM2020.3,204c80.2,15.783,167.964,46.692,141.851,160.7C2142.162,457.43,2047.841,500,1961.043,500c-72.658,0-137.926-39.137-158.16-116.755l77.158-32.963c12.548,46.709,51.472,69.374,95.881,69.374,48.434,0,98.181-18.542,108.4-61.129,13.3-54.953-37.314-69.373-94.222-78.308-77.618-12.35-152.362-50.124-136.267-146.974C1874.359,44.639,1964.705,0,2048.137,0c71.328,0,133.655,26.787,153.232,103.715L2125.591,135.3c-12.564-45.313-46.315-62.492-90.035-62.492-46.429,0-94.271,21.991-103.764,63.181C1920.92,178.59,1971.5,194.373,2020.3,204ZM2323.249,6.881H2507.62c109.66,0,150.621,81.035,137.153,160.016-13.549,81.05-82.1,157.978-191.1,157.978h-108.33l-28.626,168.276H2240Zm142.327,245.188c58.533,0,95.01-43.259,101.777-83.793,6.766-40.517-15.324-83.1-73.233-81.74H2386.463l-28.544,165.533Zm263.779-94.8C2747.749,52.194,2851.809,0,2948.709,0c96.209,0,184.584,52.194,166.19,157.272l-32.568,184.766C3063.936,447.116,2957.84,500,2861.614,500c-96.883,0-183.221-52.884-164.827-157.962Zm45.51,184.092c-9.181,52.2,43.046,78.982,100.906,78.982,58.55,0,120.7-26.787,129.895-78.982l31.779-182.022c9.986-55.627-44.376-78.981-102.253-78.981-57.893.689-119.268,24.717-128.531,78.981Zm546.446-36.411h-57.2l-31.993,188.2h-78.061L3237.3,6.881h184.371c93.516,0,156.632,43.26,140.849,150.391-15.241,91.365-75.926,134.641-150.292,144.922l114.587,190.957H3431.94Zm61.572-69.356c53.836,0,92.317-23.355,101.563-77.635,9.263-54.247-23.732-72.789-75.6-71.426H3301.865L3275.9,235.6ZM3869.925,86.536l-69.078,406.615h-78.061L3791.88,86.536H3647.2l14.19-80.344h367.38l-14.19,80.344ZM4241.492,204c80.2,15.783,167.964,46.692,141.851,160.7C4363.355,457.43,4269.034,500,4182.236,500c-72.658,0-137.926-39.137-158.16-116.755l77.158-32.963c12.548,46.709,51.472,69.374,95.881,69.374,48.434,0,98.181-18.542,108.4-61.129,13.3-54.953-37.314-69.373-94.222-78.308-77.618-12.35-152.362-50.124-136.267-146.974C4095.552,44.639,4185.9,0,4269.33,0c71.328,0,133.655,26.787,153.232,103.715L4346.784,135.3c-12.564-45.313-46.315-62.492-90.034-62.492-46.43,0-94.272,21.991-103.765,63.181C4142.113,178.59,4192.7,194.373,4241.492,204Zm-3077.8,170.693c-29.787-.038-55.433-17.613-50.619-45.992L1169.379,5.412H1051.368L995.748,328.7c-17.672,104.167,52.924,163.013,147.707,163.013h75l20.109-117.022Z"/>
</svg>
