<svg xmlns="http://www.w3.org/2000/svg" viewBox="0 0 500 500">
  <path fill="currentColor" class="hawk" d="M75.5,247l-2.5,14.1c-8.4,0-15.5,5.6-18,13.2H40.5c2.7-15.6,16.3-27.4,32.7-27.4C73.9,246.9,74.7,246.9,75.5,247z
	 M28.9,225.7l18,14.1h30l2.5-14.1H28.9z"/>
   <path fill="currentColor" class="flosports" d="M99.2,246.1h18.4l-1.9,11.5H97.2l-2.9,16.8H82.2l8.3-48.6h33.2l-2,11.7h-21L99.2,246.1z M163.7,241.7
	c2-11.2,12.7-16.7,22.6-16.7c9.9,0,18.9,5.6,16.9,16.7l-2.9,16.6c-1.9,11.1-12.3,16.7-22.6,16.7c-9.9,0-18.8-5.6-16.9-16.7
	L163.7,241.7z M172.8,258.3c-0.6,3.5,2.9,5.3,6.5,5.3c3.9,0,8.2-1.8,8.9-5.6l2.9-16.3c0.7-3.6-2.6-5.5-6.5-5.5
	c-3.9,0-8.2,1.9-8.9,5.5L172.8,258.3z M230.9,245.4c8,1.6,16.8,4.7,14.2,16.1c-2,9.3-11.4,13.5-20.1,13.5c-7.3,0-13.8-3.9-15.8-11.7
	l7.7-3.3c1.3,4.7,5.1,6.9,9.6,6.9c4.8,0,9.8-1.9,10.8-6.1c1.3-5.5-3.7-6.9-9.4-7.8c-7.8-1.2-15.2-5-13.6-14.7
	c2.1-8.9,11.1-13.3,19.4-13.3c7.1,0,13.4,2.7,15.3,10.4l-7.6,3.2c-1.3-4.5-4.6-6.2-9-6.2c-4.6,0-9.4,2.2-10.4,6.3
	C221,242.9,226,244.4,230.9,245.4z M261.2,225.7h18.4c11,0,15.1,8.1,13.7,16c-1.4,8.1-8.2,15.8-19.1,15.8h-10.8l-2.9,16.8h-7.7
	L261.2,225.7z M275.4,250.2c5.9,0,9.5-4.3,10.2-8.4c0.7-4.1-1.5-8.3-7.3-8.2h-10.8l-2.9,16.6H275.4z M301.8,240.7
	c1.8-10.5,12.2-15.7,21.9-15.7c9.6,0,18.5,5.2,16.6,15.7l-3.3,18.5c-1.8,10.5-12.4,15.8-22.1,15.8c-9.7,0-18.3-5.3-16.5-15.8
	L301.8,240.7z M306.4,259.1c-0.9,5.2,4.3,7.9,10.1,7.9c5.9,0,12.1-2.7,13-7.9l3.2-18.2c1-5.6-4.4-7.9-10.2-7.9
	c-5.8,0.1-11.9,2.5-12.9,7.9L306.4,259.1z M361,255.5h-5.7l-3.2,18.8h-7.8l8.3-48.6H371c9.4,0,15.7,4.3,14.1,15
	c-1.5,9.1-7.6,13.5-15,14.5l11.5,19.1h-9.5L361,255.5z M367.2,248.6c5.4,0,9.2-2.3,10.2-7.8c0.9-5.4-2.4-7.3-7.6-7.1h-10.7
	l-2.6,14.9L367.2,248.6z M415.9,233.7l-6.9,40.7h-7.8l6.9-40.7h-14.5l1.4-8h36.7l-1.4,8H415.9z M453,245.4c8,1.6,16.8,4.7,14.2,16.1
	c-2,9.3-11.4,13.5-20.1,13.5c-7.3,0-13.8-3.9-15.8-11.7l7.7-3.3c1.3,4.7,5.1,6.9,9.6,6.9c4.8,0,9.8-1.9,10.8-6.1
	c1.3-5.5-3.7-6.9-9.4-7.8c-7.8-1.2-15.2-5-13.6-14.7c2.1-8.9,11.1-13.3,19.4-13.3c7.1,0,13.4,2.7,15.3,10.4l-7.6,3.2
	c-1.3-4.5-4.6-6.2-9-6.2c-4.6,0-9.4,2.2-10.4,6.3C443.1,242.9,448.1,244.4,453,245.4z M145.2,262.5c-3,0-5.5-1.8-5.1-4.6l5.6-32.3
	H134l-5.6,32.3c-1.8,10.4,5.3,16.3,14.8,16.3h7.5l2-11.7L145.2,262.5z"/>
</svg>
