<svg xmlns="http://www.w3.org/2000/svg" viewBox="0 0 5573.248 500"><path fill="currentColor" class="flo-svg-logo-title" d="M704.929,210.871H888.558l-19.4,114.684H685.526L656.913,493.118H535.166L618.418,6.882H950.026L929.9,123.635H720.037Zm645.418-43.954C1370.319,54.949,1477.113,0,1575.99,0s188.441,55.648,169.193,166.917L1715.95,333.109C1696.65,444.378,1593.22,500,1489.634,500c-98.877,0-187.82-55.622-168.521-166.891Zm91.168,166.192c-5.9,35.029,29.13,52.88,65.452,52.88,39.013,0,82.01-17.851,88.685-56.321l29.13-162.751c6.623-36.4-26.388-54.949-65.4-54.949s-82.01,18.549-88.632,54.949Zm606.716-128.447c79.94,15.781,167.486,46.593,141.46,160.346-19.92,92.487-113.986,134.966-200.548,134.966-72.438,0-137.58-39.039-157.707-116.469l76.887-32.882c12.573,46.593,51.379,69.2,95.669,69.2,48.275,0,97.894-18.523,108.087-61,13.246-54.793-37.2-69.2-93.961-78.1-77.4-12.34-151.964-50.007-135.872-146.634,20.437-88.4,110.57-132.923,193.77-132.923,71.144,0,133.285,26.75,152.791,103.482l-75.593,31.485c-12.522-45.2-46.153-62.322-89.719-62.322-46.36,0-94.066,21.912-103.534,63.02C1949.147,179.309,1999.543,195.09,2048.231,204.662Zm341.388,288.456L2335.084,8.02h80.509l31.872,303.513c-.672,0-1.759,90.444-1.759,90.444h6.054l30.734-93.833L2597.049,79.293h65.09l34.408,230.222c-.673,0,4.191,91.142,4.191,91.142h6.053l26.595-90.443L2868.534,8.02h79.888L2727.8,493.118h-82.527L2610.45,256.067l1.4-60.977h-4.709s-22.2,60.3-21.524,60.3L2472.146,493.118Zm669.374,0h-77.2L3064.84,8.02h77.2ZM3299.279,8.02h86.563L3462.315,323.2,3648.893,8.02h87.236l-83.045,485.1h-77.818l37.771-222.693,37.408-131.552h-6.726l-59.606,114.451-107.88,172.66h-61.054l-48.43-172.66-19.506-116.495h-6.727L3331.2,271.123l-37.771,222h-77.2Zm594.194,0h86.563L4056.509,323.2,4243.088,8.02h87.235l-83.044,485.1H4169.46l37.771-222.693,37.409-131.552h-6.726l-59.606,114.451-107.88,172.66h-61.055l-48.429-172.66-19.507-116.495h-6.726L3925.4,271.123l-37.771,222h-77.2Zm589.021,485.1h-77.2l83.045-485.1h77.2Zm157.189,0,83.045-485.1h81.854l115.745,286.413,32.235,96.6,5.432-1.345,6.158-104.155L5011.96,8.02h77.819l-83.044,485.1h-90.6l-113.83-280.9L4773.951,119.7l-4.76,1.4-5.484,101.387-46.153,270.631ZM5209.2,156.025C5226.841,52.569,5327.219,1.164,5418.49,1.164c69.126,0,132.457,30.838,154.758,105.526L5497.5,142.314c-13.246-43.152-53.552-60.977-94.531-60.977-51.638,0-107.518,25.353-116.676,76.732L5254.471,342.4c-9.158,52.776,39.582,78.1,91.944,78.1,52.983,0,111.605-25.327,120.091-78.1l6-38.366H5338.964l13.4-76.06h210.69L5543.7,341.7c-18.42,106.2-118.8,157.6-211.415,157.6-91.892,0-173.332-51.4-154.964-157.6ZM1165.553,373.932c-29.776-.038-55.412-17.607-50.6-45.975L1171.243,4.8H1053.276l-55.6,323.162c-17.666,104.127,52.9,162.951,147.649,162.951h74.97l20.1-116.977Z"/><path fill="currentColor" class="flo-svg-logo-graphic" d="M466.674,217.882l-24.952,141.46c-84.166.287-155.338,55.552-179.606,131.731H115.8c27.2-155.712,163.059-274.1,326.582-274.1Q454.629,216.977,466.674,217.882ZM0,4.852l179.716,141.13H479.338L504.223,4.852Z"/></svg>