<svg xmlns="http://www.w3.org/2000/svg" viewBox="0 0 4187.052 500"><path fill="currentColor" class="flo-svg-logo-title" d="M704.929,210.871H888.558l-19.4,114.684H685.526L656.913,493.118H535.166L618.418,6.882H950.026L929.9,123.635H720.037Zm645.418-43.954C1370.319,54.949,1477.113,0,1575.99,0s188.441,55.648,169.193,166.917L1715.95,333.109C1696.65,444.378,1593.22,500,1489.634,500c-98.877,0-187.82-55.622-168.521-166.891Zm91.168,166.192c-5.9,35.029,29.13,52.88,65.452,52.88,39.013,0,82.01-17.851,88.685-56.321l29.13-162.751c6.623-36.4-26.388-54.949-65.4-54.949s-82.01,18.549-88.632,54.949ZM2095.833,86.563l-69.075,406.555h-78.025l69.074-406.555H1873.191l14.177-80.38h367.258l-14.177,80.38Zm364,218.4h-57.174L2370.63,493.118H2292.6L2375.855,6.882h184.3c93.5,0,156.569,43.255,140.788,150.411-15.212,91.349-75.9,134.6-150.256,144.927l114.554,190.9H2570.4Zm61.572-69.385c53.811,0,92.255-23.335,101.516-77.611,9.262-54.251-23.749-72.774-75.594-71.4H2440.377L2414.4,235.577Zm634.346,257.541H3074.36l-25.249-126.351h-170.85l-64.21,126.351h-83.407L2985.417,6.882h81.389ZM3007.562,87.261l-29.595,78.285-59.348,121.539H3036.33l-17.954-122.911-1.4-76.913Zm290.371,69.333C3315.577,52.879,3416.265,0,3509.089,0c69.281,0,135.3,36.426,156.31,111.269l-75.18,35.029c-15.316-43.954-54.9-66.617-96.6-66.617-52.465,0-109.846,25.405-118.332,76.913l-31.3,186.812c-8.486,51.534,39.064,76.913,91.53,76.913,42.376,0,89.564-21.964,119.315-65.918l64.107,32.959C3570.609,462.9,3492.014,500,3422.06,500c-90.8,0-173.125-52.207-155.43-156.594ZM4090.866,6.882h96.186L3932.8,241.76l172.349,251.358h-98.877L3867.655,298.08l-39.531,34.331-27.009,160.707h-77.352L3807.014,6.882h77.353l-36.943,214.984ZM1165.553,373.936c-29.776-.038-55.412-17.607-50.6-45.975L1171.243,4.8H1053.276l-55.6,323.162c-17.666,104.127,52.9,162.951,147.649,162.951h74.97l20.1-116.977Z"/><path fill="currentColor" class="flo-svg-logo-graphic" d="M466.674,217.886l-24.952,141.46c-84.166.287-155.338,55.552-179.606,131.731H115.8c27.2-155.712,163.059-274.1,326.582-274.1Q454.629,216.981,466.674,217.886ZM0,4.857,179.716,145.986H479.338L504.223,4.857Z"/></svg>