<svg xmlns="http://www.w3.org/2000/svg" viewBox="0 0 3935.694 500"><path fill="currentColor" class="flo-svg-logo-title" d="M704.929,210.871H888.558l-19.4,114.684H685.526L656.913,493.118H535.166L618.418,6.882H950.026L929.9,123.635H720.037Zm645.418-43.954C1370.319,54.949,1477.113,0,1575.99,0s188.441,55.648,169.193,166.917L1715.95,333.109C1696.65,444.378,1593.22,500,1489.634,500c-98.877,0-187.82-55.622-168.521-166.891Zm91.168,166.192c-5.9,35.029,29.13,52.88,65.452,52.88,39.013,0,82.01-17.851,88.685-56.321l29.13-162.751c6.623-36.4-26.388-54.949-65.4-54.949s-82.01,18.549-88.632,54.949Zm569.359-16.764c-.673,0,6.933,91.116,6.933,91.116h6.726l36.012-92.487L2219.339,8.02h81.906l-254.152,485.1h-81.907L1876.451,8.02h82.578Zm352.667-158.276C2381.857,53.242,2485.65,1.164,2582.3,1.164c95.928,0,184.043,52.078,165.727,156.905L2715.536,342.4c-18.317,104.827-124.127,157.577-220.107,157.577-96.652,0-182.749-52.75-164.381-157.577ZM2408.866,341.7c-9.106,52.078,42.945,78.8,100.637,78.8,58.415,0,120.4-26.724,129.559-78.8l31.666-181.559c9.986-55.493-44.187-78.8-101.93-78.8-57.743.7-118.953,24.655-128.214,78.8ZM2912,493.118h-77.2l83.044-485.1h77.2ZM3113.632,157.4C3131.275,53.914,3231.705,1.164,3324.321,1.164c69.126,0,134.941,36.322,155.9,111.011L3405.193,147.1c-15.264-43.851-54.742-66.436-96.342-66.436-52.362,0-109.588,25.328-118.073,76.732l-31.2,186.372c-8.434,51.405,38.961,76.732,91.323,76.732,42.272,0,89.357-21.913,119-65.763l63.952,32.881c-48.171,75.361-126.61,112.356-196.409,112.356-90.547,0-172.66-52.077-155.016-156.206Zm551.4,53.449H3881.78l-13.505,79.474H3651.532l-20.955,123.325H3866.1l-13.452,79.474h-313.4L3622.3,7.321h313.4l-13.453,79.5H3686.716ZM1165.553,373.924c-29.776-.039-55.412-17.607-50.6-45.975l56.29-323.162H1053.276l-55.6,323.162c-17.666,104.127,52.9,162.95,147.649,162.95h74.97l20.1-116.976Z"/><path fill="currentColor" class="flo-svg-logo-graphic" d="M466.674,217.873l-24.952,141.46c-84.166.288-155.338,55.553-179.606,131.732H115.8c27.2-155.712,163.059-274.1,326.582-274.1Q454.629,216.969,466.674,217.873ZM0,4.844l179.716,141.13H479.338L504.223,4.844Z"/></svg>