<svg xmlns="http://www.w3.org/2000/svg" viewBox="0 0 6274.598 500"><path fill="currentColor" class="flo-svg-logo-title" d="M704.929,210.871H888.558l-19.4,114.684H685.526L656.913,493.118H535.166L618.418,6.882H950.026L929.9,123.635H720.037Zm645.418-43.954C1370.319,54.949,1477.113,0,1575.99,0s188.441,55.648,169.193,166.917L1715.95,333.109C1696.65,444.378,1593.22,500,1489.634,500c-98.877,0-187.82-55.622-168.521-166.891Zm91.168,166.192c-5.9,35.029,29.13,52.88,65.452,52.88,39.013,0,82.01-17.851,88.685-56.321l29.13-162.751c6.623-36.4-26.388-54.949-65.4-54.949s-82.01,18.549-88.632,54.949Zm569.359-16.764c-.673,0,6.933,91.116,6.933,91.116h6.726l36.012-92.487L2219.339,8.02h81.906l-254.152,485.1h-81.907L1876.451,8.02h82.578Zm352.667-158.276C2381.857,53.242,2485.65,1.164,2582.3,1.164c95.928,0,184.043,52.078,165.727,156.905L2715.536,342.4c-18.317,104.827-124.127,157.577-220.107,157.577-96.652,0-182.749-52.75-164.381-157.577ZM2408.866,341.7c-9.106,52.078,42.945,78.8,100.637,78.8,58.415,0,120.4-26.724,129.559-78.8l31.666-181.559c9.986-55.493-44.187-78.8-101.93-78.8-57.743.7-118.953,24.655-128.214,78.8ZM2917.843,8.02h77.2l-69.592,405.624h216.744l-13.453,79.474H2834.8Zm414.343,0h77.2l-69.592,405.624h216.743l-13.452,79.474H3249.142Zm457.029,202.825h216.743l-13.5,79.474H3775.711l-20.956,123.325h235.526l-13.453,79.474h-313.4l83.045-485.8h313.4l-13.453,79.5H3810.9Zm444.922,282.273,31.976-188.389L4152.075,8.02h89.254l76.99,220.624L4470.179,8.02h90.547l-216.8,296.709-31.976,188.389Zm682.879-259.662c47.55,22.611,53.448,66.461,45.066,115.124-20.438,106.871-97.584,144.538-190.821,144.538H4586.7l83.045-485.8h185.233c79.164,0,136.7,44.549,121.592,134.294C4970.723,174.523,4951.268,212.889,4917.016,233.456ZM4784.558,417.085c51.017,1.345,91.272-18.5,100.482-71.248,9.106-52.775-21.628-74.015-75.387-73.343H4702.29L4677.2,417.085ZM4821.5,201.247c38.91,0,71.041-17.825,78.595-62.374,6.675-36.969-20.9-54.794-58.467-54.794H4734.266l-20.127,117.168Zm620.376,291.871h-81.233L5335.5,367.051H5165.062l-64.055,126.067h-83.252L5271.908,8.02h81.233ZM5294,88.219,5264.457,166.3l-59.14,121.281h117.452l-17.954-122.626-1.4-76.732Zm341.957-80.2h77.2l-69.592,405.624h216.743l-13.452,79.474H5552.913Zm414.291,0h77.2l-69.592,405.624H6274.6l-13.453,79.474H5967.2Zm-4884.7,365.908c-29.776-.039-55.412-17.607-50.6-45.975l56.29-323.162H1053.276l-55.6,323.162c-17.666,104.127,52.9,162.95,147.649,162.95h74.97l20.1-116.976Z"/><path fill="currentColor" class="flo-svg-logo-graphic" d="M466.674,217.877,441.722,359.338c-84.166.287-155.338,55.552-179.606,131.731H115.8c27.2-155.712,163.059-274.1,326.582-274.1Q454.629,216.973,466.674,217.877ZM0,4.848l179.716,141.13H479.338L504.223,4.848Z"/></svg>