<svg xmlns="http://www.w3.org/2000/svg" viewBox="0 0 5969.274 500"><path fill="currentColor" class="flo-svg-logo-title" d="M704.929,210.871H888.558l-19.4,114.684H685.526L656.965,493.118H535.218l83.2-486.236H950.026L929.9,123.609H720.037Zm645.418-43.954C1370.319,54.949,1477.165,0,1576.042,0s188.441,55.648,169.141,166.917L1715.95,333.109C1696.7,444.352,1593.22,500,1489.634,500c-98.877,0-187.768-55.648-168.521-166.891Zm91.168,166.192c-5.9,35.029,29.13,52.88,65.452,52.88,39.013,0,82.01-17.851,88.736-56.321l29.079-162.751c6.623-36.426-26.336-54.949-65.349-54.949s-82.062,18.523-88.684,54.949ZM1937.35,493.118,1882.659,6.882h80.717l31.976,304.237c-.673,0-1.76,90.651-1.76,90.651h6.054l30.786-94.092L2145.245,78.31h65.246l34.46,230.74c-.673,0,4.294,91.348,4.294,91.348h6.054l26.646-90.65L2417.4,6.882h80.043l-221.09,486.236h-82.734L2158.7,255.5l1.4-61.132h-4.708s-22.249,60.46-21.576,60.46L2020.084,493.118Zm759.921-188.182H2640.1l-31.976,188.182H2530.1L2613.3,6.882h184.3c93.5,0,156.62,43.255,140.839,150.411-15.263,91.349-75.9,134.6-150.256,144.9l114.555,190.924h-94.841Zm61.572-69.359c53.811,0,92.254-23.361,101.516-77.586,9.262-54.276-23.749-72.825-75.594-71.454H2677.816l-25.922,149.04Zm382.418-25.4h217.261l-13.5,79.682H3127.757L3106.7,413.463h236.1l-13.453,79.655H3015.22L3098.472,6.183h314.12l-13.505,79.655H3162.993Zm536.4-6.183c80.147,15.781,167.9,46.7,141.771,160.708C3799.46,457.417,3705.188,500,3618.418,500c-72.645,0-137.89-39.142-158.121-116.754l77.146-32.985c12.521,46.7,51.431,69.385,95.824,69.385,48.43,0,98.153-18.549,108.4-61.132,13.3-54.949-37.357-69.359-94.221-78.284-77.559-12.366-152.274-50.137-136.182-147C3531.751,44.653,3622.091,0,3705.5,0c71.3,0,133.595,26.8,153.154,103.715L3782.9,135.3c-12.573-45.325-46.257-62.477-89.978-62.477-46.412,0-94.272,21.964-103.741,63.175C3578.318,178.558,3628.869,194.365,3677.661,203.989ZM4186.276,86.537l-69.022,406.581h-78.026l69.023-406.581H3963.634l14.229-80.354h367.258l-14.229,80.354ZM4466.92,6.882h77.353l-69.747,406.581h217.261l-13.453,79.655H4383.72Zm409.324,486.236h-77.353l83.2-486.236h77.353Zm157.448,0,83.2-486.236h82.062L5314.9,293.967l32.339,96.808,5.432-1.346,6.261-104.387L5406.8,6.882h78.025l-83.2,486.236h-90.806L5196.676,211.543l-28.457-92.72-4.761,1.4-5.484,101.62-46.257,271.278Zm570.652-337.895C5622.04,51.508,5722.676,0,5814.154,0c69.282,0,132.768,30.915,155.12,105.785l-75.9,35.7c-13.3-43.256-53.707-61.132-94.738-61.132-51.793,0-107.829,25.431-116.987,76.939l-31.924,184.741c-9.21,52.88,39.737,78.285,92.2,78.285,53.138,0,111.864-25.405,120.349-78.285l6.054-38.469H5734.473l13.349-76.241h211.207l-19.351,114.038C5921.258,447.793,5820.57,499.3,5727.747,499.3c-92.151,0-173.747-51.508-155.327-157.939ZM1165.534,373.955c-29.776-.039-55.411-17.607-50.6-45.975L1171.224,4.823H1053.259l-55.6,323.157c-17.665,104.126,52.9,162.948,147.647,162.948h74.969l20.1-116.974Z"/><path fill="currentColor" class="flo-svg-logo-graphic" d="M466.666,217.907,441.715,359.365c-84.165.287-155.335,55.551-179.6,131.729H115.8C143,335.384,278.857,217,442.377,217Q454.622,217,466.666,217.907ZM0,4.881,179.713,146.008H479.33L504.215,4.881Z"/></svg>