<svg xmlns="http://www.w3.org/2000/svg" viewBox="0 0 500 500">
  <path fill="currentColor" d="M225.8 66.1c2.7-3.2 7.5-3.6 10.7-.9l77.2 64.8c3.2 2.7 3.6 7.5.9 10.7l-64.8 77.2c-2.7 3.2-7.5 3.6-10.7.9l-4.8-4c-3.2-2.7-3.6-7.5-.9-10.7l46.3-55.2c-47.7-10.8-99.5 4.9-133 44.9-48.1 57.3-40.2 142.3 16.6 190 57.3 48.1 142.3 40.2 190-16.6 22.3-26.6 32.6-59.2 31.5-91.3-.1-4 2.9-7.4 6.9-7.8l6.3-.5c4.3-.4 8.1 3 8.2 7.3 1.4 37.3-10.6 75.2-36.5 106.1-55.4 66-153.8 74.7-219.9 19.4C83.9 345.3 75 246.5 130 180.5c36.9-44.3 93.2-63 146.2-54l-53.4-44.8c-3.2-2.7-3.6-7.5-.9-10.7l3.9-4.9zm49.4 175.4c4.6 0 8.9.7 12.8 2 4 1.3 7.4 3.3 10.2 6s5.1 6 6.8 10 2.4 8.7 2.4 14v28.7c-.1 5.2-.9 9.8-2.4 13.7-1.6 4.1-3.9 7.5-6.8 10.2s-6.3 4.7-10.2 6.1c-4 1.3-8.2 2-12.8 2-4.6 0-8.9-.7-12.8-2-4-1.3-7.4-3.4-10.3-6.1s-5.1-6.1-6.8-10.2c-1.7-4.1-2.5-8.9-2.5-14.4v-28.7c.1-5.1.9-9.5 2.5-13.3 1.7-4 3.9-7.3 6.8-10s6.3-4.7 10.3-6c4-1.3 8.2-2 12.8-2zm-50.6 1.6h.2c1.3.1 1.9.8 1.9 2.2V330.4c-.1 1.3-.8 1.9-2.1 1.9H209.3c-1.3-.1-1.9-.8-1.9-2.1v-64.1l-11 8-.2.1c-1.2.7-2.2.5-3-.7l-7-11-.1-.1c-.6-1-.3-1.9.7-2.9l21.8-15.5.2-.2c.8-.5 1.6-.7 2.5-.7h13.3zm50.6 16.8c-1.8 0-3.4.2-5 .7-1.6.5-3 1.2-4.1 2.2-1.2 1-2.1 2.4-2.8 4.1-.7 1.7-1.1 3.8-1.1 6.2v29.7c0 2.3.4 4.2 1.1 5.8.7 1.7 1.6 3 2.8 4.1 1.2 1 2.5 1.8 4.1 2.2 1.6.5 3.2.7 5 .7s3.4-.2 5-.7c1.6-.5 3-1.2 4.1-2.2 1.2-1 2.1-2.4 2.8-4.1.7-1.7 1.1-3.8 1.1-6.2v-29.7c0-2.3-.4-4.2-1.1-5.8-.7-1.7-1.6-3-2.8-4.1-1.2-1-2.5-1.8-4.1-2.2-1.6-.5-3.2-.7-5-.7z"/>
</svg>
