<svg xmlns="http://www.w3.org/2000/svg" viewBox="0 0 512 512"><defs><style>.a{fill:#4285f4;}.a,.b,.c,.d{fill-rule:evenodd;}.b{fill:#34a853;}.c{fill:#fbbc04;}.d{fill:#ea4335;}</style></defs><title>Google-G</title><path class="a" d="M488.629,261.993a305.883,305.883,0,0,0-4.011-49.5H257.652v93.923H387.681a113.164,113.164,0,0,1-48.134,74.256V441.7H417.1C462.557,399.316,488.629,336.588,488.629,261.993Z"/><path class="b" d="M257.652,500.7c64.847,0,119.667-21.7,159.444-59l-77.549-61.033c-21.727,14.919-49.471,23.4-81.9,23.4-62.842,0-115.99-43.062-135.043-100.7H42.719v63.067C83.5,448.82,166.732,500.7,257.652,500.7Z"/><path class="c" d="M122.609,303.359a149.315,149.315,0,0,1,0-93.583V147.048H42.719a245.167,245.167,0,0,0,0,219.039Z"/><path class="d" d="M257.652,109.072a128.531,128.531,0,0,1,92.257,36.62l68.859-69.849A230.5,230.5,0,0,0,257.652,12.437c-90.92,0-174.152,52.217-214.933,134.611l79.89,63.067C141.662,152.134,194.81,109.072,257.652,109.072Z"/></svg>