<svg xmlns="http://www.w3.org/2000/svg" viewBox="0 0 500 500">
  <path fill="currentColor" d="M250 48.2c111.5 0 201.8 90.4 201.8 201.8 0 111.5-90.4 201.8-201.8 201.8S48.2 361.5 48.2 250c0-111.4 90.3-201.8 201.8-201.8zm13.7 154.9h-39.1c-5.4 0-9.8 4.4-9.8 9.8v6.5c0 5.4 4.4 9.8 9.8 9.8h9.8v97.7h-9.8c-5.4 0-9.8 4.4-9.8 9.8v6.5c0 5.4 4.4 9.8 9.8 9.8h58.6c5.4 0 9.8-4.4 9.8-9.8v-6.5c0-5.4-4.4-9.8-9.8-9.8h-9.8v-114c0-5.4-4.3-9.8-9.7-9.8zm-9.8-71.6c-14.4 0-26 11.7-26 26s11.7 26 26 26c14.4 0 26-11.7 26-26s-11.6-26-26-26z"/>
</svg>
