<svg xmlns="http://www.w3.org/2000/svg" viewBox="0 0 500 500">
  <path fill="currentColor" d="M250 74.2c96.5 0 175.8 78.2 175.8 175.8 0 97.1-78.6 175.8-175.8 175.8-97 0-175.8-78.6-175.8-175.8 0-97 78.6-175.8 175.8-175.8zm0-26C138.5 48.2 48.2 138.6 48.2 250c0 111.5 90.4 201.8 201.8 201.8S451.8 361.5 451.8 250c0-111.4-90.3-201.8-201.8-201.8zm-29.3 279.9h9.8v-97.7h-9.8c-5.4 0-9.8-4.4-9.8-9.8v-6.5c0-5.4 4.4-9.8 9.8-9.8h39.1c5.4 0 9.8 4.4 9.8 9.8V328h9.8c5.4 0 9.8 4.4 9.8 9.8v6.5c0 5.4-4.4 9.8-9.8 9.8h-58.6c-5.4 0-9.8-4.4-9.8-9.8v-6.5c-.1-5.3 4.3-9.7 9.7-9.7zM250 132.8c-14.4 0-26 11.7-26 26s11.7 26 26 26 26-11.7 26-26-11.6-26-26-26z"/>
</svg>
