<svg xmlns="http://www.w3.org/2000/svg" viewBox="0 0 500 500"><path d="M140.413 496.581h219.18a136.986 136.986 0 00136.988-136.988v-219.18A136.986 136.986 0 00359.593 3.425h-219.18A136.986 136.986 0 003.425 140.413v219.18a136.986 136.986 0 00136.988 136.988z" fill="#fff"/><path d="M359.59 500H140.416C62.993 500 0 437.019 0 359.59V140.416C0 62.993 62.993 0 140.416 0H359.59C437.019 0 500 62.993 500 140.416V359.59C500 437.019 437.019 500 359.59 500zM140.416 6.851C66.767 6.851 6.851 66.767 6.851 140.416V359.59c0 73.649 59.916 133.571 133.565 133.571H359.59c73.649 0 133.571-59.922 133.571-133.571V140.416c0-73.649-59.922-133.565-133.571-133.565z" fill="#eeeef0"/><path d="M96.344 167.454a10.439 10.439 0 1010.438 10.439 10.439 10.439 0 00-10.438-10.439z" fill="#ffc107"/><path d="M140.166 220l19.781-8.357c9.316-16.712 25.138-26.4 45.645-26.4a58.181 58.181 0 0113.178 1.557l18.795-7.932a71.426 71.426 0 00-31.973-7.205c-32.74-.003-56.092 17.983-65.426 48.337zm-36.781 15.534v-21.49H89.358v27.425z" fill="#ff5722"/><path d="M103.385 273.743v-38.206l-14.027 5.932v38.192zm47.192-21.713c0-16.013 3.37-29.63 9.37-40.384L140.166 220a108.668 108.668 0 00-4.566 32.03c0 2.754.383 5.233.548 7.864l14.548-6.151c-.009-.589-.119-1.11-.119-1.713zm187.386-77.37a55.026 55.026 0 00-10.6 4.479zm-100.4 4.205L218.77 186.8c14.068 3.247 25.041 11.822 32.192 24.6l14-5.918a61.647 61.647 0 00-27.397-26.617z" fill="#f44336"/><path d="M103.385 311.935v-38.192l-14.027 5.918v38.192zM337.963 174.66l-10.6 4.479c-13.466 7.494-21.6 20.055-21.6 35.343a41.3 41.3 0 001.6 11.3l14.137-5.973a22.792 22.792 0 01-.767-5.754c0-16.808 15.3-29 37.452-29 10.9 0 20.1 2.918 26.822 7.932l14.357-6.069c-9.507-9.37-23.768-15.247-40.741-15.247a69.676 69.676 0 00-20.66 2.989zm-187.276 79.1l-14.548 6.151c.808 13.137 3.562 24.809 8.178 34.74l13.754-5.808c-4.589-9.785-7.165-21.58-7.384-35.087zm114.275-48.26l-14 5.918c5.219 9.342 8.26 20.986 9.014 34.384l14.534-6.138c-1.288-12.99-4.41-24.564-9.548-34.164z" fill="#e91e63"/><path d="M272.044 278.88a112.631 112.631 0 003.315-26.85 119.508 119.508 0 00-.863-12.383l-14.534 6.137c.123 2.1.411 4.055.411 6.246a87.639 87.639 0 01-6.589 34.562zm-113.96 9.945l-13.753 5.809c5.589 12.041 13.808 21.479 24.342 27.918l17.234-7.274c-12.343-4.631-21.836-13.713-27.823-26.453zm-54.7 23.11l-14.027 5.918v11.452h14.027zM321.511 219.8l-14.138 5.973c3.357 11.863 12.535 20.151 29.165 25.877l21.918-9.26-4.63-1.165c-19.959-4.989-29.768-11.4-32.315-21.425zm75.329-7.151h14.767a39.65 39.65 0 00-12.233-25.739l-14.356 6.068a29.359 29.359 0 0111.822 19.668z" fill="#9c27b0"/><path d="M272.044 278.88l-18.26 7.712c-8.617 20.22-25.343 32.329-48.206 32.329a55.2 55.2 0 01-19.685-3.657l-17.233 7.274c10.3 6.288 22.575 9.973 36.918 9.973 34.836 0 58.384-20.302 66.466-53.631zm44.1 10.288h-14.771a42.462 42.462 0 003.617 13.986l13.548-5.726a28.3 28.3 0 01-2.397-8.26zm52.973-44.083l-10.675-2.685-21.918 9.261a119.884 119.884 0 0010.439 3.068l17.658 4.493c9.78 2.411 17.219 5.466 22.726 9.165l16.507-6.973c-7.233-7.055-18.535-12.314-34.74-16.329z" fill="#3f51b5"/><path d="M318.538 297.442l-13.548 5.726c5.164 11.918 15.6 20.973 29.671 25.658l23.179-9.781c-18.891-.452-33.658-8.822-39.302-21.603zm94.672-1.781a45.516 45.516 0 00.863-8.192c0-10.74-3.2-19.233-10.206-26.055l-16.507 6.973c7.932 5.342 11.727 12.1 11.727 20.685a25.311 25.311 0 01-4.768 14.562z" fill="#03a9f4"/><path d="M413.21 295.661l-18.891 7.986c-6.465 9.343-19.1 15.507-34.931 15.507-.535 0-1.014-.082-1.535-.1l-23.178 9.781a73.927 73.927 0 0023.425 3.685c30.233-.009 51.014-14.52 55.11-36.859z" fill="#009688"/></svg>