<svg width="29px" height="15px" viewBox="0 0 29 15" version="1.1">
  <rect fill="#FFFFFF" x="0" y="0" width="29" height="15" rx="1"></rect>
  <path d="M4.735,11 L4.735,4 L6.395,4 L6.395,9.54 L9.305,9.54 L9.305,11 L4.735,11 Z M10.255,11 L10.255,4 L11.915,4 L11.915,11 L10.255,11 Z M14.865,11 L12.725,4 L14.525,4 L15.845,9.23 L17.165,4 L18.915,4 L16.775,11 L14.865,11 Z M19.715,11 L19.715,4 L24.535,4 L24.535,5.44 L21.375,5.44 L21.375,6.71 L23.905,6.71 L23.905,8.13 L21.375,8.13 L21.375,9.56 L24.535,9.56 L24.535,11 L19.715,11 Z" fill="currentColor"></path>
</svg>
