<svg width="24px" height="24px" viewBox="0 0 24 24" version="1.1">
  <path fill="currentColor" d="M7.48065382,18.5842645 L2.86556217,23.7762426 C2.73905055,23.9185681 2.5577145,24 2.36728929,24 L0.37114064,24 C0.279093182,24 0.204473974,23.9253808 0.204473974,23.8333333 C0.204473974,23.7925143 0.219453735,23.7531145 0.246572421,23.722606 L21.1344378,0.223757441 C21.2609495,0.081431865 21.4422855,-3.18466623e-15 21.6327107,-3.21964677e-15 L23.6288594,-4.35762537e-15 C23.7209068,-4.37453422e-15 23.795526,0.0746192084 23.795526,0.166666667 C23.795526,0.207485694 23.7805463,0.246885452 23.7534276,0.277393973 L19.7970704,4.72829575 C20.3541415,5.83752382 20.6666667,7.08338781 20.6666667,8.4 C20.6666667,14.7 12.5352144,24 12,24 C11.7330169,24 9.57582219,21.6858323 7.48065382,18.5842645 Z M9.55955154,10.2455045 L5.33327818,15.000062 C4.17436788,12.762513 3.33333333,10.4261118 3.33333333,8.4 C3.33333333,3.7608081 7.21353217,-3.37507799e-15 12,-1.77635684e-15 C13.94393,-1.5599271e-15 15.7383782,0.620314749 17.1841274,1.66785668 L13.5223642,5.78734028 C13.072849,5.54075432 12.5533838,5.4 12,5.4 C11.1790918,5.4 10.3918059,5.71607052 9.81133615,6.27867966 C9.23086641,6.84128879 8.9047619,7.60435053 8.9047619,8.4 C8.9047619,9.0959479 9.14926299,9.73654663 9.55955154,10.2455045 Z"></path>
</svg>
