<svg xmlns="http://www.w3.org/2000/svg" viewBox="0 0 500 500">
  <path fill="currentColor" d="M250 119.8c-43.1 0-78.1 35-78.1 78.1s35 78.1 78.1 78.1 78.1-35 78.1-78.1-35-78.1-78.1-78.1zm0 130.2c-28.7 0-52.1-23.4-52.1-52.1s23.4-52.1 52.1-52.1 52.1 23.4 52.1 52.1S278.7 250 250 250zm0-208.3c-86.3 0-156.2 70-156.2 156.2 0 63 21.9 80.6 140.2 252 7.8 11.2 24.4 11.2 32.1 0 118.2-171.4 140.2-189 140.2-252-.1-86.3-70-156.2-156.3-156.2zm0 385.7C136.6 263.5 119.8 250.4 119.8 198c0-34.8 13.5-67.5 38.1-92.1s57.3-38.1 92.1-38.1 67.5 13.5 92.1 38.1c24.6 24.6 38.1 57.3 38.1 92.1 0 52.4-16.8 65.4-130.2 229.4z"/>
</svg>
