<svg xmlns="http://www.w3.org/2000/svg" viewBox="0 0 500 500">
  <path fill="currentColor" d="M142.4 285.9c-26.5-40.6-32.2-57.7-32.2-88 0-34.8 13.5-67.5 38.1-92.1 24.6-24.6 57.3-38.1 92.1-38.1s67.5 13.5 92.1 38.1c4.5 4.5 8.7 9.3 12.4 14.4l20.2-16.5c-28.5-37.7-73.7-62-124.6-62-86.3 0-156.2 70-156.2 156.2 0 37.1 7.6 58.4 37.9 104.6l20.2-16.6zM370.6 192.2c.1 1.9.1 3.8.1 5.8 0 52.5-16.8 65.5-130.2 229.4-22.7-32.9-41.6-59.7-57.2-82L163.1 362c16.8 24 37.1 52.7 61.4 88 7.8 11.2 24.4 11.2 32.1 0 118.2-171.4 140.2-189 140.2-252 0-8.7-.7-17.2-2.1-25.5l-24.1 19.7z"/>
  <path fill="currentColor" d="M240.5 145.8c18.4 0 34.6 9.6 43.8 24l20.2-16.6c-14.1-20.2-37.6-33.5-64.1-33.5-43.1 0-78.1 35-78.1 78.1 0 20.9 8.3 39.9 21.7 54l20.2-16.6c-9.8-9.5-15.9-22.7-15.9-37.4.1-28.6 23.5-52 52.2-52zM456.1 75.7c-3.7-4.6-10.1-5.7-15.1-2.9l-1.8 1.2L45.4 396.3c-5.1 4.2-5.9 11.7-1.7 16.9 3.7 4.6 10.1 5.7 15.1 2.9l1.8-1.2L454.4 92.6c5.1-4.2 5.9-11.7 1.7-16.9z"/>
</svg>
