<svg xmlns="http://www.w3.org/2000/svg" viewBox="0 0 500 500">
  <path fill="currentColor" d="M302.1 84v19.5c0 2.7-2.2 4.9-4.9 4.9H72.6c-2.7 0-4.9-2.2-4.9-4.9V84c0-2.7 2.2-4.9 4.9-4.9h224.6c2.7 0 4.9 2.2 4.9 4.9zM72.6 212.6h354.8c2.7 0 4.9-2.2 4.9-4.9v-19.5c0-2.7-2.2-4.9-4.9-4.9H72.6c-2.7 0-4.9 2.2-4.9 4.9v19.5c0 2.7 2.2 4.9 4.9 4.9zm0 208.3h354.8c2.7 0 4.9-2.2 4.9-4.9v-19.5c0-2.7-2.2-4.9-4.9-4.9H72.6c-2.7 0-4.9 2.2-4.9 4.9V416c0 2.7 2.2 4.9 4.9 4.9zm224.6-133.5H72.6c-2.7 0-4.9 2.2-4.9 4.9v19.5c0 2.7 2.2 4.9 4.9 4.9h224.6c2.7 0 4.9-2.2 4.9-4.9v-19.5c0-2.7-2.2-4.9-4.9-4.9z"/>
</svg>
