<svg xmlns="http://www.w3.org/2000/svg" viewBox="0 0 500 500">
  <path fill="currentColor" d="M250 312.5c34.5 0 62.5-28 62.5-62.5V145.8c0-34.5-28-62.5-62.5-62.5s-62.5 28-62.5 62.5V250c0 34.5 28 62.5 62.5 62.5zm-41.7-166.7c0-23 18.7-41.7 41.7-41.7s41.7 18.7 41.7 41.7V250c0 23-18.7 41.7-41.7 41.7S208.3 273 208.3 250V145.8zM349 208.3h-10.4c-2.9 0-5.2 2.3-5.2 5.2V250c0 47.8-40.5 86.4-89 83.1-44.3-2.9-77.6-41.7-77.6-86.1v-33.5c0-2.9-2.3-5.2-5.2-5.2H151c-2.9 0-5.2 2.3-5.2 5.2v32.8c0 54.3 40.1 101.6 93.8 107.1v42.5h-46.9c-2.9 0-5.2 2.3-5.2 5.2v10.4c0 2.9 2.3 5.2 5.2 5.2h114.6c2.9 0 5.2-2.3 5.2-5.2V401c0-2.9-2.3-5.2-5.2-5.2h-46.9v-42.3c52.5-5.3 93.8-49.6 93.8-103.5v-36.5c0-2.8-2.4-5.2-5.2-5.2z"/>
</svg>
