<svg xmlns="http://www.w3.org/2000/svg" viewBox="0 0 500 500">
  <path fill="currentColor" d="M456.2 399.3L57.1 85.1c-1.1-.9-2.5-1.3-3.8-1.1-1.4.2-2.6.8-3.5 1.9L43.3 94c-.9 1.1-1.3 2.5-1.1 3.8s.8 2.6 1.9 3.5l399.1 314.3c1.1.9 2.5 1.3 3.8 1.1 1.4-.2 2.6-.8 3.5-1.9l6.5-8.1c1.8-2.3 1.5-5.6-.8-7.4zm-102-149v-36.4c0-2.9-2.3-5.2-5.2-5.2h-10.4c-2.9 0-5.2 2.3-5.2 5.2v36.4c0 8-1.5 15.6-3.6 22.9l17.6 13.8c4.3-11.3 6.8-23.7 6.8-36.7zm-145.6-104c0-22.9 18.7-41.6 41.6-41.6s41.6 18.7 41.6 41.6v97l19.9 15.7c.4-2.9.9-5.7.9-8.7v-104c0-34.5-27.9-62.4-62.4-62.4s-62.4 27.9-62.4 62.4v15.1l20.8 16.4v-31.5zm41.6 166.4c8.2 0 15.9-1.7 23.1-4.5l-20.9-16.5c-.7 0-1.4.2-2.1.2-20.3 0-37.3-14.7-40.8-34l-21.6-17v9.4c-.1 34.5 27.8 62.4 62.3 62.4zm57.2 83.2h-46.8v-42.3c17.7-1.8 33.9-8.3 47.8-17.8l-17.2-13.5c-13.7 7.8-29.6 12.1-46.7 11-44.2-2.9-77.5-41.7-77.5-85.9v-22.9l-18.5-14.6c-1.3.9-2.3 2.3-2.3 4v32.7c0 54.2 40.1 101.5 93.6 106.9v42.4H193c-2.9 0-5.2 2.3-5.2 5.2v10.4c0 2.9 2.3 5.2 5.2 5.2h114.4c2.9 0 5.2-2.3 5.2-5.2v-10.4c0-2.8-2.3-5.2-5.2-5.2z"/>
</svg>
