<svg xmlns="http://www.w3.org/2000/svg" viewBox="0 0 753 183.2" class="logo logo-milesplit">
  <path class="logo-text-mile" fill"currentColor" d="M126.3 3L89.2 87.4 94.3 3H41.5L5.7 147.1h34.6L65.7 45l-5.8 102.1h28.8L134 45l-25.4 102.1h34.6L179 3zM185.2 39l-27 108.1h36l27-108.1zM230 3h-36l-6.8 27.4h36zM244.3 3l-35.9 144.1h36.1L280.3 3zM356 42c-5.1-4.5-13.3-6.7-24.5-6.7-3.9 0-8.7.3-14.4 1-11.2 1.4-20.8 6.5-28.7 15.4-7.9 8.9-14.2 22-18.7 39.3-2.9 11.8-4.4 21.3-4.4 28.7 0 10.4 2.7 18 8.2 22.7 5.4 4.7 14.1 7 25.8 7 1.2 0 2.6-.1 4.3-.2 1.7-.1 4.4-.3 8.3-.6 17.8-1.9 30.9-11.8 39.2-29.6 1.1-2.4 1.8-4.1 2.1-5.2.3-1 .8-2.6 1.3-4.6h-33.6l-1 4.5c-.9 3.9-2.2 6.9-3.7 8.9s-3.3 3.3-5.4 4c-2.1.7-3.5 1-4.3 1-4.1 0-6.4-1.8-6.8-5.4-.1-1.4-.1-3.5 0-6.2l4.4-17.5h53.2c.6-1.9 1-3.4 1.2-4.8 1.3-5.4 2.6-11.1 3.8-17.3.5-2.9.9-5.5 1.1-7.7s.3-4.1.3-5.7c0-9.5-2.6-16.5-7.7-21zm-26.3 33.7l-.8 3.2v-.1h-19.8l.8-3c1.5-5.9 3.2-10.3 5.3-13.1 2.1-2.8 3.9-4.4 5.5-4.7 1.6-.3 2.9-.5 3.8-.5 4.7 0 7 2.5 7 7.5 0 1.9-.6 5.4-1.8 10.7z"/>
  <path class="logo-text-split" fill"currentColor" d="M394.4 84l5.7 2.8h64c-.5-4.1-1.7-7.6-3.9-10.5-2.7-3.7-7.3-7.3-13.7-10.9L425.6 54c-5.9-3.3-8.8-6.8-8.8-10.4 0-1.9.7-4.7 2.2-8.4s3.9-6.3 7.4-7.8l2.6-.8c1.3-.3 2.3-.4 3-.4 4.9 0 7.4 2.7 7.4 8 0 1.5-.1 2.8-.3 3.9-.2 1.1-.5 2.4-.8 3.8-.3 1.4-.6 2.4-.9 2.9H473l.8-3.2c1.2-5.1 1.8-9.7 1.8-13.8 0-8.9-2.9-15.8-8.6-20.6-5.7-4.8-14.2-7.2-25.6-7.2-4.4 0-9.3.4-14.8 1.2-21.8 3.2-36.7 15-44.8 35.3-3.1 8-4.6 14.9-4.6 20.6 0 6.4 1.4 11.8 4.3 16 2.9 4.4 7.2 8 12.9 10.9zM462.6 103h-39.4v.1c.1.6.2 1.2.2 1.8 0 2.3-.6 5-1.8 8.2-1.9 5.2-5.1 8.8-9.8 10.6l-2.8.8h-3.4c-5.5 0-8.2-3.2-8.2-9.5 0-2 .3-4.8 1-8.3l1-3.4h-35.8l-1.2 3.6c-1.6 5.6-2.4 10.6-2.4 15.1 0 9 3.1 15.9 9.4 20.5 6.3 4.7 15.8 7 28.6 7 3.9 0 8-.2 12.4-.6 12.1-1.3 22-4.7 29.6-10 7.6-5.3 13.8-13.3 18.6-24 1.8-4 3.2-7.9 4-11.9zM643.6 39l-11.9 47.8h36L679.6 39zM688.4 3h-36l-6.8 27.4h36zM616.6 147.1h36l11-44h-36zM573.8 64c.1-.9.2-2.3.2-4.2.1-7.7-1.9-13.7-6.1-18-4.1-4.3-9.8-6.4-17-6.4-1.3 0-2.6.1-3.8.3s-2.7.4-4.6.7c-1.9.3-3.9.9-6.2 1.9-6.4 2.4-11.5 6-15.2 11l2.4-10.2h-34.6L477 86.8h35.7c2.5-8.2 4.6-14 6.3-17.1 1.8-3.3 3.6-5.3 5.4-6 1.8-.7 3.4-1 4.9-1 4.3 0 6.4 2.1 6.4 6.2 0 1.6-.1 3.1-.2 4.6-.1 1.5-.5 3.3-1 5.4l-2.6 12.2-.4 1.2-1.4 5.6c-2.4 8.5-4.7 14.5-6.8 18s-4.5 5.5-7 6.2c-.5.1-1.3.2-2.2.2-3.6 0-5.8-1.9-6.6-5.6 0-.1-.1-.5-.4-1v-1.8c0-1.7.4-4.6 1.2-8.6l.5-2.2H473l-20 80.1h36l12-48c0 .3.3 1.5 1 3.6 1.5 3.6 3.8 6.4 7 8.4s7 3 11.4 3c3.9 0 7.9-.8 12.1-2.5 4.2-1.7 8.5-4.3 12.9-7.9 4.9-4.1 9.2-10 12.8-17.6s7.3-18.9 11-33.8c2.3-9.1 3.8-17.2 4.6-24.4zM638.2 3h-36l-20.9 83.8h36.1zM566.3 147.1h36.1l10.9-44h-36zM714.5 118.5c0-.7.1-1.7.4-3l3.1-12.4h-36l-4.6 18.4-.8 4c-.8 4.3-1.2 7.7-1.2 10.4 0 4.4 1.3 7.4 3.8 9 2.5 1.6 7.3 2.7 14.2 3.4.5.1 1.3.2 2.4.2H707c2.3 0 4.5-.1 6.8-.4s4.7-.6 7.4-1l5.8-23.4h-6.6c-3.9 0-5.9-1.7-5.9-5.2zM734 39l8.8-36h-36L698 39h-13.2l-6.1 24.5h13.2l-5.8 23.3H722l5.9-23.3h14.2L748 39z"/>
</svg>
