<svg width="36px" height="36px" viewBox="0 0 36 36" version="1.1">
  <circle fill="currentColor" opacity="0.8" cx="18" cy="18" r="16"></circle>
  <path fill="#FFFFFF" d="M11.6326531,17.1428571 L24.3673469,17.1428571 C24.6378538,17.1428571 24.8571429,17.3621462 24.8571429,17.6326531 L24.8571429,18.3673469 C24.8571429,18.6378538 24.6378538,18.8571429 24.3673469,18.8571429 L11.6326531,18.8571429 C11.3621462,18.8571429 11.1428571,18.6378538 11.1428571,18.3673469 L11.1428571,17.6326531 C11.1428571,17.3621462 11.3621462,17.1428571 11.6326531,17.1428571 Z M18,1.71428571 C9.00564836,1.71428571 1.71428571,9.00564836 1.71428571,18 C1.71428571,26.9943516 9.00564836,34.2857143 18,34.2857143 C26.9943516,34.2857143 34.2857143,26.9943516 34.2857143,18 C34.2857143,9.00564836 26.9943516,1.71428571 18,1.71428571 Z M18,0 C27.9411255,0 36,8.0588745 36,18 C36,27.9411255 27.9411255,36 18,36 C8.0588745,36 0,27.9411255 0,18 C0,8.0588745 8.0588745,0 18,0 Z"></path>
</svg>
