<svg xmlns="http://www.w3.org/2000/svg" viewBox="0 0 500 500">
  <path fill="currentColor" d="M286.9 39.7V461L41.7 409.5V87.1l245.2-47.4zm171.4 139.6v151.4c0 16.5-10.6 23.4-22.4 23.4H302.4v-112l26.3 18.1c3.4 2.5 7.3.5 8.1.1.6-.7 121.5-81 121.5-81zM167 176.6c-17.1 0-30.9 6.9-41.3 20.8-10.4 13.8-15.6 32-15.6 54.4 0 21.2 5.1 38.4 15.3 51.7 10.2 13.2 23.5 19.8 39.7 19.8 16.7 0 30.2-6.8 40.6-20.5 10.4-13.6 15.6-31.6 15.5-53.9 0-21.7-5-39.2-15-52.4-9.9-13.2-23-19.9-39.2-19.9zm-.7 27.5c8.7 0 15.6 4.1 20.6 12.2 5 8.2 7.5 19.6 7.5 34.3 0 14.1-2.6 25.1-7.8 33.1-5.2 7.9-12.2 11.9-21 11.9-8.5 0-15.5-4.1-20.7-12.2-5.3-8.2-7.9-19.3-7.9-33.3 0-13.8 2.6-25 7.9-33.4 5.4-8.4 12.5-12.6 21.4-12.6zM440.7 129c5.2 0 14.4 7.1 14.4 17l-123.9 83.6-28.8-18.1V129h138.3z"/>
</svg>
