<svg aria-hidden="true" data-icon="outlook-logo" role="img" xmlns="http://www.w3.org/2000/svg" viewBox="0 0 512 517.658">
<path fill="currentColor" d="M320.413,109.753V211.01L355.8,233.291a9.04,9.04,0,0,0,3.888,0L511.981,130.615c0-12.152-11.335-20.862-17.732-20.862Z"/>
<path fill="currentColor" d="M320.413,248.787l32.294,22.184c4.55,3.344,10.033,0,10.033,0C357.276,274.315,512,171.542,512,171.542v186.1c0,20.259-12.968,28.755-27.55,28.755H320.394V248.787Z"/>
<path fill="currentColor" d="M153.207,202.105q-16.506,0-26.247,15.5-9.712,15.486-9.721,41,0,25.9,9.721,40.946,9.711,15.078,25.47,15.049,16.243,0,25.761-14.64t9.527-40.635q0-27.093-9.235-42.171Q169.237,202.1,153.207,202.105Z"/>
<path fill="currentColor" d="M0,58.328V454.47l301.359,63.188V0Zm201.658,265.04q-19.1,25.14-49.831,25.159-29.952,0-48.8-24.361-18.84-24.381-18.859-63.5,0-41.325,19.151-66.843T154.063,168.3q29.834,0,48.256,24.42,18.432,24.438,18.432,64.413Q220.78,298.219,201.658,323.368Z"/>
</svg>
