<svg xmlns="http://www.w3.org/2000/svg" viewBox="0 0 500 500">
  <path fill="currentColor" d="M354.2 245.1v9.8c0 5.4-4.4 9.8-9.8 9.8h-79.8v79.8c0 5.4-4.4 9.8-9.8 9.8H245c-5.4 0-9.8-4.4-9.8-9.8v-79.8h-79.8c-5.4 0-9.8-4.4-9.8-9.8v-9.8c0-5.4 4.4-9.8 9.8-9.8h79.8v-79.8c0-5.4 4.4-9.8 9.8-9.8h9.8c5.4 0 9.8 4.4 9.8 9.8v79.8h79.8c5.4.1 9.8 4.4 9.8 9.8zm97.6 4.9c0 111.5-90.3 201.8-201.8 201.8S48.2 361.5 48.2 250 138.5 48.2 250 48.2 451.8 138.5 451.8 250zm-26 0c0-97.6-79.2-175.8-175.8-175.8-97.6 0-175.8 79.2-175.8 175.8 0 97.6 79.2 175.8 175.8 175.8 97.6 0 175.8-79.2 175.8-175.8z"/>
</svg>
