<svg width="13px" height="9px" viewBox="0 0 13 9" version="1.1">
    <g transform="translate(0.000000, -2.000000)" fill="currentColor">
      <path
        d="M10.078173,5.54822463 L7.72592718,3.19597882 C7.60260372,3.07265535 7.60260372,2.87270852 7.72592718,2.74938506 L8.2024363,2.27287593 C8.32575977,2.14955247 8.5257066,2.14955247 8.64903006,2.27287593 L11.8798902,5.50373603 L12.3563993,5.98024515 C12.4797227,6.10356861 12.4797227,6.30351545 12.3563993,6.42683891 L8.64903006,10.1342081 C8.5257066,10.2575316 8.32575977,10.2575316 8.2024363,10.1342081 L7.72592718,9.65769901 C7.60260372,9.53437554 7.60260372,9.33442871 7.72592718,9.21110525 L10.0833432,6.85368925 L0.315789474,6.85368925 C0.141383763,6.85368925 -8.52651283e-14,6.71230548 -8.52651283e-14,6.53789977 L-8.52651283e-14,5.8640141 C-8.52651283e-14,5.68960839 0.141383763,5.54822463 0.315789474,5.54822463 L10.078173,5.54822463 Z"></path>
    </g>
</svg>
