<svg xmlns="http://www.w3.org/2000/svg" viewBox="0 0 500 500">
  <path fill="currentColor" d="M143.6 229.2c0-23-22.3-41.7-49.5-41.7H46.8v124.9h33v-41.6h10l29.7 41.7H157l-34.9-49c12.9-7.7 21.5-20.2 21.5-34.3zM90.3 250h-9.1v-41.7h9.1c10.1 0 18.4 9.3 18.4 20.9.1 11.5-8.2 20.8-18.4 20.8zm362.9-34.6v95.1h-7l-14.8-12.6c-6.1 6.9-18.7 14.6-32.4 14.6-28.9 0-40.3-17.3-40.3-36.1v-56.5l-41.7 41 50.3 49.6H326l-39.6-38.6v38.6h-32.9v-95.2h32.9v37.5l37.9-37.3h67.4v52.1c0 15.1 3.7 19.9 11.8 19.9 8 0 13.1-4 16.9-10.4v-61.6h32.8zm-258.4-.1c-28.5 0-51.6 21.6-51.6 48.6s23 48.6 51.6 48.6c28.5 0 51.8-21.6 51.8-48.6s-23.3-48.6-51.8-48.6zm0 69.4c-9.3 0-17.1-10.9-17.1-24.3s7.9-24.3 17.1-24.3c9.5 0 17.3 10.9 17.3 24.3s-7.9 24.3-17.3 24.3z"/>
</svg>
