<svg xmlns="http://www.w3.org/2000/svg" viewBox="0 0 1625 500"><path d="M189.094 0c109.011 0 197.99 74.872 197.99 166.993 0 56.183-34.112 106.365-86.025 137.069L440.678 500H290.9L171.991 333.33H132v166.31H0V0zM591.8 111.111c114.123 0 206.93 86.521 206.93 194.427C798.729 413.526 705.922 500 591.8 500c-114.084 0-206.206-86.474-206.206-194.462-.001-107.906 92.121-194.427 206.206-194.427zm366.052 0v149.867l151.6-149.373h269.365v208.384c0 60.494 14.855 79.408 47.229 79.408 31.908 0 52.554-16.024 67.371-41.51V111.605H1625v380.389h-28.086l-59.163-50.284c-24.42 27.69-74.665 58.29-129.417 58.29C1293 500 1247.2 430.742 1247.2 355.7V129.663l-166.589 164.106L1281.739 492h-165.615L957.851 337.5V492h-131.58V111.111zm-366.094 83.333c-36.989 0-68.453 43.432-68.453 97.2s31.464 97.25 68.453 97.25c37.847 0 69.259-43.489 69.259-97.25s-31.412-97.2-69.259-97.2zM174.234 83.333h-36.522V250h36.522c40.515 0 73.647-37.365 73.647-82.963 0-46.365-33.132-83.704-73.647-83.704z" fill="currentColor"/></svg>
