<svg width="12px" height="12px" viewBox="0 0 12 12" version="1.1">
  <path fill="currentColor" d="M8.30769231,5.07692308 C8.30769231,4.18749555 7.9915897,3.42668585 7.359375,2.79447115 C6.7271603,2.16225645 5.9663506,1.84615385 5.07692308,1.84615385 C4.18749555,1.84615385 3.42668585,2.16225645 2.79447115,2.79447115 C2.16225645,3.42668585 1.84615385,4.18749555 1.84615385,5.07692308 C1.84615385,5.9663506 2.16225645,6.7271603 2.79447115,7.359375 C3.42668585,7.9915897 4.18749555,8.30769231 5.07692308,8.30769231 C5.9663506,8.30769231 6.7271603,7.9915897 7.359375,7.359375 C7.9915897,6.7271603 8.30769231,5.9663506 8.30769231,5.07692308 Z M12,11.0769231 C12,11.3269243 11.9086548,11.5432683 11.7259615,11.7259615 C11.5432683,11.9086548 11.3269243,12 11.0769231,12 C10.8173064,12 10.6009624,11.9086548 10.4278846,11.7259615 L7.95432692,9.25961538 C7.0937457,9.85577221 6.13462067,10.1538462 5.07692308,10.1538462 C4.38941964,10.1538462 3.73197429,10.020434 3.10456731,9.75360577 C2.47716032,9.48677751 1.93630035,9.12620419 1.48197115,8.671875 C1.02764196,8.21754581 0.667068642,7.67668583 0.400240385,7.04927885 C0.133412127,6.42187186 0,5.76442651 0,5.07692308 C0,4.38941964 0.133412127,3.73197429 0.400240385,3.10456731 C0.667068642,2.47716032 1.02764196,1.93630035 1.48197115,1.48197115 C1.93630035,1.02764196 2.47716032,0.667068642 3.10456731,0.400240385 C3.73197429,0.133412127 4.38941964,0 5.07692308,0 C5.76442651,0 6.42187186,0.133412127 7.04927885,0.400240385 C7.67668583,0.667068642 8.21754581,1.02764196 8.671875,1.48197115 C9.12620419,1.93630035 9.48677751,2.47716032 9.75360577,3.10456731 C10.020434,3.73197429 10.1538462,4.38941964 10.1538462,5.07692308 C10.1538462,6.13462067 9.85577221,7.0937457 9.25961538,7.95432692 L11.7331731,10.4278846 C11.9110586,10.6057701 12,10.8221141 12,11.0769231 Z" ></path>
</svg>
