<svg xmlns="http://www.w3.org/2000/svg" viewBox="0 0 500 500">
  <path fill="currentColor" d="M432.3 380.2c0 43.1-35 78.1-78.1 78.1s-78.1-35-78.1-78.1c0-10.6 2.1-20.6 5.9-29.8l-77.7-48.5c-14.3 16.1-35.2 26.3-58.4 26.3-43.1 0-78.1-35-78.1-78.1s35-78.1 78.1-78.1c23.2 0 44.1 10.2 58.4 26.3l77.7-48.5c-3.8-9.2-5.9-19.2-5.9-29.8 0-43.1 35-78.1 78.1-78.1s78.1 35 78.1 78.1-35 78.1-78.1 78.1c-23.2 0-44.1-10.2-58.4-26.3l-77.7 48.5c7.9 19 7.8 40.6 0 59.6l77.7 48.5c14.3-16.1 35.2-26.3 58.4-26.3 43.1 0 78.1 35 78.1 78.1zM354.2 67.7c-28.7 0-52.1 23.4-52.1 52.1s23.4 52.1 52.1 52.1c28.7 0 52.1-23.4 52.1-52.1s-23.4-52.1-52.1-52.1zM145.8 197.9c-28.7 0-52.1 23.4-52.1 52.1s23.4 52.1 52.1 52.1c28.7 0 52.1-23.4 52.1-52.1s-23.3-52.1-52.1-52.1zm208.4 130.2c-28.7 0-52.1 23.4-52.1 52.1 0 28.7 23.4 52.1 52.1 52.1 28.7 0 52.1-23.4 52.1-52.1-.1-28.7-23.4-52.1-52.1-52.1z"/>
</svg>
