<svg xmlns="http://www.w3.org/2000/svg" viewBox="0 0 500 500">
  <path fill="currentColor"  d="M46.3 348h15.3c2.5 0 4.6 2.1 4.6 4.6v88.8c0 2.5-2.1 4.6-4.6 4.6H46.3c-2.5 0-4.6-2.1-4.6-4.6v-88.8c0-2.5 2-4.6 4.6-4.6zm93.4-32.1v125.6c0 2.5 2.1 4.6 4.6 4.6h15.3c2.5 0 4.6-2.1 4.6-4.6V315.9c0-2.5-2.1-4.6-4.6-4.6h-15.3c-2.5 0-4.6 2-4.6 4.6zm98-61.3v186.9c0 2.5 2.1 4.6 4.6 4.6h15.3c2.5 0 4.6-2.1 4.6-4.6V254.6c0-2.5-2.1-4.6-4.6-4.6h-15.3c-2.5 0-4.6 2.1-4.6 4.6zm98.1-85.8v272.7c0 2.5 2.1 4.6 4.6 4.6h15.3c2.5 0 4.6-2.1 4.6-4.6V168.8c0-2.5-2.1-4.6-4.6-4.6h-15.3c-2.5 0-4.6 2.1-4.6 4.6zm98-110.3v383c0 2.5 2.1 4.6 4.6 4.6h15.3c2.5 0 4.6-2.1 4.6-4.6v-383c0-2.5-2.1-4.6-4.6-4.6h-15.3c-2.5 0-4.6 2.1-4.6 4.6z"/>
</svg>
