<svg xmlns="http://www.w3.org/2000/svg" viewBox="0 0 500 500">
  <path fill="currentColor" d="M427.1 83.3H72.9c-17.3 0-31.2 14-31.2 31.2v208.3c0 17.3 14 31.2 31.2 31.2h166.7v41.7H135.4c-5.7 0-10.4 4.7-10.4 10.4s4.7 10.4 10.4 10.4h229.2c5.7 0 10.4-4.7 10.4-10.4s-4.7-10.4-10.4-10.4H260.4V354h166.7c17.3 0 31.2-14 31.2-31.2V114.6c0-17.3-14-31.3-31.2-31.3zm10.4 239.6c0 5.7-4.7 10.4-10.4 10.4H72.9c-5.7 0-10.4-4.7-10.4-10.4V114.6c0-5.7 4.7-10.4 10.4-10.4h354.2c5.7 0 10.4 4.7 10.4 10.4v208.3z"/>
</svg>
