<svg xmlns="http://www.w3.org/2000/svg" viewBox="0 0 500 500">
  <path fill="currentColor" d="M322.9 276c-23.4 0-34.6 13-72.9 13s-49.5-13-72.9-13c-60.4 0-109.4 49-109.4 109.4v33.9c0 21.6 17.5 39.1 39.1 39.1h286.5c21.6 0 39.1-17.5 39.1-39.1v-33.9C432.3 325 383.3 276 322.9 276zm83.3 143.3c0 7.2-5.9 13-13 13H106.8c-7.2 0-13-5.9-13-13v-33.9c0-46 37.4-83.3 83.3-83.3 16 0 31.8 13 72.9 13 41 0 57-13 72.9-13 46 0 83.3 37.4 83.3 83.3v33.9zM250 250c57.5 0 104.2-46.6 104.2-104.2S307.5 41.7 250 41.7 145.8 88.3 145.8 145.8 192.5 250 250 250zm0-182.3c43.1 0 78.1 35.1 78.1 78.1S293.1 224 250 224s-78.1-35.1-78.1-78.1 35-78.2 78.1-78.2z"/>
</svg>
