
<svg xmlns="http://www.w3.org/2000/svg" viewBox="0 0 500 500">
  <path class="varsity_logo_v" fill="currentColor" d="M31.5,251.9H16.4c0,0,5.9-13.8,13.8-21.5c2.7-2.6,6.4-5.6,9.2-5.6h14.3C52.3,224.8,43.3,227.1,31.5,251.9z M107.9,285.8
	c-2,3.7-4.9,9.9-8.8,13.9c-2.4-2.8-3.6-6.4-3.5-10.1v-5c30.5-57.3,46.8-87.8,46.8-87.8h-15.2c0,0-10.7,20.6-31.7,59.8v-17.9
	c0,0-0.3-13.9-11.3-13.9H69c-3,0-6.7,2.8-9.5,5.6c-8,7.8-14.4,21.5-14.4,21.5h7.8v37.8c0,5.7,2.4,13.5,11.5,13.5h13.5
	C67.2,302,68,289.8,68,289.8v-51.3c2.6-3.8,5.6-7.6,8.8-10.3c2.5,3,3.8,6.7,3.7,10.6v50.9c0,4.9,2.4,13.5,11.5,13.5h15.3
	c7.5-0.1,12.8-11.8,15.8-17.5c30.8-58,47.2-88.8,47.2-88.8h-15.2C155.2,196.8,139.2,227.5,107.9,285.8z M77.9,303.1
	c0.1,0.1,0.3,0.1,0.5,0H77.9z"/>
  <path class="varsity_logo_text" fill="#247BB8" d="M313.1,245.7c1.5,1.9,2.3,4.3,2.1,6.7c0,6.3-5,9.7-11,9.7c-3.5,0.3-6.9-0.8-9.7-3l3.4-5.9c1.8,1.5,4,2.3,6.4,2.1
	c2.8,0,4.1-1,4.1-2.8c0-0.6-0.2-1.3-0.6-1.8c-0.5-0.5-1.2-0.8-1.9-0.8l-3.4-0.5c-2.2-0.2-4.2-1.2-5.7-2.7c-1.4-1.7-2.2-3.9-2.1-6.1
	c0-5.6,3.9-9.7,10.4-9.7c3.1-0.2,6.1,0.7,8.5,2.6l-3.3,5.8c-1.4-1.4-3.4-2.1-5.4-1.8c-0.8-0.1-1.7,0.1-2.3,0.7
	c-0.7,0.5-1,1.3-1.1,2.2c0,0.5,0.2,1,0.6,1.4c0.6,0.5,1.3,0.9,2.1,0.9l3.4,0.5C309.7,243.4,311.6,244.3,313.1,245.7z M328.9,261.8h7
	v-30.6h-7V261.8z M348.1,237.9h7v24h7v-24h7v-6.7h-21V237.9z M219.3,261.9h8l9.1-18v18h7v-30.7h-7.1L219.3,261.9z M200.7,249.2v-18
	h-7v30.7h7.1l17-30.7h-8L200.7,249.2z M280.8,241.1L280.8,241.1c0.1-2.6-0.9-5.2-2.7-7.1c-1.9-1.9-4.4-2.9-7.1-2.8h-11.3v30.7h7.1
	v-17.6v-6.4h3.9c0.8,0,1.6,0.3,2.2,0.9c0.6,0.6,0.9,1.4,0.8,2.2c0,0.8-0.3,1.7-0.8,2.3c-0.5,0.6-1.4,1-2.2,1h-3.9l8.7,17.6h8
	l-7.4-12.8C279.2,247.4,280.9,244.4,280.8,241.1z M389.5,242.2l-5.4-11h-8l9.9,18.2v12.5h7v-12.5l9.9-18.2h-8L389.5,242.2z
	 M427.9,237.9h7v24h7v-24h7v-6.7h-21V237.9z M475.5,231.2l-9.1,18v-18h-7v30.7h7.1l17-30.7H475.5z"/>
</svg>
