
<svg xmlns="http://www.w3.org/2000/svg" viewBox="0 0 500 500">
  <path fill="currentColor" d="M416.5 279.5h-49.1c62.2-117.4 95.2-179.3 95.2-179.3h-41.8s-32 61.7-94.7 179.3h-35.7c62.2-117.3 95.1-179.1 95.1-179.1h-41.8s-29.6 56.9-87.5 165.6v-49.3s-.7-38.7-31.1-38.7h-42.8c-8.3 0-18.4 7.7-26.3 15.5-21.8 21.4-39.4 59.6-39.4 59.6h21.6v26.5H74.1c-19.8 0-35.8 16-36 35.6.2 19.8 16.2 35.6 36 35.6h64.1v7c0 15.8 6.7 37.4 31.7 37.3h38.5c-31-2.3-28.4-37.3-28.4-37.3v-7h34.7v6.8c0 13.7 6.5 37.3 31.7 37.3h41.8c19-.2 32.9-27.5 41.5-44.1h87c19.8 0 35.8-16 36-35.6-.2-19.9-16.4-35.7-36.2-35.7zM82.6 333.3h-8.3v-36.5h8.3v21.4l10.8-21.4h9.5l-20.3 36.5zm50.8 0h-8.5v-21.4l-10.8 21.4h-9.4l20.2-36.5h8.5v36.5zM180 216c7.2-10.6 15.7-21.2 24.5-28.6 11.5 13.5 10.3 29.3 10.3 29.3v62.6H180V216zm-8.5 117.3l-10.4-20.9v20.9h-8.3v-36.5h13.3c7.6 0 11.5 5.8 11.5 11.7 0 5-2.7 8.1-5.4 9.5l8.8 15.3h-9.5zm34 .3c-4.5 0-8.3-.7-11.5-3.6l4-7c1.8 2 4.9 2.5 7.6 2.5 3.2 0 4.9-1.3 4.9-3.2 0-.9-.2-1.6-.7-2.2-.4-.5-1.1-.9-2.2-.9l-4.1-.7c-3.1-.5-5.2-1.6-6.8-3.2-1.6-1.8-2.3-4.1-2.3-7.4 0-6.7 4.7-11.5 12.4-11.5 4.1 0 7.4.9 10.1 3.1l-4 6.8c-2.2-2.3-5-2.2-6.5-2.2-2.9 0-4.1 1.8-4.1 3.4 0 .5.2 1.1.7 1.6.4.5 1.1.9 2.3 1.1l4.1.5c3.1.5 5.2 1.4 6.7 3.1 1.8 2 2.5 4.7 2.5 7.9-.1 7.8-6 11.9-13.1 11.9zm37.5-.3h-8.3v-36.5h8.3v36.5zm14.4-36.6h25v8.1h-8.3v28.4h-8.5v-28.4h-8.3v-8.1zm8.4 88.6c-7.9-9.2-9.5-18.9-9.5-27.9v-6.7H288c-5.4 10.4-12.8 24.9-22.2 34.6zm44.9-67v14.9h-8.3v-14.9l-11.7-21.6h9.4l6.5 13.1 6.5-13.1h9.5l-11.9 21.6zm66.4-13.5h-8.3v28.4h-8.3v-28.4h-8.3v-8.1H377v8.1zm20.9 28.5h-8.5v-36.5h8.3v21.4l10.8-21.4h9.5L398 333.3zM79.2 253H37.4s16.2-38.3 38.2-59.6c7.6-7.2 17.8-15.5 25.4-15.5h38.2c-6.4 1.4-30 11.7-60 75.1zm61.2-75.2v.2h-1.2c.5-.2.9-.2 1.2-.2zm29 130.8c0 2-1.3 3.8-3.6 3.8h-4.7v-7.6h4.7c2.3 0 3.6 1.8 3.6 3.8z"/>
</svg>
