<svg xmlns="http://www.w3.org/2000/svg" viewBox="0 0 500 500">
  <path fill="currentColor" d="M313.1 245.7c1.5 1.9 2.3 4.3 2.1 6.7 0 6.3-5 9.7-11 9.7-3.5.3-6.9-.8-9.7-3l3.4-5.9c1.8 1.5 4 2.3 6.4 2.1 2.8 0 4.1-1 4.1-2.8 0-.6-.2-1.3-.6-1.8-.5-.5-1.2-.8-1.9-.8l-3.4-.5c-2.2-.2-4.2-1.2-5.7-2.7-1.4-1.7-2.2-3.9-2.1-6.1 0-5.6 3.9-9.7 10.4-9.7 3.1-.2 6.1.7 8.5 2.6l-3.3 5.8c-1.4-1.4-3.4-2.1-5.4-1.8-.8-.1-1.7.1-2.3.7-.7.5-1 1.3-1.1 2.2 0 .5.2 1 .6 1.4.6.5 1.3.9 2.1.9l3.4.5c2.1.2 4 1.1 5.5 2.5zm15.8 16.1h7v-30.6h-7v30.6zm19.2-23.9h7v24h7v-24h7v-6.7h-21v6.7zm-128.8 24h8l9.1-18v18h7v-30.7h-7.1l-17 30.7zm-18.6-12.7v-18h-7v30.7h7.1l17-30.7h-8l-9.1 18zm80.1-8.1c.1-2.6-.9-5.2-2.7-7.1-1.9-1.9-4.4-2.9-7.1-2.8h-11.3v30.7h7.1v-24h3.9c.8 0 1.6.3 2.2.9.6.6.9 1.4.8 2.2 0 .8-.3 1.7-.8 2.3s-1.4 1-2.2 1h-3.9l8.7 17.6h8l-7.4-12.8c3.1-1.7 4.8-4.7 4.7-8zm108.7 1.1l-5.4-11h-8l9.9 18.2v12.5h7v-12.5l9.9-18.2h-8l-5.4 11zm38.4-4.3h7v24h7v-24h7v-6.7h-21v6.7zm47.6-6.7l-9.1 18v-18h-7v30.7h7.1l17-30.7h-8zm-421.8-6.4H39.4c-2.8 0-6.5 3-9.2 5.6-7.9 7.7-13.8 21.5-13.8 21.5h15.1c11.8-24.8 20.8-27.1 22.2-27.1zm24.7 78.3h-.5c.1.1.3.1.5 0zm29.5-17.3c-2 3.7-4.9 9.9-8.8 13.9-2.4-2.8-3.6-6.4-3.5-10.1v-5c30.5-57.3 46.8-87.8 46.8-87.8h-15.2s-10.7 20.6-31.7 59.8v-17.9s-.3-13.9-11.3-13.9H69c-3 0-6.7 2.8-9.5 5.6-8 7.8-14.4 21.5-14.4 21.5h7.8v37.8c0 5.7 2.4 13.5 11.5 13.5h13.5C67.2 302 68 289.8 68 289.8v-51.3c2.6-3.8 5.6-7.6 8.8-10.3 2.5 3 3.8 6.7 3.7 10.6v50.9c0 4.9 2.4 13.5 11.5 13.5h15.3c7.5-.1 12.8-11.8 15.8-17.5 30.8-58 47.2-88.8 47.2-88.8h-15.2c.1-.1-15.9 30.6-47.2 88.9z"/>
</svg>
