
<svg xmlns="http://www.w3.org/2000/svg" viewBox="0 0 500 500">
  <path class="varsity_logo_pill_v" fill="currentColor"  d="M27.5,251.4h-11c0,0,4.3-10.1,10-15.7c2-1.9,4.7-4.1,6.7-4.1h10.4C42.6,231.6,36,233.3,27.5,251.4z
	 M117.6,211.1c0,0-11.7,22.5-34.5,65c-1.4,2.7-3.6,7.3-6.4,10.2c-2.1-2.4-2.5-5-2.5-7.4v-3.6c22.2-41.9,34.1-64.3,34.1-64.3h-11
	c0,0-7.8,15-23.1,43.7v-13.1c0,0-0.2-10.2-8.2-10.2H54.7c-2.2,0-4.8,2.1-6.9,4.1c-5.8,5.7-10.4,15.7-10.4,15.7H43V279
	c0,4.2,1.7,9.9,8.4,9.8h10.2c-8.2-0.6-7.5-9.8-7.5-9.8v-37.4c1.9-2.8,4.1-5.6,6.4-7.6c3,3.5,2.7,7.7,2.7,7.7V279
	c0,3.6,1.7,9.8,8.4,9.8h11c5.5-0.1,9.3-8.6,11.5-12.8c22.5-42.4,34.5-65,34.5-65H117.6z"/>
  <path class="varsity_logo_pill" fill="#247BB8" d="M136.4,254.3v0.6v-0.3V254.3z M483.6,254.3v0.3v0.3V254.3z M453.4,224.8H166.5
	c-16.6,0-30,13.4-30.2,29.9c0.2,16.5,13.6,29.9,30.2,29.9h286.8c16.6,0,30-13.4,30.2-29.9C483.4,238.1,469.9,224.8,453.4,224.8"/>
  <path class="varsity_logo_pill_text" fill="#ffffff" d="M285.4,254.9c1.5,1.6,2.1,3.9,2.1,6.7c0,6.2-4.9,9.6-10.9,9.6c-3.8,0-7-0.7-9.6-3l3.3-5.9
	c1.5,1.6,4.1,2.2,6.3,2.2c2.8,0,4.1-1,4.1-2.8c0-0.7-0.2-1.3-0.6-1.8c-0.4-0.4-0.9-0.7-1.9-0.8l-3.4-0.5c-2.5-0.4-4.4-1.3-5.7-2.7
	c-1.3-1.5-2-3.5-2-6.1c0-5.6,3.9-9.7,10.3-9.7c3.5,0,6.2,0.7,8.4,2.6l-3.3,5.8c-1.8-1.9-4.1-1.8-5.4-1.8c-2.4,0-3.4,1.5-3.4,2.8
	c0,0.4,0.1,1,0.6,1.4c0.4,0.4,1,0.8,2,0.9l3.4,0.5C282.4,252.7,284.2,253.6,285.4,254.9z M301,270.9h7v-30.5h-7V270.9z M320.1,247
	h6.9v23.9h7V247h6.9v-6.7h-20.8V247z M192.1,270.9h8l9-17.9v17.9h7v-30.6h-7L192.1,270.9z M173.6,258.3v-18h-7v30.6h7.1l16.9-30.6
	h-8L173.6,258.3z M253.2,250.2c0-5-3.4-9.8-9.7-9.8h-11.2v30.5h6.9v-17.5V247h3.9c1.9,0,3,1.5,3,3.1c0,1.6-1.1,3.2-3,3.2h-3.9
	l8.7,17.5h8l-7.3-12.8C250.9,256.9,253.2,254.3,253.2,250.2z M361.2,251.3l-5.4-11h-7.9l9.9,18.1v12.4h7v-12.4l9.9-18.1h-7.9
	L361.2,251.3z M399.4,247h6.9v23.9h7V247h7v-6.7h-20.8V247z M446.7,240.3l-9,18v-18h-7v30.6h7.1l16.9-30.6H446.7z"/>
</svg>
