
<svg xmlns="http://www.w3.org/2000/svg" viewBox="0 0 500 500">
  <path class="varsity_v" fill="currentColor" d="M140.4 177.9h-1.2c.5-.1.9-.2 1.2-.2v.2zm-1.3 0h-38.2c-7.6 0-17.8 8.3-25.4 15.5-22 21.2-38.2 59.6-38.2 59.6h41.8c30.1-63.4 53.7-73.7 60-75.1zm281.7-77.7s-44.3 85.3-130.7 246.6c-5.6 10.3-13.7 27.5-24.3 38.5-7.9-9.2-9.5-18.9-9.5-27.9v-13.5c84.2-159 129.3-243.6 129.3-243.6h-41.8s-29.6 56.9-87.5 165.7v-49.4s-.7-38.7-31.1-38.7h-42.8c-8.3 0-18.4 7.7-26.3 15.5-21.8 21.4-39.4 59.6-39.4 59.6h21.6v104.8c0 15.8 6.7 37.4 31.7 37.3h38.5c-31-2.3-28.4-37.3-28.4-37.3V216c7.2-10.6 15.7-21.2 24.5-28.6 11.5 13.5 10.3 29.3 10.3 29.3v140.8c0 13.7 6.5 37.3 31.7 37.3h41.8c20.7-.2 35.5-32.8 43.7-48.4 85.1-160.8 130.7-246.3 130.7-246.3h-42z"/>
  <path class="varsity_pill" fill="#007cbb" d="M38.1 314.8v.7-.7zm414.6 0v.8-.8zm-36.2-35.3H74.1c-19.8 0-35.8 16-36 35.6.2 19.8 16.2 35.6 36 35.6h342.6c19.8 0 35.8-16 36-35.6-.2-19.8-16.4-35.6-36.2-35.6"/>
  <path class="varsity_pill_text" fill="#fff" d="M216 313.9c1.8 2 2.5 4.7 2.5 7.9 0 7.7-5.9 11.9-13 11.9-4.5 0-8.3-.7-11.5-3.6l4-7c1.8 2 4.9 2.5 7.6 2.5 3.2 0 4.9-1.3 4.9-3.2 0-.9-.2-1.6-.7-2.2-.4-.5-1.1-.9-2.2-.9l-4.1-.7c-3.1-.5-5.2-1.6-6.8-3.2-1.6-1.8-2.3-4.1-2.3-7.4 0-6.7 4.7-11.5 12.4-11.5 4.1 0 7.4.9 10.1 3.1l-4 6.8c-2.2-2.3-5-2.2-6.5-2.2-2.9 0-4.1 1.8-4.1 3.4 0 .5.2 1.1.7 1.6.4.5 1.1.9 2.3 1.1l4.1.5c3 .5 5.1 1.4 6.6 3.1zm18.7 19.4h8.3v-36.5h-8.3v36.5zm22.7-28.4h8.3v28.4h8.5v-28.4h8.3v-8.1h-25v8.1zm-152.7 28.4h9.4l10.8-21.4v21.4h8.5v-36.5h-8.5l-20.2 36.5zm-22.1-15.1v-21.4h-8.3v36.5h8.3l20.3-36.5h-9.5l-10.8 21.4zm95-9.7c0-5.9-4-11.7-11.5-11.7h-13.3v36.5h8.3v-28.5h4.7c2.3 0 3.6 1.8 3.6 3.8s-1.3 3.8-3.6 3.8h-4.7l10.4 20.9h9.5l-8.8-15.3c2.7-1.4 5.4-4.5 5.4-9.5zm128.9 1.4l-6.5-13.1h-9.4l11.7 21.6v14.9h8.3v-14.9l11.9-21.6H313l-6.5 13.1zm45.7-5h8.3v28.4h8.3v-28.4h8.3v-8.1h-24.8v8.1zm56.4-8.2l-10.8 21.4v-21.4h-8.3v36.5h8.5l20.2-36.5h-9.6z"/>
</svg>
