<svg width="123px" height="28px" viewBox="0 0 123 28" version="1.1">
    <g id="Varsity" stroke="none" stroke-width="1" fill="none" fill-rule="evenodd">
        <g fill="#FFFFFF" fill-rule="nonzero" id="varsity-alt">
          <path d="M76.62324,12.2176923 L75.7209001,12.0830769 C75.5181383,12.0711134 75.3264142,11.9870454 75.1805769,11.8461538 C75.0847032,11.7441429 75.0323882,11.6089787 75.0346896,11.4692308 C75.0462033,11.2477697 75.1504108,11.041278 75.321947,10.9000179 C75.4934832,10.7587578 75.7166149,10.6956856 75.9370294,10.7261538 C76.4588755,10.6652946 76.9805583,10.8412253 77.3580796,11.2053846 L78.2225968,9.68153846 C77.5881488,9.18797076 76.7944012,8.94281429 75.9910617,8.99230769 C74.2836403,8.99230769 73.2516229,10.0692308 73.2516229,11.5392308 C73.2241127,12.1258863 73.4167276,12.7017402 73.7919461,13.1546154 C74.1946065,13.5582137 74.7257026,13.8095199 75.2940448,13.8653846 L76.1855781,14 C76.3714943,14.0114851 76.5474459,14.0877222 76.6826755,14.2153846 C76.7867819,14.3507723 76.8385615,14.5189541 76.8285628,14.6892308 C76.8285628,15.1523077 76.4827559,15.4161538 75.7479163,15.4161538 C75.136703,15.4545101 74.5349291,15.2513857 74.0729142,14.8507692 L73.1867841,16.4069231 C73.9084473,16.9769079 74.8188036,17.2556088 75.7371098,17.1876923 C77.3148537,17.1876923 78.6278392,16.2938462 78.6278392,14.6461538 C78.6806358,14.0102776 78.4873137,13.3783657 78.087516,12.88 C77.6881994,12.501193 77.1722499,12.2678235 76.62324,12.2176923 Z" id="Shape"></path>
          <polygon id="Rectangle-path" points="82.2317953 9.05692308 84.0742976 9.05692308 84.0742976 17.1176923 82.2317953 17.1176923"></polygon>
          <polygon id="Shape" points="87.2838177 10.8176923 89.1209167 10.8176923 89.1209167 17.1230769 90.963419 17.1230769 90.963419 10.8176923 92.800518 10.8176923 92.800518 9.05692308 87.2838177 9.05692308"></polygon>
          <polygon id="Shape" points="53.3893402 17.1230769 55.4966009 17.1230769 57.8956361 12.3846154 57.8956361 17.1230769 59.7381384 17.1230769 59.7381384 9.04615385 57.8740232 9.04615385"></polygon>
          <polygon id="Shape" points="48.4886084 13.79 48.4886084 9.04615385 46.6407029 9.04615385 46.6407029 17.1230769 48.5102213 17.1230769 52.9949043 9.04615385 50.8768371 9.04615385"></polygon>
          <path d="M69.5774248,11.6523077 C69.6112481,10.9589084 69.3515218,10.2831895 68.8615131,9.78975056 C68.3715045,9.29631162 67.6961944,9.03044842 67.0000829,9.05692308 L64.0391115,9.05692308 L64.0391115,17.1338462 L65.9194364,17.1338462 L65.9194364,10.8176923 L66.956857,10.8176923 C67.1736882,10.8145484 67.3822563,10.9004945 67.5335374,11.0553289 C67.6848184,11.2101633 67.7654702,11.4202304 67.7565354,11.6361538 C67.7667756,11.8559867 67.68775,12.0706671 67.5372908,12.2317522 C67.3868316,12.3928372 67.1776172,12.4867531 66.956857,12.4923077 L65.9194364,12.4923077 L68.2212134,17.1230769 L70.3338773,17.1230769 L68.3995201,13.7523077 C69.1504493,13.322079 69.6030737,12.5151281 69.5774248,11.6523077 Z" id="Shape"></path>
          <polygon id="Shape" points="98.1713311 11.9538462 96.7448777 9.04615385 94.6376171 9.04615385 97.2527816 13.8384615 97.2527816 17.1230769 99.1006871 17.1230769 99.1006871 13.8384615 101.710448 9.04615385 99.6031877 9.04615385"></polygon>
          <polygon id="Shape" points="108.291586 10.8176923 110.128685 10.8176923 110.128685 17.1230769 111.971187 17.1230769 111.971187 10.8176923 113.813689 10.8176923 113.813689 9.05692308 108.291586 9.05692308"></polygon>
          <polygon id="Shape" points="120.810875 9.04615385 118.41184 13.79 118.41184 9.04615385 116.569338 9.04615385 116.569338 17.1230769 118.438856 17.1230769 122.923539 9.04615385"></polygon>
          <path d="M16.290746,28 C13.3459843,27.7846154 13.5891297,24.4676923 13.5891297,24.4676923 L13.5891297,10.9307692 C13.5718607,9.9589319 13.2252892,9.0214789 12.6057414,8.27076923 C11.4075816,9.40789229 10.3957006,10.7251644 9.60694737,12.1746154 L9.60694737,24.4407692 C9.60694737,25.9430769 10.2337223,28 12.6327576,27.9838462 L16.3015524,27.9838462 L16.290746,28 Z M17.4956668,24.43 C17.4994075,25.3813764 17.8058791,26.3070496 18.3709905,27.0738462 C19.3976046,26.04 20.1756701,24.3815385 20.6943804,23.38 C28.8316486,8.12538462 33.1704443,0 33.1704443,0 L29.1774554,0 C29.1774554,0 25.2276925,7.60307692 17.4902636,21.9961538 C17.4902636,23.0730769 17.4902636,23.9184615 17.4902636,24.4138462 L17.4956668,24.43 Z M9.80686697,7.36076923 C9.45565686,7.36076923 7.07823456,7.96923077 3.98218235,14.5007692 L0,14.5007692 C0,14.5007692 1.53992126,10.85 3.625569,8.83076923 C4.33879569,8.14692308 5.322184,7.35538462 6.04621716,7.35538462 L9.8284799,7.35538462 L9.80686697,7.36076923 Z" id="Shape"></path>
          <path d="M20.8456709,24.4138462 C20.8019254,25.3820015 21.1282503,26.3306635 21.7588172,27.0684615 C22.7746249,26.0238462 23.5472872,24.3761538 24.0714007,23.4123077 C32.3059271,8.07692308 36.5258516,0 36.5258516,0 L40.5242437,0 C40.5242437,0 36.2016577,8.12538462 28.096809,23.38 C27.3025338,24.8715385 25.8976933,27.9623077 23.9309167,27.9838462 L19.9001053,27.9838462 C17.5064733,27.9838462 16.8742951,25.7384615 16.8742951,24.4407692 L16.8742951,11.0546154 C16.9002102,10.03881 16.5523579,9.04864421 15.89631,8.27076923 C13.6269523,10.1930769 11.5250949,14.4953846 11.5250949,14.4953846 L7.56452549,14.4953846 C7.56452549,14.4953846 9.24493079,10.8715385 11.3467882,8.83076923 C12.0924343,8.09846154 13.0542097,7.35538462 13.8430816,7.35538462 L17.8846995,7.35538462 C20.7754289,7.35538462 20.8456709,11.0223077 20.8456709,11.0223077 L20.8456709,24.4138462 Z" id="Shape"></path>
        </g>
    </g>
</svg>
