
<svg xmlns="http://www.w3.org/2000/svg" viewBox="0 0 500 500">
  <path fill="currentColor" d="M443.1 226H170.8c-15.7 0-28.5 12.7-28.6 28.4.2 15.7 12.9 28.4 28.6 28.4h272.3c15.7 0 28.5-12.7 28.6-28.4-.1-15.7-12.9-28.4-28.6-28.4zm-265.6 44.3h-6.7v-29h6.6v17.1l8.6-17.1h7.6l-16.1 29zm40.3 0h-6.6v-17l-8.6 17H195l16.1-29h6.7v29zm30.3 0l-8.2-16.7v16.7h-6.6v-29h10.6c6 0 9.2 4.6 9.2 9.3 0 3.9-2.2 6.4-4.3 7.6l6.9 12.1h-7.6zm27.1-.2c-3.6 0-6.6-.6-9.1-2.8l3.2-5.6c1.4 1.5 3.9 2 6 2 2.6 0 3.8-1 3.8-2.6 0-.7-.2-1.3-.5-1.7-.3-.4-.9-.7-1.8-.8l-3.2-.5c-2.4-.4-4.2-1.2-5.4-2.6-1.2-1.4-1.8-3.3-1.8-5.8 0-5.3 3.7-9.2 9.8-9.2 3.3 0 5.9.7 8 2.5l-3.1 5.5c-1.7-1.8-3.9-1.7-5.1-1.7-2.3 0-3.2 1.4-3.2 2.7 0 .4.1.9.5 1.4.4.4.9.7 1.9.8l3.2.5c2.4.4 4.1 1.2 5.3 2.4 1.4 1.5 2 3.7 2 6.4-.1 5.9-4.8 9.1-10.5 9.1zm29.8-.3h-6.6v-29h6.6v29zm31.3-22.6h-6.6v22.7h-6.6v-22.7h-6.6v-6.3h19.8v6.3zm22.6 10.8v11.8h-6.6V258l-9.4-17.2h7.5l5.1 10.5 5.1-10.5h7.5l-9.2 17.2zm23.1 11.8h-6.6v-6.6h6.6v6.6zm29.6-22.6H405v22.7h-6.6v-22.7h-6.6v-6.3h19.8v6.3zm16.6 22.6h-6.7v-29h6.6v17.1l8.6-17.1h7.6l-16.1 29zm-184.6-16.1h-3.7v-6h3.7c1.8 0 2.9 1.4 2.9 2.9s-1.1 3.1-2.9 3.1zm-204.9-2.4H28.3s4.1-9.6 9.5-14.9c1.9-1.8 4.5-3.9 6.4-3.9H54c-.9.1-7.1 1.6-15.3 18.8zm85.6-38.2s-11.1 21.4-32.7 61.8c-1.4 2.6-3.4 6.9-6.1 9.6-2-2.3-2.4-4.8-2.4-7v-3.4c21.1-39.8 32.4-61 32.4-61H105s-7.4 14.3-21.9 41.5v-12.4s-.2-9.7-7.8-9.7H64.5c-2.1 0-4.6 1.9-6.6 3.9-5.5 5.4-9.9 14.9-9.9 14.9h5.4v26.2c0 4 1.7 9.4 8 9.3H71c-7.7-.6-7.1-9.3-7.1-9.3V242c1.8-2.7 3.9-5.3 6.1-7.2 2.9 3.4 2.6 7.3 2.6 7.3v35.3c0 3.4 1.7 9.3 8 9.3H91c5.2-.1 8.9-8.2 11-12.1 21.3-40.2 32.7-61.7 32.7-61.7h-10.4z"/>
</svg>
