<svg xmlns="http://www.w3.org/2000/svg" viewBox="0 0 500 500">
  <path fill="currentColor"  d="M427.1 83.3c17.1 0 31 13.7 31.2 30.7v271.3c0 17.1-13.7 31-30.7 31.2H72.9c-17.1 0-31-13.7-31.2-30.7V114.6c0-17.1 13.7-31 30.7-31.2h354.7zm0 20.9H72.9c-5.6 0-10.3 4.5-10.4 10.1v271.1c0 5.6 4.5 10.3 10.1 10.4h354.5c5.6 0 10.3-4.5 10.4-10.1V114.6c0-5.6-4.5-10.3-10.1-10.4h-.3zm-39.4 41.6c4.5 0 8.1 3.3 8.1 7.4v193.5c0 4.1-3.6 7.4-8.1 7.4H112.3c-4.5 0-8.1-3.3-8.1-7.4V153.3c0-4.1 3.6-7.4 8.1-7.4h275.4z"/>
</svg>
