<svg xmlns="http://www.w3.org/2000/svg" viewBox="0 0 500 500">
  <path fill="currentColor" d="M208.2 321.8c12.5 0 27.1-6.2 27.1-20.8V196.8c0-12.5-14.6-20.8-27.1-20.8H70.8c-12.5 0-27.1 8.3-27.1 20.8V301c0 14.6 14.6 20.8 27.1 20.8h137.4zM70.8 213.5c0-8.3 10.4-14.6 18.8-14.6h95.8c8.3 0 18.8 6.2 18.8 14.6v72.9c0 10.4-10.4 14.6-18.8 14.6H89.5c-8.3 0-18.8-6.2-18.8-14.6v-72.9zM429.1 176H291.6c-12.5 0-27.1 8.3-27.1 20.8V301c0 12.5 14.6 20.8 27.1 20.8h137.5c12.5 0 27.1-6.2 27.1-20.8V196.8c0-12.5-14.6-20.8-27.1-20.8zM427 286.4c0 10.4-10.4 14.6-18.8 14.6h-95.8c-8.3 0-18.8-6.2-18.8-14.6v-72.9c0-8.3 10.4-14.6 18.8-14.6h95.8c8.3 0 18.8 6.2 18.8 14.6v72.9zM62.4 138.5v-22.9c0-16.7 14.6-31.2 31.2-31.2h312.5c16.7 0 31.2 14.6 31.2 31.2v22.9c0 12.5-29.2 12.5-29.2 0 0-8.3 2.1-25-10.4-25H102c-12.5 0-10.4 16.7-10.4 25 0 12.5-29.2 12.5-29.2 0zm375 222.9v22.9c0 16.7-14.6 31.2-31.2 31.2H93.7c-16.7 0-31.2-14.6-31.2-31.2v-22.9c0-12.5 29.2-12.5 29.2 0 0 8.3-2.1 25 10.4 25h295.8c12.5 0 10.4-16.7 10.4-25-.1-12.5 29.1-12.5 29.1 0z"/>
</svg>
