<svg xmlns="http://www.w3.org/2000/svg" viewBox="0 0 500 500">
  <path fill="currentColor" d="M278.1 208.3V104.2c0-12.5 12.5-20.8 25-20.8h129.2c12.5 0 27.1 6.2 25 20.8v104.2c0 12.5-12.5 20.8-25 20.8H303.1c-10.4 0-25-8.4-25-20.9zm154.1 62.5H303.1c-12.5 0-25 8.3-25 20.8v104.2c0 12.5 14.6 20.8 25 20.8h129.2c12.5 0 25-8.3 25-20.8V291.7c2-14.6-12.5-20.9-25.1-20.9zm-235.4 0H67.7c-12.5 0-25 8.3-25 20.8v104.2c0 12.5 14.6 20.8 25 20.8h129.2c12.5 0 25-8.3 25-20.8V291.7c2-14.6-12.6-20.9-25.1-20.9zm0-187.5H67.7c-12.5 0-25 8.3-25 20.8v104.2c0 12.5 14.6 20.8 25 20.8h129.2c12.5 0 25-8.3 25-20.8V104.2c2-14.6-12.6-20.9-25.1-20.9z"/>
</svg>
