<svg xmlns="http://www.w3.org/2000/svg" viewBox="0 0 500 500">
  <path fill="currentColor" d="M70.8 321.8c-12.5 0-27.1-6.2-27.1-20.8V196.8c0-12.5 14.6-20.8 27.1-20.8h137.5c12.5 0 27.1 8.3 27.1 20.8V301c0 14.6-14.6 20.8-27.1 20.8H70.8zM429.1 176H291.6c-12.5 0-27.1 8.3-27.1 20.8V301c0 12.5 14.6 20.8 27.1 20.8h137.5c12.5 0 27.1-6.2 27.1-20.8V196.8c0-12.5-14.6-20.8-27.1-20.8zM91.6 138.5c0-8.3-2.1-25 10.4-25h295.8c12.5 0 10.4 16.7 10.4 25 0 12.5 29.2 12.5 29.2 0v-22.9c0-16.7-14.6-31.2-31.2-31.2H93.7C77 84.4 62.5 99 62.5 115.6v22.9c-.1 12.5 29.1 12.5 29.1 0zm316.6 222.9c0 8.3 2.1 25-10.4 25H102c-12.5 0-10.4-16.7-10.4-25 0-12.5-29.2-12.5-29.2 0v22.9c0 16.7 14.6 31.2 31.2 31.2h312.5c16.7 0 31.2-14.6 31.2-31.2v-22.9c.1-12.5-29.1-12.5-29.1 0z"/>
</svg>
