<svg xmlns="http://www.w3.org/2000/svg" viewBox="0 0 500 500">
  <path fill="currentColor" d="M303.1 229.2h129.2c12.5 0 25-8.3 25-20.8V104.2c2.1-14.6-12.5-20.8-25-20.8H303.1c-12.5 0-25 8.3-25 20.8v104.2c0 12.4 14.6 20.8 25 20.8zm0-107.2c0-6.8 9.1-13.7 18.1-13.7h95c9.1 0 18.1 4.6 18.1 13.7v68.5c0 9.1-11.3 13.7-18.1 13.7h-95c-9.1 0-18.1-4.6-18.1-13.7V122zm129.1 148.8H303.1c-12.5 0-25 8.3-25 20.8v104.2c0 12.5 14.6 20.8 25 20.8h129.2c12.5 0 25-8.3 25-20.8V291.7c2-14.6-12.5-20.9-25.1-20.9zm2.1 107.2c0 9.1-11.3 13.7-18.1 13.7h-95c-9.1 0-18.1-4.6-18.1-13.7v-68.5c0-6.8 9.1-13.7 18.1-13.7h95c9.1 0 18.1 4.6 18.1 13.7V378zM196.8 270.8H67.7c-12.5 0-25 8.3-25 20.8v104.2c0 12.5 14.6 20.8 25 20.8h129.2c12.5 0 25-8.3 25-20.8V291.7c2-14.6-12.6-20.9-25.1-20.9zm2.1 107.2c0 9.1-11.3 13.7-18.1 13.7h-95c-9.1 0-18.1-4.6-18.1-13.7v-68.5c0-6.8 9.1-13.7 18.1-13.7h95c9.1 0 18.1 4.6 18.1 13.7V378zm-2.1-294.7H67.7c-12.5 0-25 8.3-25 20.8v104.2c0 12.5 14.6 20.8 25 20.8h129.2c12.5 0 25-8.3 25-20.8V104.2c2-14.6-12.6-20.9-25.1-20.9zm2.1 107.2c0 9.1-11.3 13.7-18.1 13.7h-95c-9.1 0-18.1-4.6-18.1-13.7V122c0-6.8 9.1-13.7 18.1-13.7h95c9.1 0 18.1 4.6 18.1 13.7v68.5z"/>
</svg>
