<svg width="24px" height="16px" viewBox="0 0 24 16" version="1.1">
  <g fill="currentColor">
    <path d="M22.4,14.4 L22.4,9.6 L24,9.6 L24,15.6 C24,15.8209139 23.8209139,16 23.6,16 L0.4,16 C0.1790861,16 1.34117585e-15,15.8209139 3.33066907e-16,15.6 L-5.55111512e-17,0.4 C-8.25653013e-17,0.1790861 0.1790861,3.18136981e-16 0.4,2.77555756e-16 L10.4,0 L10.4,1.6 L1.6,1.6 L1.6,14.4 L22.4,14.4 Z"></path>
    <path d="M14,0 L23.6,5.55111512e-17 C23.8209139,1.49299262e-17 24,0.1790861 24,0.4 L24,6 C24,6.2209139 23.8209139,6.4 23.6,6.4 L14,6.4 C13.7790861,6.4 13.6,6.2209139 13.6,6 L13.6,0.4 C13.6,0.1790861 13.7790861,-7.04410774e-17 14,-1.11022302e-16 Z M15.2,1.6 L15.2,4.8 L22.4,4.8 L22.4,1.6 L15.2,1.6 Z"></path>
    <path d="M11.6,1.57189698 C11.1293226,1.84416914 10.5828594,2 10,2 L10,-0.4 L11.6,-0.4 L11.6,1.57189698 Z" transform="translate(10.800000, 0.800000) scale(1, -1) rotate(-90.000000) translate(-10.800000, -0.800000) "></path>
    <path d="M24,9.97189698 C23.5293226,10.2441691 22.9828594,10.4 22.4,10.4 L22.4,8 L24,8 L24,9.97189698 Z" transform="translate(23.200000, 9.200000) scale(-1, -1) translate(-23.200000, -9.200000) "></path>
  </g>
</svg>
