<svg xmlns="http://www.w3.org/2000/svg" viewBox="0 0 500 500">
  <path fill="currentColor" d="M431.2 83.3H302.1c-12.5 0-25 8.3-25 20.8v104.2c0 12.5 14.6 20.8 25 20.8h129.2c12.5 0 25-8.3 25-20.8V104.2c2-14.6-12.5-20.9-25.1-20.9zm2.1 107.2c0 9.1-11.3 13.7-18.1 13.7h-95c-9.1 0-18.1-4.6-18.1-13.7V122c0-6.8 9.1-13.7 18.1-13.7h95c9.1 0 18.1 4.6 18.1 13.7v68.5zm-4.1 78.3v108.3c0 6.2-4.2 10.4-10.4 10.4H81.2c-6.2 0-10.4-4.2-10.4-10.4V122.9c0-6.2 4.2-10.4 10.4-10.4h156.2c14.6 0 14.6-29.2 0-29.2H72.9c-16.7 0-31.2 14.6-31.2 31.2v270.8c0 16.7 14.6 31.2 31.2 31.2h354.2c16.7 0 31.2-14.6 31.2-31.2V268.8c0-14.6-29.1-14.6-29.1 0z"/>
</svg>
