<svg width="24px" height="16px" viewBox="0 0 24 16" version="1.1">
  <g fill="currentColor">
    <path d="M0.4,0 L10.8,0 C11.0209139,9.40473568e-16 11.2,0.1790861 11.2,0.4 L11.2,6.8 C11.2,7.0209139 11.0209139,7.2 10.8,7.2 L0.4,7.2 C0.1790861,7.2 -5.83568513e-16,7.0209139 -6.10622664e-16,6.8 L0,0.4 C-2.705415e-17,0.1790861 0.1790861,3.18136981e-16 0.4,2.77555756e-16 Z M1.6,1.6 L1.6,5.6 L9.6,5.6 L9.6,1.6 L1.6,1.6 Z"></path>
    <path transform="translate(0.000000, 8.800000)" d="M0.4,0 L10.8,0 C11.0209139,9.40473568e-16 11.2,0.1790861 11.2,0.4 L11.2,6.8 C11.2,7.0209139 11.0209139,7.2 10.8,7.2 L0.4,7.2 C0.1790861,7.2 -5.83568513e-16,7.0209139 -6.10622664e-16,6.8 L0,0.4 C-2.705415e-17,0.1790861 0.1790861,3.18136981e-16 0.4,2.77555756e-16 Z M1.6,1.6 L1.6,5.6 L9.6,5.6 L9.6,1.6 L1.6,1.6 Z"></path>
    <path transform="translate(12.800000, 0.000000)" d="M0.4,0 L10.8,0 C11.0209139,9.40473568e-16 11.2,0.1790861 11.2,0.4 L11.2,6.8 C11.2,7.0209139 11.0209139,7.2 10.8,7.2 L0.4,7.2 C0.1790861,7.2 -5.83568513e-16,7.0209139 -6.10622664e-16,6.8 L0,0.4 C-2.705415e-17,0.1790861 0.1790861,3.18136981e-16 0.4,2.77555756e-16 Z M1.6,1.6 L1.6,5.6 L9.6,5.6 L9.6,1.6 L1.6,1.6 Z"></path>
    <path transform="translate(12.800000, 8.800000)" d="M0.4,0 L10.8,0 C11.0209139,9.40473568e-16 11.2,0.1790861 11.2,0.4 L11.2,6.8 C11.2,7.0209139 11.0209139,7.2 10.8,7.2 L0.4,7.2 C0.1790861,7.2 -5.83568513e-16,7.0209139 -6.10622664e-16,6.8 L0,0.4 C-2.705415e-17,0.1790861 0.1790861,3.18136981e-16 0.4,2.77555756e-16 Z M1.6,1.6 L1.6,5.6 L9.6,5.6 L9.6,1.6 L1.6,1.6 Z"></path>
  </g>
</svg>
