<svg xmlns="http://www.w3.org/2000/svg" viewBox="0 0 500 500">
  <path fill="currentColor" d="M106.8 432.5h78.1c21.6 0 39.1-17.5 39.1-39.1V107c0-21.6-17.5-39.1-39.1-39.1h-78.1c-21.6 0-39.1 17.5-39.1 39.1v286.5c0 21.5 17.5 39 39.1 39zM93.8 107c0-7.2 5.9-13 13-13h78.1c7.2 0 13 5.9 13 13v286.5c0 7.2-5.9 13-13 13h-78.1c-7.2 0-13-5.9-13-13V107zm221.3 325.5h78.1c21.6 0 39.1-17.5 39.1-39.1V107c0-21.6-17.5-39.1-39.1-39.1h-78.1c-21.6 0-39.1 17.5-39.1 39.1v286.5c0 21.5 17.5 39 39.1 39zm-13-325.5c0-7.2 5.9-13 13-13h78.1c7.2 0 13 5.9 13 13v286.5c0 7.2-5.9 13-13 13h-78.1c-7.2 0-13-5.9-13-13V107z"/>
</svg>
