<svg width="24px" height="16px" viewBox="0 0 24 16" version="1.1">
  <g fill="#FFFFFF">
    <path d="M20.8592593,14.4 L22.4,14.4 L22.4,15.6 C22.4,15.8209139 22.2209139,16 22,16 L2,16 C1.7790861,16 1.6,15.8209139 1.6,15.6 L1.6,14.4 L3.14074074,14.4 L20.8592593,14.4 Z"></path>
    <path d="M20.8,0 L22.4,0 L22.4,1.2 C22.4,1.4209139 22.2209139,1.6 22,1.6 L2,1.6 C1.7790861,1.6 1.6,1.4209139 1.6,1.2 L1.6,0 L3.2,0 L20.8,0 Z" transform="translate(12.000000, 0.800000) scale(1, -1) translate(-12.000000, -0.800000) "></path>
    <path d="M13.2,4 L23.6,4 C23.8209139,4 24,4.1790861 24,4.4 L24,11.6 C24,11.8209139 23.8209139,12 23.6,12 L13.2,12 C12.9790861,12 12.8,11.8209139 12.8,11.6 L12.8,4.4 C12.8,4.1790861 12.9790861,4 13.2,4 Z M14.4,5.6 L14.4,10.4 L22.4,10.4 L22.4,5.6 L14.4,5.6 Z"></path>
    <path d="M0.4,4 L10.8,4 C11.0209139,4 11.2,4.1790861 11.2,4.4 L11.2,11.6 C11.2,11.8209139 11.0209139,12 10.8,12 L0.4,12 C0.1790861,12 -5.83568513e-16,11.8209139 -6.10622664e-16,11.6 L-5.55111512e-17,4.4 C-8.25653013e-17,4.1790861 0.1790861,4 0.4,4 Z M1.6,5.6 L1.6,10.4 L9.6,10.4 L9.6,5.6 L1.6,5.6 Z"></path>
    <path d="M20.8,1.6 L20.8,0.8 L22.4,0.8 L22.4,2.4 C21.8171406,2.4 21.2706774,2.24416914 20.8,1.97189698 L20.8,1.79455927 L21.5576269,1.6 L20.8,1.6 Z"></path>
    <path d="M20.8,14.4 L21.5576269,14.4 L20.8,14.2054407 L20.8,14.028103 C21.2706774,13.7558309 21.8171406,13.6 22.4,13.6 L22.4,15.2 L20.8,15.2 L20.8,14.4 Z"></path>
    <path d="M3.2,1.6 L2.4,1.6 L3.2,1.80544073 L3.2,1.97189698 C2.72932261,2.24416914 2.18285943,2.4 1.6,2.4 L1.6,0.8 L3.2,0.8 L3.2,1.6 Z"></path>
    <path d="M3.2,14.4 L3.2,15.2 L1.6,15.2 L1.6,13.6 C2.18285943,13.6 2.72932261,13.7558309 3.2,14.028103 L3.2,14.1945593 L2.4,14.4 L3.2,14.4 Z"></path>
  </g>
</svg>
