<svg width="17px" height="17px" viewBox="0 0 17 17" version="1.1">
  <g transform="translate(0.000000, 1.777778)" fill="currentColor">
    <g transform="translate(8.400000, 0.888889)" fill-rule="nonzero">
      <path d="M0.391476334,8.64389002 C1.74983937,8.15739022 2.72163471,6.85868783 2.72163471,5.33301048 C2.72163471,3.80973677 1.75289901,2.51272341 0.397893586,2.02443637 C0.513073269,1.50265373 0.655698336,0.985397021 0.825767386,0.474821226 L0.831689901,0.457040841 C2.87276605,1.13730989 4.34431989,3.06331028 4.34431989,5.33301048 C4.34431989,7.60621172 2.86822278,9.53465201 0.822240698,10.2121192 L0.819432921,10.203653 C0.648991184,9.68972724 0.506339465,9.16907463 0.391476334,8.64389002 Z"></path>
      <path d="M0.126105565,3.67822343 C0.706423979,4.00165142 1.09894952,4.62149132 1.09894952,5.33301048 C1.09894952,6.04584065 0.704976145,6.66665342 0.122895844,6.98958232 C0.00514137733,5.8889249 0.00621549692,4.77866874 0.126105565,3.67822343 Z"></path>
    </g>
    <path d="M0.444444444,3.6761493 L3.57561608,3.6761493 L6.28398317,0.174589561 C6.43415983,-0.0195689538 6.71329864,-0.0552232953 6.90745715,0.0949533607 C7.01627547,0.179121552 7.07998271,0.308937703 7.07998271,0.446508451 L7.07998271,11.9700546 C7.07998271,12.2155145 6.88099815,12.414499 6.63553826,12.414499 C6.49408075,12.414499 6.3610715,12.3471608 6.27733317,12.2331515 L3.57561608,8.55477735 L0.444444444,8.55477735 C0.198984556,8.55477735 3.07615923e-16,8.35579279 2.77555756e-16,8.1103329 L0,4.12059375 C-3.00601667e-17,3.87513386 0.198984556,3.6761493 0.444444444,3.6761493 Z"></path>
  </g>
</svg>
