<svg width="17px" height="17px" viewBox="0 0 17 17" version="1.1">
  <g fill="currentColor">
    <g transform="translate(8.400000, 0.000000)">
      <path d="M1.3331786,14.4193953 C4.02500687,13.527846 5.96700508,10.9905506 5.96700508,7.99967715 C5.96700508,5.01304794 4.03051458,2.47871032 1.34463365,1.58376438 L1.59579504,0.829735811 C1.68517797,0.561393247 1.80287783,0.308341952 1.94490946,0.0734549236 C5.23015974,1.20855727 7.58969027,4.32856827 7.58969027,7.99967715 C7.58969027,11.6746971 5.22512959,14.7974442 1.93440644,15.9295205 C1.78938573,15.6908693 1.66947659,15.4334205 1.57886186,15.1601937 L1.3331786,14.4193953 Z"></path>
      <path d="M0.391476334,11.3105567 C1.74983937,10.8240569 2.72163471,9.5253545 2.72163471,7.99967715 C2.72163471,6.47640344 1.75289901,5.17939008 0.397893586,4.69110304 C0.513073269,4.16932039 0.655698336,3.65206369 0.825767386,3.14148789 L0.831689901,3.12370751 C2.87276605,3.80397656 4.34431989,5.72997694 4.34431989,7.99967715 C4.34431989,10.2728784 2.86822278,12.2013187 0.822240698,12.8787859 L0.819432921,12.8703197 C0.648991184,12.3563939 0.506339465,11.8357413 0.391476334,11.3105567 Z"></path>
      <path d="M0.126105565,6.3448901 C0.706423979,6.66831809 1.09894952,7.28815799 1.09894952,7.99967715 C1.09894952,8.71250732 0.704976145,9.33332008 0.122895844,9.65624898 C0.00514137733,8.55559157 0.00621549692,7.44533541 0.126105565,6.3448901 Z" id="Combined-Shape"></path>
    </g>
    <path d="M0.444444444,5.45392708 L3.57561608,5.45392708 L6.28398317,1.95236734 C6.43415983,1.75820882 6.71329864,1.72255448 6.90745715,1.87273114 C7.01627547,1.95689933 7.07998271,2.08671548 7.07998271,2.22428623 L7.07998271,13.7478324 C7.07998271,13.9932922 6.88099815,14.1922768 6.63553826,14.1922768 C6.49408075,14.1922768 6.3610715,14.1249386 6.27733317,14.0109293 L3.57561608,10.3325551 L0.444444444,10.3325551 C0.198984556,10.3325551 3.07615923e-16,10.1335706 2.77555756e-16,9.88811068 L0,5.89837152 C-3.00601667e-17,5.65291163 0.198984556,5.45392708 0.444444444,5.45392708 Z"></path>
  </g>
</svg>
