<svg width="17px" height="17px" viewBox="0 0 17 17" version="1.1">
  <g fill="currentColor">
    <path d="M13.541251,4.75766578 L14.6721264,3.48435462 C15.5069478,4.78765992 15.9909562,6.33715687 15.9909562,7.99967715 C15.9909562,11.6746701 13.6259517,14.7973984 10.3346003,15.9294956 C10.1894551,15.690716 10.069444,15.4331177 9.97875565,15.1597242 L9.73317843,14.4193953 C12.4255514,13.527846 14.3679426,10.9905506 14.3679426,7.99967715 C14.3679426,6.8249562 14.0682955,5.72020742 13.541251,4.75766578 Z M12.7642722,3.62792497 C11.9723585,2.69473258 10.9316687,1.97920832 9.7446358,1.58376438 L9.99569228,0.830203227 C10.0851485,0.561694909 10.2029495,0.308494734 10.3451044,0.0734795768 C11.7065725,0.543805487 12.9090841,1.3548878 13.8506304,2.40473818 L12.7642722,3.62792497 Z"></path>
    <path d="M11.0889798,7.51849579 L12.3714135,6.07424521 C12.6119013,6.66889526 12.7443197,7.31882222 12.7443197,7.99967715 C12.7443197,10.2728784 11.2682226,12.2013187 9.22224053,12.8787859 L9.21943275,12.8703197 C9.04899101,12.3563939 8.9063393,11.8357413 8.79147616,11.3105567 C10.1498392,10.8240569 11.1216345,9.5253545 11.1216345,7.99967715 C11.1216345,7.83644635 11.1105107,7.67581366 11.0889798,7.51849579 Z M10.5663432,6.10249714 C10.1516187,5.45666432 9.53134345,4.95540762 8.79789342,4.69110304 C8.9130731,4.16932039 9.05569817,3.65206369 9.22576722,3.14148789 L9.23168973,3.12370751 C10.2084884,3.44926413 11.0548495,4.06013014 11.6719044,4.85743674 L10.5663432,6.10249714 Z"></path>
    <path d="M9.4053159,7.41002236 L8.44280162,8.49398629 C8.42054799,7.77702514 8.44831707,7.05889253 8.5261054,6.3448901 C8.93850644,6.57473295 9.25606872,6.95426915 9.4053159,7.41002236 Z"></path>
    <path d="M7.11111111,9.99370894 L5.04111912,12.3248916 L3.59133692,10.3545964 L0.444444444,10.3545964 C0.198984556,10.3545964 7.89070354e-16,10.1556118 -2.22044605e-16,9.91015194 L0,5.90784007 C-3.00601667e-17,5.66238018 0.198984556,5.46339562 0.444444444,5.46339562 L3.59133692,5.46339562 L6.31535038,1.94798731 C6.46569739,1.75396068 6.74486739,1.71855136 6.93889402,1.86889837 C7.0475301,1.95307811 7.11111111,2.08278094 7.11111111,2.22021466 L7.11111111,9.99370894 Z M7.11111111,11.9982903 L7.11111111,13.7841489 C7.11111111,14.0296088 6.91212656,14.2285933 6.66666667,14.2285933 C6.52534465,14.2285933 6.39244602,14.1613833 6.30868938,14.0475556 L5.84772417,13.4210908 L7.11111111,11.9982903 Z"></path>
    <path d="M1.77998374,16 L-1.11022302e-15,16 L14.2073257,0 L15.9364099,0 L15.96337,0.0269600763 L1.77998374,16 Z"></path>
  </g>
</svg>
