<svg xmlns="http://www.w3.org/2000/svg" viewBox="0 0 500 500">
  <path fill="currentColor" d="M224.1 140.6v218.7c0 14-16.9 20.8-26.7 11l-57.9-57.9H73c-8.6 0-15.6-7-15.6-15.6v-93.7c0-8.6 7-15.6 15.6-15.6h66.4l57.9-57.9c9.9-9.8 26.8-2.9 26.8 11zm-20.9 12.6l-50.6 50.5c-2.9 2.9-6.9 4.6-11 4.6H78.2v83.3h63.4c4.1 0 8.1 1.6 11 4.6l50.6 50.5V153.2zm62.5 51.3c3-4.9 9.4-6.5 14.3-3.4 17.2 10.5 27.4 28.8 27.4 48.9s-10.3 38.4-27.4 48.9c-4.9 3-11.3 1.5-14.3-3.4s-1.5-11.3 3.4-14.3c10.9-6.7 17.5-18.3 17.5-31.1s-6.5-24.4-17.5-31.1c-4.9-3.1-6.4-9.5-3.4-14.5zM376.9 250c0-42.8-24-80.6-60.6-101.7-5.2-3-11.9-1.4-15.1 3.4-3.2 4.9-1.5 11.3 3.6 14.2 30.1 17.3 50 48.5 50 84s-20 66.7-50 84c-5.2 3-6.8 9.4-3.6 14.2 3.2 4.9 9.9 6.4 15.1 3.4 36.5-20.9 60.6-58.7 60.6-101.5z"/>
</svg>
