<svg width="17px" height="17px" viewBox="0 0 17 17" version="1.1">
  <g transform="translate(0.000000, 1.777778)" fill="#FFFFFF">
    <g transform="translate(8.400000, 4.444444)" fill-rule="nonzero">
      <path d="M0.126105565,0.122667876 C0.706423979,0.446095863 1.09894952,1.06593577 1.09894952,1.77745493 C1.09894952,2.4902851 0.704976145,3.11109786 0.122895844,3.43402676 C0.00514137733,2.33336934 0.00621549692,1.22311319 0.126105565,0.122667876 Z"></path>
    </g>
    <path d="M0.444444444,3.6761493 L3.57561608,3.6761493 L6.28398317,0.174589561 C6.43415983,-0.0195689538 6.71329864,-0.0552232953 6.90745715,0.0949533607 C7.01627547,0.179121552 7.07998271,0.308937703 7.07998271,0.446508451 L7.07998271,11.9700546 C7.07998271,12.2155145 6.88099815,12.414499 6.63553826,12.414499 C6.49408075,12.414499 6.3610715,12.3471608 6.27733317,12.2331515 L3.57561608,8.55477735 L0.444444444,8.55477735 C0.198984556,8.55477735 3.07615923e-16,8.35579279 2.77555756e-16,8.1103329 L0,4.12059375 C-3.00601667e-17,3.87513386 0.198984556,3.6761493 0.444444444,3.6761493 Z"></path>
  </g>
</svg>
