<svg xmlns="http://www.w3.org/2000/svg" viewBox="0 0 500 500">
  <path fill="currentColor" d="M436.8 414.6L39.6 101.5c-3.4-2.7-3.9-7.6-1.3-11l3.2-4.1c2.7-3.4 7.6-3.9 11-1.3l397.2 313.1c3.4 2.7 3.9 7.6 1.3 11l-3.2 4.1c-2.7 3.5-7.6 4-11 1.3zm-132-248.7c28.4 17.4 50.3 48.4 50.3 84.1 0 13-3.5 25.7-8.1 37.1l17.9 12.9c7-15.3 12-32.2 12-50 0-43-22.8-78.9-60.6-101.7-4.9-3-12.3-1.5-15.3 3.4-2.9 4.9-1.1 11.2 3.8 14.2zm-115.2.9l13.5-13.5v24.1l20.8 16.4v-53.1c0-14-16.9-20.8-26.6-11l-24.1 24.1 16.4 13zm151.5-52.6c46.4 28.4 79.7 77.7 79.7 135.8 0 27.6-8 53.3-20.3 76l17.1 13.3c17.4-27.7 25.2-56.9 25.2-89.3 0-65.4-37.4-123.3-93.2-155.5-4.9-3-11.3-1.5-14.3 3.4-5.3 11.5 5.8 16.3 5.8 16.3zm-72 104.6c8.7 5.3 14.6 13.8 16.7 23.5l20.9 16.5c.5-3 .7-5.9.7-8.9 0-20.1-10.2-38.3-27.4-48.8-4.9-3-11.3-1.5-14.3 3.4s-1.5 11.3 3.4 14.3zm88.1 155.7c-5.8 4.8-12 9.2-18.4 13.1-4.9 3-6.4 9.4-3.4 14.3s9.4 6.4 14.3 3.4c8.5-5.2 16.6-11.1 24.2-17.7l-16.7-13.1zM203.1 256.9v89.7l-50.5-50.5c-2.9-2.9-6.9-4.6-11-4.6H78.3v-83.2h63.2l-26.4-20.8h-42c-8.6 0-15.6 7-15.6 15.6v93.6c0 8.6 7 15.6 15.6 15.6h66.3l57.8 57.8c9.8 9.8 26.6 2.9 26.6-11v-85.9l-20.7-16.3zm101.4 77.4c-4.9 3-6.4 9.4-3.4 14.3s9.4 6.4 14.3 3.4c2.2-1.3 4.3-2.7 6.3-4.2l-17.2-13.5z"/>
</svg>
