<?xml version="1.0" encoding="utf-8"?><svg xmlns="http://www.w3.org/2000/svg" xmlns:xlink="http://www.w3.org/1999/xlink"><symbol viewBox="0 0 500 500" id="android_flo_tomahawk" xmlns="http://www.w3.org/2000/svg"><path class="aasquircle-shape" fill="currentColor" d="M250 0C50 0 0 50 0 250s50 250 250 250 250-50 250-250S450 0 250 0z"/><path class="aatomahawk-top" fill="none" d="M363.272 233.951l-13.426 76.466a102.236 102.236 0 00-97.068 71.219h-79.09a179.166 179.166 0 01176.466-148.148c4.476 0 8.797.154 13.118.463z"/><path class="aatomahawk-bottom" fill="none" d="M383.642 118.827l-13.503 76.235H208.256l-97.145-76.235h272.531z"/></symbol><symbol viewBox="0 0 3283.215 500" id="android_logo" xmlns="http://www.w3.org/2000/svg"><path d="M157.305 160.566c47 0 86.176 24.153 104.458 50.271V167.1h71.8v326.359h-51.4a20.4 20.4 0 01-20.4-20.412v-23.306C243.481 475.859 204.305 500 157.305 500 67.894 500 0 423.636 0 330.283s67.894-169.717 157.305-169.717m13.059 65.282c-58.106 0-97.27 45.694-97.27 104.435s39.164 104.458 97.27 104.458 97.27-45.717 97.27-104.458-39.165-104.435-97.27-104.435M415.092 167.1h71.823v44.388c19.565-32.635 56.788-50.918 99.211-50.918 75.718 0 124.67 53.53 124.67 136.423V493.46h-51.387a20.407 20.407 0 01-20.424-20.4v-164.3c0-51.588-26.106-82.9-67.87-82.9-47.647 0-84.2 37.2-84.2 107.034V493.46H435.5a20.4 20.4 0 01-20.412-20.4V167.1zm509.83-6.531c47 0 86.165 24.153 104.447 50.271V3.92h71.788v489.539h-51.388a20.4 20.4 0 01-20.4-20.412v-23.306C1011.087 475.859 971.922 500 924.922 500c-89.434 0-157.317-76.364-157.317-169.717s67.883-169.717 157.317-169.717m13.06 65.282c-58.083 0-97.259 45.694-97.259 104.435s39.177 104.458 97.259 104.458 97.258-45.717 97.258-104.458-39.177-104.435-97.258-104.435M1182.71 167.1h71.8v58.1c12.4-37.223 48.953-61.376 86.176-61.376a140.855 140.855 0 0128.059 2.624v73.764c-12.4-3.929-22.835-5.894-35.894-5.894-41.129 0-78.341 34.6-78.341 99.882v159.26h-51.388a20.4 20.4 0 01-20.411-20.4V167.1zM1562.36 500c-96.611 0-171.011-75.07-171.011-169.694 0-94.658 74.4-169.728 171.011-169.728s171.011 75.07 171.011 169.728c0 94.624-74.4 169.694-171.011 169.694m0-66.565c57.435 0 97.918-45.058 97.918-103.129 0-58.093-40.483-103.14-97.918-103.14-58.094 0-98.564 45.047-98.564 103.14 0 58.071 40.47 103.129 98.564 103.129m265.094-337.483c-26.105 0-48.282-21.529-48.282-48.3 0-26.118 22.177-47.647 48.282-47.647a47.505 47.505 0 0147.671 47.647c0 26.776-20.906 48.305-47.671 48.305m-35.869 71.141h71.775v326.37H1812a20.414 20.414 0 01-20.411-20.411zm288.109-6.527c47 0 86.176 24.153 104.458 50.271V3.92h71.8v489.539h-51.4a20.4 20.4 0 01-20.4-20.412v-23.306C2165.87 475.859 2126.693 500 2079.694 500c-89.412 0-157.305-76.364-157.305-169.717s67.893-169.717 157.305-169.717m13.059 65.282c-58.082 0-97.259 45.694-97.259 104.435s39.177 104.458 97.259 104.458 97.269-45.717 97.269-104.458-39.176-104.435-97.269-104.435"/><path d="M3048.287 370.281a36.253 36.253 0 1136.247-36.259 36.3 36.3 0 01-36.247 36.259m-400.656 0a36.253 36.253 0 1136.247-36.259 36.3 36.3 0 01-36.247 36.259m413.657-218.352l72.446-125.47a15.072 15.072 0 00-26.106-15.071l-73.352 127.058c-56.094-25.6-119.094-39.858-186.317-39.858s-130.223 14.259-186.317 39.858L2588.29 11.388a15.072 15.072 0 00-26.106 15.071l72.446 125.47c-124.4 67.658-209.481 193.6-221.927 342.386h870.512c-12.458-148.787-97.54-274.728-221.927-342.386" fill="#3ddc84"/></symbol><symbol viewBox="0 0 500 436.437" id="android_logo_stacked" xmlns="http://www.w3.org/2000/svg"><path class="acandroid-logo-text-color" d="M57.935 362.574v9.2s-7.17-10.845-23.064-10.845C17.679 360.927 0 374.7 0 398.818c0 22.045 15.544 37.617 34.871 37.617 15.954 0 23.064-10.709 23.064-10.709v4.668a4.924 4.924 0 004.668 4.668h11.532v-72.488zm-20.148 59.294c-10.644 0-21.306-8.62-21.306-23.211 0-13.172 9.176-22.908 21.276-22.908 14.153 0 21.577 12.447 21.577 23.064 0 11.825-8.815 23.055-21.547 23.055zm58.863 13.194a4.534 4.534 0 01-4.668-4.4V362.57h16.2v8.971c3.671-5.518 10.843-10.64 21.851-10.64 17.992 0 27.573 14.342 27.573 27.754v46.4h-11.258a4.961 4.961 0 01-4.942-4.942v-37.885c0-7.434-4.555-16.462-15.089-16.462-11.366 0-18.135 10.742-18.135 20.855v38.441zM227.9 326.33v45.442s-7.17-10.845-23.064-10.845c-17.193 0-34.871 13.777-34.871 37.891 0 22.045 15.543 37.617 34.871 37.617 15.953 0 23.064-10.709 23.064-10.709v4.668a4.924 4.924 0 004.668 4.668H244.1V326.33zm-20.152 95.538c-10.643 0-21.3-8.62-21.3-23.211 0-13.172 9.17-22.908 21.27-22.908 14.153 0 21.577 12.447 21.577 23.064.005 11.825-8.814 23.055-21.547 23.055zm58.864 13.194a4.534 4.534 0 01-4.668-4.4V362.57h16.2v12.082c2.788-6.768 8.805-12.905 19.5-12.905a33.8 33.8 0 015.766.549v16.749a23.3 23.3 0 00-7.688-1.373c-11.367 0-17.573 10.742-17.573 20.856v36.53zm135.09 0a4.534 4.534 0 01-4.667-4.4V362.569h16.2v72.488zM483.8 326.33v45.442s-7.17-10.845-23.064-10.845c-17.193 0-34.871 13.777-34.871 37.891 0 22.045 15.543 37.617 34.871 37.617 15.954 0 23.064-10.709 23.064-10.709v4.668a4.924 4.924 0 004.668 4.668H500V326.33zm-20.148 95.538c-10.644 0-21.306-8.62-21.306-23.211 0-13.172 9.175-22.908 21.276-22.908 14.153 0 21.577 12.447 21.577 23.064.001 11.825-8.815 23.055-21.547 23.055zm-58.645-96.358a10.715 10.715 0 11-10.715 10.715 10.715 10.715 0 0110.715-10.715zm-58.879 35.39c-18 0-37.787 13.44-37.787 37.786 0 22.187 16.849 37.748 37.748 37.748 25.755 0 38.331-20.7 38.331-37.607 0-20.742-16.194-37.927-38.292-37.927zm.1 60.662c-10.993 0-21.68-8.947-21.68-22.617 0-13.9 10.164-22.921 21.643-22.921 12.451 0 21.738 10.035 21.738 22.7-.004 12.892-9.863 22.838-21.704 22.838z"/><path class="acandroid-logo-mark-color" d="M372.031 84.422l41.448-71.8a8.422 8.422 0 00-3.046-11.478 8.311 8.311 0 00-11.374 2.962l-.049.084-41.992 72.726a256.12 256.12 0 00-106.885-22.792c-38.783 0-74.847 8.159-106.885 22.792L101.256 4.19A8.4 8.4 0 1086.5 12.213q.114.209.238.409l41.448 71.8C56.707 123.151 8.3 195.5.3 280.187h499.666C491.97 195.5 443.559 123.151 372.031 84.422zM156.357 189.081a20.95 20.95 0 01-20.942 20.937 20.942 20.942 0 1120.942-20.942zm229.381 0a20.952 20.952 0 01-20.938 20.937 20.942 20.942 0 1120.942-20.942z"/></symbol><symbol viewBox="-50 -137 604.16 604.16" id="apple_logo" xmlns="http://www.w3.org/2000/svg"><path d="M422.913 181.693c-.273-49.425 22.399-86.727 68.29-114.201-25.677-36.225-64.461-56.157-115.683-60.063-48.485-3.77-101.477 27.877-120.871 27.877-20.483 0-67.473-26.53-104.347-26.53C74.092 9.989-6.899 68.705-6.899 188.157q0 52.925 19.668 109.352c17.482 49.425 80.58 170.628 146.411 168.61 34.418-.807 58.73-24.107 103.527-24.107 43.431 0 65.967 24.107 104.346 24.107 66.377-.945 123.467-111.106 140.13-160.664-89.05-41.343-84.27-121.202-84.27-123.761zM345.61-39.436c37.286-43.632 33.871-83.36 32.779-97.635-32.915 1.885-71.016 22.086-92.736 47-23.902 26.664-37.97 59.658-34.965 96.83 35.647 2.69 68.153-15.355 94.922-46.195z"/></symbol><symbol viewBox="0 0 1050 500" id="apple_tv_logo" xmlns="http://www.w3.org/2000/svg"><path d="M607.569 40.671v81.7h102.16v29.286h-102.16V392.87q0 37 11.914 56.643 11.907 19.656 41.1 19.648a158.21 158.21 0 0023.813-1.539 103.485 103.485 0 0016.9-3.855l3.842 27.746q-18.429 8.472-49.159 8.487-25.355 0-41.862-8.487A66.077 66.077 0 01588 468.01q-9.6-15.037-13.447-36.218a255.693 255.693 0 01-3.843-45.855V151.656h-60.684V122.37h60.685V54.536zm-312.154 79.563c70.053 0 97.6 50.009 97.6 50.009s-53.894 27.641-53.894 94.728c0 75.679 67.134 101.751 67.134 101.751s-46.923 132.531-110.318 132.531c-29.115 0-51.751-19.693-82.428-19.693-31.259 0-62.294 20.425-82.488 20.425C73.135 500 0 374.268 0 273.219c0-99.435 61.907-151.6 119.956-151.6 37.752 0 67.045 21.845 86.658 21.845 16.843.004 48.101-23.23 88.801-23.23zm473.466 2.121l84.5 229.665q10.745 26.985 19.2 50.861t16.119 47.005h1.534q7.662-22.344 16.515-46.632 8.825-24.272 19.584-51.249l85.257-229.665H1050L903.283 492.26h-31.5l-141.312-369.9zM302.43 0s6.775 40.715-25.764 79.922c-34.728 41.881-74.207 35.022-74.207 35.022s-7.417-32.93 21.7-71.435C256.9.209 302.43 0 302.43 0z" fill="#231f20"/></symbol><symbol viewBox="0 0 18 18" id="back_10"><path fill="currentColor" d="M9.806 3.705l.197.208a.889.889 0 11-1.293 1.22L6.965 3.285a.889.889 0 01.017-1.238L8.76.262a.889.889 0 011.26 1.254l-.353.355a8.002 8.002 0 01-1.223 15.907 8 8 0 01-8-8 .889.889 0 111.778 0 6.222 6.222 0 107.584-6.073z"/><path fill="currentColor" stroke="#FFF" stroke-width=".5" d="M6.07 12.178v-4l-.886.295a.089.089 0 01-.117-.084v-.543c0-.036.021-.068.054-.082l1.102-.468a.089.089 0 01.035-.007h.576c.049 0 .089.04.089.089v4.8c0 .049-.04.089-.09.089h-.675a.089.089 0 01-.089-.09zm3.123.089c-.675 0-.995-.32-.995-.996V8.284c0-.675.32-.995.995-.995h1.614c.676 0 .996.32.996.995v2.987c0 .676-.32.996-.996.996H9.193zm.128-.783h1.358c.2 0 .27-.07.27-.263V8.334c0-.192-.07-.263-.27-.263H9.321c-.199 0-.27.071-.27.263v2.887c0 .192.071.263.27.263z"/></symbol><symbol viewBox="0 0 29 15" id="badge_live"><path fill="#E4002B" d="M0 0h29v15H0z"/><path fill="#FFF" d="M5 11V4h1.44v5.68h3.02V11H5zm5.55 0V4h1.44v7h-1.44zm4.58 0l-2.17-7h1.58l1.45 5.41L17.44 4h1.54l-2.17 7h-1.68zm4.82 0V4h4.71v1.32h-3.27v1.45h2.65v1.3h-2.65v1.61h3.27V11h-4.71z"/></symbol><symbol viewBox="0 0 29 15" id="badge_not_live"><path d="M5 11V4h1.44v5.68h3.02V11H5zm5.55 0V4h1.44v7h-1.44zm4.58 0l-2.17-7h1.58l1.45 5.41L17.44 4h1.54l-2.17 7h-1.68zm4.82 0V4h4.71v1.32h-3.27v1.45h2.65v1.3h-2.65v1.61h3.27V11h-4.71z" fill="#272A2B"/></symbol><symbol viewBox="0 0 27 15" id="badge_pro_dark"><path d="M0 0h27v15H0z"/><path d="M4.5 10.942V4h3.868c.922 0 1.368.436 1.368 1.369v1.963c0 .932-.446 1.369-1.368 1.369H6.146v2.241H4.5zm1.646-3.66h1.756c.138 0 .188-.039.188-.188V5.607c0-.15-.05-.189-.188-.189H6.146v1.865zm8.886 1.151l1.2 2.51h-1.715l-1.16-2.39h-.963v2.39h-1.646V4h3.868c.922 0 1.368.436 1.368 1.369v1.735c0 .784-.307 1.21-.952 1.33zm-2.638-1.25h1.756c.138 0 .188-.04.188-.188V5.587c0-.149-.05-.189-.188-.189h-1.756v1.785zm6.07 3.76c-.923 0-1.369-.447-1.369-1.37V5.37c0-.933.446-1.369 1.369-1.369h2.667c.933 0 1.369.436 1.369 1.369v4.205c0 .922-.436 1.368-1.369 1.368h-2.667zm.466-1.429h1.735c.149 0 .189-.05.189-.188v-3.71c0-.148-.04-.188-.189-.188H18.93c-.14 0-.189.04-.189.189v3.709c0 .138.05.188.189.188z" fill="#FFF"/></symbol><symbol viewBox="0 0 27 15" id="badge_pro_light"><path fill="#FFF" d="M0 0h27v15H0z"/><path d="M4.49 11V4h3.9c.93 0 1.38.44 1.38 1.38v1.98c0 .94-.45 1.38-1.38 1.38H6.15V11H4.49zm1.66-3.69h1.77c.14 0 .19-.04.19-.19v-1.5c0-.15-.05-.19-.19-.19H6.15v1.88zm8.96 1.16L16.32 11h-1.73l-1.17-2.41h-.97V11h-1.66V4h3.9c.93 0 1.38.44 1.38 1.38v1.75c0 .79-.31 1.22-.96 1.34zm-2.66-1.26h1.77c.14 0 .19-.04.19-.19V5.6c0-.15-.05-.19-.19-.19h-1.77v1.8zM18.57 11c-.93 0-1.38-.45-1.38-1.38V5.38c0-.94.45-1.38 1.38-1.38h2.69c.94 0 1.38.44 1.38 1.38v4.24c0 .93-.44 1.38-1.38 1.38h-2.69zm.47-1.44h1.75c.15 0 .19-.05.19-.19V5.63c0-.15-.04-.19-.19-.19h-1.75c-.14 0-.19.04-.19.19v3.74c0 .14.05.19.19.19z" fill="#292C2D"/></symbol><symbol viewBox="0 0 45 15" id="badge_replay"><rect width="45" height="15" rx="1" fill="#525758"/><path d="M8.71 8.45L9.9 11H8.35L7.19 8.53H6.03V11H4.59V4h3.69c.95 0 1.4.45 1.4 1.4v1.69c0 .79-.31 1.24-.97 1.36zm-2.68-1.2h2.01c.15 0 .2-.05.2-.2V5.5c0-.15-.05-.2-.2-.2H6.03v1.95zM11.09 11V4h4.71v1.32h-3.27v1.45h2.65v1.3h-2.65v1.61h3.27V11h-4.71zm5.98 0V4h3.7c.95 0 1.4.45 1.4 1.4v1.86c0 .95-.45 1.4-1.4 1.4h-2.26V11h-1.44zm1.44-3.66h2.02c.15 0 .2-.05.2-.2V5.52c0-.15-.05-.2-.2-.2h-2.02v2.02zM23.33 11V4h1.44v5.68h3.02V11h-4.46zm9.7 0l-.43-1.52h-2.4L29.77 11h-1.52l2.13-7h2.1l2.13 7h-1.58zm-2.46-2.84h1.66l-.83-2.94-.83 2.94zM37.11 11V8.61L34.83 4h1.56l1.45 3.12L39.29 4h1.54l-2.28 4.61V11h-1.44z" fill="#FFF"/></symbol><symbol viewBox="0 0 512 585.141" id="bell_regular" xmlns="http://www.w3.org/2000/svg"><path d="M502.159 414.044c-22.08-23.725-63.394-59.417-63.394-176.33 0-88.8-62.263-159.886-146.217-177.326V36.571a36.548 36.548 0 10-73.1 0v23.817C135.5 77.828 73.235 148.914 73.235 237.714c0 116.913-41.314 152.605-63.394 176.33A35.71 35.71 0 000 438.856c.126 18.743 14.834 36.571 36.685 36.571h438.629c21.851 0 36.571-17.828 36.685-36.571a35.691 35.691 0 00-9.84-24.812zM77.178 420.57c24.251-31.966 50.765-84.948 50.891-182.194 0-.228-.069-.434-.069-.662a128 128 0 01256 0c0 .228-.069.434-.069.662.126 97.257 26.64 150.24 50.891 182.194zM256 585.141A73.129 73.129 0 00329.108 512H182.892A73.129 73.129 0 00256 585.141z"/></symbol><symbol viewBox="0 0 512 585.183" id="bell_solid" xmlns="http://www.w3.org/2000/svg"><path d="M256 585.183a73.135 73.135 0 0073.111-73.149H182.889A73.135 73.135 0 00256 585.183zm246.161-171.109c-22.08-23.728-63.393-59.42-63.393-176.344 0-88.8-62.264-159.895-146.222-177.337v-23.82a36.546 36.546 0 10-73.092 0v23.82C135.5 77.835 73.232 148.925 73.232 237.73c0 116.924-41.313 152.616-63.393 176.344A35.711 35.711 0 000 438.888c.125 18.744 14.834 36.573 36.685 36.573h438.629c21.851 0 36.573-17.829 36.685-36.573a35.692 35.692 0 00-9.838-24.814z"/></symbol><symbol viewBox="0 0 512 512" id="calendar_alt" xmlns="http://www.w3.org/2000/svg"><path fill="currentColor" d="M176.252 287.564h-39.505a11.84 12.079 0 01-11.852-11.99v-39.969a11.84 12.079 0 0111.852-11.99h39.505a11.84 12.079 0 0111.851 11.99v39.968a11.84 12.079 0 01-11.85 11.99zm106.663-11.99v-39.969a11.84 12.079 0 00-11.851-11.99h-39.505a11.84 12.079 0 00-11.851 11.99v39.968a11.84 12.079 0 0011.851 11.99h39.505a11.84 12.079 0 0011.851-11.99zm94.813 0v-39.969a11.84 12.079 0 00-11.852-11.99H326.37a11.84 12.079 0 00-11.851 11.99v39.968a11.84 12.079 0 0011.85 11.99h39.506a11.84 12.079 0 0011.852-11.99zm-94.813 95.923v-39.968a11.84 12.079 0 00-11.851-11.99h-39.505a11.84 12.079 0 00-11.851 11.99v39.968a11.84 12.079 0 0011.851 11.99h39.505a11.84 12.079 0 0011.851-11.99zm-94.812 0v-39.968a11.84 12.079 0 00-11.85-11.99h-39.506a11.84 12.079 0 00-11.852 11.99v39.968a11.84 12.079 0 0011.852 11.99h39.505a11.84 12.079 0 0011.851-11.99zm189.625 0v-39.968a11.84 12.079 0 00-11.852-11.99H326.37a11.84 12.079 0 00-11.851 11.99v39.968a11.84 12.079 0 0011.85 11.99h39.506a11.84 12.079 0 0011.852-11.99zm94.811-259.793v351.72c0 26.478-21.233 47.961-47.405 47.961H77.489c-26.172 0-47.405-21.483-47.405-47.961v-351.72c0-26.479 21.233-47.962 47.405-47.962h47.406V11.784a11.84 12.079 0 0111.852-11.99h39.505a11.84 12.079 0 0111.851 11.99v51.958H314.52V11.784a11.84 12.079 0 0111.85-11.99h39.506a11.84 12.079 0 0111.852 11.99v51.958h47.406c26.172 0 47.405 21.483 47.405 47.962zm-47.405 345.724V159.665H77.489v297.763a5.919 6.038 0 005.926 5.996h335.793a5.919 6.038 0 005.926-5.996z"/></symbol><symbol viewBox="0 0 27 20" id="cc_amex" xmlns="http://www.w3.org/2000/svg"><path d="M26.031 9.973c-1.71-.009-1.994-.04-2.459.223v-.223c-2.043 0-2.413-.076-2.928.232v-.232h-3.528v.228c-.514-.29-.965-.228-3.415-.228v.25c-.284-.165-.654-.25-1.096-.25H9.988l-.708.768c-.573-.63-.474-.518-.7-.768H4.832v4.12h3.7c.149-.155.582-.62.726-.776.573.638.465.522.695.777h2.206c0-.656.005-.37.005-1.027.519.009 1.096-.009 1.547-.277 0 .62-.004.764-.004 1.304h1.786c0-.826.005-.33.005-1.13.28 0 .347 0 .424.005.004.058 0 0 0 1.125 6.893 0 6.582.049 7.07-.201v.2c1.57 0 2.472.099 3.045-.272v4.036c0 1.183-.97 2.143-2.166 2.143H2.21a2.155 2.155 0 01-2.165-2.143V8.763h1.2l.289-.683H2.4c.19.447.099.232.288.683h2.387v-.509l.23.51h1.331c.108-.246.117-.26.23-.51v.51h6.113V7.642c.29 0 .361-.005.442.009 0 0-.009.486.005 1.107h3v-.397c.334.263.785.397 1.34.397h1.21c.189-.451.098-.237.288-.683h.857l.298.683H22.8V7.78c.532.88.352.576.595.978h1.877V4.652h-1.8v.821c-.55-.902-.284-.464-.505-.821h-1.954v.92c-.28-.652-.207-.483-.397-.92h-1.461c-.018 0-.104.009-.104-.014h-1.245c-.578 0-1.042.143-1.385.416v-.416h-1.8v.237c-.488-.272-.934-.228-2.906-.237-.004 0-.523-.004-.523 0H6.546c-.113.273-.307.733-.569 1.34-.126-.268-.496-1.063-.627-1.34H3.275v.942l-.406-.942H1.078C.924 4.991.46 6.067.036 7.045V2.143C.036.96 1.006 0 2.2 0h21.656c1.195 0 2.165.96 2.165 2.143v7.83h.01zm-8.418-3.598c-.014.009-.063.098-.063.34 0 .267.04.343.05.352a.362.362 0 00.153.022l.329-.754c-.05 0-.095-.005-.14-.005-.253 0-.316.032-.33.045zm-.898 5.844c.415.147.496.424.496.821l-.004.616h-.75l.005-.513c0-.527-.171-.616-.667-.616H15l-.004 1.13h-.749l.005-3.095h1.777c.587 0 1.223.103 1.223.835-.005.34-.19.683-.537.822zm-.284-.688c0-.285-.253-.33-.483-.33H15v.696h.934c.253 0 .497-.058.497-.366zm8.197-.317h1.358v-.652h-1.484c-.578 0-1.074.295-1.074.925 0 1.473 1.926.571 1.926 1.223 0 .227-.194.286-.378.286h-1.444l-.005.66h1.444c.379 0 .794-.08 1.015-.397v-1.152c-.474-.616-1.773-.058-1.773-.603 0-.258.208-.29.415-.29zm-4.475-.013v-.639h-2.49l-.005 3.094h2.49l.005-.638-1.742-.014v-.616h1.71v-.63h-1.705v-.557h1.737zm1.904 1.79h-1.453l-.005.66h1.453c.668 0 1.182-.25 1.182-.981 0-1.482-1.935-.5-1.935-1.174 0-.25.22-.286.415-.286h1.371v-.652h-1.498c-.577 0-1.06.295-1.06.924 0 1.473 1.927.558 1.927 1.223-.005.241-.212.286-.397.286zm-3.524-7.085c-.785-.013-1.498-.183-1.498.88 0 .527.127.888.727.888h.333l1.06-2.433h1.12l1.258 2.92V5.24h1.142l1.312 2.147V5.241h.763v3.08h-1.065l-1.407-2.317v2.317h-1.52l-.299-.683h-1.547l-.289.683h-.866c-1.029 0-1.489-.526-1.489-1.517 0-1.04.474-1.576 1.534-1.576h.727v.678h.004zM19.178 7h1.029l-.505-1.232L19.178 7zm-3.275-1.768h-.763v3.094h.763V5.232zm-1.72 1.665c.43.148.497.411.497.822v.602h-.749c-.013-.66.163-1.12-.667-1.12h-.813v1.12h-.74V5.228l1.765.013c.6 0 1.236.09 1.236.822.004.357-.194.7-.528.834zm-.301-.683c0-.285-.253-.33-.483-.33h-.948v.683h.934c.258 0 .497-.058.497-.353zm-2.685-.33v-.652H8.693v3.094h2.504v-.639H9.442v-.616h1.706v-.629H9.442v-.558h1.755zM7.38 8.326v-2.42l-1.082 2.42h-.659l-1.083-2.42v2.42H3.031l-.288-.683H1.186l-.289.683H.09l1.34-3.094h1.105l1.268 2.933V5.232h1.222l.98 2.098.888-2.098h1.245v3.094H7.38zM2.476 7l-.518-1.232L1.452 7h1.024zm11.415 4.576c0 1.245-1.372 1.04-2.225 1.04l-.004 1.04h-1.453l-.92-1.027-.961 1.027h-2.95l.004-3.094h3l.925 1.018.947-1.018h2.378c.704 0 1.259.242 1.259 1.014zm-5.085.527L8 11.2H6.117v.558h1.638v.63H6.117v.615H7.95l.857-.901zm2.112-1.21l-1.142 1.223 1.142 1.255v-2.478zm2.179.683c0-.272-.208-.375-.46-.375h-.97v.786h.956c.266 0 .474-.125.474-.411z" fill="#006FCF"/></symbol><symbol viewBox="0 0 26 20" id="cc_discover" xmlns="http://www.w3.org/2000/svg"><path d="M3.747 8.04c0 .353-.145.692-.402.924-.221.197-.524.286-.989.286h-.19V6.83h.19c.465 0 .754.076.989.295.257.223.402.563.402.915zm19.04-1.254h-.222v1.111h.212c.465 0 .713-.196.713-.571 0-.353-.248-.54-.704-.54zM26 2.143v15.714C26 19.04 25.03 20 23.833 20H2.167C.97 20 0 19.04 0 17.857V2.143C0 .96.97 0 2.167 0h21.666C25.03 0 26 .96 26 2.143zm-6.68 7.723h2.044V9.25h-1.322v-.991h1.277v-.616h-1.277V6.83h1.322v-.625H19.32v3.661zm-3.892-3.66l1.58 3.758h.389l1.602-3.759h-.79L17.207 8.67l-.989-2.465h-.79zm-3.746 1.856c0 1.099.898 1.992 2.013 1.992 1.11 0 2.013-.889 2.013-1.992a2.001 2.001 0 00-2.013-1.99 2 2 0 00-2.013 1.99zm-3.07-.022c0 1.451 1.517 2.344 2.858 1.706v-.849c-.871.862-2.113.26-2.113-.857 0-1.058 1.206-1.745 2.113-.848v-.848c-1.363-.67-2.857.303-2.857 1.696zm-1.53 1.264a.856.856 0 01-.79-.483l-.465.442c.804 1.166 2.555.813 2.555-.504 0-.585-.243-.848-1.065-1.143-.433-.152-.555-.263-.555-.46 0-.388.654-.63 1.124-.111l.379-.482c-.862-.764-2.243-.398-2.243.638 0 .504.234.768.911 1.013 1.16.407.664 1.09.15 1.09zM4.492 8.04c0-1.076-.813-1.835-1.991-1.835H1.444v3.661h1.057c1.394 0 1.99-1 1.99-1.826zm1.056-1.835h-.723v3.661h.723v-3.66zm19.008 5.224c-1.504.928-10.22 5.553-18.778 7.142h18.1c.37 0 .678-.303.678-.67V11.43zm0-1.563l-1.17-1.54c.547-.112.845-.473.845-1.036 0-1.272-1.368-1.09-2.388-1.09v3.662h.722V8.397h.1l1.001 1.465h.89v.004z" fill="#FF6602"/></symbol><symbol viewBox="0 0 26 20" id="cc_mastercard" xmlns="http://www.w3.org/2000/svg"><path d="M21.798 16.844c0 .303-.208.522-.506.522-.307 0-.506-.232-.506-.522 0-.29.2-.523.506-.523.298 0 .506.233.506.523zm-14.03-.523c-.32 0-.505.233-.505.523 0 .29.185.522.505.522.294 0 .492-.219.492-.522-.004-.29-.198-.523-.492-.523zm5.304-.013c-.244 0-.392.156-.429.388h.863c-.041-.254-.2-.388-.434-.388zm4.866.013c-.307 0-.492.233-.492.523 0 .29.185.522.492.522s.506-.219.506-.522c0-.29-.199-.523-.506-.523zm4.78 1.166c0 .013.014.022.014.049 0 .013-.014.022-.014.049-.013.013-.013.022-.022.036-.014.013-.023.022-.05.022-.013.013-.022.013-.05.013-.013 0-.022 0-.05-.013-.013 0-.022-.014-.035-.022-.014-.014-.023-.023-.023-.036-.013-.023-.013-.036-.013-.05 0-.022 0-.035.013-.048 0-.023.014-.036.023-.05.013-.013.022-.013.036-.022.022-.013.036-.013.05-.013.022 0 .036 0 .05.013.022.014.035.014.049.023.013.008.009.026.022.049zm-.099.062c.023 0 .023-.013.036-.013.014-.014.014-.023.014-.036 0-.013 0-.022-.014-.036-.013 0-.022-.013-.05-.013h-.072v.156h.036v-.062h.014l.05.062h.036l-.05-.058zM26 2.143v15.714C26 19.04 25.03 20 23.833 20H2.167C.97 20 0 19.04 0 17.857V2.143C0 .96.97 0 2.167 0h21.666C25.03 0 26 .96 26 2.143zM2.889 8.375c0 3.415 2.803 6.183 6.252 6.183a6.344 6.344 0 003.453-1.031c-3.29-2.648-3.268-7.643 0-10.29A6.307 6.307 0 009.14 2.205c-3.449-.004-6.252 2.768-6.252 6.17zM13 13.232c3.182-2.455 3.169-7.24 0-9.71-3.169 2.47-3.182 7.26 0 9.71zm-6.423 3.406c0-.388-.258-.642-.664-.656-.207 0-.429.063-.578.29-.108-.183-.293-.29-.55-.29a.575.575 0 00-.479.241v-.196h-.37v1.638h.37c0-.844-.113-1.348.407-1.348.46 0 .37.455.37 1.348h.356c0-.817-.113-1.348.406-1.348.46 0 .37.446.37 1.348h.37v-1.027h-.008zm2.026-.611h-.356v.196a.653.653 0 00-.528-.24c-.465 0-.822.365-.822.86 0 .5.357.862.822.862a.629.629 0 00.528-.24v.205h.356v-1.643zm1.829 1.143c0-.67-1.034-.366-1.034-.679 0-.254.537-.214.835-.049l.149-.29c-.424-.273-1.363-.268-1.363.366 0 .638 1.033.37 1.033.67 0 .28-.609.258-.934.035l-.158.281c.506.34 1.472.268 1.472-.334zm1.598.415l-.1-.304c-.171.094-.55.197-.55-.183v-.74h.59v-.331h-.59v-.5h-.37v.5h-.344v.326h.343v.745c0 .786.781.643 1.02.487zm.6-.598h1.241c0-.724-.334-1.01-.785-1.01-.479 0-.822.353-.822.862 0 .915 1.02 1.067 1.526.634l-.172-.268c-.352.286-.884.26-.988-.218zm2.668-.96c-.208-.09-.524-.08-.687.196v-.196h-.37v1.638h.37v-.924c0-.518.43-.45.578-.375l.109-.34zm.478.817c0-.51.524-.674.934-.375l.172-.29c-.524-.407-1.476-.183-1.476.67 0 .883 1.011 1.062 1.476.669l-.172-.29c-.415.29-.934.116-.934-.384zm3.01-.817h-.37v.196c-.374-.49-1.349-.214-1.349.62 0 .858 1.011 1.103 1.35.621v.206h.37v-1.643zm1.522 0c-.108-.054-.497-.13-.686.196v-.196h-.357v1.638h.357v-.924c0-.491.406-.46.578-.375l.108-.34zm1.82-.665h-.358v.861c-.37-.486-1.35-.227-1.35.62 0 .867 1.016 1.099 1.35.621v.206h.357v-2.308zm.342-3.353v.205h.036v-.205h.086v-.036h-.208v.036h.086zm.298 5.527c0-.023 0-.05-.013-.072-.014-.013-.023-.035-.037-.049-.013-.013-.036-.022-.05-.036-.022 0-.049-.013-.071-.013-.014 0-.037.013-.064.013a.236.236 0 00-.05.036c-.022.014-.035.036-.035.05-.014.022-.014.048-.014.07 0 .014 0 .036.014.063 0 .014.013.036.036.05a.156.156 0 00.05.035c.022.013.049.013.063.013.022 0 .05 0 .072-.013.013-.013.036-.022.05-.036.013-.013.022-.035.036-.049.013-.027.013-.049.013-.062zm.145-5.567h-.064l-.072.156-.072-.156h-.063v.24h.036v-.182l.072.156h.05l.063-.156v.183h.05v-.241zm.198-3.594c0-3.402-2.803-6.174-6.252-6.174a6.344 6.344 0 00-3.453 1.031c3.255 2.647 3.304 7.656 0 10.29a6.329 6.329 0 003.453 1.032c3.449.004 6.252-2.764 6.252-6.179z"/></symbol><symbol viewBox="0 0 26 20" id="cc_visa" xmlns="http://www.w3.org/2000/svg"><path d="M21.22 8.897s.343 1.661.42 2.01h-1.508c.149-.398.722-1.943.722-1.943-.009.014.15-.406.24-.665l.126.598zM26 2.143v15.714C26 19.04 25.03 20 23.833 20H2.167C.97 20 0 19.04 0 17.857V2.143C0 .96.97 0 2.167 0h21.666C25.03 0 26 .96 26 2.143zM6.884 13.357L9.736 6.43H7.818l-1.774 4.73-.194-.96-.632-3.188c-.104-.442-.424-.567-.821-.584H1.476l-.032.138c.714.179 1.35.437 1.905.763l1.616 6.027h1.919zm4.26.01l1.138-6.938h-1.814l-1.133 6.937h1.81zm6.316-2.269c.009-.79-.479-1.393-1.521-1.888-.637-.317-1.025-.531-1.025-.857.009-.295.33-.599 1.043-.599a3.14 3.14 0 011.35.264l.162.076.248-1.5a4.552 4.552 0 00-1.625-.295c-1.792 0-3.051.947-3.06 2.295-.014.995.902 1.549 1.588 1.884.7.339.94.562.94.861-.01.465-.57.679-1.088.679-.723 0-1.11-.112-1.702-.37l-.24-.112-.252 1.558c.424.192 1.21.361 2.022.37 1.905.005 3.146-.928 3.16-2.366zm6.373 2.268L22.371 6.43h-1.404c-.433 0-.763.125-.948.575l-2.695 6.362h1.905s.312-.857.38-1.04h2.328c.055.245.217 1.04.217 1.04h1.68z" fill="#192061"/></symbol><symbol viewBox="0 0 512 512" id="check" xmlns="http://www.w3.org/2000/svg"><path fill="currentColor" d="M504 256c0 136.967-111.033 248-248 248S8 392.967 8 256 119.033 8 256 8s248 111.033 248 248zM227.314 387.314l184-184c6.248-6.248 6.248-16.379 0-22.627l-22.627-22.627c-6.248-6.249-16.379-6.249-22.628 0L216 308.118l-70.059-70.059c-6.248-6.248-16.379-6.248-22.628 0l-22.627 22.627c-6.248 6.248-6.248 16.379 0 22.627l104 104c6.249 6.249 16.379 6.249 22.628.001z"/></symbol><symbol viewBox="0 0 10 10" id="checklist_no" xmlns="http://www.w3.org/2000/svg"><path d="M9.677 8.122c.43.431.43 1.129 0 1.56a1.11 1.11 0 01-.784.327c-.275 0-.56-.112-.775-.328L5 6.563 1.882 9.681a1.11 1.11 0 01-.784.328c-.275 0-.56-.112-.775-.328a1.102 1.102 0 010-1.559l3.118-3.118L.323 1.886a1.102 1.102 0 010-1.559C.538.112.823 0 1.098 0c.284 0 .569.112.784.327L5 3.445 8.118.327c.215-.215.5-.327.775-.327a1.105 1.105 0 01.784 1.887L6.559 5.003l3.118 3.118z" fill="#E4002B" fill-rule="evenodd"/></symbol><symbol viewBox="0 0 13 10" id="checklist_yes" xmlns="http://www.w3.org/2000/svg"><path d="M1.824 4.388a.949.949 0 00-1.379.01l-.162.172a1.051 1.051 0 00-.006 1.439l3.565 3.708a.948.948 0 001.379-.006l5.551-5.773 1.947-2.025c.383-.399.38-1.05.001-1.447l-.163-.17a.954.954 0 00-1.382-.008L4.529 7.201 1.824 4.388z" fill="#00B74F"/></symbol><symbol viewBox="0 0 10 16" id="chevron"><path d="M8.017 2.387a.773.773 0 000-1.149.92.92 0 00-1.234 0L.673 6.925a.773.773 0 000 1.15l6.11 5.687a.92.92 0 001.234 0 .773.773 0 000-1.149L2.525 7.5l5.492-5.113z" fill="#272A2B" stroke="#272A2B" stroke-width=".5"/></symbol><symbol viewBox="0 0 14 9" id="chevron_down" xmlns="http://www.w3.org/2000/svg"><path fill="#E4002B" d="M1.88.74A.773.773 0 00.73.72a.92.92 0 00-.02 1.234l5.58 6.207a.773.773 0 001.149.02l5.793-6.009a.92.92 0 00.021-1.234.773.773 0 00-1.148-.02L6.896 6.32 1.879.74z" opacity=".9"/></symbol><symbol viewBox="0 0 24 24" id="close"><path d="M19 6.41L17.59 5 12 10.59 6.41 5 5 6.41 10.59 12 5 17.59 6.41 19 12 13.41 17.59 19 19 17.59 13.41 12 19 6.41z"/></symbol><symbol viewBox="0 0 500 500" id="close_circle"><path fill="currentColor" d="M250 0C111.929 0 0 111.929 0 250s111.929 250 250 250 250-111.929 250-250S388.071 0 250 0zm105.342 339.208l-16.134 16.134a7.092 7.092 0 01-10.029 0L250 276.163l-79.179 79.179a7.092 7.092 0 01-10.029 0l-16.134-16.134a7.092 7.092 0 010-10.029L223.837 250l-79.179-79.179a7.092 7.092 0 010-10.029l16.134-16.134a7.092 7.092 0 0110.029 0L250 223.837l79.179-79.179a7.092 7.092 0 0110.029 0l16.134 16.134a7.092 7.092 0 010 10.029L276.163 250l79.179 79.179a7.092 7.092 0 010 10.029z"/></symbol><symbol viewBox="0 0 12 12" id="close_x_mark" xmlns="http://www.w3.org/2000/svg"><defs><path id="aza" d="M0 0h12v12H0z"/></defs><g fill="none" fill-rule="evenodd"><mask id="azb" fill="#fff"><use xlink:href="#aza"/></mask><g mask="url(#azb)" fill="#939495"><path d="M.176 1.263L1.18.258l10.543 10.543-1.005 1.005z"/><path d="M1.292 11.806L.176 10.689 10.719.146l1.116 1.117z"/></g></g></symbol><symbol viewBox="0 0 16 16" id="cog"><path fill="currentColor" d="M12.015 12.88c-.513.39-1.09.708-1.713.937l-.38 1.829a.444.444 0 01-.435.354H6.513a.444.444 0 01-.435-.354l-.38-1.83a6.532 6.532 0 01-1.713-.937l-1.844.608a.444.444 0 01-.524-.2L.13 10.713a.444.444 0 01.089-.553l1.383-1.235a6.037 6.037 0 010-1.848L.219 5.84a.444.444 0 01-.09-.553l1.488-2.576a.444.444 0 01.524-.2l1.844.609a6.532 6.532 0 011.713-.938l.38-1.829A.444.444 0 016.513 0h2.974c.21 0 .392.148.435.354l.38 1.83c.623.228 1.2.545 1.713.937l1.844-.608c.2-.066.42.017.524.2l1.487 2.575a.444.444 0 01-.089.553l-1.383 1.235a6.037 6.037 0 010 1.848l1.383 1.235c.157.14.195.371.09.553l-1.488 2.576a.444.444 0 01-.524.2l-1.844-.609zM8 12.443c2.552 0 4.62-1.99 4.62-4.444 0-2.455-2.068-4.444-4.62-4.444S3.38 5.546 3.38 8c0 2.455 2.068 4.444 4.62 4.444z"/></symbol><symbol viewBox="0 0 22 16" id="cog_hd"><path fill="#FFF" d="M11.334 2.667H9.778c-.66 0-1.237.36-1.543.894A4.883 4.883 0 008 3.556c-2.552 0-4.62 1.99-4.62 4.444 0 2.455 2.068 4.444 4.62 4.444.079 0 .157-.001.235-.005.306.534.882.894 1.543.894h1.556c-.326.19-.671.352-1.032.484l-.38 1.829a.444.444 0 01-.435.354H6.513a.444.444 0 01-.435-.354l-.38-1.83a6.532 6.532 0 01-1.713-.937l-1.844.608a.444.444 0 01-.524-.2L.13 10.713a.444.444 0 01.089-.553l1.383-1.235a6.037 6.037 0 010-1.848L.219 5.84a.444.444 0 01-.09-.553l1.488-2.576a.444.444 0 01.524-.2l1.844.609a6.532 6.532 0 011.713-.938l.38-1.829A.444.444 0 016.513 0h2.974c.21 0 .392.148.435.354l.38 1.83c.36.131.706.294 1.032.483z"/><g transform="translate(8.889 3.556)"><rect fill="#E4002B" width="12.444" height="8.889" rx=".889"/><path d="M1.778 7.111V1.778H2.83V3.88h1.81V1.778h1.053V7.11H4.64V4.886H2.83v2.225H1.778zm5.069 0V1.778h2.797c.694 0 1.023.343 1.023 1.066v3.2c0 .724-.329 1.067-1.023 1.067H6.847zm1.051-1.006h1.57c.11 0 .147-.038.147-.152V2.936c0-.114-.037-.153-.146-.153h-1.57v3.322z" fill="#FFF"/></g></symbol><symbol viewBox="0 0 16 16" id="collapse"><g fill="currentColor"><path d="M4.45 3.22V1.356c0-.246.198-.444.444-.444h.88c.245 0 .444.198.444.444v4.418a.444.444 0 01-.444.444H1.356a.444.444 0 01-.444-.444v-.88c0-.246.198-.445.444-.445H3.22L.13 1.36a.444.444 0 010-.628l.601-.6a.444.444 0 01.629 0L4.45 3.22zM11.547 3.22V1.356a.444.444 0 00-.445-.444h-.88a.444.444 0 00-.444.444v4.418c0 .245.199.444.444.444h4.418a.444.444 0 00.444-.444v-.88a.444.444 0 00-.444-.445h-1.864l3.09-3.09a.444.444 0 000-.628l-.601-.6a.444.444 0 00-.629 0l-3.09 3.089zM11.547 12.776v1.864a.444.444 0 01-.445.444h-.88a.444.444 0 01-.444-.444v-4.418c0-.245.199-.444.444-.444h4.418c.245 0 .444.199.444.444v.88a.444.444 0 01-.444.445h-1.864l3.09 3.09a.444.444 0 010 .628l-.601.6a.444.444 0 01-.629 0l-3.09-3.089zM4.45 12.776v1.864c0 .245.198.444.444.444h.88a.444.444 0 00.444-.444v-4.418a.444.444 0 00-.444-.444H1.356a.444.444 0 00-.444.444v.88c0 .246.198.445.444.445H3.22l-3.09 3.09a.444.444 0 000 .628l.601.6a.444.444 0 00.629 0l3.09-3.089z"/></g></symbol><symbol viewBox="0 0 16 16" id="expand"><g fill="currentColor"><path d="M1.769 2.998v1.864a.444.444 0 01-.445.445h-.88A.444.444 0 010 4.862V.444C0 .2.199 0 .444 0h4.418c.246 0 .445.199.445.444v.88a.444.444 0 01-.445.445H2.998l3.09 3.09a.444.444 0 010 .628l-.601.601a.444.444 0 01-.629 0l-3.09-3.09zM14.227 2.998v1.864c0 .246.2.445.445.445h.88a.444.444 0 00.444-.445V.444A.444.444 0 0015.552 0h-4.418a.444.444 0 00-.445.444v.88c0 .246.2.445.445.445h1.864l-3.09 3.09a.444.444 0 000 .628l.6.601a.444.444 0 00.63 0l3.09-3.09zM14.227 12.998v-1.864c0-.246.2-.445.445-.445h.88c.245 0 .444.2.444.445v4.418a.444.444 0 01-.444.444h-4.418a.444.444 0 01-.445-.444v-.88c0-.246.2-.445.445-.445h1.864l-3.09-3.09a.444.444 0 010-.628l.6-.601a.444.444 0 01.63 0l3.09 3.09zM1.769 12.998v-1.864a.444.444 0 00-.445-.445h-.88a.444.444 0 00-.444.445v4.418c0 .245.199.444.444.444h4.418a.444.444 0 00.445-.444v-.88a.444.444 0 00-.445-.445H2.998l3.09-3.09a.444.444 0 000-.628l-.601-.601a.444.444 0 00-.629 0l-3.09 3.09z"/></g></symbol><symbol viewBox="0 0 500 500" id="filters" xmlns="http://www.w3.org/2000/svg"><path fill="currentColor" d="M131.51 186.493H88.236V462.44H43.275V186.493H0v-44.961h43.275V37.56h44.961v103.972h43.274zm52.735 171.975h43.275V462.44h44.96V358.468h43.275v-44.961H272.48V37.56h-44.96v275.947h-43.275zM500 141.532h-43.275V37.56h-44.961v103.972H368.49v44.961h43.274V462.44h44.961V186.493H500z"/></symbol><symbol viewBox="0 0 932.393 500" id="fire_tv_logo" xmlns="http://www.w3.org/2000/svg"><path d="M416.005 500a11.5 11.5 0 00-1.955-.5 537.6 537.6 0 01-94.016-16.042 528.989 528.989 0 01-93.894-34.435A532.547 532.547 0 0199.3 364.148a10.675 10.675 0 01-3.345-4.675 5.915 5.915 0 016.305-7.92 13.8 13.8 0 015.636 2.058c8.358 4.627 16.666 9.35 25.116 13.805a666.133 666.133 0 0060.652 28.071 727.639 727.639 0 00101.46 32.629c19.773 4.807 39.694 8.938 59.838 11.859 13.213 1.917 26.454 3.717 39.731 5.1 12.43 1.291 24.916 2.069 37.39 2.877 18.934 1.227 37.9 1.27 56.85.65 12.723-.417 25.441-1.269 38.132-2.291 16.334-1.314 32.591-3.4 48.778-5.967a733.326 733.326 0 0090.4-20.213 693.876 693.876 0 0077-27.351 16.671 16.671 0 018.635-1.37c6.032.717 10.146 5.81 9.223 11.522a11.512 11.512 0 01-4.652 7.3c-2.885 2.236-5.857 4.365-8.854 6.45a414.814 414.814 0 01-71.05 39.313 540.71 540.71 0 01-104.591 33.26q-22.457 4.772-45.218 7.716c-7.93 1.017-15.906 1.682-23.859 2.531a13.722 13.722 0 00-1.968.5zM932.393 97.952c-1.186-2.539-3.362-3.2-5.927-3.129h-.234c-7 0-13.991-.021-20.986.017-1.391.008-2.781.229-4.17.366a6.559 6.559 0 00-5.664 3.912c-1.171 2.533-2.355 5.075-3.281 7.7q-19.965 56.668-39.854 113.366l-11.2 31.854c-.259.733-.278 1.663-1.315 2.09-.291-.738-.565-1.371-.793-2.02q-25.242-71.845-50.491-143.69c-.977-2.78-2.1-5.514-3.253-8.225a7.681 7.681 0 00-7.128-5.126c-.929-.04-1.854-.232-2.782-.235q-11.775-.028-23.551 0a11.95 11.95 0 00-2.525.337 3.643 3.643 0 00-3.1 3.594 14.9 14.9 0 00.645 4.551c.582 2.006 1.415 3.942 2.19 5.889q14.166 35.6 28.349 71.2 19.875 49.872 39.771 99.735c.66 1.654 1.479 3.247 2.271 4.845a7.214 7.214 0 005.9 4.025 44.161 44.161 0 005.337.406q8.861.073 17.722 0a47.76 47.76 0 005.107-.379 7.459 7.459 0 006.226-4.3c.747-1.535 1.518-3.065 2.147-4.649q11.553-29.119 23.067-58.256 21.629-54.568 43.265-109.13c1.45-3.66 2.839-7.344 4.257-11.017zm-518.87 102.4h114.5c.7 0 1.4.018 2.1-.006 5.772-.2 7.594-1.783 8.437-7.488a156.913 156.913 0 001.524-35.534 93.51 93.51 0 00-4.8-23.907c-5.622-15.894-15.536-28.176-30.67-35.965-10.343-5.324-21.486-7.593-32.989-8.185a120.5 120.5 0 00-26.023 1.3 86.6 86.6 0 00-26.472 8.59c-17.133 9.039-28.979 22.892-36.555 40.545-6.278 14.632-8.642 30.081-9.249 45.857a180.107 180.107 0 001.2 28.373 119.142 119.142 0 007.061 29.358c5.613 14.376 14.238 26.5 26.922 35.51 11.117 7.9 23.634 12.293 36.985 14.485a148.062 148.062 0 0032.744 1.539 170.934 170.934 0 0036.9-6.2 85.771 85.771 0 0015.67-5.9 9.069 9.069 0 005.426-8.752c-.031-4.2.044-8.393.02-12.588a11.055 11.055 0 00-.377-2.755c-.742-2.8-2.518-4-5.353-3.583a25.645 25.645 0 00-3.852.872c-14.575 4.489-29.251 8.343-44.634 8.891-11.24.4-22.357-.038-33.264-3.025-16.649-4.558-27.988-14.88-33.835-31.171a87.821 87.821 0 01-4.658-23.217c-.168-2.223-.268-4.452-.42-7.051zm-3.511-25.45c.093-1.4.139-2.688.269-3.965.992-9.716 3.031-19.157 7.523-27.928 6.876-13.43 17.823-21.423 32.6-24.162a63.513 63.513 0 0125.457.177c14.644 3.234 23.807 12.348 27.869 26.688a65.242 65.242 0 012.352 17.25c.028 2.95-.011 5.9-.08 8.852-.023.991-.231 1.977-.369 3.088zM36.353 128.1v152.261a24.553 24.553 0 00.109 3.258 5.916 5.916 0 005.41 5.518 24.261 24.261 0 003.477.283q9.91.039 19.822 0a23.544 23.544 0 003.475-.291 5.883 5.883 0 005.364-5.784c.1-1.159.087-2.329.087-3.5q.006-75.78.01-151.561c0-1.137.092-2.274.155-3.726h50.528c.932 0 1.869.007 2.795-.078 3.572-.329 5.879-2.4 5.99-5.956.181-5.823.156-11.659.014-17.484-.081-3.312-1.95-5.276-5.205-5.953a16.055 16.055 0 00-3.238-.257q-24.02-.023-48.039-.016c-.9 0-1.806-.077-2.87-.125-.051-1.056-.126-1.893-.127-2.73-.008-11.036-.072-22.074.038-33.109a54.081 54.081 0 01.937-9.254c1.767-9.533 7.371-15.445 16.928-17.615 7.6-1.726 15.27-1.7 22.949-1.013 4.634.413 9.23 1.237 13.851 1.811 4.431.55 6.786-1.417 7.143-5.869.043-.541.025-1.088.025-1.632 0-3.342.042-6.685-.018-10.026a36.495 36.495 0 00-.406-4.4 6.788 6.788 0 00-4.176-5.5 27.116 27.116 0 00-4.4-1.487A123.169 123.169 0 00106.335.382c-11-.854-21.9-.406-32.565 2.673-14.934 4.312-25.719 13.426-31.761 27.876a75.328 75.328 0 00-5.529 27.716c-.239 11.343-.1 22.693-.127 34.04v2.7a10.191 10.191 0 01-1.173.33c-7.395.937-14.8 1.822-22.184 2.818a75.2 75.2 0 00-8.446 1.575 5.257 5.257 0 00-4.04 4.654 53.267 53.267 0 00.022 14.862 5.118 5.118 0 003.944 4.444 16.194 16.194 0 003.9.474c8.318.041 16.635.016 24.953.027.909 0 1.819.087 3.024.149zm593.059-32.44c-7.628.956-15.26 1.876-22.882 2.874a78.448 78.448 0 00-7.786 1.353 5.949 5.949 0 00-4.856 6.057c-.136 4.114-.175 8.242 0 12.352.163 3.828 2.43 5.928 6.237 6.2.852.062 1.709.058 2.563.058l23.555.012c.895 0 1.79.123 2.914.206v113.305a77.037 77.037 0 002.5 20.52c3.28 11.952 9.9 21.325 21.1 27.118a58.225 58.225 0 0023.529 6.039 125.6 125.6 0 0033.851-2.23 87.925 87.925 0 0010.3-2.895 7.23 7.23 0 005.284-6.742c.231-5.579.184-11.169.243-16.755a3.176 3.176 0 00-.161-.678c-.673-3.029-1.9-4.089-5.047-3.968a39.274 39.274 0 00-5.764.737 104.4 104.4 0 01-22.218 2.193 44.393 44.393 0 01-12.841-1.992 16.947 16.947 0 01-11.593-12.341 40.474 40.474 0 01-1.417-10.826q-.022-54.566 0-109.129c0-.751.084-1.5.148-2.571h4.3c15.159 0 30.318.02 45.477-.014 5.38-.011 7.633-2.3 7.751-7.669v-.233c0-4.586.023-9.172-.016-13.757a15.182 15.182 0 00-.365-3.231 5.419 5.419 0 00-4.3-4.411A18.531 18.531 0 00716 94.84q-23.088-.041-46.176-.024c-.9 0-1.8-.085-2.915-.141v-2.994q0-21.918-.008-43.838c-.007-4.9-2.144-7.353-6.934-7.506a277.224 277.224 0 00-17.253 0c-4.423.131-6.824 2.548-7.368 6.912-.326 2.62-.6 5.246-.873 7.872q-1.724 16.685-3.436 33.37c-.239 2.3-.551 4.6-.829 6.9a6.277 6.277 0 01-.796.271zm-338.985 25.194c-.789-6.24-1.515-12.488-2.368-18.719-.663-4.849-3.107-7.172-7.846-7.271q-9.207-.191-18.423 0c-4.405.084-6.66 2.43-6.958 6.829-.026.387-.012.777-.012 1.166q0 89.195.012 178.388a14.966 14.966 0 00.3 3 5.652 5.652 0 005.2 4.881 25.745 25.745 0 003.709.294q9.561.043 19.124 0a30.437 30.437 0 003.943-.287 5.6 5.6 0 005.287-5.043 28.846 28.846 0 00.316-4.867q.022-65.409-.036-130.818a4.938 4.938 0 012.213-4.454 79.647 79.647 0 0156.17-16.371c2.633.2 5.266.489 7.9.516 4.813.051 7.024-2.143 7.061-6.948.052-6.762.042-13.525 0-20.287C366 96.4 364.1 94.185 359.7 93.79c-3.553-.318-7.135-.438-10.7-.419a64.582 64.582 0 00-31.869 8.366c-8.758 4.935-16.167 11.534-23.166 18.647l-3.092 3.141c-.207-1.212-.353-1.938-.446-2.671zm-85.873-16.831c0-.777.021-1.556-.008-2.332-.146-3.993-2.082-6.184-6-6.771a12.545 12.545 0 00-1.86-.093c-7.385-.006-14.771-.017-22.156.012a14.461 14.461 0 00-2.993.358 5.56 5.56 0 00-4.517 4.753 21 21 0 00-.351 3.935q-.024 88.26 0 176.518a22.094 22.094 0 00.356 3.936 5.656 5.656 0 004.825 4.736 26.98 26.98 0 004.172.344q9.678.053 19.356 0a25.592 25.592 0 003.938-.33 5.484 5.484 0 004.85-4.4 16.662 16.662 0 00.372-3.684q.03-44.538.015-89.075zM772.8 366.506a43.1 43.1 0 0111.2 3.036c4.285 1.928 6.519 5.238 7.211 9.839.8 5.321.106 10.546-.772 15.752a188.987 188.987 0 01-8.715 32.1c-4.336 12.133-9.028 24.139-13.55 36.2a18.391 18.391 0 00-.94 3.107c-.669 3.665 1.659 5.812 5.341 5.029a12.812 12.812 0 005.637-3.133c12.912-11.054 22.377-24.712 29.854-39.821a175.99 175.99 0 0014.368-41.488c2.113-9.9 3.548-19.885 2.964-30.046a43.708 43.708 0 00-1.134-6.874 7.048 7.048 0 00-3.864-5.007 58.447 58.447 0 00-7.47-3.2c-9.237-2.957-18.809-4.091-28.437-4.586a182.2 182.2 0 00-33.259 1.216 153.278 153.278 0 00-33.219 7.959 108.572 108.572 0 00-24 12.266 12.211 12.211 0 00-4.568 4.864c-1.428 3.148-.123 5.615 3.262 6.138a9.034 9.034 0 002.3.052c8.108-.846 16.212-1.746 24.322-2.58a304.548 304.548 0 0134.035-1.871 116.342 116.342 0 0119.434 1.048zM162.343 40.642a20.65 20.65 0 0015.162 18.392 30.6 30.6 0 0015.223.352c8.786-2.034 14.243-7.514 16.245-16.341a26.321 26.321 0 00.2-10.873c-1.7-8.817-6.781-14.659-15.531-17.039A30.98 30.98 0 00180 14.691a20.593 20.593 0 00-13.9 8.572 21.749 21.749 0 00-3.77 13.887c0 1.164-.083 2.336.013 3.492z" fill="#fc4c02"/></symbol><symbol viewBox="0 0 518.512 500" id="flo_tomahawk" xmlns="http://www.w3.org/2000/svg"><path fill="currentColor" d="M479.9 219.066l-25.66 145.47c-86.551.3-159.74 57.126-184.695 135.464H119.084c27.973-160.125 167.68-281.864 335.837-281.864q12.591 0 24.979.93zM0 0l184.809 145.129h308.113L518.512 0z"/></symbol><symbol viewBox="0 0 18 18" id="forward_10"><path fill="currentColor" d="M7.234 1.869l-.349-.37A.889.889 0 018.178.279l1.745 1.849c.33.349.322.897-.017 1.237L8.128 5.15a.889.889 0 01-1.26-1.255l.184-.184a6.222 6.222 0 107.615 6.066.889.889 0 111.777 0 8 8 0 11-9.21-7.91z"/><path fill="currentColor" stroke="currentColor" stroke-width=".5" d="M6.07 12.178v-4l-.886.295a.089.089 0 01-.117-.084v-.543c0-.036.021-.068.054-.082l1.102-.468a.089.089 0 01.035-.007h.576c.049 0 .089.04.089.089v4.8c0 .049-.04.089-.09.089h-.675a.089.089 0 01-.089-.09zm3.123.089c-.675 0-.995-.32-.995-.996V8.284c0-.675.32-.995.995-.995h1.614c.676 0 .996.32.996.995v2.987c0 .676-.32.996-.996.996H9.193zm.128-.783h1.358c.2 0 .27-.07.27-.263V8.334c0-.192-.07-.263-.27-.263H9.321c-.199 0-.27.071-.27.263v2.887c0 .192.071.263.27.263z"/></symbol><symbol viewBox="0 0 512 512" id="google_logo" xmlns="http://www.w3.org/2000/svg"><defs><style>.bia{fill:#4285f4}.bibia,.bib,.bic,.bid{fill-rule:evenodd}.bib{fill:#34a853}.bic{fill:#fbbc04}.bid{fill:#ea4335}</style></defs><path class="bia" d="M488.629 261.993a305.883 305.883 0 00-4.011-49.5H257.652v93.923h130.029a113.164 113.164 0 01-48.134 74.256V441.7H417.1c45.457-42.384 71.529-105.112 71.529-179.707z"/><path class="bib" d="M257.652 500.7c64.847 0 119.667-21.7 159.444-59l-77.549-61.033c-21.727 14.919-49.471 23.4-81.9 23.4-62.842 0-115.99-43.062-135.043-100.7H42.719v63.067C83.5 448.82 166.732 500.7 257.652 500.7z"/><path class="bic" d="M122.609 303.359a149.315 149.315 0 010-93.583v-62.728h-79.89a245.167 245.167 0 000 219.039z"/><path class="bid" d="M257.652 109.072a128.531 128.531 0 0192.257 36.62l68.859-69.849a230.5 230.5 0 00-161.116-63.406c-90.92 0-174.152 52.217-214.933 134.611l79.89 63.067c19.053-57.981 72.201-101.043 135.043-101.043z"/></symbol><symbol viewBox="0 0 4422.562 500" id="hawk_flosports_logo" xmlns="http://www.w3.org/2000/svg"><path fill="currentColor" class="bjflo-svg-logo-graphic" d="M466.775 219.891l-24.957 141.491c-84.184.287-155.371 55.564-179.645 131.76H115.827C143.036 337.4 278.922 218.987 442.48 218.987q12.247 0 24.295.904zM0 6.816l179.755 141.16h299.687l24.891-141.16z"/><path fill="currentColor" class="bjflo-svg-logo-title" d="M702.847 210.863h183.7l-19.412 114.7H683.451l-28.61 167.586H533.06L616.295 6.881h331.724l-20.152 116.756H717.941zm645.694-43.963C1368.529 54.953 1475.364 0 1574.283 0c98.9 0 188.51 55.643 169.229 166.9l-29.234 166.2C1695 444.373 1591.479 500 1487.862 500c-98.9 0-187.836-55.627-168.555-166.9zm91.217 166.2c-5.913 35.032 29.135 52.884 65.464 52.884 39.039 0 82.036-17.852 88.72-56.316l29.119-162.768c6.636-36.412-26.359-54.937-65.4-54.937-39.023 0-82.053 18.525-88.688 54.937zM2020.3 204c80.2 15.783 167.964 46.692 141.851 160.7-19.989 92.73-114.31 135.3-201.108 135.3-72.658 0-137.926-39.137-158.16-116.755l77.158-32.963c12.548 46.709 51.472 69.374 95.881 69.374 48.434 0 98.181-18.542 108.4-61.129 13.3-54.953-37.314-69.373-94.222-78.308-77.618-12.35-152.362-50.124-136.267-146.974C1874.359 44.639 1964.705 0 2048.137 0c71.328 0 133.655 26.787 153.232 103.715l-75.778 31.585c-12.564-45.313-46.315-62.492-90.035-62.492-46.429 0-94.271 21.991-103.764 63.181C1920.92 178.59 1971.5 194.373 2020.3 204zM2323.249 6.881h184.371c109.66 0 150.621 81.035 137.153 160.016-13.549 81.05-82.1 157.978-191.1 157.978h-108.33l-28.626 168.276H2240zm142.327 245.188c58.533 0 95.01-43.259 101.777-83.793 6.766-40.517-15.324-83.1-73.233-81.74h-107.657l-28.544 165.533zm263.779-94.8C2747.749 52.194 2851.809 0 2948.709 0c96.209 0 184.584 52.194 166.19 157.272l-32.568 184.766C3063.936 447.116 2957.84 500 2861.614 500c-96.883 0-183.221-52.884-164.827-157.962zm45.51 184.092c-9.181 52.2 43.046 78.982 100.906 78.982 58.55 0 120.7-26.787 129.895-78.982l31.779-182.022c9.986-55.627-44.376-78.981-102.253-78.981-57.893.689-119.268 24.717-128.531 78.981zm546.446-36.411h-57.2l-31.993 188.2h-78.061L3237.3 6.881h184.371c93.516 0 156.632 43.26 140.849 150.391-15.241 91.365-75.926 134.641-150.292 144.922l114.587 190.957h-94.875zm61.572-69.356c53.836 0 92.317-23.355 101.563-77.635 9.263-54.247-23.732-72.789-75.6-71.426h-106.981L3275.9 235.6zm487.042-149.058l-69.078 406.615h-78.061l69.094-406.615H3647.2l14.19-80.344h367.38l-14.19 80.344zM4241.492 204c80.2 15.783 167.964 46.692 141.851 160.7-19.988 92.73-114.309 135.3-201.107 135.3-72.658 0-137.926-39.137-158.16-116.755l77.158-32.963c12.548 46.709 51.472 69.374 95.881 69.374 48.434 0 98.181-18.542 108.4-61.129 13.3-54.953-37.314-69.373-94.222-78.308-77.618-12.35-152.362-50.124-136.267-146.974C4095.552 44.639 4185.9 0 4269.33 0c71.328 0 133.655 26.787 153.232 103.715l-75.778 31.585c-12.564-45.313-46.315-62.492-90.034-62.492-46.43 0-94.272 21.991-103.765 63.181-10.872 42.601 39.715 58.384 88.507 68.011zm-3077.8 170.693c-29.787-.038-55.433-17.613-50.619-45.992l56.306-323.289h-118.011L995.748 328.7c-17.672 104.167 52.924 163.013 147.707 163.013h75l20.109-117.022z"/></symbol><symbol viewBox="0 0 500 500" id="ios_logo" xmlns="http://www.w3.org/2000/svg"><path d="M140.413 496.581h219.18a136.986 136.986 0 00136.988-136.988v-219.18A136.986 136.986 0 00359.593 3.425h-219.18A136.986 136.986 0 003.425 140.413v219.18a136.986 136.986 0 00136.988 136.988z" fill="#fff"/><path d="M359.59 500H140.416C62.993 500 0 437.019 0 359.59V140.416C0 62.993 62.993 0 140.416 0H359.59C437.019 0 500 62.993 500 140.416V359.59C500 437.019 437.019 500 359.59 500zM140.416 6.851C66.767 6.851 6.851 66.767 6.851 140.416V359.59c0 73.649 59.916 133.571 133.565 133.571H359.59c73.649 0 133.571-59.922 133.571-133.571V140.416c0-73.649-59.922-133.565-133.571-133.565z" fill="#eeeef0"/><path d="M96.344 167.454a10.439 10.439 0 1010.438 10.439 10.439 10.439 0 00-10.438-10.439z" fill="#ffc107"/><path d="M140.166 220l19.781-8.357c9.316-16.712 25.138-26.4 45.645-26.4a58.181 58.181 0 0113.178 1.557l18.795-7.932a71.426 71.426 0 00-31.973-7.205c-32.74-.003-56.092 17.983-65.426 48.337zm-36.781 15.534v-21.49H89.358v27.425z" fill="#ff5722"/><path d="M103.385 273.743v-38.206l-14.027 5.932v38.192zm47.192-21.713c0-16.013 3.37-29.63 9.37-40.384L140.166 220a108.668 108.668 0 00-4.566 32.03c0 2.754.383 5.233.548 7.864l14.548-6.151c-.009-.589-.119-1.11-.119-1.713zm187.386-77.37a55.026 55.026 0 00-10.6 4.479zm-100.4 4.205L218.77 186.8c14.068 3.247 25.041 11.822 32.192 24.6l14-5.918a61.647 61.647 0 00-27.397-26.617z" fill="#f44336"/><path d="M103.385 311.935v-38.192l-14.027 5.918v38.192zM337.963 174.66l-10.6 4.479c-13.466 7.494-21.6 20.055-21.6 35.343a41.3 41.3 0 001.6 11.3l14.137-5.973a22.792 22.792 0 01-.767-5.754c0-16.808 15.3-29 37.452-29 10.9 0 20.1 2.918 26.822 7.932l14.357-6.069c-9.507-9.37-23.768-15.247-40.741-15.247a69.676 69.676 0 00-20.66 2.989zm-187.276 79.1l-14.548 6.151c.808 13.137 3.562 24.809 8.178 34.74l13.754-5.808c-4.589-9.785-7.165-21.58-7.384-35.087zm114.275-48.26l-14 5.918c5.219 9.342 8.26 20.986 9.014 34.384l14.534-6.138c-1.288-12.99-4.41-24.564-9.548-34.164z" fill="#e91e63"/><path d="M272.044 278.88a112.631 112.631 0 003.315-26.85 119.508 119.508 0 00-.863-12.383l-14.534 6.137c.123 2.1.411 4.055.411 6.246a87.639 87.639 0 01-6.589 34.562zm-113.96 9.945l-13.753 5.809c5.589 12.041 13.808 21.479 24.342 27.918l17.234-7.274c-12.343-4.631-21.836-13.713-27.823-26.453zm-54.7 23.11l-14.027 5.918v11.452h14.027zM321.511 219.8l-14.138 5.973c3.357 11.863 12.535 20.151 29.165 25.877l21.918-9.26-4.63-1.165c-19.959-4.989-29.768-11.4-32.315-21.425zm75.329-7.151h14.767a39.65 39.65 0 00-12.233-25.739l-14.356 6.068a29.359 29.359 0 0111.822 19.668z" fill="#9c27b0"/><path d="M272.044 278.88l-18.26 7.712c-8.617 20.22-25.343 32.329-48.206 32.329a55.2 55.2 0 01-19.685-3.657l-17.233 7.274c10.3 6.288 22.575 9.973 36.918 9.973 34.836 0 58.384-20.302 66.466-53.631zm44.1 10.288h-14.771a42.462 42.462 0 003.617 13.986l13.548-5.726a28.3 28.3 0 01-2.397-8.26zm52.973-44.083l-10.675-2.685-21.918 9.261a119.884 119.884 0 0010.439 3.068l17.658 4.493c9.78 2.411 17.219 5.466 22.726 9.165l16.507-6.973c-7.233-7.055-18.535-12.314-34.74-16.329z" fill="#3f51b5"/><path d="M318.538 297.442l-13.548 5.726c5.164 11.918 15.6 20.973 29.671 25.658l23.179-9.781c-18.891-.452-33.658-8.822-39.302-21.603zm94.672-1.781a45.516 45.516 0 00.863-8.192c0-10.74-3.2-19.233-10.206-26.055l-16.507 6.973c7.932 5.342 11.727 12.1 11.727 20.685a25.311 25.311 0 01-4.768 14.562z" fill="#03a9f4"/><path d="M413.21 295.661l-18.891 7.986c-6.465 9.343-19.1 15.507-34.931 15.507-.535 0-1.014-.082-1.535-.1l-23.178 9.781a73.927 73.927 0 0023.425 3.685c30.233-.009 51.014-14.52 55.11-36.859z" fill="#009688"/></symbol><symbol viewBox="0 0 29 15" id="live_inactive"><rect fill="#FFF" width="29" height="15" rx="1"/><path d="M4.735 11V4h1.66v5.54h2.91V11h-4.57zm5.52 0V4h1.66v7h-1.66zm4.61 0l-2.14-7h1.8l1.32 5.23L17.165 4h1.75l-2.14 7h-1.91zm4.85 0V4h4.82v1.44h-3.16v1.27h2.53v1.42h-2.53v1.43h3.16V11h-4.82z"/></symbol><symbol viewBox="0 0 24 24" id="location_blocked"><path fill="currentColor" d="M7.48 18.584l-4.614 5.192a.667.667 0 01-.499.224H.371a.167.167 0 01-.124-.277L21.134.223A.667.667 0 0121.633 0h1.996a.167.167 0 01.124.277l-3.956 4.451c.557 1.11.87 2.355.87 3.672 0 6.3-8.132 15.6-8.667 15.6-.267 0-2.424-2.314-4.52-5.416zm2.08-8.338L5.333 15c-1.159-2.237-2-4.574-2-6.6C3.333 3.76 7.213 0 12 0a8.81 8.81 0 015.184 1.668l-3.662 4.12A3.157 3.157 0 0012 5.4c-.82 0-1.608.316-2.189.879a2.93 2.93 0 00-.252 3.967z"/></symbol><symbol viewBox="0 0 10 12" id="lock" xmlns="http://www.w3.org/2000/svg"><path d="M8.75 5.25c.417 0 .75.333.75.75v5.25c0 .417-.333.75-.75.75h-7.5a.747.747 0 01-.75-.75V6c0-.417.333-.75.75-.75H2V3c0-1.653 1.347-3 3-3s3 1.347 3 3v2.25h.75zM3.5 3v2.25h3V3c0-.833-.667-1.5-1.5-1.5S3.5 2.167 3.5 3z" fill="#00B74F" fill-rule="evenodd"/></symbol><symbol viewBox="0 0 28 28" id="minus"><rect fill="#272A2B" width="14" height="2" x="7" y="13" rx=".5"/></symbol><symbol viewBox="0 0 36 36" id="minus_outline"><circle opacity=".8" cx="18" cy="18" r="16"/><path fill="#FFF" d="M11.633 17.143h12.734c.27 0 .49.22.49.49v.734c0 .27-.22.49-.49.49H11.633a.49.49 0 01-.49-.49v-.734c0-.27.22-.49.49-.49zM18 1.714C9.006 1.714 1.714 9.006 1.714 18c0 8.994 7.292 16.286 16.286 16.286 8.994 0 16.286-7.292 16.286-16.286 0-8.994-7.292-16.286-16.286-16.286zM18 0c9.941 0 18 8.059 18 18s-8.059 18-18 18S0 27.941 0 18 8.059 0 18 0z"/></symbol><symbol viewBox="0 0 512 517.658" id="outlook_logo" xmlns="http://www.w3.org/2000/svg"><defs><style>.bqa{fill:#0072c6}</style></defs><path class="bqa" d="M320.413 109.753V211.01l35.387 22.281a9.04 9.04 0 003.888 0l152.293-102.676c0-12.152-11.335-20.862-17.732-20.862z"/><path class="bqa" d="M320.413 248.787l32.294 22.184c4.55 3.344 10.033 0 10.033 0-5.464 3.344 149.26-99.429 149.26-99.429v186.1c0 20.259-12.968 28.755-27.55 28.755H320.394v-137.61zM153.207 202.105q-16.506 0-26.247 15.5-9.712 15.486-9.721 41 0 25.9 9.721 40.946 9.711 15.078 25.47 15.049 16.243 0 25.761-14.64t9.527-40.635q0-27.093-9.235-42.171-9.246-15.054-25.276-15.049z"/><path class="bqa" d="M0 58.328V454.47l301.359 63.188V0zm201.658 265.04q-19.1 25.14-49.831 25.159-29.952 0-48.8-24.361-18.84-24.381-18.859-63.5 0-41.325 19.151-66.843t50.744-25.523q29.834 0 48.256 24.42 18.432 24.438 18.432 64.413.029 41.086-19.093 66.235z"/></symbol><symbol viewBox="0 0 28 28" id="plus"><rect fill="#272A2B" width="14" height="2" x="7" y="13" rx=".5"/><rect fill="#272A2B" width="2" height="14" x="13" y="7" rx=".5"/></symbol><symbol viewBox="0 0 36 36" id="plus_outline"><circle opacity=".8" cx="18" cy="18" r="16"/><path fill="#FFF" d="M17.143 17.143v-5.51c0-.27.22-.49.49-.49h.734c.27 0 .49.22.49.49v5.51h5.51c.27 0 .49.22.49.49v.734c0 .27-.22.49-.49.49h-5.51v5.51c0 .27-.22.49-.49.49h-.734a.49.49 0 01-.49-.49v-5.51h-5.51a.49.49 0 01-.49-.49v-.734c0-.27.22-.49.49-.49h5.51zM18 1.714C9.006 1.714 1.714 9.006 1.714 18c0 8.994 7.292 16.286 16.286 16.286 8.994 0 16.286-7.292 16.286-16.286 0-8.994-7.292-16.286-16.286-16.286zM18 0c9.941 0 18 8.059 18 18s-8.059 18-18 18S0 27.941 0 18 8.059 0 18 0z"/></symbol><symbol viewBox="0 0 13 9" id="right_arrow"><path d="M10.078 3.548L7.726 1.196a.316.316 0 010-.447l.476-.476a.316.316 0 01.447 0l3.23 3.23.477.477a.316.316 0 010 .447L8.65 8.134a.316.316 0 01-.447 0l-.476-.476a.316.316 0 010-.447l2.357-2.357H.316A.316.316 0 010 4.538v-.674c0-.174.141-.316.316-.316h9.762z" fill="#272A2B"/></symbol><symbol viewBox="0 0 13 9" id="right_arrow_with_style"><path d="M10.078 3.548L7.726 1.196a.316.316 0 010-.447l.476-.476a.316.316 0 01.447 0l3.23 3.23.477.477a.316.316 0 010 .447L8.65 8.134a.316.316 0 01-.447 0l-.476-.476a.316.316 0 010-.447l2.357-2.357H.316A.316.316 0 010 4.538v-.674c0-.174.141-.316.316-.316h9.762z" fill="currentColor"/></symbol><symbol viewBox="0 0 1625 500" id="roku_logo" xmlns="http://www.w3.org/2000/svg"><path d="M189.094 0c109.011 0 197.99 74.872 197.99 166.993 0 56.183-34.112 106.365-86.025 137.069L440.678 500H290.9L171.991 333.33H132v166.31H0V0zM591.8 111.111c114.123 0 206.93 86.521 206.93 194.427C798.729 413.526 705.922 500 591.8 500c-114.084 0-206.206-86.474-206.206-194.462-.001-107.906 92.121-194.427 206.206-194.427zm366.052 0v149.867l151.6-149.373h269.365v208.384c0 60.494 14.855 79.408 47.229 79.408 31.908 0 52.554-16.024 67.371-41.51V111.605H1625v380.389h-28.086l-59.163-50.284c-24.42 27.69-74.665 58.29-129.417 58.29C1293 500 1247.2 430.742 1247.2 355.7V129.663l-166.589 164.106L1281.739 492h-165.615L957.851 337.5V492h-131.58V111.111zm-366.094 83.333c-36.989 0-68.453 43.432-68.453 97.2s31.464 97.25 68.453 97.25c37.847 0 69.259-43.489 69.259-97.25s-31.412-97.2-69.259-97.2zM174.234 83.333h-36.522V250h36.522c40.515 0 73.647-37.365 73.647-82.963 0-46.365-33.132-83.704-73.647-83.704z" fill="#662d91"/></symbol><symbol viewBox="0 0 12 12" id="search"><path fill="currentColor" d="M8.308 5.077c0-.89-.316-1.65-.949-2.283a3.111 3.111 0 00-2.282-.948c-.89 0-1.65.316-2.283.948a3.111 3.111 0 00-.948 2.283c0 .89.316 1.65.948 2.282a3.111 3.111 0 002.283.949c.89 0 1.65-.316 2.282-.949a3.111 3.111 0 00.949-2.282zm3.692 6c0 .25-.091.466-.274.649a.887.887 0 01-.65.274.857.857 0 01-.648-.274L7.954 9.26c-.86.596-1.82.894-2.877.894a4.989 4.989 0 01-1.972-.4 5.076 5.076 0 01-1.623-1.082A5.076 5.076 0 01.4 7.049 4.989 4.989 0 010 5.077c0-.688.133-1.345.4-1.972a5.076 5.076 0 011.082-1.623A5.076 5.076 0 013.105.4 4.989 4.989 0 015.077 0c.687 0 1.345.133 1.972.4a5.076 5.076 0 011.623 1.082c.454.454.815.995 1.082 1.623.266.627.4 1.284.4 1.972a4.938 4.938 0 01-.894 2.877l2.473 2.474a.883.883 0 01.267.649z"/></symbol><symbol viewBox="-2 -2 20 20" id="share"><path d="M2.667 8.044L13.32 2.667M2.667 8l10.678 5.302" stroke="#FFF" stroke-width="1.8"/><circle fill="currentColor" cx="13.3" cy="2.667" r="2.7"/><circle fill="currentColor" cx="13.3" cy="13.3" r="2.7"/><circle fill="currentColor" cx="2.7" cy="8" r="2.7"/></symbol><symbol viewBox="0 0 10 10" id="streaming"><path fill="#272A2B" d="M.5 4h1a.5.5 0 01.5.5v5a.5.5 0 01-.5.5h-1a.5.5 0 01-.5-.5v-5A.5.5 0 01.5 4zm4-4h1a.5.5 0 01.5.5v9a.5.5 0 01-.5.5h-1a.5.5 0 01-.5-.5v-9a.5.5 0 01.5-.5zm4 2h1a.5.5 0 01.5.5v7a.5.5 0 01-.5.5h-1a.5.5 0 01-.5-.5v-7a.5.5 0 01.5-.5z"/></symbol><symbol viewBox="0 0 123 28" id="varsity_white_logo"><g fill="currentColor" fill-rule="nonzero"><path d="M76.623 12.218l-.902-.135a.85.85 0 01-.54-.237.537.537 0 01-.146-.377.79.79 0 01.902-.743 1.754 1.754 0 011.421.48l.865-1.524a3.304 3.304 0 00-2.232-.69c-1.707 0-2.74 1.077-2.74 2.547a2.359 2.359 0 00.54 1.616c.404.403.935.655 1.503.71l.892.135a.796.796 0 01.497.215.71.71 0 01.146.474c0 .463-.346.727-1.081.727a2.334 2.334 0 01-1.675-.565l-.886 1.556c.721.57 1.632.849 2.55.78 1.578 0 2.89-.893 2.89-2.54a2.493 2.493 0 00-.54-1.767 2.451 2.451 0 00-1.464-.662zM82.232 9.057h1.842v8.06h-1.842zM87.284 10.818h1.837v6.305h1.842v-6.305h1.838V9.057h-5.517zM53.39 17.123h2.107l2.399-4.738v4.738h1.842V9.046h-1.864zM48.489 13.79V9.046H46.64v8.077h1.87l4.484-8.077h-2.118zM69.577 11.652a2.472 2.472 0 00-.715-1.862A2.49 2.49 0 0067 9.057h-2.96v8.077h1.88v-6.316h1.037a.79.79 0 01.8.818.817.817 0 01-.8.856h-1.038l2.302 4.631h2.113l-1.934-3.37a2.34 2.34 0 001.177-2.1zM98.171 11.954l-1.426-2.908h-2.107l2.615 4.792v3.285H99.1v-3.285l2.61-4.792h-2.108zM108.292 10.818h1.837v6.305h1.842v-6.305h1.843V9.057h-5.522zM120.81 9.046l-2.398 4.744V9.046h-1.843v8.077h1.87l4.485-8.077zM16.29 28c-2.944-.215-2.7-3.532-2.7-3.532V10.93a4.299 4.299 0 00-.984-2.66 15.783 15.783 0 00-3 3.904V24.44c0 1.502.628 3.559 3.027 3.543h3.669L16.29 28zm1.206-3.57c.003.951.31 1.877.875 2.644 1.027-1.034 1.805-2.692 2.323-3.694C28.832 8.125 33.17 0 33.17 0h-3.993s-3.95 7.603-11.687 21.996v2.418l.006.016zM9.806 7.36c-.35 0-2.728.61-5.824 7.14H0s1.54-3.65 3.626-5.67c.713-.683 1.696-1.475 2.42-1.475h3.782l-.021.006z"/><path d="M20.846 24.414a3.82 3.82 0 00.913 2.654c1.016-1.044 1.788-2.692 2.312-3.656C32.306 8.077 36.526 0 36.526 0h3.998s-4.322 8.125-12.427 23.38c-.794 1.492-2.2 4.582-4.166 4.604H19.9c-2.395 0-3.027-2.246-3.027-3.543V11.055a4.153 4.153 0 00-.978-2.784c-2.269 1.922-4.37 6.224-4.37 6.224H7.564s1.68-3.623 3.782-5.664c.745-.733 1.707-1.476 2.496-1.476h4.042c2.89 0 2.96 3.667 2.96 3.667v13.392z"/></g></symbol><symbol viewBox="0 0 24 16" id="vid_2up_active"><g fill="currentColor"><path d="M20.86 14.4h1.54v1.2a.4.4 0 01-.4.4H2a.4.4 0 01-.4-.4v-1.2H20.86zM20.8 1.6h1.6V.4A.4.4 0 0022 0H2a.4.4 0 00-.4.4v1.2H20.8zM13.2 4h10.4c.22 0 .4.18.4.4v7.2a.4.4 0 01-.4.4H13.2a.4.4 0 01-.4-.4V4.4c0-.22.18-.4.4-.4zm1.2 1.6v4.8h8V5.6h-8zM.4 4h10.4c.22 0 .4.18.4.4v7.2a.4.4 0 01-.4.4H.4a.4.4 0 01-.4-.4V4.4c0-.22.18-.4.4-.4zm1.2 1.6v4.8h8V5.6h-8z"/><path d="M.8 4.8h9.6v6.4H.8zM13.6 4.8h9.6v6.4h-9.6z"/><path d="M20.8 1.6V.8h1.6v1.6c-.583 0-1.13-.156-1.6-.428v-.177l.758-.195H20.8zM20.8 14.4h.758l-.758-.195v-.177a3.185 3.185 0 011.6-.428v1.6h-1.6v-.8zM3.2 1.6h-.8l.8.205v.167a3.185 3.185 0 01-1.6.428V.8h1.6v.8zM3.2 14.4v.8H1.6v-1.6c.583 0 1.13.156 1.6.428v.167l-.8.205h.8z" fill-rule="evenodd"/></g></symbol><symbol viewBox="0 0 24 16" id="vid_2up_inactive"><g fill="currentColor"><path d="M20.86 14.4h1.54v1.2a.4.4 0 01-.4.4H2a.4.4 0 01-.4-.4v-1.2H20.86zM20.8 1.6h1.6V.4A.4.4 0 0022 0H2a.4.4 0 00-.4.4v1.2H20.8zM13.2 4h10.4c.22 0 .4.18.4.4v7.2a.4.4 0 01-.4.4H13.2a.4.4 0 01-.4-.4V4.4c0-.22.18-.4.4-.4zm1.2 1.6v4.8h8V5.6h-8zM.4 4h10.4c.22 0 .4.18.4.4v7.2a.4.4 0 01-.4.4H.4a.4.4 0 01-.4-.4V4.4c0-.22.18-.4.4-.4zm1.2 1.6v4.8h8V5.6h-8z"/><path d="M20.8 1.6V.8h1.6v1.6c-.583 0-1.13-.156-1.6-.428v-.177l.758-.195H20.8zM20.8 14.4h.758l-.758-.195v-.177a3.185 3.185 0 011.6-.428v1.6h-1.6v-.8zM3.2 1.6h-.8l.8.205v.167a3.185 3.185 0 01-1.6.428V.8h1.6v.8zM3.2 14.4v.8H1.6v-1.6c.583 0 1.13.156 1.6.428v.167l-.8.205h.8z"/></g></symbol><symbol viewBox="0 0 24 16" id="vid_4up_active"><g fill="currentColor"><path d="M.4 0h10.4c.22 0 .4.18.4.4v6.4a.4.4 0 01-.4.4H.4a.4.4 0 01-.4-.4V.4C0 .18.18 0 .4 0zm1.2 1.6v4h8v-4h-8zM.4 8.8h10.4c.22 0 .4.18.4.4v6.4a.4.4 0 01-.4.4H.4a.4.4 0 01-.4-.4V9.2c0-.22.18-.4.4-.4zm1.2 1.6v4h8v-4h-8zM13.2 0h10.4c.22 0 .4.18.4.4v6.4a.4.4 0 01-.4.4H13.2a.4.4 0 01-.4-.4V.4c0-.22.18-.4.4-.4zm1.2 1.6v4h8v-4h-8zM13.2 8.8h10.4c.22 0 .4.18.4.4v6.4a.4.4 0 01-.4.4H13.2a.4.4 0 01-.4-.4V9.2c0-.22.18-.4.4-.4zm1.2 1.6v4h8v-4h-8z"/><path d="M.8.8h9.6v5.6H.8zM.8 9.6h9.6v5.6H.8zM13.6.8h9.6v5.6h-9.6zM13.6 9.6h9.6v5.6h-9.6z"/></g></symbol><symbol viewBox="0 0 24 16" id="vid_4up_inactive"><g fill="currentColor"><path d="M.4 0h10.4c.22 0 .4.18.4.4v6.4a.4.4 0 01-.4.4H.4a.4.4 0 01-.4-.4V.4C0 .18.18 0 .4 0zm1.2 1.6v4h8v-4h-8zM.4 8.8h10.4c.22 0 .4.18.4.4v6.4a.4.4 0 01-.4.4H.4a.4.4 0 01-.4-.4V9.2c0-.22.18-.4.4-.4zm1.2 1.6v4h8v-4h-8zM13.2 0h10.4c.22 0 .4.18.4.4v6.4a.4.4 0 01-.4.4H13.2a.4.4 0 01-.4-.4V.4c0-.22.18-.4.4-.4zm1.2 1.6v4h8v-4h-8zM13.2 8.8h10.4c.22 0 .4.18.4.4v6.4a.4.4 0 01-.4.4H13.2a.4.4 0 01-.4-.4V9.2c0-.22.18-.4.4-.4zm1.2 1.6v4h8v-4h-8z"/></g></symbol><symbol viewBox="0 0 16 16" id="vid_pause"><g fill="currentColor"><rect width="6.222" height="16" rx=".444"/><rect x="9.778" width="6.222" height="16" rx=".444"/></g></symbol><symbol viewBox="0 0 24 16" id="vid_pip_active"><g fill="currentColor"><path d="M22.4 14.4V9.6H24v6a.4.4 0 01-.4.4H.4a.4.4 0 01-.4-.4V.4C0 .18.18 0 .4 0h10v1.6H1.6v12.8h20.8z"/><path d="M14 0h9.6c.22 0 .4.18.4.4V6a.4.4 0 01-.4.4H14a.4.4 0 01-.4-.4V.4c0-.22.18-.4.4-.4zm1.2 1.6v3.2h7.2V1.6h-7.2z"/><path d="M14.4.8h8.8v4.8h-8.8zM11.572 1.6C11.844 1.13 12 .583 12 0H9.6v1.6h1.972zM22.4 8.428A3.185 3.185 0 0124 8v2.4h-1.6V8.428z"/></g></symbol><symbol viewBox="0 0 24 16" id="vid_pip_inactive"><g fill="currentColor"><path d="M22.4 14.4V9.6H24v6a.4.4 0 01-.4.4H.4a.4.4 0 01-.4-.4V.4C0 .18.18 0 .4 0h10v1.6H1.6v12.8h20.8z"/><path d="M14 0h9.6c.22 0 .4.18.4.4V6a.4.4 0 01-.4.4H14a.4.4 0 01-.4-.4V.4c0-.22.18-.4.4-.4zm1.2 1.6v3.2h7.2V1.6h-7.2zM11.572 1.6C11.844 1.13 12 .583 12 0H9.6v1.6h1.972zM22.4 8.428A3.185 3.185 0 0124 8v2.4h-1.6V8.428z"/></g></symbol><symbol viewBox="0 0 16 16" id="vid_play"><path fill="currentColor" d="M.643.322L14.41 7.205a.889.889 0 010 1.59L.643 15.678A.444.444 0 010 15.281V.719A.444.444 0 01.643.322z"/></symbol><symbol viewBox="0 0 16 16" id="vid_play_icon"><path fill="currentColor" d="M.643.322L14.41 7.205a.889.889 0 010 1.59L.643 15.678A.444.444 0 010 15.281V.719A.444.444 0 01.643.322z"/></symbol><symbol viewBox="0 0 24 16" id="vid_single_active"><g fill="currentColor"><path d="M1.6 14.4h20.8V1.6H1.6v12.8zM.4 0h23.2c.22 0 .4.18.4.4v15.2a.4.4 0 01-.4.4H.4a.4.4 0 01-.4-.4V.4C0 .18.18 0 .4 0z"/><rect x="3.2" y="3.2" width="17.6" height="9.6" rx=".2"/></g></symbol><symbol viewBox="0 0 24 16" id="vid_single_inactive"><path d="M1.6 14.4h20.8V1.6H1.6v12.8zM.4 0h23.2c.22 0 .4.18.4.4v15.2a.4.4 0 01-.4.4H.4a.4.4 0 01-.4-.4V.4C0 .18.18 0 .4 0z" fill="currentColor"/></symbol><symbol viewBox="0 0 17 17" id="volume_high"><g fill="currentColor"><path d="M9.733 14.42a6.764 6.764 0 00.012-12.836l.25-.754c.09-.269.208-.522.35-.757a8.387 8.387 0 01-.01 15.857 3.76 3.76 0 01-.356-.77l-.246-.74z"/><path d="M8.791 11.31a3.517 3.517 0 00.007-6.619c.115-.522.258-1.039.428-1.55l.006-.017a5.14 5.14 0 01-.01 9.755l-.003-.009a15.423 15.423 0 01-.428-1.56z"/><path d="M8.526 6.345a1.893 1.893 0 01-.003 3.311c-.118-1.1-.117-2.21.003-3.311zM.444 5.454h3.132l2.708-3.502a.444.444 0 01.796.272v11.524a.444.444 0 01-.803.263l-2.701-3.678H.444A.444.444 0 010 9.888v-3.99c0-.245.199-.444.444-.444z"/></g></symbol><symbol viewBox="0 0 17 17" id="volume_low"><g fill="currentColor"><path d="M8.526 6.345a1.893 1.893 0 01-.003 3.311c-.118-1.1-.117-2.21.003-3.311zM.444 5.454h3.132l2.708-3.502a.444.444 0 01.796.272v11.524a.444.444 0 01-.803.263l-2.701-3.678H.444A.444.444 0 010 9.888v-3.99c0-.245.199-.444.444-.444z"/></g></symbol><symbol viewBox="0 0 17 17" id="volume_medium"><g fill="currentColor"><path d="M8.791 11.31a3.517 3.517 0 00.007-6.619c.115-.522.258-1.039.428-1.55l.006-.017a5.14 5.14 0 01-.01 9.755l-.003-.009a15.423 15.423 0 01-.428-1.56z"/><path d="M8.526 6.345a1.893 1.893 0 01-.003 3.311c-.118-1.1-.117-2.21.003-3.311zM.444 5.454h3.132l2.708-3.502a.444.444 0 01.796.272v11.524a.444.444 0 01-.803.263l-2.701-3.678H.444A.444.444 0 010 9.888v-3.99c0-.245.199-.444.444-.444z"/></g></symbol><symbol viewBox="0 0 17 17" id="volume_mute"><g fill="currentColor"><path d="M13.541 4.758l1.131-1.274a8.388 8.388 0 01-4.338 12.445 3.76 3.76 0 01-.355-.77l-.246-.74a6.764 6.764 0 003.808-9.661zm-.777-1.13a6.772 6.772 0 00-3.02-2.044L9.997.83c.09-.268.207-.522.35-.757a8.396 8.396 0 013.505 2.332l-1.087 1.223z"/><path d="M11.089 7.518l1.282-1.444a5.14 5.14 0 01-3.15 6.805l-.002-.009a15.423 15.423 0 01-.428-1.56 3.517 3.517 0 002.298-3.792zm-.523-1.416a3.527 3.527 0 00-1.768-1.41c.115-.523.258-1.04.428-1.55l.006-.018a5.148 5.148 0 012.44 1.733l-1.106 1.245zM9.405 7.41l-.962 1.084c-.022-.717.005-1.435.083-2.15.413.23.73.61.88 1.066zM7.111 9.994l-2.07 2.33-1.45-1.97H.444A.444.444 0 010 9.91V5.908c0-.246.199-.445.444-.445h3.147l2.724-3.515a.444.444 0 01.796.272v7.774zm0 2.004v1.786a.444.444 0 01-.802.264l-.461-.627 1.263-1.423z"/><path d="M1.78 16H0L14.207 0h1.73l.026.027L1.78 16z"/></g></symbol></svg>