<?xml version="1.0" encoding="utf-8"?><svg xmlns="http://www.w3.org/2000/svg" xmlns:xlink="http://www.w3.org/1999/xlink"><symbol viewBox="0 0 500 500" id="android_flo_tomahawk" xmlns="http://www.w3.org/2000/svg"><path class="aasquircle-shape" fill="currentColor" d="M421.8 31.2c25.9 0 46.9 21 46.9 46.9v343.8c0 25.9-21 46.9-46.9 46.9H78.2c-25.9 0-46.9-21-46.9-46.9V78.2c0-25.9 21-46.9 46.9-46.9 0-.1 343.6-.1 343.6-.1z"/><path class="aatomahawk-top" fill="#fff" d="M394.4 108.3H100l104.9 82.4h174.8z"/><path class="aatomahawk-bottom" fill="#fff" d="M358.1 232.1c-94 0-174.4 67.4-190.6 160H253c14.5-45.7 56.9-76.8 104.9-76.9l14.5-82.6c-4.7-.2-9.4-.5-14.3-.5z"/></symbol><symbol viewBox="0 0 500 500" id="android_logo" xmlns="http://www.w3.org/2000/svg"><path fill="currentColor" d="M63.4 244.7c-2.5-3.5-7.8-6.8-14.1-6.8-12.1 0-21.2 10.3-21.2 22.9s9.2 22.9 21.2 22.9c6.3 0 11.6-3.3 14.1-6.8v3.1a2.732 2.732 0 002.7 2.7H73v-44.1h-9.7v6.1zM51 274.9c-7.8 0-13.1-6.2-13.1-14.1s5.3-14.1 13.1-14.1 13.1 6.2 13.1 14.1-5.2 14.1-13.1 14.1zm390.9-38.7l9.8-16.9c.6-1 .2-2.2-.7-2.8s-2.2-.2-2.8.7l-9.9 17.2c-7.6-3.5-16.1-5.4-25.2-5.4-9.1 0-17.6 1.9-25.2 5.4l-9.9-17.2c-.6-1-1.8-1.3-2.8-.7s-1.3 1.8-.7 2.8l9.8 16.9c-16.8 9.1-28.3 26.1-30 46.2h117.5c-1.6-20-13.1-37-29.9-46.2zm-55.8 29.5c-2.7 0-4.9-2.2-4.9-4.9s2.2-4.9 4.9-4.9 4.9 2.2 4.9 4.9-2.2 4.9-4.9 4.9zm54.1 0c-2.7 0-4.9-2.2-4.9-4.9s2.2-4.9 4.9-4.9 4.9 2.2 4.9 4.9-2.2 4.9-4.9 4.9zM124 256.3v26.5h-6.9a2.732 2.732 0 01-2.7-2.7v-22.2c0-7-3.5-11.2-9.2-11.2-6.4 0-11.4 5-11.4 14.4v21.7h-6.9a2.732 2.732 0 01-2.7-2.7v-41.3h9.7v6c2.6-4.4 7.7-6.9 13.4-6.9 10.1 0 16.7 7.3 16.7 18.4zm199-11.6c-2.5-3.5-7.8-6.8-14.1-6.8-12.1 0-21.2 10.3-21.2 22.9s9.2 22.9 21.2 22.9c6.3 0 11.6-3.3 14.1-6.8v3.1a2.732 2.732 0 002.7 2.7h6.9v-66.1H323v28.1zm-12.4 30.2c-7.8 0-13.1-6.2-13.1-14.1s5.3-14.1 13.1-14.1 13.1 6.2 13.1 14.1-5.2 14.1-13.1 14.1zm-31.3-56.8c1.2 1.2 1.9 2.8 1.9 4.6 0 3.6-2.8 6.5-6.4 6.5-3.5 0-6.5-2.9-6.5-6.5 0-3.5 3-6.4 6.5-6.4 1.7-.1 3.3.6 4.5 1.8zm-9.4 20.7h9.7v44.1h-6.9c-1.5 0-2.8-1.2-2.8-2.8v-41.3zM167 244.7c-2.5-3.5-7.8-6.8-14.1-6.8-12.1 0-21.2 10.3-21.2 22.9s9.2 22.9 21.2 22.9c6.3 0 11.6-3.3 14.1-6.8v3.1a2.732 2.732 0 002.7 2.7h6.9v-66.1H167v28.1zm-12.3 30.2c-7.8 0-13.1-6.2-13.1-14.1s5.3-14.1 13.1-14.1 13.1 6.2 13.1 14.1-5.3 14.1-13.1 14.1zm84.3-37c-13 0-23.1 10.1-23.1 22.9 0 12.8 10 22.9 23.1 22.9 13 0 23.1-10.1 23.1-22.9 0-12.7-10.1-22.9-23.1-22.9zm0 36.9c-7.8 0-13.3-6.1-13.3-13.9 0-7.8 5.5-13.9 13.3-13.9 7.8 0 13.2 6.1 13.2 13.9 0 7.8-5.5 13.9-13.2 13.9zm-29.9-36.4c1.3 0 2.5.1 3.8.4v10c-1.7-.5-3.1-.8-4.8-.8-5.6 0-10.6 4.7-10.6 13.5V283h-6.9a2.732 2.732 0 01-2.7-2.7V239h9.7v7.8c1.5-5.2 6.4-8.4 11.5-8.4z"/></symbol><symbol viewBox="0 0 500 500" id="android_logo_stacked" xmlns="http://www.w3.org/2000/svg"><path fill="currentColor" d="M345.9 244c-9.6 0-17.4-7.6-17.4-16.9s7.8-16.9 17.3-16.9c9.6 0 17.4 7.6 17.4 16.9 0 9.4-7.7 16.9-17.3 16.9m-191.8 0c-9.6 0-17.4-7.6-17.4-16.9s7.8-16.9 17.3-16.9c9.6 0 17.4 7.6 17.4 16.9.1 9.4-7.7 16.9-17.3 16.9m198-102l34.7-58.6c2-3.4.8-7.7-2.6-9.6s-7.9-.8-9.8 2.6l-35.1 59.4c-26.8-12-57-18.6-89.2-18.6s-62.3 6.7-89.2 18.6l-35.1-59.4c-2-3.4-6.4-4.5-9.8-2.6s-4.6 6.2-2.6 9.6l34.7 58.6C88.3 173.6 47.6 232.5 41.7 302h416.7c-6-69.5-46.8-128.4-106.3-160M70.7 370.4c8.7 0 15.9 4 19.3 8.4v-7.3h13.3v54.4h-9.5c-1 0-2-.4-2.7-1s-1.1-1.5-1.1-2.4v-3.9c-3.4 4.4-10.6 8.4-19.3 8.4-16.5 0-29.1-12.7-29.1-28.3s12.6-28.3 29.1-28.3m2.4 10.9c-10.7 0-18 7.6-18 17.4s7.2 17.4 18 17.4 18-7.6 18-17.4-7.2-17.4-18-17.4m45.2-9.8h13.3v7.4c3.6-5.4 10.5-8.5 18.3-8.5 14 0 23 8.9 23 22.7v32.7h-9.5c-1 0-2-.4-2.7-1-.7-.6-1.1-1.5-1.1-2.4V395c0-8.6-4.8-13.8-12.5-13.8-8.8 0-15.6 6.2-15.6 17.8v26.8H122c-1 0-2-.4-2.7-1-.7-.6-1.1-1.5-1.1-2.4l.1-50.9zm94.2-1.1c8.7 0 15.9 4 19.3 8.4v-34.5H245v81.6h-9.5c-1 0-2-.4-2.7-1s-1.1-1.5-1.1-2.4v-3.9c-3.4 4.4-10.6 8.4-19.3 8.4-16.5 0-29.1-12.7-29.1-28.3s12.7-28.3 29.2-28.3m2.4 10.9c-10.7 0-18 7.6-18 17.4s7.2 17.4 18 17.4c10.7 0 18-7.6 18-17.4s-7.3-17.4-18-17.4m45.2-9.8h13.3v9.7c2.3-6.2 9-10.2 15.9-10.2 1.7 0 3.5.1 5.2.4v12.3c-2.3-.7-4.2-1-6.6-1-7.6 0-14.5 5.8-14.5 16.6v26.5h-9.5c-1 0-2-.4-2.7-1-.7-.6-1.1-1.5-1.1-2.4v-50.9zm70.1 55.5c-17.8 0-31.6-12.5-31.6-28.3s13.7-28.3 31.6-28.3 31.6 12.5 31.6 28.3-13.7 28.3-31.6 28.3m0-11.1c10.6 0 18.1-7.5 18.1-17.2s-7.5-17.2-18.1-17.2c-10.7 0-18.2 7.5-18.2 17.2s7.5 17.2 18.2 17.2m49-56.2c-4.8 0-8.9-3.6-8.9-8.1 0-4.4 4.1-7.9 8.9-7.9 2.3 0 4.6.8 6.2 2.3s2.6 3.5 2.6 5.6c0 4.5-3.9 8.1-8.8 8.1m-6.6 11.8h13.3v54.4h-9.5c-2.1 0-3.8-1.5-3.8-3.4v-51zm53.2-1.1c8.7 0 15.9 4 19.3 8.4v-34.5h13.3v81.6h-9.5c-1 0-2-.4-2.7-1s-1.1-1.5-1.1-2.4v-3.9c-3.4 4.4-10.6 8.4-19.3 8.4-16.5 0-29.1-12.7-29.1-28.3s12.6-28.3 29.1-28.3m2.4 10.9c-10.7 0-18 7.6-18 17.4s7.2 17.4 18 17.4c10.7 0 18-7.6 18-17.4s-7.3-17.4-18-17.4"/></symbol><symbol viewBox="0 0 500 500" id="apple_logo" xmlns="http://www.w3.org/2000/svg"><path fill="currentColor" d="M249.5 143s-6.1-26.1 17.8-56.6C294.1 52.2 331.5 52 331.5 52s5.6 32.2-21.1 63.3c-28.6 33.1-60.9 27.7-60.9 27.7zm112.1 118.8c0-53.1 44.2-75 44.2-75s-22.6-39.6-80.1-39.6c-33.4 0-59 18.4-72.9 18.4-16.1 0-40.1-17.3-71.1-17.3-47.6 0-98.4 41.3-98.4 120 0 80 60 179.5 107.5 179.5 16.6 0 42-16.2 67.7-16.2 25.2 0 43.7 15.6 67.6 15.6 52 0 90.5-104.9 90.5-104.9s-55-20.6-55-80.5z"/></symbol><symbol viewBox="0 0 500 500" id="apple_tv_logo" xmlns="http://www.w3.org/2000/svg"><path fill="currentColor" d="M286.4 150.5v38.8h45v13.9h-45v114.6c0 11.7 1.8 20.7 5.3 26.9 3.5 6.2 9.5 9.3 18.1 9.3 3.5 0 7-.2 10.5-.7 2.5-.4 5-1 7.4-1.8l1.7 13.2c-5.4 2.7-12.6 4-21.7 4-7.4 0-13.6-1.3-18.4-4-4.7-2.5-8.7-6.4-11.5-11.2-2.8-4.8-4.8-10.5-5.9-17.2-1.2-7.2-1.7-14.5-1.7-21.8V203.2h-26.7v-13.9h26.7v-32.2l16.2-6.6zm-137.6 37.8c30.9 0 43 23.8 43 23.8s-23.8 13.1-23.8 45c0 35.9 29.6 48.3 29.6 48.3s-20.7 63-48.6 63c-12.8 0-22.8-9.4-36.3-9.4-13.8 0-27.5 9.7-36.4 9.7-25.5 0-57.7-59.7-57.7-107.7 0-47.2 27.3-72 52.9-72 16.6 0 29.5 10.4 38.2 10.4 7.4-.1 21.2-11.1 39.1-11.1zm208.7 1l37.2 109.1c3.2 8.5 6 16.6 8.5 24.2 2.5 7.6 4.9 15 7.1 22.3h.7c2.3-7.1 4.7-14.5 7.3-22.2 2.6-7.7 5.5-15.8 8.6-24.3l37.6-109.1h16.9L416.7 365h-13.9l-62.3-175.7h17zm-205.6-58.1s3 19.3-11.4 38c-15.3 19.9-32.7 16.6-32.7 16.6s-3.3-15.6 9.6-33.9c14.4-20.6 34.5-20.7 34.5-20.7z"/></symbol><symbol viewBox="0 0 500 500" id="back_10" xmlns="http://www.w3.org/2000/svg"><path fill="currentColor" d="M274 66.1l4 4.8c2.7 3.2 2.3 8-.9 10.7l-53.4 44.8c53-8.9 109.2 9.7 146.2 54 55 66 46.1 164.8-19.8 219.9-66.1 55.3-164.5 46.6-219.9-19.4-25.9-30.9-37.8-68.8-36.5-106.1.2-4.3 3.9-7.7 8.2-7.3l6.3.5c4 .3 7 3.8 6.9 7.8-1.1 32.1 9.2 64.7 31.5 91.3 47.7 56.8 132.7 64.7 190 16.6 56.8-47.7 64.7-132.7 16.6-190-33.6-40-85.4-55.6-133-44.9l46.3 55.2c2.7 3.2 2.3 8-.9 10.7l-4.8 4c-3.2 2.7-8 2.3-10.7-.9l-64.8-77.2c-2.7-3.2-2.3-8 .9-10.7l77.2-64.8c3.2-2.6 8-2.2 10.6 1zm1.2 175.4c4.6 0 8.9.7 12.8 2 4 1.3 7.4 3.3 10.2 6s5.1 6 6.8 10 2.4 8.7 2.4 14v28.7c-.1 5.2-.9 9.8-2.4 13.7-1.6 4.1-3.9 7.5-6.8 10.2s-6.3 4.7-10.2 6.1c-4 1.3-8.2 2-12.8 2-4.6 0-8.9-.7-12.8-2-4-1.3-7.4-3.4-10.3-6.1s-5.1-6.1-6.8-10.2c-1.7-4.1-2.5-8.9-2.5-14.4v-28.7c.1-5.1.9-9.5 2.5-13.3 1.7-4 3.9-7.3 6.8-10s6.3-4.7 10.3-6c4-1.3 8.2-2 12.8-2zm-50.6 1.6h.2c1.3.1 1.9.8 1.9 2.2v85.1c-.1 1.3-.8 1.9-2.1 1.9h-15.3c-1.3-.1-1.9-.8-1.9-2.1v-64.1l-11 8-.2.1c-1.2.7-2.2.5-3-.7l-7-11-.1-.1c-.6-1-.3-1.9.7-2.9l21.8-15.5.2-.2c.8-.5 1.6-.7 2.5-.7h13.3zm50.6 16.8c-1.8 0-3.4.2-5 .7-1.6.5-3 1.2-4.1 2.2-1.2 1-2.1 2.4-2.8 4.1-.7 1.7-1.1 3.8-1.1 6.2v29.7c0 2.3.4 4.2 1.1 5.8.7 1.7 1.6 3 2.8 4.1 1.2 1 2.5 1.8 4.1 2.2 1.6.5 3.2.7 5 .7s3.4-.2 5-.7c1.6-.5 3-1.2 4.1-2.2 1.2-1 2.1-2.4 2.8-4.1.7-1.7 1.1-3.8 1.1-6.2v-29.7c0-2.3-.4-4.2-1.1-5.8-.7-1.7-1.6-3-2.8-4.1-1.2-1-2.5-1.8-4.1-2.2-1.6-.5-3.2-.7-5-.7z"/></symbol><symbol viewBox="0 0 500 500" id="bell_regular" xmlns="http://www.w3.org/2000/svg"><path fill="currentColor" d="M420.8 339.6c-18.1-18.1-40.6-40.6-40.6-128.6 0-64.6-47.1-118.2-108.8-128.4 3-4.3 4.6-9.5 4.6-14.8 0-14.4-11.7-26-26-26s-26 11.7-26 26c0 5.5 1.7 10.6 4.6 14.8-61.7 10.2-108.8 63.8-108.8 128.4 0 88-22.5 110.5-40.6 128.6-24.5 24.5-7.1 66.7 27.6 66.7h91.1c0 28.7 23.4 52.1 52.1 52.1s52.1-23.4 52.1-52.1h91.1c34.7-.1 52.2-42.1 27.6-66.7zM250 432.3c-14.4 0-26-11.7-26-26h52c0 14.3-11.6 26-26 26zm143.2-52.1H106.8c-11.6 0-17.4-14.1-9.2-22.2 28.4-28.4 48.2-60.1 48.2-147 0-57.6 46.6-104.2 104.2-104.2S354.2 153.4 354.2 211c0 86.6 19.7 118.5 48.2 147 8.2 8.2 2.3 22.2-9.2 22.2z"/></symbol><symbol viewBox="0 0 500 500" id="bell_solid" xmlns="http://www.w3.org/2000/svg"><path fill="currentColor" d="M420.8 339.6c-18.1-18.1-40.6-40.6-40.6-128.6 0-64.6-47.1-118.2-108.8-128.4 3-4.3 4.6-9.5 4.6-14.8 0-14.4-11.7-26-26-26s-26 11.7-26 26c0 5.5 1.7 10.6 4.6 14.8-61.7 10.2-108.8 63.8-108.8 128.4 0 88-22.5 110.5-40.6 128.6-24.5 24.5-7.1 66.7 27.6 66.7h91.1c0 28.7 23.4 52.1 52.1 52.1s52.1-23.4 52.1-52.1h91.1c34.7-.1 52.2-42.1 27.6-66.7z"/></symbol><symbol viewBox="0 0 500 500" id="calendar_alt" xmlns="http://www.w3.org/2000/svg"><path fill="currentColor" d="M393.2 93.8h-39.1V51.4c0-5.4-4.4-9.8-9.8-9.8h-6.5c-5.4 0-9.8 4.4-9.8 9.8v42.3H171.9V51.4c0-5.4-4.4-9.8-9.8-9.8h-6.5c-5.4 0-9.8 4.4-9.8 9.8v42.3h-39.1c-21.6 0-39.1 17.5-39.1 39.1v286.5c0 21.6 17.5 39.1 39.1 39.1h286.5c21.6 0 39.1-17.5 39.1-39.1V132.8c0-21.6-17.5-39-39.1-39zm-286.4 26h286.5c7.2 0 13 5.9 13 13v39.1H93.8v-39.1c0-7.1 5.8-13 13-13zm286.4 312.5H106.8c-7.2 0-13-5.9-13-13V197.9h312.5v221.4c-.1 7.1-5.9 13-13.1 13zm-205-130.2h-32.6c-5.4 0-9.8-4.4-9.8-9.8v-32.6c0-5.4 4.4-9.8 9.8-9.8h32.6c5.4 0 9.8 4.4 9.8 9.8v32.6c-.1 5.4-4.5 9.8-9.8 9.8zm78.1 0h-32.6c-5.4 0-9.8-4.4-9.8-9.8v-32.6c0-5.4 4.4-9.8 9.8-9.8h32.6c5.4 0 9.8 4.4 9.8 9.8v32.6c-.1 5.4-4.5 9.8-9.8 9.8zm78.1 0h-32.6c-5.4 0-9.8-4.4-9.8-9.8v-32.6c0-5.4 4.4-9.8 9.8-9.8h32.6c5.4 0 9.8 4.4 9.8 9.8v32.6c0 5.4-4.4 9.8-9.8 9.8zm-78.1 78.1h-32.6c-5.4 0-9.8-4.4-9.8-9.8v-32.6c0-5.4 4.4-9.8 9.8-9.8h32.6c5.4 0 9.8 4.4 9.8 9.8v32.6c-.1 5.4-4.5 9.8-9.8 9.8zm-78.1 0h-32.6c-5.4 0-9.8-4.4-9.8-9.8v-32.6c0-5.4 4.4-9.8 9.8-9.8h32.6c5.4 0 9.8 4.4 9.8 9.8v32.6c-.1 5.4-4.5 9.8-9.8 9.8zm156.2 0h-32.6c-5.4 0-9.8-4.4-9.8-9.8v-32.6c0-5.4 4.4-9.8 9.8-9.8h32.6c5.4 0 9.8 4.4 9.8 9.8v32.6c0 5.4-4.4 9.8-9.8 9.8z"/></symbol><symbol viewBox="0 0 500 500" id="cc_amex" xmlns="http://www.w3.org/2000/svg"><path fill="currentColor" d="M458.3 249.5c-27.4-.1-32-.6-39.4 3.5v-3.5c-32.8 0-38.7-1.2-46.9 3.6v-3.6h-56.5v3.6c-8.2-4.5-15.5-3.6-54.7-3.6v3.9c-4.6-2.6-10.5-3.9-17.6-3.9h-41.9c-2.5 2.7-9 9.6-11.4 12-9.2-9.8-7.6-8.1-11.2-12h-60.1v64.4h59.3c2.4-2.4 9.3-9.7 11.6-12.1 9.2 10 7.4 8.2 11.1 12.1H236c0-10.3.1-5.8.1-16 8.3.1 17.6-.1 24.8-4.3 0 9.7-.1 11.9-.1 20.4h28.6c0-12.9.1-5.2.1-17.6 4.5 0 5.6 0 6.8.1.1.9 0 0 0 17.6 110.5 0 105.5.8 113.3-3.1v3.1c25.2 0 39.6 1.5 48.8-4.3v63.1c0 18.5-15.5 33.5-34.7 33.5H76.5c-19.2 0-34.7-15-34.7-33.5V230.6H61c3-7 1.6-3.7 4.6-10.7h13.9c3 7 1.6 3.6 4.6 10.7h38.2v-8c1.6 3.5.8 1.7 3.7 8h21.3c1.7-3.8 1.9-4 3.7-8v8h98v-17.5c4.6 0 5.8-.1 7.1.1 0 0-.1 7.6.1 17.3h48.1v-6.2c5.4 4.1 12.6 6.2 21.5 6.2h19.4c3-7 1.6-3.7 4.6-10.7h13.7c4.7 10.5.1.3 4.8 10.7h38.2v-15.3c8.5 13.7 5.6 9 9.5 15.3h30.1v-64.2h-28.8v12.8c-8.8-14.1-4.6-7.3-8.1-12.8h-31.3v14.4c-4.5-10.2-3.3-7.5-6.4-14.4h-23.4c-.3 0-1.7.1-1.7-.2h-20c-9.3 0-16.7 2.2-22.2 6.5v-6.5h-28.8v3.7c-7.8-4.3-15-3.6-46.6-3.7-.1 0-8.4-.1-8.4 0H146c-1.8 4.3-4.9 11.4-9.1 20.9-2-4.2-8-16.6-10-20.9H93.6v14.7c-5.4-12.1-3.4-7.7-6.5-14.7H58.4c-2.5 5.5-9.9 22.3-16.7 37.6v-76.6c0-18.5 15.5-33.5 34.7-33.5h347c19.2 0 34.7 15 34.7 33.5v122.3h.2zm-135-56.2c-.2.1-1 1.5-1 5.3 0 4.2.7 5.4.8 5.5.1.1.8.3 2.5.3l5.3-11.8c-.8 0-1.5-.1-2.2-.1-4.1.1-5.1.6-5.4.8zM309 284.6c6.7 2.3 8 6.6 8 12.8l-.1 9.6h-12l.1-8c0-8.2-2.7-9.6-10.7-9.6h-12.7l-.1 17.6h-12l.1-48.3H298c9.4 0 19.6 1.6 19.6 13-.1 5.4-3.1 10.7-8.6 12.9zm-4.6-10.8c0-4.5-4-5.2-7.7-5.2h-15.2v10.9h15c4 .1 7.9-.8 7.9-5.7zm131.4-4.9h21.8v-10.2h-23.8c-9.3 0-17.2 4.6-17.2 14.4 0 23 30.9 8.9 30.9 19.1 0 3.6-3.1 4.5-6.1 4.5h-23.1l-.1 10.3h23.1c6.1 0 12.7-1.3 16.3-6.2v-18c-7.6-9.6-28.4-.9-28.4-9.4-.1-4 3.2-4.5 6.6-4.5zm-71.7-.2v-10h-39.9l-.1 48.3H364l.1-10-27.9-.2v-9.6h27.4v-9.8h-27.3v-8.7h27.8zm30.5 28h-23.3l-.1 10.3h23.3c10.7 0 18.9-3.9 18.9-15.3 0-23.2-31-7.8-31-18.3 0-3.9 3.5-4.5 6.7-4.5h22v-10.2h-24c-9.3 0-17 4.6-17 14.4 0 23 30.9 8.7 30.9 19.1-.1 3.8-3.5 4.5-6.4 4.5zM338.1 186c-12.6-.2-24-2.9-24 13.7 0 8.2 2 13.9 11.6 13.9h5.4l17-38H366l20.2 45.6v-45.6h18.3l21 33.6v-33.6h12.2v48.1h-17.1L398 187.5v36.2h-24.4L369 213h-24.8l-4.6 10.7h-13.9c-16.5 0-23.9-8.2-23.9-23.7 0-16.3 7.6-24.6 24.6-24.6H338l.1 10.6zm10.3 17h16.5l-8.1-19.3-8.4 19.3zm-52.5-27.6h-12.2v48.3h12.2v-48.3zm-27.5 26c6.9 2.3 8 6.4 8 12.8v9.4h-12c-.2-10.3 2.6-17.5-10.7-17.5h-13v17.5h-11.9v-48.3l28.3.2c9.6 0 19.8 1.4 19.8 12.8 0 5.7-3.1 11-8.5 13.1zm-4.8-10.6c0-4.5-4-5.2-7.7-5.2h-15.2v10.7h15c4 0 7.9-.9 7.9-5.5zm-43.1-5.2v-10.2h-40.1v48.3h40.1v-10h-28.1v-9.6h27.3v-9.8h-27.3v-8.7h28.1zm-61.1 38.2V186L142 223.8h-10.6L114.1 186v37.8H89.7L85 213.1H60.1l-4.6 10.7h-13L64 175.4h17.7l20.3 45.8v-45.8h19.6l15.7 32.8 14.2-32.8h20v48.3h-12.1v.1zM80.8 203l-8.3-19.3-8.1 19.3h16.4zm182.9 71.5c0 19.5-22 16.3-35.6 16.3L228 307h-23.3L190 291l-15.4 16h-47.3l.1-48.3h48.1l14.8 15.9 15.2-15.9h38.1c11.2 0 20.1 3.8 20.1 15.8zm-81.5 8.3l-12.9-14.1h-30.1v8.7h26.2v9.8h-26.2v9.6h29.4l13.6-14zm33.9-18.9L197.8 283l18.3 19.6v-38.7zm34.9 10.6c0-4.3-3.3-5.9-7.4-5.9h-15.5V281h15.3c4.3 0 7.6-2 7.6-6.5z"/></symbol><symbol viewBox="0 0 500 500" id="cc_default" xmlns="http://www.w3.org/2000/svg"><path fill="currentColor" d="M423.6 88H76.4c-19.2 0-34.7 15.6-34.7 34.7v254.6c0 19.2 15.6 34.7 34.7 34.7h347.2c19.2 0 34.7-15.6 34.7-34.7V122.7c0-19.2-15.5-34.7-34.7-34.7zM76.4 111.1h347.2c6.4 0 11.6 5.2 11.6 11.6v34.7H64.8v-34.7c0-6.4 5.2-11.6 11.6-11.6zm347.2 277.8H76.4c-6.4 0-11.6-5.2-11.6-11.6V226.9h370.4v150.5c0 6.3-5.2 11.5-11.6 11.5zm-243-60.8v5.8c0 4.8-3.9 8.7-8.7 8.7h-52.1c-4.8 0-8.7-3.9-8.7-8.7v-5.8c0-4.8 3.9-8.7 8.7-8.7h52.1c4.7 0 8.7 4 8.7 8.7zm138.8 0v5.8c0 4.8-3.9 8.7-8.7 8.7h-98.4c-4.8 0-8.7-3.9-8.7-8.7v-5.8c0-4.8 3.9-8.7 8.7-8.7h98.4c4.8 0 8.7 4 8.7 8.7z"/></symbol><symbol viewBox="0 0 500 500" id="cc_discover" xmlns="http://www.w3.org/2000/svg"><path fill="currentColor" d="M101.7 219.3c0 5.5-2.3 10.8-6.4 14.4-3.5 3.1-8.4 4.5-15.8 4.5h-3v-37.8h3c7.5 0 12.1 1.2 15.8 4.6 4.1 3.5 6.4 8.8 6.4 14.3zm305.1-19.6h-3.5v17.4h3.4c7.5 0 11.4-3.1 11.4-8.9 0-5.6-4-8.5-11.3-8.5zm51.5-72.6v245.5c0 18.5-15.6 33.5-34.7 33.5H76.4c-19.2 0-34.7-15-34.7-33.5V127.1c0-18.5 15.6-33.5 34.7-33.5h347.2c19.2.1 34.7 15.1 34.7 33.5zm-107 120.7H384v-9.6h-21.2v-15.5h20.5v-9.6h-20.5v-12.7H384v-9.8h-32.8l.1 57.2zm-62.4-57.2l25.3 58.7h6.2l25.7-58.7h-12.7l-16.1 38.5-15.8-38.5h-12.6zm-60 29c0 17.2 14.4 31.1 32.3 31.1 17.8 0 32.3-13.9 32.3-31.1-.1-17.1-14.5-31.1-32.4-31.1-17.8 0-32.2 13.9-32.2 31.1zm-49.2-.3c0 22.7 24.3 36.6 45.8 26.6v-13.3c-14 13.5-33.9 4-33.9-13.4 0-16.5 19.3-27.3 33.9-13.3v-13.1c-21.9-10.5-45.8 4.7-45.8 26.5zM155.2 239c-5.5 0-10-2.6-12.7-7.5l-7.5 6.9c12.9 18.2 40.9 12.7 40.9-7.9 0-9.1-3.9-13.3-17.1-17.9-6.9-2.4-8.9-4.1-8.9-7.2 0-6.1 10.5-9.8 18-1.7l6.1-7.5c-13.8-11.9-36-6.2-36 10 0 7.9 3.8 12 14.6 15.8 18.8 6.4 10.8 17 2.6 17zm-41.6-19.7c0-16.8-13-28.7-31.9-28.7H64.8v57.2h16.9c22.4 0 31.9-15.6 31.9-28.5zm17-28.7H119v57.2h11.6v-57.2zm304.6 81.6c-24.1 14.5-163.8 86.8-300.9 111.6h290.1c5.9 0 10.9-4.7 10.9-10.5V272.2h-.1zm0-24.4l-18.7-24.1c8.8-1.7 13.5-7.4 13.5-16.2 0-19.9-21.9-17-38.3-17v57.2h11.6v-22.9h1.6l16.1 22.9 14.2.1z"/></symbol><symbol viewBox="0 0 500 500" id="cc_mastercard" xmlns="http://www.w3.org/2000/svg"><path fill="currentColor" d="M391 356.9c0 4.7-3.3 8.2-8.1 8.2-4.9 0-8.1-3.6-8.1-8.2 0-4.5 3.2-8.2 8.1-8.2 4.8 0 8.1 3.6 8.1 8.2zm-224.8-8.2c-5.1 0-8.1 3.6-8.1 8.2 0 4.5 3 8.2 8.1 8.2 4.7 0 7.9-3.4 7.9-8.2-.1-4.6-3.2-8.2-7.9-8.2zm85-.2c-3.9 0-6.3 2.4-6.9 6.1h13.8c-.6-4-3.2-6.1-6.9-6.1zm77.9.2c-4.9 0-7.9 3.6-7.9 8.2 0 4.5 3 8.2 7.9 8.2s8.1-3.4 8.1-8.2c0-4.6-3.1-8.2-8.1-8.2zm76.6 18.2c0 .2.2.3.2.8 0 .2-.2.3-.2.8-.2.2-.2.3-.4.6-.2.2-.4.3-.8.3-.2.2-.4.2-.8.2-.2 0-.4 0-.8-.2-.2 0-.4-.2-.6-.3-.2-.2-.4-.3-.4-.6-.2-.3-.2-.6-.2-.8 0-.3 0-.6.2-.8 0-.3.2-.6.4-.8.2-.2.4-.2.6-.3.4-.2.6-.2.8-.2.4 0 .6 0 .8.2.4.2.6.2.8.3.3.2.2.4.4.8zm-1.5 1c.4 0 .4-.2.6-.2.2-.2.2-.3.2-.6s0-.3-.2-.6c-.2 0-.4-.2-.8-.2h-1.2v2.4h.6v-1h.2l.8 1h.6l-.8-.8zm54.1-240.8v245.5c0 18.5-15.6 33.5-34.7 33.5H76.4c-19.2 0-34.7-15-34.7-33.5V127.1c0-18.5 15.6-33.5 34.7-33.5h347.2c19.2.1 34.7 15.1 34.7 33.5zM88 224.5c0 53.4 44.9 96.6 100.2 96.6 19.7 0 39-5.7 55.3-16.1-52.7-41.4-52.4-119.4 0-160.8-16.3-10.5-35.7-16.1-55.3-16.1-55.3 0-100.2 43.3-100.2 96.4zm162 75.9c51-38.4 50.8-113.1 0-151.7-50.8 38.6-51 113.4 0 151.7zm-102.9 53.2c0-6.1-4.1-10-10.6-10.3-3.3 0-6.9 1-9.3 4.5-1.7-2.9-4.7-4.5-8.8-4.5-2.7 0-5.5 1-7.7 3.8V344h-5.9v25.6h5.9c0-13.2-1.8-21.1 6.5-21.1 7.4 0 5.9 7.1 5.9 21.1h5.7c0-12.8-1.8-21.1 6.5-21.1 7.4 0 5.9 7 5.9 21.1h5.9v-16zm32.4-9.5h-5.7v3.1c-2-2.3-4.7-3.8-8.5-3.8-7.5 0-13.2 5.7-13.2 13.5s5.7 13.5 13.2 13.5c3.8 0 6.5-1.3 8.5-3.8v3.2h5.7v-25.7zm29.3 17.8c0-10.5-16.6-5.7-16.6-10.6 0-4 8.6-3.3 13.4-.8l2.4-4.5c-6.8-4.3-21.8-4.2-21.8 5.7 0 10 16.6 5.8 16.6 10.5 0 4.4-9.8 4-15 .6l-2.5 4.4c8.1 5.3 23.5 4.2 23.5-5.3zm25.6 6.5l-1.6-4.7c-2.7 1.5-8.8 3.1-8.8-2.9v-11.6h9.5V344H224v-7.8h-5.9v7.8h-5.5v5.1h5.5v11.6c0 12.4 12.5 10.2 16.3 7.7zm9.7-9.3H264c0-11.3-5.4-15.8-12.6-15.8-7.7 0-13.2 5.5-13.2 13.5 0 14.3 16.3 16.7 24.5 9.9l-2.7-4.2c-5.7 4.5-14.3 4-15.9-3.4zm42.7-15c-3.3-1.4-8.4-1.3-11 3.1v-3.1h-5.9v25.6h5.9v-14.4c0-8.1 6.9-7 9.3-5.9l1.7-5.3zm7.7 12.8c0-8 8.4-10.5 15-5.9l2.7-4.5c-8.4-6.3-23.7-2.9-23.7 10.5 0 13.8 16.2 16.6 23.7 10.5l-2.7-4.5c-6.7 4.4-15 1.7-15-6.1zm48.2-12.8h-5.9v3.1c-6-7.7-21.6-3.3-21.6 9.7 0 13.4 16.2 17.2 21.6 9.7v3.2h5.9v-25.7zm24.4 0c-1.7-.8-8-2-11 3.1v-3.1h-5.7v25.6h5.7v-14.4c0-7.7 6.5-7.2 9.3-5.9l1.7-5.3zm29.2-10.4h-5.7v13.5c-5.9-7.6-21.6-3.6-21.6 9.7 0 13.5 16.3 17.2 21.6 9.7v3.2h5.7v-36.1zm5.5-52.4v3.2h.6v-3.2h1.4v-.6h-3.3v.6h1.3zm4.7 86.4c0-.3 0-.8-.2-1.1-.2-.2-.4-.6-.6-.8-.2-.2-.6-.3-.8-.6-.4 0-.8-.2-1.2-.2-.2 0-.6.2-1 .2-.4.2-.6.3-.8.6-.4.2-.6.6-.6.8-.2.3-.2.8-.2 1.1 0 .2 0 .6.2 1 0 .2.2.6.6.8.2.2.4.3.8.6.4.2.8.2 1 .2.4 0 .8 0 1.2-.2.2-.2.6-.3.8-.6.2-.2.4-.6.6-.8.2-.5.2-.8.2-1zm2.4-87h-1l-1.2 2.4-1.2-2.4h-1v3.8h.6v-2.9l1.2 2.4h.8l1-2.4v2.9h.8v-3.8zm3.1-56.2c0-53.2-44.9-96.5-100.2-96.5-19.7 0-39 5.7-55.3 16.1 52.2 41.4 53 119.6 0 160.8 16.3 10.5 35.8 16.1 55.3 16.1 55.3.1 100.2-43.1 100.2-96.5z"/></symbol><symbol viewBox="0 0 500 500" id="cc_visa" xmlns="http://www.w3.org/2000/svg"><path fill="currentColor" d="M381.7 236.3s5.5 26.6 6.7 32.2h-24.2c2.4-6.4 11.6-31.1 11.6-31.1-.1.2 2.4-6.5 3.8-10.7l2.1 9.6zm76.6-109.2v245.5c0 18.5-15.6 33.5-34.7 33.5H76.4c-19.2 0-34.7-15-34.7-33.5V127.1c0-18.5 15.6-33.5 34.7-33.5h347.2c19.2.1 34.7 15.1 34.7 33.5zM152 307.7l45.7-111H167l-28.4 75.8-3.1-15.4-10.1-51.1c-1.7-7.1-6.8-9.1-13.2-9.4H65.3l-.5 2.2c11.4 2.9 21.6 7 30.5 12.2l25.9 96.6H152zm68.3.2l18.2-111.2h-29.1l-18.2 111.2h29.1zm101.2-36.4c.1-12.7-7.7-22.3-24.4-30.3-10.2-5.1-16.4-8.5-16.4-13.7.1-4.7 5.3-9.6 16.7-9.6 9.5-.2 16.4 2 21.6 4.2l2.6 1.2 4-24c-5.7-2.2-14.8-4.7-26-4.7-28.7 0-48.9 15.2-49 36.8-.2 16 14.5 24.8 25.5 30.2 11.2 5.4 15 9 15 13.8-.1 7.4-9.1 10.9-17.4 10.9-11.6 0-17.8-1.8-27.3-5.9l-3.8-1.8-4.1 25c6.8 3.1 19.4 5.8 32.4 5.9 30.5 0 50.4-14.9 50.6-38zm102.1 36.4l-23.4-111.2h-22.5c-6.9 0-12.2 2-15.2 9.2l-43.2 101.9h30.5s5-13.7 6.1-16.7h37.3c.9 3.9 3.5 16.7 3.5 16.7h26.9z"/></symbol><symbol viewBox="0 0 500 500" id="check" xmlns="http://www.w3.org/2000/svg"><path fill="currentColor" d="M250 48.2C138.5 48.2 48.2 138.5 48.2 250S138.5 451.8 250 451.8 451.8 361.5 451.8 250 361.5 48.2 250 48.2zM365.3 202L218.4 347.7c-3.8 3.8-10 3.8-13.8-.1l-69.9-70.5c-3.8-3.8-3.8-10 .1-13.8l6.9-6.9c3.8-3.8 10-3.8 13.8.1l56.1 56.6 133-131.9c3.8-3.8 10-3.8 13.8.1l6.9 6.9c3.8 3.8 3.8 10 0 13.8z"/></symbol><symbol viewBox="0 0 500 500" id="check_circle_outline" xmlns="http://www.w3.org/2000/svg"><path fill="currentColor" d="M250 48.2C138.5 48.2 48.2 138.5 48.2 250S138.5 451.8 250 451.8 451.8 361.5 451.8 250 361.5 48.2 250 48.2zm0 377.6c-96.6 0-175.8-78.2-175.8-175.8 0-96.6 78.2-175.8 175.8-175.8 96.6 0 175.8 78.2 175.8 175.8 0 96.6-78.2 175.8-175.8 175.8zM365.3 202L218.4 347.7c-3.8 3.8-10 3.8-13.8-.1l-69.9-70.5c-3.8-3.8-3.8-10 .1-13.8l6.9-6.9c3.8-3.8 10-3.8 13.8.1l56.1 56.6 133-131.9c3.8-3.8 10-3.8 13.8.1l6.9 6.9c3.8 3.8 3.8 10 0 13.8z"/></symbol><symbol viewBox="0 0 500 500" id="checklist_no" xmlns="http://www.w3.org/2000/svg"><path fill="currentColor" d="M350.6 371.4L250 270.8 149.4 371.4c-3.8 3.8-10 3.8-13.8 0l-6.9-6.9c-3.8-3.8-3.8-10 0-13.8L229.2 250 128.7 149.4c-3.8-3.8-3.8-10 0-13.8l6.9-6.9c3.8-3.8 10-3.8 13.8 0L250 229.3l100.6-100.6c3.8-3.8 10-3.8 13.8 0l6.9 6.9c3.8 3.8 3.8 10 0 13.8L270.7 250l100.6 100.6c3.8 3.8 3.8 10 0 13.8l-6.9 6.9c-3.8 3.8-10 3.8-13.8.1z"/></symbol><symbol viewBox="0 0 500 500" id="checklist_yes" xmlns="http://www.w3.org/2000/svg"><path fill="currentColor" d="M404.2 116.5L176.3 344.4l-80.6-80.6c-3.8-3.8-10-3.8-13.8 0l-9.2 9.2c-3.8 3.8-3.8 10 0 13.8l96.7 96.7c3.8 3.8 10 3.8 13.8 0l244-244c3.8-3.8 3.8-10 0-13.8l-9.2-9.2c-3.8-3.8-10-3.8-13.8 0z"/></symbol><symbol viewBox="0 0 500 500" id="chevron" xmlns="http://www.w3.org/2000/svg"><path fill="currentColor" d="M339.9 428.7l5.8-5.8c3.8-3.8 3.8-10 0-13.8L186.6 250 345.7 90.9c3.8-3.8 3.8-10 0-13.8l-5.8-5.8c-3.8-3.8-10-3.8-13.8 0L154.3 243.1c-3.8 3.8-3.8 10 0 13.8l171.8 171.8c3.8 3.8 10 3.8 13.8 0z"/></symbol><symbol viewBox="0 0 500 500" id="chevron_down" xmlns="http://www.w3.org/2000/svg"><path fill="currentColor" d="M428.6 160l-5.8-5.8c-3.8-3.8-10-3.8-13.8 0L250 313.3 90.9 154.2c-3.8-3.8-10-3.8-13.8 0l-5.8 5.8c-3.8 3.8-3.8 10 0 13.8L243 345.6c3.8 3.8 10 3.8 13.8 0l171.7-171.8c4-3.8 4-10 .1-13.8z"/></symbol><symbol viewBox="0 0 500 500" id="chevron_right" xmlns="http://www.w3.org/2000/svg"><path fill="currentColor" d="M160.1 71.3l-5.8 5.8c-3.8 3.8-3.8 10 0 13.8L313.4 250 154.3 409.1c-3.8 3.8-3.8 10 0 13.8l5.8 5.8c3.8 3.8 10 3.8 13.8 0l171.8-171.8c3.8-3.8 3.8-10 0-13.8L173.9 71.3c-3.8-3.8-10-3.8-13.8 0z"/></symbol><symbol viewBox="0 0 500 500" id="chevron_up" xmlns="http://www.w3.org/2000/svg"><path fill="currentColor" d="M71.3 339.9l5.8 5.8c3.8 3.8 10 3.8 13.8 0L250 186.6l159.1 159.1c3.8 3.8 10 3.8 13.8 0l5.8-5.8c3.8-3.8 3.8-10 0-13.8L256.9 154.3c-3.8-3.8-10-3.8-13.8 0L71.3 326.1c-3.8 3.8-3.8 10 0 13.8z"/></symbol><symbol viewBox="0 0 500 500" id="close" xmlns="http://www.w3.org/2000/svg"><path fill="currentColor" d="M350.6 371.4L250 270.8 149.4 371.4c-3.8 3.8-10 3.8-13.8 0l-6.9-6.9c-3.8-3.8-3.8-10 0-13.8L229.2 250 128.7 149.4c-3.8-3.8-3.8-10 0-13.8l6.9-6.9c3.8-3.8 10-3.8 13.8 0L250 229.3l100.6-100.6c3.8-3.8 10-3.8 13.8 0l6.9 6.9c3.8 3.8 3.8 10 0 13.8L270.7 250l100.6 100.6c3.8 3.8 3.8 10 0 13.8l-6.9 6.9c-3.8 3.8-10 3.8-13.8.1z"/></symbol><symbol viewBox="0 0 500 500" id="close_circle" xmlns="http://www.w3.org/2000/svg"><path fill="currentColor" d="M250 48.2C138.5 48.2 48.2 138.5 48.2 250S138.5 451.8 250 451.8 451.8 361.5 451.8 250 361.5 48.2 250 48.2zm77.1 145.4L270.8 250l56.4 56.4c3.8 3.8 3.8 10 0 13.8l-6.9 6.9c-3.8 3.8-10 3.8-13.8 0L250 270.8l-56.4 56.4c-3.8 3.8-10 3.8-13.8 0l-6.9-6.9c-3.8-3.8-3.8-10 0-13.8l56.4-56.4-56.4-56.4c-3.8-3.8-3.8-10 0-13.8l6.9-6.9c3.8-3.8 10-3.8 13.8 0l56.4 56.4 56.4-56.4c3.8-3.8 10-3.8 13.8 0l6.9 6.9c3.8 3.7 3.8 9.9 0 13.7z"/></symbol><symbol viewBox="0 0 500 500" id="close_circle_outline" xmlns="http://www.w3.org/2000/svg"><path fill="currentColor" d="M250 48.2C138.5 48.2 48.2 138.5 48.2 250S138.5 451.8 250 451.8 451.8 361.5 451.8 250 361.5 48.2 250 48.2zm0 377.6c-96.6 0-175.8-78.2-175.8-175.8 0-96.6 78.2-175.8 175.8-175.8 96.6 0 175.8 78.2 175.8 175.8 0 96.6-78.2 175.8-175.8 175.8zm77.1-232.2L270.8 250l56.4 56.4c3.8 3.8 3.8 10 0 13.8l-6.9 6.9c-3.8 3.8-10 3.8-13.8 0L250 270.8l-56.4 56.4c-3.8 3.8-10 3.8-13.8 0l-6.9-6.9c-3.8-3.8-3.8-10 0-13.8l56.4-56.4-56.4-56.4c-3.8-3.8-3.8-10 0-13.8l6.9-6.9c3.8-3.8 10-3.8 13.8 0l56.4 56.4 56.4-56.4c3.8-3.8 10-3.8 13.8 0l6.9 6.9c3.8 3.7 3.8 9.9 0 13.7z"/></symbol><symbol viewBox="0 0 500 500" id="close_x_mark" xmlns="http://www.w3.org/2000/svg"><path fill="currentColor" d="M350.6 371.4L250 270.8 149.4 371.4c-3.8 3.8-10 3.8-13.8 0l-6.9-6.9c-3.8-3.8-3.8-10 0-13.8L229.2 250 128.7 149.4c-3.8-3.8-3.8-10 0-13.8l6.9-6.9c3.8-3.8 10-3.8 13.8 0L250 229.3l100.6-100.6c3.8-3.8 10-3.8 13.8 0l6.9 6.9c3.8 3.8 3.8 10 0 13.8L270.7 250l100.6 100.6c3.8 3.8 3.8 10 0 13.8l-6.9 6.9c-3.8 3.8-10 3.8-13.8.1z"/></symbol><symbol viewBox="0 0 500 500" id="cog" xmlns="http://www.w3.org/2000/svg"><path fill="currentColor" d="M434.5 285.2L408 269.9c1.7-13.2 1.7-26.6 0-39.8l26.5-15.3c7.8-4.5 11.6-13.8 9-22.4-9.1-30.7-25.4-58.4-46.8-81.1-6.2-6.6-16.1-8-24-3.5l-26.5 15.3c-10.6-8.1-22.2-14.8-34.5-19.9V72.6c0-9.1-6.2-16.9-15-19-30.6-7.3-62.8-7.3-93.4 0-8.8 2.1-15 10-15 19v30.6c-12.3 5.2-23.9 11.9-34.5 19.9l-26.5-15.3c-7.8-4.5-17.7-3.1-24 3.5-21.5 22.7-37.7 50.3-46.8 81.1-2.6 8.6 1.2 17.9 9 22.4L92 230.1c-1.7 13.2-1.7 26.6 0 39.8l-26.5 15.3c-7.8 4.5-11.6 13.8-9 22.4 9.1 30.7 25.4 58.4 46.8 81.1 6.2 6.6 16.1 8 24 3.5l26.5-15.3c10.6 8.1 22.2 14.8 34.5 19.9v30.6c0 9.1 6.2 16.9 15 19 30.6 7.3 62.8 7.3 93.4 0 8.8-2.1 15-10 15-19v-30.6c12.3-5.2 23.9-11.9 34.5-19.9l26.5 15.3c7.8 4.5 17.7 3.1 24-3.5 21.5-22.7 37.7-50.3 46.8-81.1 2.5-8.6-1.2-17.9-9-22.4zM381.2 367l-37.7-21.8c-22 18.8-29.8 23.5-57.8 33.4v43.5c-23.6 4.9-47.8 4.9-71.4 0v-43.5c-27.4-9.7-35.3-14.2-57.8-33.4L118.8 367c-16-18-28.2-39.1-35.7-61.8l37.7-21.8c-5.3-28.8-5.3-38 0-66.8l-37.7-21.8c7.5-22.8 19.7-43.8 35.7-61.8l37.7 21.8c22.3-19.1 30.2-23.7 57.8-33.4V77.9c23.6-4.9 47.8-4.9 71.4 0v43.5c27.7 9.8 35.5 14.4 57.8 33.4l37.7-21.8c16 18 28.2 39.1 35.7 61.8l-37.7 21.8c5.3 28.8 5.3 38 0 66.8l37.7 21.8c-7.5 22.7-19.7 43.8-35.7 61.8z"/><path fill="currentColor" d="M250 171.9c-43.1 0-78.1 35-78.1 78.1 0 43.1 35 78.1 78.1 78.1 43.1 0 78.1-35 78.1-78.1 0-43.1-35-78.1-78.1-78.1zm0 130.2c-28.7 0-52.1-23.4-52.1-52.1s23.4-52.1 52.1-52.1 52.1 23.4 52.1 52.1-23.4 52.1-52.1 52.1z"/></symbol><symbol viewBox="0 0 500 500" id="cog_hd" xmlns="http://www.w3.org/2000/svg"><path fill="currentColor" d="M171.9 250c0 23.2 10.1 44 26.2 58.3v-54.6c-.1-1.2-.1-2.4-.1-3.7s.1-2.4.1-3.7v-54.6C182 206 171.9 226.8 171.9 250z"/><path fill="currentColor" d="M214.3 422.1v-43.5c-27.4-9.7-35.3-14.2-57.8-33.4L118.8 367c-16-18-28.2-39.1-35.7-61.8l37.7-21.8c-5.3-28.8-5.3-38 0-66.8l-37.7-21.8c7.5-22.8 19.7-43.8 35.7-61.8l37.7 21.8c22.3-19.1 30.2-23.7 57.8-33.4V77.9c11.8-2.4 23.7-3.6 35.7-3.6v-26c-15.7 0-31.4 1.8-46.7 5.4-8.8 2.1-15 10-15 19v30.6c-12.3 5.2-23.9 11.9-34.5 19.9l-26.5-15.3c-7.8-4.5-17.7-3.1-24 3.5-21.5 22.7-37.7 50.3-46.8 81.1-2.6 8.6 1.2 17.9 9 22.4L92 230.2c-1.7 13.2-1.7 26.6 0 39.8l-26.5 15.3c-7.8 4.5-11.6 13.8-9 22.4 9.1 30.7 25.4 58.4 46.8 81.1 6.2 6.6 16.1 8 24 3.5l26.5-15.3c10.6 8.1 22.2 14.8 34.5 19.9v30.6c0 9.1 6.2 16.9 15 19 15.3 3.6 31 5.4 46.7 5.4v-26c-12-.1-23.9-1.3-35.7-3.8z"/><path class="bbhd_bg" fill="#ff140f" d="M218.9 148.2h208.3c11.5 0 20.8 9.3 20.8 20.8v158.3c0 11.5-9.3 20.8-20.8 20.8H218.9c-11.5 0-20.8-9.3-20.8-20.8V169c0-11.5 9.3-20.8 20.8-20.8z"/><path class="bbhd_text" fill="#fff" d="M257.3 304.2c1.8 0 2.6-.9 2.6-2.6v-39.1h32.8v39.1c0 1.7.9 2.6 2.6 2.6h18.2c1.8 0 2.6-.9 2.6-2.6v-99c0-1.8-.9-2.6-2.6-2.6h-18.2c-1.8 0-2.6.9-2.6 2.6v38.2h-32.8v-38.2c0-1.8-.9-2.6-2.6-2.6h-18.2c-1.8 0-2.6.9-2.6 2.6v99c0 1.7.9 2.6 2.6 2.6h18.2zm119.9 0c5.8 0 11.3-.7 16.3-2 5-1.4 9.4-3.6 13.1-6.8 3.7-3.2 6.7-7.3 8.8-12.5 2.1-5.2 3.1-11.5 3.1-19.1v-23.2c0-7.6-1-14-3.1-19.1-2.1-5.2-5-9.3-8.8-12.5-3.7-3.2-8.1-5.5-13.1-6.9-5-1.4-10.4-2.1-16.3-2.1h-35.9c-1.8 0-2.6.9-2.6 2.6v99c0 1.7.9 2.6 2.6 2.6h35.9zm.3-22.1h-15.3v-60.4h15.3c5.6 0 9.9 1.4 12.7 4.2 2.8 2.8 4.2 7.3 4.2 13.4v25.4c0 6.1-1.4 10.5-4.2 13.3-2.8 2.8-7.1 4.1-12.7 4.1z"/></symbol><symbol viewBox="0 0 500 500" id="collapse" xmlns="http://www.w3.org/2000/svg"><path fill="currentColor" d="M217.3 270.8c6.6 0 11.9 5.3 11.9 11.9v74.4c0 4.9-4 8.9-8.9 8.9h-6c-4.9 0-8.9-4-8.9-8.9v-45.7L82 434.9c-3.5 3.5-9.1 3.5-12.6 0l-4.2-4.2c-3.5-3.5-3.5-9.1 0-12.6l123.4-123.4h-45.7c-4.9 0-8.9-4-8.9-8.9v-6c0-4.9 4-8.9 8.9-8.9h74.4zm139.8 0c4.9 0 8.9 4 8.9 8.9v6c0 4.9-4 8.9-8.9 8.9h-45.7L434.9 418c3.5 3.5 3.5 9.1 0 12.6l-4.2 4.2c-3.5 3.5-9.1 3.5-12.6 0L294.6 311.5v45.7c0 4.9-4 8.9-8.9 8.9h-6c-4.9 0-8.9-4-8.9-8.9v-74.4c0-6.6 5.3-11.9 11.9-11.9h74.4zM418 65.1c3.5-3.5 9.1-3.5 12.6 0l4.2 4.2c3.5 3.5 3.5 9.1 0 12.6L311.5 205.4h45.7c4.9 0 8.9 4 8.9 8.9v6c0 4.9-4 8.9-8.9 8.9h-74.4c-6.6 0-11.9-5.3-11.9-11.9v-74.4c0-4.9 4-8.9 8.9-8.9h6c4.9 0 8.9 4 8.9 8.9v45.7L418 65.1zm-336 0l123.4 123.4v-45.7c0-4.9 4-8.9 8.9-8.9h6c4.9 0 8.9 4 8.9 8.9v74.4c0 6.6-5.3 11.9-11.9 11.9h-74.4c-4.9 0-8.9-4-8.9-8.9v-6c0-4.9 4-8.9 8.9-8.9h45.7L65.1 82c-3.5-3.5-3.5-9.1 0-12.6l4.2-4.2c3.5-3.6 9.2-3.6 12.7-.1z"/></symbol><symbol viewBox="0 0 500 500" id="equalizer" xmlns="http://www.w3.org/2000/svg"><path fill="currentColor" d="M256.4 109.2c3.5 0 6.2 2.8 6.2 6.2v268.8c0 3.5-2.8 6.2-6.2 6.2h-13.5c-3.5 0-6.2-2.8-6.2-6.2V115.4c0-3.5 2.8-6.2 6.2-6.2h13.5zm-117.1 62.5c3.5 0 6.2 2.8 6.2 6.2v143.8c0 3.5-2.8 6.2-6.2 6.2h-13.5c-3.5 0-6.2-2.8-6.2-6.2V177.9c0-3.5 2.8-6.2 6.2-6.2h13.5zm234.4 0c3.5 0 6.2 2.8 6.2 6.2v143.8c0 3.5-2.8 6.2-6.2 6.2h-13.5c-3.5 0-6.2-2.8-6.2-6.2V177.9c0-3.5 2.8-6.2 6.2-6.2h13.5z"/></symbol><symbol viewBox="0 0 500 500" id="expand" xmlns="http://www.w3.org/2000/svg"><path fill="currentColor" d="M432 337.9l.2 84.6c0 5.4-4.4 9.8-9.8 9.8l-84.6-.2c-5.4 0-9.8-4.4-9.8-9.8v-8.1c0-5.4 4.4-9.8 9.8-9.8l47.2.2.6-.6L250 268.4 114.3 404.1l.6.6 47.2-.2c5.4 0 9.8 4.4 9.8 9.8v8.1c0 5.4-4.4 9.8-9.8 9.8l-84.6.2c-5.4 0-9.8-4.4-9.8-9.8l.2-84.6c0-5.4 4.4-9.8 9.8-9.8h8.1c5.4 0 9.8 4.4 9.8 9.8l-.2 47.2.6.6L231.6 250 95.9 114.3l-.6.6.2 47.2c0 5.4-4.4 9.8-9.8 9.8h-8.1c-5.4 0-9.8-4.4-9.8-9.8l-.2-84.6c0-5.4 4.4-9.8 9.8-9.8l84.6.2c5.4 0 9.8 4.4 9.8 9.8v8.1c0 5.4-4.4 9.8-9.8 9.8l-47.2-.2-.6.6L250 231.6 385.7 95.9l-.6-.6-47.2.2c-5.4 0-9.8-4.4-9.8-9.8v-8.1c0-5.4 4.4-9.8 9.8-9.8l84.6-.2c5.4 0 9.8 4.4 9.8 9.8l-.2 84.6c0 5.4-4.4 9.8-9.8 9.8h-8.1c-5.4 0-9.8-4.4-9.8-9.8l.2-47.2-.6-.6L268.4 250l135.7 135.7.6-.6-.2-47.2c0-5.4 4.4-9.8 9.8-9.8h8.1c5.3 0 9.6 4.4 9.6 9.8z"/></symbol><symbol viewBox="0 0 500 500" id="external_link" xmlns="http://www.w3.org/2000/svg"><path fill="currentColor" d="M183.1 336c-3.4-3.4-3.4-8.9 0-12.3L416.9 89.9l-.5-.5-65.1.2c-4.8 0-8.7-3.9-8.7-8.7v-7.2c0-4.8 3.9-8.7 8.7-8.7l98.4-.2c4.8 0 8.7 3.9 8.7 8.7l-.2 98.4c0 4.8-3.9 8.7-8.7 8.7h-7.2c-4.8 0-8.7-3.9-8.7-8.7l.2-65.1-.5-.5L199.5 340c-3.4 3.4-8.9 3.4-12.3 0l-4.1-4zm167.8-112.6l-5.8 5.8c-1.6 1.6-2.5 3.8-2.5 6.1v165.2c0 6.4-5.2 11.6-11.6 11.6H76.4c-6.4 0-11.6-5.2-11.6-11.6V145.8c0-6.4 5.2-11.6 11.6-11.6h245.9c2.3 0 4.5-.9 6.1-2.5l5.8-5.8c5.5-5.5 1.6-14.8-6.1-14.8H76.4c-19.2 0-34.7 15.5-34.7 34.7v254.6c0 19.2 15.5 34.7 34.7 34.7H331c19.2 0 34.7-15.5 34.7-34.7V229.5c0-7.7-9.3-11.6-14.8-6.1z"/></symbol><symbol viewBox="0 0 500 500" id="filters" xmlns="http://www.w3.org/2000/svg"><path fill="currentColor" d="M197.9 178.4v-39.1c0-10.8-8.7-19.5-19.5-19.5h-32.6V48.2c0-3.6-2.9-6.5-6.5-6.5h-13c-3.6 0-6.5 2.9-6.5 6.5v71.6H87.2c-10.8 0-19.5 8.7-19.5 19.5v39.1c0 10.8 8.7 19.5 19.5 19.5h32.6v253.9c0 3.6 2.9 6.5 6.5 6.5h13c3.6 0 6.5-2.9 6.5-6.5V197.9h32.6c10.8 0 19.5-8.7 19.5-19.5zm97.7 123.7H263V48.2c0-3.6-2.9-6.5-6.5-6.5h-13c-3.6 0-6.5 2.9-6.5 6.5v253.9h-32.6c-10.8 0-19.5 8.7-19.5 19.5v39.1c0 10.8 8.7 19.5 19.5 19.5H237v71.6c0 3.6 2.9 6.5 6.5 6.5h13c3.6 0 6.5-2.9 6.5-6.5v-71.6h32.6c10.8 0 19.5-8.7 19.5-19.5v-39.1c0-10.8-8.7-19.5-19.5-19.5zm117.2-130.2h-32.6V48.2c0-3.6-2.9-6.5-6.5-6.5h-13c-3.6 0-6.5 2.9-6.5 6.5v123.7h-32.6c-10.8 0-19.5 8.7-19.5 19.5v39.1c0 10.8 8.7 19.5 19.5 19.5h32.6v201.8c0 3.6 2.9 6.5 6.5 6.5h13c3.6 0 6.5-2.9 6.5-6.5V250h32.6c10.8 0 19.5-8.7 19.5-19.5v-39.1c0-10.8-8.7-19.5-19.5-19.5z"/></symbol><symbol viewBox="0 0 500 500" id="fire_tv_logo" xmlns="http://www.w3.org/2000/svg"><path fill="currentColor" d="M227.9 361.2c-.3-.1-.6-.2-.9-.2-14-1.1-27.9-3.5-41.5-7.1-14.2-3.8-28.1-8.9-41.4-15.3-20.3-9.8-39.2-22.5-55.9-37.8-.7-.5-1.2-1.3-1.5-2.1-.3-.9-.2-1.8.4-2.6.6-.7 1.5-1.1 2.4-1 .9.1 1.7.4 2.5.9 3.7 2.1 7.3 4.2 11.1 6.1 8.7 4.6 17.6 8.8 26.7 12.5 14.5 5.9 29.5 10.8 44.7 14.5 8.7 2.1 17.5 4 26.4 5.3 5.8.9 11.7 1.7 17.5 2.3 5.5.6 11 .9 16.5 1.3 8.3.5 16.7.6 25.1.3 5.6-.2 11.2-.6 16.8-1 7.2-.6 14.4-1.5 21.5-2.7 13.5-2.1 26.8-5.2 39.9-9 11.5-3.4 22.9-7.4 34-12.2 1.2-.5 2.5-.8 3.8-.6 2.7.3 4.5 2.6 4.1 5.1-.2 1.3-1 2.5-2.1 3.2-1.3 1-2.6 1.9-3.9 2.9-9.9 6.9-20.3 12.7-31.3 17.5-14.8 6.5-30.3 11.5-46.1 14.8-6.6 1.4-13.2 2.6-19.9 3.4-3.5.5-7 .7-10.5 1.1-.3.1-.6.1-.9.2l-37.5.2zm227.7-178.9c-.5-1.1-1.5-1.4-2.6-1.4h-9.4c-.6 0-1.2.1-1.8.2-1.1.1-2.1.7-2.5 1.7-.5 1.1-1 2.3-1.4 3.4-5.9 16.8-11.7 33.6-17.6 50.4-1.6 4.7-3.3 9.5-4.9 14.2-.1.3-.1.7-.6.9l-.3-.9c-7.4-21.3-14.8-42.6-22.3-63.9-.4-1.2-.9-2.5-1.4-3.7-.5-1.3-1.7-2.3-3.1-2.3-.4 0-.8-.1-1.2-.1h-10.4c-.4 0-.7.1-1.1.1-.8.1-1.4.8-1.4 1.6 0 .7.1 1.4.3 2 .3.9.6 1.8 1 2.6 4.2 10.6 8.3 21.1 12.5 31.7 5.8 14.8 11.7 29.6 17.5 44.4.3.7.7 1.4 1 2.2.5 1 1.5 1.7 2.6 1.8.8.1 1.6.2 2.4.2h7.8c.8 0 1.5-.1 2.3-.2 1.2-.1 2.2-.8 2.7-1.9.3-.7.7-1.4.9-2.1 3.4-8.6 6.8-17.3 10.2-25.9 6.4-16.2 12.7-32.4 19.1-48.6.6-1.6 1.3-3.3 1.9-4.9v-1.5zm-228.8 45.6h51.4c2.5-.1 3.3-.8 3.7-3.3.8-5.2 1-10.5.7-15.8-.2-3.6-1-7.2-2.1-10.6-2.5-7.1-6.9-12.5-13.5-16-4.6-2.4-9.5-3.4-14.5-3.6-3.8-.2-7.7 0-11.5.6-4.1.6-8 1.9-11.7 3.8-7.6 4-12.8 10.2-16.1 18-2.8 6.5-3.8 13.4-4.1 20.4-.2 4.2 0 8.4.5 12.6.5 4.5 1.5 8.9 3.1 13.1 2.5 6.4 6.3 11.8 11.9 15.8 4.9 3.5 10.4 5.5 16.3 6.4 4.8.8 9.6 1 14.4.7 5.5-.3 11-1.2 16.3-2.8 2.4-.6 4.7-1.5 6.9-2.6 1.5-.7 2.5-2.2 2.4-3.9v-5.6c0-.4-.1-.8-.2-1.2-.3-1.2-1.1-1.8-2.4-1.6-.6.1-1.1.2-1.7.4-6.4 2-12.9 3.7-19.7 4-5 .2-9.9 0-14.7-1.3-7.3-2-12.3-6.6-14.9-13.9-1.1-3.3-1.8-6.8-2.1-10.3-.1-1-.1-2-.2-3.1l1.8-.2zm-1.6-11.3c0-.6.1-1.2.1-1.8.4-4.3 1.3-8.5 3.3-12.4 3-6 7.9-9.5 14.4-10.8 3.7-.7 7.5-.7 11.2.1 6.5 1.4 10.5 5.5 12.3 11.9.7 2.5 1 5.1 1 7.7v3.9c0 .4-.1.9-.2 1.4h-42.1zM60.5 195.8V265c.1 1.3 1.1 2.3 2.4 2.5.5.1 1 .1 1.5.1h8.7c.5 0 1 0 1.5-.1 1.3-.1 2.3-1.2 2.4-2.6v-69c0-.5 0-1 .1-1.7h23.5c1.6-.1 2.6-1.1 2.6-2.7.1-2.6.1-5.2 0-7.8 0-1.5-.9-2.3-2.3-2.6-.5-.1-.9-.1-1.4-.1H78.3c-.4 0-.8 0-1.3-.1 0-.5-.1-.8-.1-1.2V165c0-1.4.2-2.8.4-4.1.8-4.2 3.3-6.9 7.5-7.8 3.4-.8 6.7-.8 10.1-.5 2 .2 4.1.6 6.1.8 2 .2 3-.6 3.1-2.6v-5.2c0-.7-.1-1.3-.2-2-.1-1.1-.8-2-1.8-2.4-.6-.3-1.3-.5-1.9-.7-3-.8-6-1.3-9.1-1.5-4.9-.4-9.7-.2-14.4 1.2-6.6 1.9-11.3 6-14 12.4-1.6 3.9-2.4 8.1-2.4 12.3-.1 5 0 10.1-.1 15.1v1.2c-.2.1-.3.1-.5.1-3.3.4-6.5.8-9.8 1.3-1.3.2-2.5.4-3.7.7-1 .2-1.7 1.1-1.8 2.1-.3 2.2-.3 4.4 0 6.6.1 1 .8 1.8 1.7 2 .6.1 1.1.2 1.7.2h11c.4 0 .8 0 1.3.1v1.5zM322 181.3c-3.4.4-6.7.8-10.1 1.3-1.2.1-2.3.3-3.4.6-1.3.2-2.2 1.4-2.1 2.7-.1 1.8-.1 3.7 0 5.5.1 1.7 1.1 2.6 2.8 2.8h11.5c.4 0 .8.1 1.3.1v50.4c0 3.1.3 6.2 1.1 9.1 1.4 5.3 4.4 9.5 9.3 12.1 3.2 1.6 6.8 2.5 10.4 2.7 5 .4 10 0 14.9-1 1.5-.3 3.1-.8 4.5-1.3 1.3-.4 2.3-1.6 2.3-3 .1-2.5.1-5 .1-7.5 0-.1 0-.2-.1-.3-.3-1.3-.8-1.8-2.2-1.8-.9 0-1.7.2-2.5.3-3.2.7-6.5 1-9.8 1-1.9 0-3.8-.3-5.7-.9-2.6-.8-4.5-2.9-5.1-5.5-.4-1.6-.6-3.2-.6-4.8v-48.6c0-.3 0-.7.1-1.1h22c2.4 0 3.4-1 3.4-3.4V184.5c0-.5-.1-1-.2-1.4-.2-1-.9-1.8-1.9-2-.6-.1-1.1-.2-1.7-.2h-20.4c-.4 0-.8 0-1.3-.1V160c0-2.2-.9-3.3-3.1-3.3-2.5-.1-5.1-.1-7.6 0-2 .1-3 1.1-3.2 3.1-.1 1.2-.3 2.3-.4 3.5-.5 4.9-1 9.9-1.5 14.8-.1 1-.2 2-.4 3.1-.2 0-.3.1-.4.1zm-149.5 11.2c-.3-2.8-.7-5.6-1-8.3-.3-2.2-1.4-3.2-3.5-3.2-2.7-.1-5.4-.1-8.1 0-1.9 0-2.9 1.1-3.1 3v79.9c0 .4 0 .9.1 1.3.2 1.2 1.1 2.1 2.3 2.2.5.1 1.1.1 1.6.1h8.4c.6 0 1.2 0 1.7-.1 1.2-.1 2.2-1 2.3-2.2.1-.7.2-1.4.1-2.2v-58.2c-.1-.8.3-1.5 1-2 7-5.5 15.9-8.1 24.8-7.3 1.2.1 2.3.2 3.5.2 2.1 0 3.1-1 3.1-3.1v-9c0-2-.8-3-2.8-3.1-1.6-.1-3.1-.2-4.7-.2-4.9 0-9.8 1.3-14.1 3.7-3.9 2.2-7.1 5.1-10.2 8.3l-1.4 1.4c.1-.5 0-.8 0-1.2zm-37.9-7.5v-1c-.1-1.8-.9-2.8-2.6-3h-10.6c-.4 0-.9.1-1.3.2-1 .2-1.9 1-2 2.1-.1.6-.2 1.2-.2 1.8v78.6c0 .6.1 1.2.2 1.8.2 1.1 1 2 2.1 2.1.6.1 1.2.2 1.8.2h8.5c.6 0 1.2-.1 1.7-.1 1.1-.1 1.9-.9 2.1-2 .1-.5.2-1.1.2-1.6v-39.6l.1-39.5zm250.6 116.8c1.7.2 3.4.7 4.9 1.4 1.9.9 2.9 2.3 3.2 4.4.4 2.4 0 4.7-.3 7-.9 4.9-2.1 9.6-3.8 14.3-1.9 5.4-4 10.7-6 16.1-.2.4-.3.9-.4 1.4-.3 1.6.7 2.6 2.4 2.2.9-.2 1.8-.7 2.5-1.4 5.7-4.9 9.9-11 13.2-17.7 2.9-5.9 5-12.1 6.3-18.5.9-4.4 1.6-8.8 1.3-13.4-.1-1-.3-2.1-.5-3.1s-.8-1.8-1.7-2.2c-1.1-.6-2.2-1-3.3-1.4-4.1-1.3-8.3-1.8-12.5-2-4.9-.3-9.8-.1-14.7.5-5 .6-9.9 1.8-14.6 3.5-3.7 1.4-7.3 3.2-10.6 5.5-.9.5-1.6 1.3-2 2.2-.6 1.4-.1 2.5 1.4 2.7.3.1.7.1 1 0 3.6-.4 7.1-.8 10.7-1.1 5-.6 10-.8 15-.8 2.8-.1 5.6 0 8.5.4zM116 156.8c.3 3.9 3 7.2 6.7 8.2 2.2.6 4.5.7 6.7.2 3.9-.9 6.3-3.3 7.2-7.3.4-1.6.4-3.2.1-4.8-.7-3.9-3-6.5-6.8-7.6-2-.5-4-.6-6-.2-2.5.4-4.7 1.7-6.1 3.8-1.2 1.8-1.8 4-1.7 6.2-.1.5-.1 1-.1 1.5z"/></symbol><symbol viewBox="0 0 500 500" id="flo_hawk" xmlns="http://www.w3.org/2000/svg"><path fill="currentColor" d="M395.7 226.3c6.3 0 12.5.2 18.6.7l-19 108.4c-62.9.2-118.5 41-137.6 101H145.5c21.4-121.6 126.9-210.1 250.2-210.1zm47.5-162.6L424 171.8H194.5L56.8 63.7h386.4z"/></symbol><symbol viewBox="0 0 4422.562 500" id="flosports-hawk" xmlns="http://www.w3.org/2000/svg"><path class="bjflo-svg-logo-graphic" fill="currentColor" d="M466.775 219.891l-24.957 141.491c-84.184.287-155.371 55.564-179.645 131.76H115.827C143.036 337.4 278.922 218.987 442.48 218.987q12.247 0 24.295.904zM0 6.816l179.755 141.16h299.687l24.891-141.16z"/><path fill="currentColor" class="bjflo-svg-logo-title" d="M702.847 210.863h183.7l-19.412 114.7H683.451l-28.61 167.586H533.06L616.295 6.881h331.724l-20.152 116.756H717.941zm645.694-43.963C1368.529 54.953 1475.364 0 1574.283 0c98.9 0 188.51 55.643 169.229 166.9l-29.234 166.2C1695 444.373 1591.479 500 1487.862 500c-98.9 0-187.836-55.627-168.555-166.9zm91.217 166.2c-5.913 35.032 29.135 52.884 65.464 52.884 39.039 0 82.036-17.852 88.72-56.316l29.119-162.768c6.636-36.412-26.359-54.937-65.4-54.937-39.023 0-82.053 18.525-88.688 54.937zM2020.3 204c80.2 15.783 167.964 46.692 141.851 160.7-19.989 92.73-114.31 135.3-201.108 135.3-72.658 0-137.926-39.137-158.16-116.755l77.158-32.963c12.548 46.709 51.472 69.374 95.881 69.374 48.434 0 98.181-18.542 108.4-61.129 13.3-54.953-37.314-69.373-94.222-78.308-77.618-12.35-152.362-50.124-136.267-146.974C1874.359 44.639 1964.705 0 2048.137 0c71.328 0 133.655 26.787 153.232 103.715l-75.778 31.585c-12.564-45.313-46.315-62.492-90.035-62.492-46.429 0-94.271 21.991-103.764 63.181C1920.92 178.59 1971.5 194.373 2020.3 204zM2323.249 6.881h184.371c109.66 0 150.621 81.035 137.153 160.016-13.549 81.05-82.1 157.978-191.1 157.978h-108.33l-28.626 168.276H2240zm142.327 245.188c58.533 0 95.01-43.259 101.777-83.793 6.766-40.517-15.324-83.1-73.233-81.74h-107.657l-28.544 165.533zm263.779-94.8C2747.749 52.194 2851.809 0 2948.709 0c96.209 0 184.584 52.194 166.19 157.272l-32.568 184.766C3063.936 447.116 2957.84 500 2861.614 500c-96.883 0-183.221-52.884-164.827-157.962zm45.51 184.092c-9.181 52.2 43.046 78.982 100.906 78.982 58.55 0 120.7-26.787 129.895-78.982l31.779-182.022c9.986-55.627-44.376-78.981-102.253-78.981-57.893.689-119.268 24.717-128.531 78.981zm546.446-36.411h-57.2l-31.993 188.2h-78.061L3237.3 6.881h184.371c93.516 0 156.632 43.26 140.849 150.391-15.241 91.365-75.926 134.641-150.292 144.922l114.587 190.957h-94.875zm61.572-69.356c53.836 0 92.317-23.355 101.563-77.635 9.263-54.247-23.732-72.789-75.6-71.426h-106.981L3275.9 235.6zm487.042-149.058l-69.078 406.615h-78.061l69.094-406.615H3647.2l14.19-80.344h367.38l-14.19 80.344zM4241.492 204c80.2 15.783 167.964 46.692 141.851 160.7-19.988 92.73-114.309 135.3-201.107 135.3-72.658 0-137.926-39.137-158.16-116.755l77.158-32.963c12.548 46.709 51.472 69.374 95.881 69.374 48.434 0 98.181-18.542 108.4-61.129 13.3-54.953-37.314-69.373-94.222-78.308-77.618-12.35-152.362-50.124-136.267-146.974C4095.552 44.639 4185.9 0 4269.33 0c71.328 0 133.655 26.787 153.232 103.715l-75.778 31.585c-12.564-45.313-46.315-62.492-90.034-62.492-46.43 0-94.272 21.991-103.765 63.181-10.872 42.601 39.715 58.384 88.507 68.011zm-3077.8 170.693c-29.787-.038-55.433-17.613-50.619-45.992l56.306-323.289h-118.011L995.748 328.7c-17.672 104.167 52.924 163.013 147.707 163.013h75l20.109-117.022z"/></symbol><symbol viewBox="0 0 500 500" id="flosports_logo" xmlns="http://www.w3.org/2000/svg"><path class="bkhawk" fill="#ff140f" d="M75.5 247L73 261.1c-8.4 0-15.5 5.6-18 13.2H40.5c2.7-15.6 16.3-27.4 32.7-27.4.7 0 1.5 0 2.3.1zm-46.6-21.3l18 14.1h30l2.5-14.1H28.9z"/><path class="bkflosports" fill="currentColor" d="M99.2 246.1h18.4l-1.9 11.5H97.2l-2.9 16.8H82.2l8.3-48.6h33.2l-2 11.7h-21l-1.5 8.6zm64.5-4.4c2-11.2 12.7-16.7 22.6-16.7 9.9 0 18.9 5.6 16.9 16.7l-2.9 16.6c-1.9 11.1-12.3 16.7-22.6 16.7-9.9 0-18.8-5.6-16.9-16.7l2.9-16.6zm9.1 16.6c-.6 3.5 2.9 5.3 6.5 5.3 3.9 0 8.2-1.8 8.9-5.6l2.9-16.3c.7-3.6-2.6-5.5-6.5-5.5s-8.2 1.9-8.9 5.5l-2.9 16.6zm58.1-12.9c8 1.6 16.8 4.7 14.2 16.1-2 9.3-11.4 13.5-20.1 13.5-7.3 0-13.8-3.9-15.8-11.7l7.7-3.3c1.3 4.7 5.1 6.9 9.6 6.9 4.8 0 9.8-1.9 10.8-6.1 1.3-5.5-3.7-6.9-9.4-7.8-7.8-1.2-15.2-5-13.6-14.7 2.1-8.9 11.1-13.3 19.4-13.3 7.1 0 13.4 2.7 15.3 10.4l-7.6 3.2c-1.3-4.5-4.6-6.2-9-6.2-4.6 0-9.4 2.2-10.4 6.3-1 4.2 4 5.7 8.9 6.7zm30.3-19.7h18.4c11 0 15.1 8.1 13.7 16-1.4 8.1-8.2 15.8-19.1 15.8h-10.8l-2.9 16.8h-7.7l8.4-48.6zm14.2 24.5c5.9 0 9.5-4.3 10.2-8.4.7-4.1-1.5-8.3-7.3-8.2h-10.8l-2.9 16.6h10.8zm26.4-9.5c1.8-10.5 12.2-15.7 21.9-15.7 9.6 0 18.5 5.2 16.6 15.7l-3.3 18.5c-1.8 10.5-12.4 15.8-22.1 15.8-9.7 0-18.3-5.3-16.5-15.8l3.4-18.5zm4.6 18.4c-.9 5.2 4.3 7.9 10.1 7.9 5.9 0 12.1-2.7 13-7.9l3.2-18.2c1-5.6-4.4-7.9-10.2-7.9-5.8.1-11.9 2.5-12.9 7.9l-3.2 18.2zm54.6-3.6h-5.7l-3.2 18.8h-7.8l8.3-48.6H371c9.4 0 15.7 4.3 14.1 15-1.5 9.1-7.6 13.5-15 14.5l11.5 19.1h-9.5L361 255.5zm6.2-6.9c5.4 0 9.2-2.3 10.2-7.8.9-5.4-2.4-7.3-7.6-7.1h-10.7l-2.6 14.9h10.7zm48.7-14.9l-6.9 40.7h-7.8l6.9-40.7h-14.5l1.4-8h36.7l-1.4 8h-14.4zm37.1 11.7c8 1.6 16.8 4.7 14.2 16.1-2 9.3-11.4 13.5-20.1 13.5-7.3 0-13.8-3.9-15.8-11.7l7.7-3.3c1.3 4.7 5.1 6.9 9.6 6.9 4.8 0 9.8-1.9 10.8-6.1 1.3-5.5-3.7-6.9-9.4-7.8-7.8-1.2-15.2-5-13.6-14.7 2.1-8.9 11.1-13.3 19.4-13.3 7.1 0 13.4 2.7 15.3 10.4l-7.6 3.2c-1.3-4.5-4.6-6.2-9-6.2-4.6 0-9.4 2.2-10.4 6.3-1 4.2 4 5.7 8.9 6.7zm-307.8 17.1c-3 0-5.5-1.8-5.1-4.6l5.6-32.3H134l-5.6 32.3c-1.8 10.4 5.3 16.3 14.8 16.3h7.5l2-11.7h-7.5z"/></symbol><symbol viewBox="0 0 500 500" id="forward_10" xmlns="http://www.w3.org/2000/svg"><path fill="currentColor" d="M225.8 66.1c2.7-3.2 7.5-3.6 10.7-.9l77.2 64.8c3.2 2.7 3.6 7.5.9 10.7l-64.8 77.2c-2.7 3.2-7.5 3.6-10.7.9l-4.8-4c-3.2-2.7-3.6-7.5-.9-10.7l46.3-55.2c-47.7-10.8-99.5 4.9-133 44.9-48.1 57.3-40.2 142.3 16.6 190 57.3 48.1 142.3 40.2 190-16.6 22.3-26.6 32.6-59.2 31.5-91.3-.1-4 2.9-7.4 6.9-7.8l6.3-.5c4.3-.4 8.1 3 8.2 7.3 1.4 37.3-10.6 75.2-36.5 106.1-55.4 66-153.8 74.7-219.9 19.4C83.9 345.3 75 246.5 130 180.5c36.9-44.3 93.2-63 146.2-54l-53.4-44.8c-3.2-2.7-3.6-7.5-.9-10.7l3.9-4.9zm49.4 175.4c4.6 0 8.9.7 12.8 2 4 1.3 7.4 3.3 10.2 6s5.1 6 6.8 10 2.4 8.7 2.4 14v28.7c-.1 5.2-.9 9.8-2.4 13.7-1.6 4.1-3.9 7.5-6.8 10.2s-6.3 4.7-10.2 6.1c-4 1.3-8.2 2-12.8 2-4.6 0-8.9-.7-12.8-2-4-1.3-7.4-3.4-10.3-6.1s-5.1-6.1-6.8-10.2c-1.7-4.1-2.5-8.9-2.5-14.4v-28.7c.1-5.1.9-9.5 2.5-13.3 1.7-4 3.9-7.3 6.8-10s6.3-4.7 10.3-6c4-1.3 8.2-2 12.8-2zm-50.6 1.6h.2c1.3.1 1.9.8 1.9 2.2v85.1c-.1 1.3-.8 1.9-2.1 1.9h-15.3c-1.3-.1-1.9-.8-1.9-2.1v-64.1l-11 8-.2.1c-1.2.7-2.2.5-3-.7l-7-11-.1-.1c-.6-1-.3-1.9.7-2.9l21.8-15.5.2-.2c.8-.5 1.6-.7 2.5-.7h13.3zm50.6 16.8c-1.8 0-3.4.2-5 .7-1.6.5-3 1.2-4.1 2.2-1.2 1-2.1 2.4-2.8 4.1-.7 1.7-1.1 3.8-1.1 6.2v29.7c0 2.3.4 4.2 1.1 5.8.7 1.7 1.6 3 2.8 4.1 1.2 1 2.5 1.8 4.1 2.2 1.6.5 3.2.7 5 .7s3.4-.2 5-.7c1.6-.5 3-1.2 4.1-2.2 1.2-1 2.1-2.4 2.8-4.1.7-1.7 1.1-3.8 1.1-6.2v-29.7c0-2.3-.4-4.2-1.1-5.8-.7-1.7-1.6-3-2.8-4.1-1.2-1-2.5-1.8-4.1-2.2-1.6-.5-3.2-.7-5-.7z"/></symbol><symbol viewBox="0 0 500 500" id="google_logo" xmlns="http://www.w3.org/2000/svg"><path class="bmgoogle_color_4" fill="#4285f4" d="M459 255.4c0-14.9-1.2-29.8-3.6-44.5H251.2v84.5h117c-4.8 27.2-20.4 51.4-43.3 66.8v54.9h69.8C435.6 379 459 322.6 459 255.4z" clip-rule="evenodd"/><path class="bmgoogle_color_3" fill="#34a853" d="M251.2 470.3c58.4 0 107.7-19.5 143.5-53.1l-69.8-54.9c-19.6 13.4-44.5 21.1-73.7 21.1-56.6 0-104.4-38.8-121.5-90.6h-72v56.8c36.7 74 111.6 120.7 193.5 120.7z" clip-rule="evenodd"/><path class="bmgoogle_color_2" fill="#fbbc04" d="M129.6 292.7c-9-27.3-9-56.9 0-84.2V152H57.7c-31 62.1-31 135.1 0 197.1l71.9-56.4z" clip-rule="evenodd"/><path class="bmgoogle_color_1" fill="#ea4335" d="M251.2 117.8c31-.6 60.9 11.3 83 33l62-62.9c-39.1-37.1-91.1-57.6-145-57.1-81.8 0-156.7 47-193.4 121.1l71.9 56.8c17.1-52.1 64.9-90.9 121.5-90.9z" clip-rule="evenodd"/></symbol><symbol viewBox="0 0 500 500" id="info_circle" xmlns="http://www.w3.org/2000/svg"><path fill="currentColor" d="M250 74.2c96.5 0 175.8 78.2 175.8 175.8 0 97.1-78.6 175.8-175.8 175.8-97 0-175.8-78.6-175.8-175.8 0-97 78.6-175.8 175.8-175.8zm0-26C138.5 48.2 48.2 138.6 48.2 250c0 111.5 90.4 201.8 201.8 201.8S451.8 361.5 451.8 250c0-111.4-90.3-201.8-201.8-201.8zm-29.3 279.9h9.8v-97.7h-9.8c-5.4 0-9.8-4.4-9.8-9.8v-6.5c0-5.4 4.4-9.8 9.8-9.8h39.1c5.4 0 9.8 4.4 9.8 9.8V328h9.8c5.4 0 9.8 4.4 9.8 9.8v6.5c0 5.4-4.4 9.8-9.8 9.8h-58.6c-5.4 0-9.8-4.4-9.8-9.8v-6.5c-.1-5.3 4.3-9.7 9.7-9.7zM250 132.8c-14.4 0-26 11.7-26 26s11.7 26 26 26 26-11.7 26-26-11.6-26-26-26z"/></symbol><symbol viewBox="0 0 500 500" id="info_circle_solid" xmlns="http://www.w3.org/2000/svg"><path fill="currentColor" d="M250 48.2c111.5 0 201.8 90.4 201.8 201.8 0 111.5-90.4 201.8-201.8 201.8S48.2 361.5 48.2 250c0-111.4 90.3-201.8 201.8-201.8zm13.7 154.9h-39.1c-5.4 0-9.8 4.4-9.8 9.8v6.5c0 5.4 4.4 9.8 9.8 9.8h9.8v97.7h-9.8c-5.4 0-9.8 4.4-9.8 9.8v6.5c0 5.4 4.4 9.8 9.8 9.8h58.6c5.4 0 9.8-4.4 9.8-9.8v-6.5c0-5.4-4.4-9.8-9.8-9.8h-9.8v-114c0-5.4-4.3-9.8-9.7-9.8zm-9.8-71.6c-14.4 0-26 11.7-26 26s11.7 26 26 26c14.4 0 26-11.7 26-26s-11.6-26-26-26z"/></symbol><symbol viewBox="0 0 500 500" id="ios_logo" xmlns="http://www.w3.org/2000/svg"><path class="bpios_bgcolor" fill="#fff" d="M140.413 496.581h219.18a136.986 136.986 0 00136.988-136.988v-219.18A136.986 136.986 0 00359.593 3.425h-219.18A136.986 136.986 0 003.425 140.413v219.18a136.986 136.986 0 00136.988 136.988z"/><path class="bpios_border" fill="#eeeef0" d="M359.59 500H140.416C62.993 500 0 437.019 0 359.59V140.416C0 62.993 62.993 0 140.416 0H359.59C437.019 0 500 62.993 500 140.416V359.59C500 437.019 437.019 500 359.59 500zM140.416 6.851C66.767 6.851 6.851 66.767 6.851 140.416V359.59c0 73.649 59.916 133.571 133.565 133.571H359.59c73.649 0 133.571-59.922 133.571-133.571V140.416c0-73.649-59.922-133.565-133.571-133.565z"/><path class="bpios_yellow" fill="#ffc107" d="M96.344 167.454a10.439 10.439 0 1010.438 10.439 10.439 10.439 0 00-10.438-10.439z"/><path class="bpios_orange" fill="#ff5722" d="M140.166 220l19.781-8.357c9.316-16.712 25.138-26.4 45.645-26.4a58.181 58.181 0 0113.178 1.557l18.795-7.932a71.426 71.426 0 00-31.973-7.205c-32.74-.003-56.092 17.983-65.426 48.337zm-36.781 15.534v-21.49H89.358v27.425z"/><path class="bpios_dessert" fill="#f44336" d="M103.385 273.743v-38.206l-14.027 5.932v38.192zm47.192-21.713c0-16.013 3.37-29.63 9.37-40.384L140.166 220a108.668 108.668 0 00-4.566 32.03c0 2.754.383 5.233.548 7.864l14.548-6.151c-.009-.589-.119-1.11-.119-1.713zm187.386-77.37a55.026 55.026 0 00-10.6 4.479zm-100.4 4.205L218.77 186.8c14.068 3.247 25.041 11.822 32.192 24.6l14-5.918a61.647 61.647 0 00-27.397-26.617z"/><path class="bpios_rose" fill="#e91e63" d="M103.385 311.935v-38.192l-14.027 5.918v38.192zM337.963 174.66l-10.6 4.479c-13.466 7.494-21.6 20.055-21.6 35.343a41.3 41.3 0 001.6 11.3l14.137-5.973a22.792 22.792 0 01-.767-5.754c0-16.808 15.3-29 37.452-29 10.9 0 20.1 2.918 26.822 7.932l14.357-6.069c-9.507-9.37-23.768-15.247-40.741-15.247a69.676 69.676 0 00-20.66 2.989zm-187.276 79.1l-14.548 6.151c.808 13.137 3.562 24.809 8.178 34.74l13.754-5.808c-4.589-9.785-7.165-21.58-7.384-35.087zm114.275-48.26l-14 5.918c5.219 9.342 8.26 20.986 9.014 34.384l14.534-6.138c-1.288-12.99-4.41-24.564-9.548-34.164z"/><path class="bpios_purple" fill="#9c27b0" d="M272.044 278.88a112.631 112.631 0 003.315-26.85 119.508 119.508 0 00-.863-12.383l-14.534 6.137c.123 2.1.411 4.055.411 6.246a87.639 87.639 0 01-6.589 34.562zm-113.96 9.945l-13.753 5.809c5.589 12.041 13.808 21.479 24.342 27.918l17.234-7.274c-12.343-4.631-21.836-13.713-27.823-26.453zm-54.7 23.11l-14.027 5.918v11.452h14.027zM321.511 219.8l-14.138 5.973c3.357 11.863 12.535 20.151 29.165 25.877l21.918-9.26-4.63-1.165c-19.959-4.989-29.768-11.4-32.315-21.425zm75.329-7.151h14.767a39.65 39.65 0 00-12.233-25.739l-14.356 6.068a29.359 29.359 0 0111.822 19.668z"/><path class="bpios_blue" fill="#3f51b5" d="M272.044 278.88l-18.26 7.712c-8.617 20.22-25.343 32.329-48.206 32.329a55.2 55.2 0 01-19.685-3.657l-17.233 7.274c10.3 6.288 22.575 9.973 36.918 9.973 34.836 0 58.384-20.302 66.466-53.631zm44.1 10.288h-14.771a42.462 42.462 0 003.617 13.986l13.548-5.726a28.3 28.3 0 01-2.397-8.26zm52.973-44.083l-10.675-2.685-21.918 9.261a119.884 119.884 0 0010.439 3.068l17.658 4.493c9.78 2.411 17.219 5.466 22.726 9.165l16.507-6.973c-7.233-7.055-18.535-12.314-34.74-16.329z"/><path class="bpcyan" fill="#03a9f4" d="M318.538 297.442l-13.548 5.726c5.164 11.918 15.6 20.973 29.671 25.658l23.179-9.781c-18.891-.452-33.658-8.822-39.302-21.603zm94.672-1.781a45.516 45.516 0 00.863-8.192c0-10.74-3.2-19.233-10.206-26.055l-16.507 6.973c7.932 5.342 11.727 12.1 11.727 20.685a25.311 25.311 0 01-4.768 14.562z"/><path class="bpgreen" fill="#009688" d="M413.21 295.661l-18.891 7.986c-6.465 9.343-19.1 15.507-34.931 15.507-.535 0-1.014-.082-1.535-.1l-23.178 9.781a73.927 73.927 0 0023.425 3.685c30.233-.009 51.014-14.52 55.11-36.859z"/></symbol><symbol viewBox="0 0 500 500" id="left_arrow" xmlns="http://www.w3.org/2000/svg"><path fill="currentColor" d="M256.1 71.3l5.8 5.8c3.8 3.8 3.8 10 0 13.8L116.6 236.2h305.9c5.4 0 9.8 4.4 9.8 9.8v8.1c0 5.4-4.4 9.8-9.8 9.8H116.6l145.3 145.3c3.8 3.8 3.8 10 0 13.8l-5.8 5.8c-3.8 3.8-10 3.8-13.8 0L70.6 256.9c-3.8-3.8-3.8-10 0-13.8L242.3 71.3c3.8-3.8 10-3.8 13.8 0z"/></symbol><symbol viewBox="0 0 500 500" id="location" xmlns="http://www.w3.org/2000/svg"><path fill="currentColor" d="M250 119.8c-43.1 0-78.1 35-78.1 78.1s35 78.1 78.1 78.1 78.1-35 78.1-78.1-35-78.1-78.1-78.1zm0 130.2c-28.7 0-52.1-23.4-52.1-52.1s23.4-52.1 52.1-52.1 52.1 23.4 52.1 52.1S278.7 250 250 250zm0-208.3c-86.3 0-156.2 70-156.2 156.2 0 63 21.9 80.6 140.2 252 7.8 11.2 24.4 11.2 32.1 0 118.2-171.4 140.2-189 140.2-252-.1-86.3-70-156.2-156.3-156.2zm0 385.7C136.6 263.5 119.8 250.4 119.8 198c0-34.8 13.5-67.5 38.1-92.1s57.3-38.1 92.1-38.1 67.5 13.5 92.1 38.1c24.6 24.6 38.1 57.3 38.1 92.1 0 52.4-16.8 65.4-130.2 229.4z"/></symbol><symbol viewBox="0 0 500 500" id="location_blocked" xmlns="http://www.w3.org/2000/svg"><path fill="currentColor" d="M142.4 285.9c-26.5-40.6-32.2-57.7-32.2-88 0-34.8 13.5-67.5 38.1-92.1 24.6-24.6 57.3-38.1 92.1-38.1s67.5 13.5 92.1 38.1c4.5 4.5 8.7 9.3 12.4 14.4l20.2-16.5c-28.5-37.7-73.7-62-124.6-62-86.3 0-156.2 70-156.2 156.2 0 37.1 7.6 58.4 37.9 104.6l20.2-16.6zm228.2-93.7c.1 1.9.1 3.8.1 5.8 0 52.5-16.8 65.5-130.2 229.4-22.7-32.9-41.6-59.7-57.2-82L163.1 362c16.8 24 37.1 52.7 61.4 88 7.8 11.2 24.4 11.2 32.1 0 118.2-171.4 140.2-189 140.2-252 0-8.7-.7-17.2-2.1-25.5l-24.1 19.7z"/><path fill="currentColor" d="M240.5 145.8c18.4 0 34.6 9.6 43.8 24l20.2-16.6c-14.1-20.2-37.6-33.5-64.1-33.5-43.1 0-78.1 35-78.1 78.1 0 20.9 8.3 39.9 21.7 54l20.2-16.6c-9.8-9.5-15.9-22.7-15.9-37.4.1-28.6 23.5-52 52.2-52zm215.6-70.1c-3.7-4.6-10.1-5.7-15.1-2.9l-1.8 1.2L45.4 396.3c-5.1 4.2-5.9 11.7-1.7 16.9 3.7 4.6 10.1 5.7 15.1 2.9l1.8-1.2L454.4 92.6c5.1-4.2 5.9-11.7 1.7-16.9z"/></symbol><symbol viewBox="0 0 500 500" id="lock" xmlns="http://www.w3.org/2000/svg"><path fill="currentColor" d="M392.9 223.9h-13v-50.8c0-71.8-57.7-130.9-129.5-131.2-71.9-.2-130.4 58.2-130.4 130v52h-13c-21.5 0-39 17.5-39 39v155.9c0 21.5 17.5 39 39 39h285.9c21.5 0 39-17.5 39-39V262.9c0-21.5-17.4-39-39-39zm-246.9-52c0-57.3 46.6-104 104-104s104 46.6 104 104v52H146v-52zm246.9 259.9H107.1c-7.1 0-13-5.8-13-13V262.9c0-7.1 5.8-13 13-13H393c7.1 0 13 5.8 13 13v155.9c-.1 7.2-5.9 13-13.1 13z"/></symbol><symbol viewBox="0 0 500 500" id="menu_hamburger" xmlns="http://www.w3.org/2000/svg"><path fill="currentColor" d="M302.1 84v19.5c0 2.7-2.2 4.9-4.9 4.9H72.6c-2.7 0-4.9-2.2-4.9-4.9V84c0-2.7 2.2-4.9 4.9-4.9h224.6c2.7 0 4.9 2.2 4.9 4.9zM72.6 212.6h354.8c2.7 0 4.9-2.2 4.9-4.9v-19.5c0-2.7-2.2-4.9-4.9-4.9H72.6c-2.7 0-4.9 2.2-4.9 4.9v19.5c0 2.7 2.2 4.9 4.9 4.9zm0 208.3h354.8c2.7 0 4.9-2.2 4.9-4.9v-19.5c0-2.7-2.2-4.9-4.9-4.9H72.6c-2.7 0-4.9 2.2-4.9 4.9V416c0 2.7 2.2 4.9 4.9 4.9zm224.6-133.5H72.6c-2.7 0-4.9 2.2-4.9 4.9v19.5c0 2.7 2.2 4.9 4.9 4.9h224.6c2.7 0 4.9-2.2 4.9-4.9v-19.5c0-2.7-2.2-4.9-4.9-4.9z"/></symbol><symbol viewBox="0 0 500 500" id="mic" xmlns="http://www.w3.org/2000/svg"><path fill="currentColor" d="M250 312.5c34.5 0 62.5-28 62.5-62.5V145.8c0-34.5-28-62.5-62.5-62.5s-62.5 28-62.5 62.5V250c0 34.5 28 62.5 62.5 62.5zm-41.7-166.7c0-23 18.7-41.7 41.7-41.7s41.7 18.7 41.7 41.7V250c0 23-18.7 41.7-41.7 41.7S208.3 273 208.3 250V145.8zM349 208.3h-10.4c-2.9 0-5.2 2.3-5.2 5.2V250c0 47.8-40.5 86.4-89 83.1-44.3-2.9-77.6-41.7-77.6-86.1v-33.5c0-2.9-2.3-5.2-5.2-5.2H151c-2.9 0-5.2 2.3-5.2 5.2v32.8c0 54.3 40.1 101.6 93.8 107.1v42.5h-46.9c-2.9 0-5.2 2.3-5.2 5.2v10.4c0 2.9 2.3 5.2 5.2 5.2h114.6c2.9 0 5.2-2.3 5.2-5.2V401c0-2.9-2.3-5.2-5.2-5.2h-46.9v-42.3c52.5-5.3 93.8-49.6 93.8-103.5v-36.5c0-2.8-2.4-5.2-5.2-5.2z"/></symbol><symbol viewBox="0 0 500 500" id="mic_mute" xmlns="http://www.w3.org/2000/svg"><path fill="currentColor" d="M456.2 399.3L57.1 85.1c-1.1-.9-2.5-1.3-3.8-1.1-1.4.2-2.6.8-3.5 1.9L43.3 94c-.9 1.1-1.3 2.5-1.1 3.8s.8 2.6 1.9 3.5l399.1 314.3c1.1.9 2.5 1.3 3.8 1.1 1.4-.2 2.6-.8 3.5-1.9l6.5-8.1c1.8-2.3 1.5-5.6-.8-7.4zm-102-149v-36.4c0-2.9-2.3-5.2-5.2-5.2h-10.4c-2.9 0-5.2 2.3-5.2 5.2v36.4c0 8-1.5 15.6-3.6 22.9l17.6 13.8c4.3-11.3 6.8-23.7 6.8-36.7zm-145.6-104c0-22.9 18.7-41.6 41.6-41.6s41.6 18.7 41.6 41.6v97l19.9 15.7c.4-2.9.9-5.7.9-8.7v-104c0-34.5-27.9-62.4-62.4-62.4s-62.4 27.9-62.4 62.4v15.1l20.8 16.4v-31.5zm41.6 166.4c8.2 0 15.9-1.7 23.1-4.5l-20.9-16.5c-.7 0-1.4.2-2.1.2-20.3 0-37.3-14.7-40.8-34l-21.6-17v9.4c-.1 34.5 27.8 62.4 62.3 62.4zm57.2 83.2h-46.8v-42.3c17.7-1.8 33.9-8.3 47.8-17.8l-17.2-13.5c-13.7 7.8-29.6 12.1-46.7 11-44.2-2.9-77.5-41.7-77.5-85.9v-22.9l-18.5-14.6c-1.3.9-2.3 2.3-2.3 4v32.7c0 54.2 40.1 101.5 93.6 106.9v42.4H193c-2.9 0-5.2 2.3-5.2 5.2v10.4c0 2.9 2.3 5.2 5.2 5.2h114.4c2.9 0 5.2-2.3 5.2-5.2v-10.4c0-2.8-2.3-5.2-5.2-5.2z"/></symbol><symbol viewBox="0 0 500 500" id="minus" xmlns="http://www.w3.org/2000/svg"><path fill="currentColor" d="M103.5 264.6c-5.4 0-9.8-4.4-9.8-9.8V245c0-5.4 4.4-9.8 9.8-9.8h293c5.4 0 9.8 4.4 9.8 9.8v9.8c0 5.4-4.4 9.8-9.8 9.8h-293z"/></symbol><symbol viewBox="0 0 500 500" id="minus_circle_outline" xmlns="http://www.w3.org/2000/svg"><path fill="currentColor" d="M155.6 264.6c-5.4 0-9.8-4.4-9.8-9.8V245c0-5.4 4.4-9.8 9.8-9.8h188.8c5.4 0 9.8 4.4 9.8 9.8v9.8c0 5.4-4.4 9.8-9.8 9.8H155.6zM451.8 250c0 111.5-90.3 201.8-201.8 201.8S48.2 361.5 48.2 250 138.5 48.2 250 48.2 451.8 138.5 451.8 250zm-26 0c0-97.6-79.2-175.8-175.8-175.8-97.6 0-175.8 79.2-175.8 175.8 0 97.6 79.2 175.8 175.8 175.8 97.6 0 175.8-79.2 175.8-175.8z"/></symbol><symbol viewBox="0 0 500 500" id="minus_outline" xmlns="http://www.w3.org/2000/svg"><path fill="currentColor" d="M250 48.2c111.5 0 201.8 90.3 201.8 201.8S361.5 451.8 250 451.8 48.2 361.5 48.2 250 138.5 48.2 250 48.2zm94.4 187.2H155.6c-5.4 0-9.8 4.4-9.8 9.8v9.8c0 5.4 4.4 9.8 9.8 9.8h188.8c5.4 0 9.8-4.4 9.8-9.8v-9.8c0-5.5-4.4-9.8-9.8-9.8z"/></symbol><symbol viewBox="0 0 500 500" id="outlook_logo" xmlns="http://www.w3.org/2000/svg"><path fill="currentColor" d="M286.9 39.7V461L41.7 409.5V87.1l245.2-47.4zm171.4 139.6v151.4c0 16.5-10.6 23.4-22.4 23.4H302.4v-112l26.3 18.1c3.4 2.5 7.3.5 8.1.1.6-.7 121.5-81 121.5-81zM167 176.6c-17.1 0-30.9 6.9-41.3 20.8-10.4 13.8-15.6 32-15.6 54.4 0 21.2 5.1 38.4 15.3 51.7 10.2 13.2 23.5 19.8 39.7 19.8 16.7 0 30.2-6.8 40.6-20.5 10.4-13.6 15.6-31.6 15.5-53.9 0-21.7-5-39.2-15-52.4-9.9-13.2-23-19.9-39.2-19.9zm-.7 27.5c8.7 0 15.6 4.1 20.6 12.2 5 8.2 7.5 19.6 7.5 34.3 0 14.1-2.6 25.1-7.8 33.1-5.2 7.9-12.2 11.9-21 11.9-8.5 0-15.5-4.1-20.7-12.2-5.3-8.2-7.9-19.3-7.9-33.3 0-13.8 2.6-25 7.9-33.4 5.4-8.4 12.5-12.6 21.4-12.6zM440.7 129c5.2 0 14.4 7.1 14.4 17l-123.9 83.6-28.8-18.1V129h138.3z"/></symbol><symbol viewBox="0 0 500 500" id="plus" xmlns="http://www.w3.org/2000/svg"><path fill="currentColor" d="M406.2 245.1v9.8c0 5.4-4.4 9.8-9.8 9.8H264.6v131.8c0 5.4-4.4 9.8-9.8 9.8H245c-5.4 0-9.8-4.4-9.8-9.8V264.6H103.5c-5.4 0-9.8-4.4-9.8-9.8V245c0-5.4 4.4-9.8 9.8-9.8h131.8V103.5c0-5.4 4.4-9.8 9.8-9.8h9.8c5.4 0 9.8 4.4 9.8 9.8v131.8h131.8c5.4.1 9.7 4.4 9.7 9.8z"/></symbol><symbol viewBox="0 0 500 500" id="plus_circle_outline" xmlns="http://www.w3.org/2000/svg"><path fill="currentColor" d="M354.2 245.1v9.8c0 5.4-4.4 9.8-9.8 9.8h-79.8v79.8c0 5.4-4.4 9.8-9.8 9.8H245c-5.4 0-9.8-4.4-9.8-9.8v-79.8h-79.8c-5.4 0-9.8-4.4-9.8-9.8v-9.8c0-5.4 4.4-9.8 9.8-9.8h79.8v-79.8c0-5.4 4.4-9.8 9.8-9.8h9.8c5.4 0 9.8 4.4 9.8 9.8v79.8h79.8c5.4.1 9.8 4.4 9.8 9.8zm97.6 4.9c0 111.5-90.3 201.8-201.8 201.8S48.2 361.5 48.2 250 138.5 48.2 250 48.2 451.8 138.5 451.8 250zm-26 0c0-97.6-79.2-175.8-175.8-175.8-97.6 0-175.8 79.2-175.8 175.8 0 97.6 79.2 175.8 175.8 175.8 97.6 0 175.8-79.2 175.8-175.8z"/></symbol><symbol viewBox="0 0 500 500" id="plus_outline" xmlns="http://www.w3.org/2000/svg"><path fill="currentColor" d="M250 48.2c111.5 0 201.8 90.3 201.8 201.8S361.5 451.8 250 451.8 48.2 361.5 48.2 250 138.5 48.2 250 48.2zm4.9 97.6h-9.8c-5.4 0-9.8 4.4-9.8 9.8v79.8h-79.8c-5.4 0-9.8 4.4-9.8 9.8v9.8c0 5.4 4.4 9.8 9.8 9.8h79.8v79.8c0 5.4 4.4 9.8 9.8 9.8h9.8c5.4 0 9.8-4.4 9.8-9.8v-79.8h79.8c5.4 0 9.8-4.4 9.8-9.8v-9.8c0-5.4-4.4-9.8-9.8-9.8h-79.8v-79.8c-.1-5.4-4.4-9.8-9.8-9.8z"/></symbol><symbol viewBox="0 0 500 500" id="right_arrow" xmlns="http://www.w3.org/2000/svg"><path fill="currentColor" d="M243.9 71.3l-5.8 5.8c-3.8 3.8-3.8 10 0 13.8l145.3 145.3H77.5c-5.4 0-9.8 4.4-9.8 9.8v8.1c0 5.4 4.4 9.8 9.8 9.8h305.9L238.1 409.1c-3.8 3.8-3.8 10 0 13.8l5.8 5.8c3.8 3.8 10 3.8 13.8 0l171.8-171.8c3.8-3.8 3.8-10 0-13.8L257.7 71.3c-3.8-3.8-10-3.8-13.8 0z"/></symbol><symbol viewBox="0 0 500 500" id="roku_logo" xmlns="http://www.w3.org/2000/svg"><path fill="currentColor" d="M143.6 229.2c0-23-22.3-41.7-49.5-41.7H46.8v124.9h33v-41.6h10l29.7 41.7H157l-34.9-49c12.9-7.7 21.5-20.2 21.5-34.3zM90.3 250h-9.1v-41.7h9.1c10.1 0 18.4 9.3 18.4 20.9.1 11.5-8.2 20.8-18.4 20.8zm362.9-34.6v95.1h-7l-14.8-12.6c-6.1 6.9-18.7 14.6-32.4 14.6-28.9 0-40.3-17.3-40.3-36.1v-56.5l-41.7 41 50.3 49.6H326l-39.6-38.6v38.6h-32.9v-95.2h32.9v37.5l37.9-37.3h67.4v52.1c0 15.1 3.7 19.9 11.8 19.9 8 0 13.1-4 16.9-10.4v-61.6h32.8zm-258.4-.1c-28.5 0-51.6 21.6-51.6 48.6s23 48.6 51.6 48.6c28.5 0 51.8-21.6 51.8-48.6s-23.3-48.6-51.8-48.6zm0 69.4c-9.3 0-17.1-10.9-17.1-24.3s7.9-24.3 17.1-24.3c9.5 0 17.3 10.9 17.3 24.3s-7.9 24.3-17.3 24.3z"/></symbol><symbol viewBox="0 0 500 500" id="search" xmlns="http://www.w3.org/2000/svg"><path fill="currentColor" d="M455.2 433.3L350.4 328.6c-1.9-1.9-4.3-2.8-6.9-2.8h-8.4C363 295.6 380 255.4 380 211.1c0-93.3-75.6-168.9-168.9-168.9S42.2 117.8 42.2 211.1 117.8 380 211.1 380c44.3 0 84.5-17.1 114.6-44.8v8.3c0 2.6 1.1 5 2.8 6.9l104.8 104.8c3.8 3.8 10 3.8 13.8 0l8-8c3.9-3.9 3.9-10.1.1-13.9zm-244.1-79.2c-79 0-142.9-63.9-142.9-142.9s63.9-143 142.9-143S354 132.1 354 211.1s-63.9 143-142.9 143z"/></symbol><symbol viewBox="0 0 500 500" id="share" xmlns="http://www.w3.org/2000/svg"><path fill="currentColor" d="M432.3 380.2c0 43.1-35 78.1-78.1 78.1s-78.1-35-78.1-78.1c0-10.6 2.1-20.6 5.9-29.8l-77.7-48.5c-14.3 16.1-35.2 26.3-58.4 26.3-43.1 0-78.1-35-78.1-78.1s35-78.1 78.1-78.1c23.2 0 44.1 10.2 58.4 26.3l77.7-48.5c-3.8-9.2-5.9-19.2-5.9-29.8 0-43.1 35-78.1 78.1-78.1s78.1 35 78.1 78.1-35 78.1-78.1 78.1c-23.2 0-44.1-10.2-58.4-26.3l-77.7 48.5c7.9 19 7.8 40.6 0 59.6l77.7 48.5c14.3-16.1 35.2-26.3 58.4-26.3 43.1 0 78.1 35 78.1 78.1zM354.2 67.7c-28.7 0-52.1 23.4-52.1 52.1s23.4 52.1 52.1 52.1c28.7 0 52.1-23.4 52.1-52.1s-23.4-52.1-52.1-52.1zM145.8 197.9c-28.7 0-52.1 23.4-52.1 52.1s23.4 52.1 52.1 52.1c28.7 0 52.1-23.4 52.1-52.1s-23.3-52.1-52.1-52.1zm208.4 130.2c-28.7 0-52.1 23.4-52.1 52.1 0 28.7 23.4 52.1 52.1 52.1 28.7 0 52.1-23.4 52.1-52.1-.1-28.7-23.4-52.1-52.1-52.1z"/></symbol><symbol viewBox="0 0 500 500" id="streaming" xmlns="http://www.w3.org/2000/svg"><path fill="currentColor" d="M46.3 348h15.3c2.5 0 4.6 2.1 4.6 4.6v88.8c0 2.5-2.1 4.6-4.6 4.6H46.3c-2.5 0-4.6-2.1-4.6-4.6v-88.8c0-2.5 2-4.6 4.6-4.6zm93.4-32.1v125.6c0 2.5 2.1 4.6 4.6 4.6h15.3c2.5 0 4.6-2.1 4.6-4.6V315.9c0-2.5-2.1-4.6-4.6-4.6h-15.3c-2.5 0-4.6 2-4.6 4.6zm98-61.3v186.9c0 2.5 2.1 4.6 4.6 4.6h15.3c2.5 0 4.6-2.1 4.6-4.6V254.6c0-2.5-2.1-4.6-4.6-4.6h-15.3c-2.5 0-4.6 2.1-4.6 4.6zm98.1-85.8v272.7c0 2.5 2.1 4.6 4.6 4.6h15.3c2.5 0 4.6-2.1 4.6-4.6V168.8c0-2.5-2.1-4.6-4.6-4.6h-15.3c-2.5 0-4.6 2.1-4.6 4.6zm98-110.3v383c0 2.5 2.1 4.6 4.6 4.6h15.3c2.5 0 4.6-2.1 4.6-4.6v-383c0-2.5-2.1-4.6-4.6-4.6h-15.3c-2.5 0-4.6 2.1-4.6 4.6z"/></symbol><symbol viewBox="0 0 500 500" id="tv" xmlns="http://www.w3.org/2000/svg"><path fill="currentColor" d="M427.1 83.3H72.9c-17.3 0-31.2 14-31.2 31.2v208.3c0 17.3 14 31.2 31.2 31.2h166.7v41.7H135.4c-5.7 0-10.4 4.7-10.4 10.4s4.7 10.4 10.4 10.4h229.2c5.7 0 10.4-4.7 10.4-10.4s-4.7-10.4-10.4-10.4H260.4V354h166.7c17.3 0 31.2-14 31.2-31.2V114.6c0-17.3-14-31.3-31.2-31.3zm10.4 239.6c0 5.7-4.7 10.4-10.4 10.4H72.9c-5.7 0-10.4-4.7-10.4-10.4V114.6c0-5.7 4.7-10.4 10.4-10.4h354.2c5.7 0 10.4 4.7 10.4 10.4v208.3z"/></symbol><symbol viewBox="0 0 500 500" id="user" xmlns="http://www.w3.org/2000/svg"><path fill="currentColor" d="M322.9 276c-23.4 0-34.6 13-72.9 13s-49.5-13-72.9-13c-60.4 0-109.4 49-109.4 109.4v33.9c0 21.6 17.5 39.1 39.1 39.1h286.5c21.6 0 39.1-17.5 39.1-39.1v-33.9C432.3 325 383.3 276 322.9 276zm83.3 143.3c0 7.2-5.9 13-13 13H106.8c-7.2 0-13-5.9-13-13v-33.9c0-46 37.4-83.3 83.3-83.3 16 0 31.8 13 72.9 13 41 0 57-13 72.9-13 46 0 83.3 37.4 83.3 83.3v33.9zM250 250c57.5 0 104.2-46.6 104.2-104.2S307.5 41.7 250 41.7 145.8 88.3 145.8 145.8 192.5 250 250 250zm0-182.3c43.1 0 78.1 35.1 78.1 78.1S293.1 224 250 224s-78.1-35.1-78.1-78.1 35-78.2 78.1-78.2z"/></symbol><symbol viewBox="0 0 500 500" id="varsity_logo" xmlns="http://www.w3.org/2000/svg"><path class="clvarsity_logo_v" fill="currentColor" d="M31.5 251.9H16.4s5.9-13.8 13.8-21.5c2.7-2.6 6.4-5.6 9.2-5.6h14.3c-1.4 0-10.4 2.3-22.2 27.1zm76.4 33.9c-2 3.7-4.9 9.9-8.8 13.9-2.4-2.8-3.6-6.4-3.5-10.1v-5c30.5-57.3 46.8-87.8 46.8-87.8h-15.2s-10.7 20.6-31.7 59.8v-17.9s-.3-13.9-11.3-13.9H69c-3 0-6.7 2.8-9.5 5.6-8 7.8-14.4 21.5-14.4 21.5h7.8v37.8c0 5.7 2.4 13.5 11.5 13.5h13.5C67.2 302 68 289.8 68 289.8v-51.3c2.6-3.8 5.6-7.6 8.8-10.3 2.5 3 3.8 6.7 3.7 10.6v50.9c0 4.9 2.4 13.5 11.5 13.5h15.3c7.5-.1 12.8-11.8 15.8-17.5 30.8-58 47.2-88.8 47.2-88.8h-15.2c.1-.1-15.9 30.6-47.2 88.9zm-30 17.3c.1.1.3.1.5 0h-.5z"/><path class="clvarsity_logo_text" fill="#247BB8" d="M313.1 245.7c1.5 1.9 2.3 4.3 2.1 6.7 0 6.3-5 9.7-11 9.7-3.5.3-6.9-.8-9.7-3l3.4-5.9c1.8 1.5 4 2.3 6.4 2.1 2.8 0 4.1-1 4.1-2.8 0-.6-.2-1.3-.6-1.8-.5-.5-1.2-.8-1.9-.8l-3.4-.5c-2.2-.2-4.2-1.2-5.7-2.7-1.4-1.7-2.2-3.9-2.1-6.1 0-5.6 3.9-9.7 10.4-9.7 3.1-.2 6.1.7 8.5 2.6l-3.3 5.8c-1.4-1.4-3.4-2.1-5.4-1.8-.8-.1-1.7.1-2.3.7-.7.5-1 1.3-1.1 2.2 0 .5.2 1 .6 1.4.6.5 1.3.9 2.1.9l3.4.5c2.1.2 4 1.1 5.5 2.5zm15.8 16.1h7v-30.6h-7v30.6zm19.2-23.9h7v24h7v-24h7v-6.7h-21v6.7zm-128.8 24h8l9.1-18v18h7v-30.7h-7.1l-17 30.7zm-18.6-12.7v-18h-7v30.7h7.1l17-30.7h-8l-9.1 18zm80.1-8.1c.1-2.6-.9-5.2-2.7-7.1-1.9-1.9-4.4-2.9-7.1-2.8h-11.3v30.7h7.1v-24h3.9c.8 0 1.6.3 2.2.9.6.6.9 1.4.8 2.2 0 .8-.3 1.7-.8 2.3-.5.6-1.4 1-2.2 1h-3.9l8.7 17.6h8l-7.4-12.8c3.1-1.7 4.8-4.7 4.7-8zm108.7 1.1l-5.4-11h-8l9.9 18.2v12.5h7v-12.5l9.9-18.2h-8l-5.4 11zm38.4-4.3h7v24h7v-24h7v-6.7h-21v6.7zm47.6-6.7l-9.1 18v-18h-7v30.7h7.1l17-30.7h-8z"/></symbol><symbol viewBox="0 0 500 500" id="varsity_logo_pill" xmlns="http://www.w3.org/2000/svg"><path class="cmvarsity_logo_pill_v" fill="currentColor" d="M27.5 251.4h-11s4.3-10.1 10-15.7c2-1.9 4.7-4.1 6.7-4.1h10.4c-1 0-7.6 1.7-16.1 19.8zm90.1-40.3s-11.7 22.5-34.5 65c-1.4 2.7-3.6 7.3-6.4 10.2-2.1-2.4-2.5-5-2.5-7.4v-3.6c22.2-41.9 34.1-64.3 34.1-64.3h-11s-7.8 15-23.1 43.7v-13.1s-.2-10.2-8.2-10.2H54.7c-2.2 0-4.8 2.1-6.9 4.1-5.8 5.7-10.4 15.7-10.4 15.7H43V279c0 4.2 1.7 9.9 8.4 9.8h10.2c-8.2-.6-7.5-9.8-7.5-9.8v-37.4c1.9-2.8 4.1-5.6 6.4-7.6 3 3.5 2.7 7.7 2.7 7.7V279c0 3.6 1.7 9.8 8.4 9.8h11c5.5-.1 9.3-8.6 11.5-12.8 22.5-42.4 34.5-65 34.5-65h-11z"/><path class="cmvarsity_logo_pill" fill="#247BB8" d="M136.4 254.3v.6-.6zm347.2 0v.6-.6zm-30.2-29.5H166.5c-16.6 0-30 13.4-30.2 29.9.2 16.5 13.6 29.9 30.2 29.9h286.8c16.6 0 30-13.4 30.2-29.9-.1-16.6-13.6-29.9-30.1-29.9"/><path class="cmvarsity_logo_pill_text" fill="#fff" d="M285.4 254.9c1.5 1.6 2.1 3.9 2.1 6.7 0 6.2-4.9 9.6-10.9 9.6-3.8 0-7-.7-9.6-3l3.3-5.9c1.5 1.6 4.1 2.2 6.3 2.2 2.8 0 4.1-1 4.1-2.8 0-.7-.2-1.3-.6-1.8-.4-.4-.9-.7-1.9-.8l-3.4-.5c-2.5-.4-4.4-1.3-5.7-2.7-1.3-1.5-2-3.5-2-6.1 0-5.6 3.9-9.7 10.3-9.7 3.5 0 6.2.7 8.4 2.6l-3.3 5.8c-1.8-1.9-4.1-1.8-5.4-1.8-2.4 0-3.4 1.5-3.4 2.8 0 .4.1 1 .6 1.4.4.4 1 .8 2 .9l3.4.5c2.7.4 4.5 1.3 5.7 2.6zm15.6 16h7v-30.5h-7v30.5zm19.1-23.9h6.9v23.9h7V247h6.9v-6.7h-20.8v6.7zm-128 23.9h8l9-17.9v17.9h7v-30.6h-7l-17 30.6zm-18.5-12.6v-18h-7v30.6h7.1l16.9-30.6h-8l-9 18zm79.6-8.1c0-5-3.4-9.8-9.7-9.8h-11.2v30.5h6.9V247h3.9c1.9 0 3 1.5 3 3.1s-1.1 3.2-3 3.2h-3.9l8.7 17.5h8l-7.3-12.8c2.3-1.1 4.6-3.7 4.6-7.8zm108 1.1l-5.4-11h-7.9l9.9 18.1v12.4h7v-12.4l9.9-18.1h-7.9l-5.6 11zm38.2-4.3h6.9v23.9h7V247h7v-6.7h-20.8v6.7zm47.3-6.7l-9 18v-18h-7v30.6h7.1l16.9-30.6h-8z"/></symbol><symbol viewBox="0 0 500 500" id="varsity_rounded_logo" xmlns="http://www.w3.org/2000/svg"><path fill="currentColor" d="M443.1 226H170.8c-15.7 0-28.5 12.7-28.6 28.4.2 15.7 12.9 28.4 28.6 28.4h272.3c15.7 0 28.5-12.7 28.6-28.4-.1-15.7-12.9-28.4-28.6-28.4zm-265.6 44.3h-6.7v-29h6.6v17.1l8.6-17.1h7.6l-16.1 29zm40.3 0h-6.6v-17l-8.6 17H195l16.1-29h6.7v29zm30.3 0l-8.2-16.7v16.7h-6.6v-29h10.6c6 0 9.2 4.6 9.2 9.3 0 3.9-2.2 6.4-4.3 7.6l6.9 12.1h-7.6zm27.1-.2c-3.6 0-6.6-.6-9.1-2.8l3.2-5.6c1.4 1.5 3.9 2 6 2 2.6 0 3.8-1 3.8-2.6 0-.7-.2-1.3-.5-1.7-.3-.4-.9-.7-1.8-.8l-3.2-.5c-2.4-.4-4.2-1.2-5.4-2.6-1.2-1.4-1.8-3.3-1.8-5.8 0-5.3 3.7-9.2 9.8-9.2 3.3 0 5.9.7 8 2.5l-3.1 5.5c-1.7-1.8-3.9-1.7-5.1-1.7-2.3 0-3.2 1.4-3.2 2.7 0 .4.1.9.5 1.4.4.4.9.7 1.9.8l3.2.5c2.4.4 4.1 1.2 5.3 2.4 1.4 1.5 2 3.7 2 6.4-.1 5.9-4.8 9.1-10.5 9.1zm29.8-.3h-6.6v-29h6.6v29zm31.3-22.6h-6.6v22.7h-6.6v-22.7h-6.6v-6.3h19.8v6.3zm22.6 10.8v11.8h-6.6V258l-9.4-17.2h7.5l5.1 10.5 5.1-10.5h7.5l-9.2 17.2zm23.1 11.8h-6.6v-6.6h6.6v6.6zm29.6-22.6H405v22.7h-6.6v-22.7h-6.6v-6.3h19.8v6.3zm16.6 22.6h-6.7v-29h6.6v17.1l8.6-17.1h7.6l-16.1 29zm-184.6-16.1h-3.7v-6h3.7c1.8 0 2.9 1.4 2.9 2.9s-1.1 3.1-2.9 3.1zm-204.9-2.4H28.3s4.1-9.6 9.5-14.9c1.9-1.8 4.5-3.9 6.4-3.9H54c-.9.1-7.1 1.6-15.3 18.8zm85.6-38.2s-11.1 21.4-32.7 61.8c-1.4 2.6-3.4 6.9-6.1 9.6-2-2.3-2.4-4.8-2.4-7v-3.4c21.1-39.8 32.4-61 32.4-61H105s-7.4 14.3-21.9 41.5v-12.4s-.2-9.7-7.8-9.7H64.5c-2.1 0-4.6 1.9-6.6 3.9-5.5 5.4-9.9 14.9-9.9 14.9h5.4v26.2c0 4 1.7 9.4 8 9.3H71c-7.7-.6-7.1-9.3-7.1-9.3V242c1.8-2.7 3.9-5.3 6.1-7.2 2.9 3.4 2.6 7.3 2.6 7.3v35.3c0 3.4 1.7 9.3 8 9.3H91c5.2-.1 8.9-8.2 11-12.1 21.3-40.2 32.7-61.7 32.7-61.7h-10.4z"/></symbol><symbol viewBox="0 0 500 500" id="varsity_stacked" xmlns="http://www.w3.org/2000/svg"><path fill="currentColor" d="M416.5 279.5h-49.1c62.2-117.4 95.2-179.3 95.2-179.3h-41.8s-32 61.7-94.7 179.3h-35.7c62.2-117.3 95.1-179.1 95.1-179.1h-41.8s-29.6 56.9-87.5 165.6v-49.3s-.7-38.7-31.1-38.7h-42.8c-8.3 0-18.4 7.7-26.3 15.5-21.8 21.4-39.4 59.6-39.4 59.6h21.6v26.5H74.1c-19.8 0-35.8 16-36 35.6.2 19.8 16.2 35.6 36 35.6h64.1v7c0 15.8 6.7 37.4 31.7 37.3h38.5c-31-2.3-28.4-37.3-28.4-37.3v-7h34.7v6.8c0 13.7 6.5 37.3 31.7 37.3h41.8c19-.2 32.9-27.5 41.5-44.1h87c19.8 0 35.8-16 36-35.6-.2-19.9-16.4-35.7-36.2-35.7zM82.6 333.3h-8.3v-36.5h8.3v21.4l10.8-21.4h9.5l-20.3 36.5zm50.8 0h-8.5v-21.4l-10.8 21.4h-9.4l20.2-36.5h8.5v36.5zM180 216c7.2-10.6 15.7-21.2 24.5-28.6 11.5 13.5 10.3 29.3 10.3 29.3v62.6H180V216zm-8.5 117.3l-10.4-20.9v20.9h-8.3v-36.5h13.3c7.6 0 11.5 5.8 11.5 11.7 0 5-2.7 8.1-5.4 9.5l8.8 15.3h-9.5zm34 .3c-4.5 0-8.3-.7-11.5-3.6l4-7c1.8 2 4.9 2.5 7.6 2.5 3.2 0 4.9-1.3 4.9-3.2 0-.9-.2-1.6-.7-2.2-.4-.5-1.1-.9-2.2-.9l-4.1-.7c-3.1-.5-5.2-1.6-6.8-3.2-1.6-1.8-2.3-4.1-2.3-7.4 0-6.7 4.7-11.5 12.4-11.5 4.1 0 7.4.9 10.1 3.1l-4 6.8c-2.2-2.3-5-2.2-6.5-2.2-2.9 0-4.1 1.8-4.1 3.4 0 .5.2 1.1.7 1.6.4.5 1.1.9 2.3 1.1l4.1.5c3.1.5 5.2 1.4 6.7 3.1 1.8 2 2.5 4.7 2.5 7.9-.1 7.8-6 11.9-13.1 11.9zm37.5-.3h-8.3v-36.5h8.3v36.5zm14.4-36.6h25v8.1h-8.3v28.4h-8.5v-28.4h-8.3v-8.1zm8.4 88.6c-7.9-9.2-9.5-18.9-9.5-27.9v-6.7H288c-5.4 10.4-12.8 24.9-22.2 34.6zm44.9-67v14.9h-8.3v-14.9l-11.7-21.6h9.4l6.5 13.1 6.5-13.1h9.5l-11.9 21.6zm66.4-13.5h-8.3v28.4h-8.3v-28.4h-8.3v-8.1H377v8.1zm20.9 28.5h-8.5v-36.5h8.3v21.4l10.8-21.4h9.5L398 333.3zM79.2 253H37.4s16.2-38.3 38.2-59.6c7.6-7.2 17.8-15.5 25.4-15.5h38.2c-6.4 1.4-30 11.7-60 75.1zm61.2-75.2v.2h-1.2c.5-.2.9-.2 1.2-.2zm29 130.8c0 2-1.3 3.8-3.6 3.8h-4.7v-7.6h4.7c2.3 0 3.6 1.8 3.6 3.8z"/></symbol><symbol viewBox="0 0 500 500" id="varsity_stacked_color" xmlns="http://www.w3.org/2000/svg"><path class="cpvarsity_stacked_v" fill="currentColor" d="M140.4 177.9h-1.2c.5-.1.9-.2 1.2-.2v.2zm-1.3 0h-38.2c-7.6 0-17.8 8.3-25.4 15.5-22 21.2-38.2 59.6-38.2 59.6h41.8c30.1-63.4 53.7-73.7 60-75.1zm281.7-77.7s-44.3 85.3-130.7 246.6c-5.6 10.3-13.7 27.5-24.3 38.5-7.9-9.2-9.5-18.9-9.5-27.9v-13.5c84.2-159 129.3-243.6 129.3-243.6h-41.8s-29.6 56.9-87.5 165.7v-49.4s-.7-38.7-31.1-38.7h-42.8c-8.3 0-18.4 7.7-26.3 15.5-21.8 21.4-39.4 59.6-39.4 59.6h21.6v104.8c0 15.8 6.7 37.4 31.7 37.3h38.5c-31-2.3-28.4-37.3-28.4-37.3V216c7.2-10.6 15.7-21.2 24.5-28.6 11.5 13.5 10.3 29.3 10.3 29.3v140.8c0 13.7 6.5 37.3 31.7 37.3h41.8c20.7-.2 35.5-32.8 43.7-48.4 85.1-160.8 130.7-246.3 130.7-246.3h-42z"/><path class="cpvarsity_stacked_pill" fill="#247BB8" d="M38.1 314.8v.7-.7zm414.6 0v.8-.8zm-36.2-35.3H74.1c-19.8 0-35.8 16-36 35.6.2 19.8 16.2 35.6 36 35.6h342.6c19.8 0 35.8-16 36-35.6-.2-19.8-16.4-35.6-36.2-35.6"/><path class="cpvarsity_stacked_pill_text" fill="#fff" d="M216 313.9c1.8 2 2.5 4.7 2.5 7.9 0 7.7-5.9 11.9-13 11.9-4.5 0-8.3-.7-11.5-3.6l4-7c1.8 2 4.9 2.5 7.6 2.5 3.2 0 4.9-1.3 4.9-3.2 0-.9-.2-1.6-.7-2.2-.4-.5-1.1-.9-2.2-.9l-4.1-.7c-3.1-.5-5.2-1.6-6.8-3.2-1.6-1.8-2.3-4.1-2.3-7.4 0-6.7 4.7-11.5 12.4-11.5 4.1 0 7.4.9 10.1 3.1l-4 6.8c-2.2-2.3-5-2.2-6.5-2.2-2.9 0-4.1 1.8-4.1 3.4 0 .5.2 1.1.7 1.6.4.5 1.1.9 2.3 1.1l4.1.5c3 .5 5.1 1.4 6.6 3.1zm18.7 19.4h8.3v-36.5h-8.3v36.5zm22.7-28.4h8.3v28.4h8.5v-28.4h8.3v-8.1h-25v8.1zm-152.7 28.4h9.4l10.8-21.4v21.4h8.5v-36.5h-8.5l-20.2 36.5zm-22.1-15.1v-21.4h-8.3v36.5h8.3l20.3-36.5h-9.5l-10.8 21.4zm95-9.7c0-5.9-4-11.7-11.5-11.7h-13.3v36.5h8.3v-28.5h4.7c2.3 0 3.6 1.8 3.6 3.8s-1.3 3.8-3.6 3.8h-4.7l10.4 20.9h9.5l-8.8-15.3c2.7-1.4 5.4-4.5 5.4-9.5zm128.9 1.4l-6.5-13.1h-9.4l11.7 21.6v14.9h8.3v-14.9l11.9-21.6H313l-6.5 13.1zm45.7-5h8.3v28.4h8.3v-28.4h8.3v-8.1h-24.8v8.1zm56.4-8.2l-10.8 21.4v-21.4h-8.3v36.5h8.5l20.2-36.5h-9.6z"/></symbol><symbol viewBox="0 0 500 500" id="varsity_white_logo" xmlns="http://www.w3.org/2000/svg"><path fill="currentColor" d="M313.1 245.7c1.5 1.9 2.3 4.3 2.1 6.7 0 6.3-5 9.7-11 9.7-3.5.3-6.9-.8-9.7-3l3.4-5.9c1.8 1.5 4 2.3 6.4 2.1 2.8 0 4.1-1 4.1-2.8 0-.6-.2-1.3-.6-1.8-.5-.5-1.2-.8-1.9-.8l-3.4-.5c-2.2-.2-4.2-1.2-5.7-2.7-1.4-1.7-2.2-3.9-2.1-6.1 0-5.6 3.9-9.7 10.4-9.7 3.1-.2 6.1.7 8.5 2.6l-3.3 5.8c-1.4-1.4-3.4-2.1-5.4-1.8-.8-.1-1.7.1-2.3.7-.7.5-1 1.3-1.1 2.2 0 .5.2 1 .6 1.4.6.5 1.3.9 2.1.9l3.4.5c2.1.2 4 1.1 5.5 2.5zm15.8 16.1h7v-30.6h-7v30.6zm19.2-23.9h7v24h7v-24h7v-6.7h-21v6.7zm-128.8 24h8l9.1-18v18h7v-30.7h-7.1l-17 30.7zm-18.6-12.7v-18h-7v30.7h7.1l17-30.7h-8l-9.1 18zm80.1-8.1c.1-2.6-.9-5.2-2.7-7.1-1.9-1.9-4.4-2.9-7.1-2.8h-11.3v30.7h7.1v-24h3.9c.8 0 1.6.3 2.2.9.6.6.9 1.4.8 2.2 0 .8-.3 1.7-.8 2.3s-1.4 1-2.2 1h-3.9l8.7 17.6h8l-7.4-12.8c3.1-1.7 4.8-4.7 4.7-8zm108.7 1.1l-5.4-11h-8l9.9 18.2v12.5h7v-12.5l9.9-18.2h-8l-5.4 11zm38.4-4.3h7v24h7v-24h7v-6.7h-21v6.7zm47.6-6.7l-9.1 18v-18h-7v30.7h7.1l17-30.7h-8zm-421.8-6.4H39.4c-2.8 0-6.5 3-9.2 5.6-7.9 7.7-13.8 21.5-13.8 21.5h15.1c11.8-24.8 20.8-27.1 22.2-27.1zm24.7 78.3h-.5c.1.1.3.1.5 0zm29.5-17.3c-2 3.7-4.9 9.9-8.8 13.9-2.4-2.8-3.6-6.4-3.5-10.1v-5c30.5-57.3 46.8-87.8 46.8-87.8h-15.2s-10.7 20.6-31.7 59.8v-17.9s-.3-13.9-11.3-13.9H69c-3 0-6.7 2.8-9.5 5.6-8 7.8-14.4 21.5-14.4 21.5h7.8v37.8c0 5.7 2.4 13.5 11.5 13.5h13.5C67.2 302 68 289.8 68 289.8v-51.3c2.6-3.8 5.6-7.6 8.8-10.3 2.5 3 3.8 6.7 3.7 10.6v50.9c0 4.9 2.4 13.5 11.5 13.5h15.3c7.5-.1 12.8-11.8 15.8-17.5 30.8-58 47.2-88.8 47.2-88.8h-15.2c.1-.1-15.9 30.6-47.2 88.9z"/></symbol><symbol viewBox="0 0 500 500" id="vid_2up_active" xmlns="http://www.w3.org/2000/svg"><path fill="currentColor" d="M70.8 321.8c-12.5 0-27.1-6.2-27.1-20.8V196.8c0-12.5 14.6-20.8 27.1-20.8h137.5c12.5 0 27.1 8.3 27.1 20.8V301c0 14.6-14.6 20.8-27.1 20.8H70.8zM429.1 176H291.6c-12.5 0-27.1 8.3-27.1 20.8V301c0 12.5 14.6 20.8 27.1 20.8h137.5c12.5 0 27.1-6.2 27.1-20.8V196.8c0-12.5-14.6-20.8-27.1-20.8zM91.6 138.5c0-8.3-2.1-25 10.4-25h295.8c12.5 0 10.4 16.7 10.4 25 0 12.5 29.2 12.5 29.2 0v-22.9c0-16.7-14.6-31.2-31.2-31.2H93.7C77 84.4 62.5 99 62.5 115.6v22.9c-.1 12.5 29.1 12.5 29.1 0zm316.6 222.9c0 8.3 2.1 25-10.4 25H102c-12.5 0-10.4-16.7-10.4-25 0-12.5-29.2-12.5-29.2 0v22.9c0 16.7 14.6 31.2 31.2 31.2h312.5c16.7 0 31.2-14.6 31.2-31.2v-22.9c.1-12.5-29.1-12.5-29.1 0z"/></symbol><symbol viewBox="0 0 500 500" id="vid_2up_inactive" xmlns="http://www.w3.org/2000/svg"><path fill="currentColor" d="M208.2 321.8c12.5 0 27.1-6.2 27.1-20.8V196.8c0-12.5-14.6-20.8-27.1-20.8H70.8c-12.5 0-27.1 8.3-27.1 20.8V301c0 14.6 14.6 20.8 27.1 20.8h137.4zM70.8 213.5c0-8.3 10.4-14.6 18.8-14.6h95.8c8.3 0 18.8 6.2 18.8 14.6v72.9c0 10.4-10.4 14.6-18.8 14.6H89.5c-8.3 0-18.8-6.2-18.8-14.6v-72.9zM429.1 176H291.6c-12.5 0-27.1 8.3-27.1 20.8V301c0 12.5 14.6 20.8 27.1 20.8h137.5c12.5 0 27.1-6.2 27.1-20.8V196.8c0-12.5-14.6-20.8-27.1-20.8zM427 286.4c0 10.4-10.4 14.6-18.8 14.6h-95.8c-8.3 0-18.8-6.2-18.8-14.6v-72.9c0-8.3 10.4-14.6 18.8-14.6h95.8c8.3 0 18.8 6.2 18.8 14.6v72.9zM62.4 138.5v-22.9c0-16.7 14.6-31.2 31.2-31.2h312.5c16.7 0 31.2 14.6 31.2 31.2v22.9c0 12.5-29.2 12.5-29.2 0 0-8.3 2.1-25-10.4-25H102c-12.5 0-10.4 16.7-10.4 25 0 12.5-29.2 12.5-29.2 0zm375 222.9v22.9c0 16.7-14.6 31.2-31.2 31.2H93.7c-16.7 0-31.2-14.6-31.2-31.2v-22.9c0-12.5 29.2-12.5 29.2 0 0 8.3-2.1 25 10.4 25h295.8c12.5 0 10.4-16.7 10.4-25-.1-12.5 29.1-12.5 29.1 0z"/></symbol><symbol viewBox="0 0 500 500" id="vid_4up_active" xmlns="http://www.w3.org/2000/svg"><path fill="currentColor" d="M278.1 208.3V104.2c0-12.5 12.5-20.8 25-20.8h129.2c12.5 0 27.1 6.2 25 20.8v104.2c0 12.5-12.5 20.8-25 20.8H303.1c-10.4 0-25-8.4-25-20.9zm154.1 62.5H303.1c-12.5 0-25 8.3-25 20.8v104.2c0 12.5 14.6 20.8 25 20.8h129.2c12.5 0 25-8.3 25-20.8V291.7c2-14.6-12.5-20.9-25.1-20.9zm-235.4 0H67.7c-12.5 0-25 8.3-25 20.8v104.2c0 12.5 14.6 20.8 25 20.8h129.2c12.5 0 25-8.3 25-20.8V291.7c2-14.6-12.6-20.9-25.1-20.9zm0-187.5H67.7c-12.5 0-25 8.3-25 20.8v104.2c0 12.5 14.6 20.8 25 20.8h129.2c12.5 0 25-8.3 25-20.8V104.2c2-14.6-12.6-20.9-25.1-20.9z"/></symbol><symbol viewBox="0 0 500 500" id="vid_4up_inactive" xmlns="http://www.w3.org/2000/svg"><path fill="currentColor" d="M303.1 229.2h129.2c12.5 0 25-8.3 25-20.8V104.2c2.1-14.6-12.5-20.8-25-20.8H303.1c-12.5 0-25 8.3-25 20.8v104.2c0 12.4 14.6 20.8 25 20.8zm0-107.2c0-6.8 9.1-13.7 18.1-13.7h95c9.1 0 18.1 4.6 18.1 13.7v68.5c0 9.1-11.3 13.7-18.1 13.7h-95c-9.1 0-18.1-4.6-18.1-13.7V122zm129.1 148.8H303.1c-12.5 0-25 8.3-25 20.8v104.2c0 12.5 14.6 20.8 25 20.8h129.2c12.5 0 25-8.3 25-20.8V291.7c2-14.6-12.5-20.9-25.1-20.9zm2.1 107.2c0 9.1-11.3 13.7-18.1 13.7h-95c-9.1 0-18.1-4.6-18.1-13.7v-68.5c0-6.8 9.1-13.7 18.1-13.7h95c9.1 0 18.1 4.6 18.1 13.7V378zM196.8 270.8H67.7c-12.5 0-25 8.3-25 20.8v104.2c0 12.5 14.6 20.8 25 20.8h129.2c12.5 0 25-8.3 25-20.8V291.7c2-14.6-12.6-20.9-25.1-20.9zm2.1 107.2c0 9.1-11.3 13.7-18.1 13.7h-95c-9.1 0-18.1-4.6-18.1-13.7v-68.5c0-6.8 9.1-13.7 18.1-13.7h95c9.1 0 18.1 4.6 18.1 13.7V378zm-2.1-294.7H67.7c-12.5 0-25 8.3-25 20.8v104.2c0 12.5 14.6 20.8 25 20.8h129.2c12.5 0 25-8.3 25-20.8V104.2c2-14.6-12.6-20.9-25.1-20.9zm2.1 107.2c0 9.1-11.3 13.7-18.1 13.7h-95c-9.1 0-18.1-4.6-18.1-13.7V122c0-6.8 9.1-13.7 18.1-13.7h95c9.1 0 18.1 4.6 18.1 13.7v68.5z"/></symbol><symbol viewBox="0 0 500 500" id="vid_pause" xmlns="http://www.w3.org/2000/svg"><path fill="currentColor" d="M106.8 432.5h78.1c21.6 0 39.1-17.5 39.1-39.1V107c0-21.6-17.5-39.1-39.1-39.1h-78.1c-21.6 0-39.1 17.5-39.1 39.1v286.5c0 21.5 17.5 39 39.1 39zm208.3 0h78.1c21.6 0 39.1-17.5 39.1-39.1V107c0-21.6-17.5-39.1-39.1-39.1h-78.1c-21.6 0-39.1 17.5-39.1 39.1v286.5c0 21.5 17.5 39 39.1 39z"/></symbol><symbol viewBox="0 0 500 500" id="vid_pause_outline" xmlns="http://www.w3.org/2000/svg"><path fill="currentColor" d="M106.8 432.5h78.1c21.6 0 39.1-17.5 39.1-39.1V107c0-21.6-17.5-39.1-39.1-39.1h-78.1c-21.6 0-39.1 17.5-39.1 39.1v286.5c0 21.5 17.5 39 39.1 39zM93.8 107c0-7.2 5.9-13 13-13h78.1c7.2 0 13 5.9 13 13v286.5c0 7.2-5.9 13-13 13h-78.1c-7.2 0-13-5.9-13-13V107zm221.3 325.5h78.1c21.6 0 39.1-17.5 39.1-39.1V107c0-21.6-17.5-39.1-39.1-39.1h-78.1c-21.6 0-39.1 17.5-39.1 39.1v286.5c0 21.5 17.5 39 39.1 39zm-13-325.5c0-7.2 5.9-13 13-13h78.1c7.2 0 13 5.9 13 13v286.5c0 7.2-5.9 13-13 13h-78.1c-7.2 0-13-5.9-13-13V107z"/></symbol><symbol viewBox="0 0 500 500" id="vid_pip_active" xmlns="http://www.w3.org/2000/svg"><path fill="currentColor" d="M431.2 83.3H302.1c-12.5 0-25 8.3-25 20.8v104.2c0 12.5 14.6 20.8 25 20.8h129.2c12.5 0 25-8.3 25-20.8V104.2c2-14.6-12.5-20.9-25.1-20.9zm-2 185.5v108.3c0 6.2-4.2 10.4-10.4 10.4H81.2c-6.2 0-10.4-4.2-10.4-10.4V122.9c0-6.2 4.2-10.4 10.4-10.4h156.2c14.6 0 14.6-29.2 0-29.2H72.9c-16.7 0-31.2 14.6-31.2 31.2v270.8c0 16.7 14.6 31.2 31.2 31.2h354.2c16.7 0 31.2-14.6 31.2-31.2V268.8c0-14.6-29.1-14.6-29.1 0z"/></symbol><symbol viewBox="0 0 500 500" id="vid_pip_inactive" xmlns="http://www.w3.org/2000/svg"><path fill="currentColor" d="M431.2 83.3H302.1c-12.5 0-25 8.3-25 20.8v104.2c0 12.5 14.6 20.8 25 20.8h129.2c12.5 0 25-8.3 25-20.8V104.2c2-14.6-12.5-20.9-25.1-20.9zm2.1 107.2c0 9.1-11.3 13.7-18.1 13.7h-95c-9.1 0-18.1-4.6-18.1-13.7V122c0-6.8 9.1-13.7 18.1-13.7h95c9.1 0 18.1 4.6 18.1 13.7v68.5zm-4.1 78.3v108.3c0 6.2-4.2 10.4-10.4 10.4H81.2c-6.2 0-10.4-4.2-10.4-10.4V122.9c0-6.2 4.2-10.4 10.4-10.4h156.2c14.6 0 14.6-29.2 0-29.2H72.9c-16.7 0-31.2 14.6-31.2 31.2v270.8c0 16.7 14.6 31.2 31.2 31.2h354.2c16.7 0 31.2-14.6 31.2-31.2V268.8c0-14.6-29.1-14.6-29.1 0z"/></symbol><symbol viewBox="0 0 500 500" id="vid_play" xmlns="http://www.w3.org/2000/svg"><path fill="currentColor" d="M412.8 216.5l-285.9-169c-23.2-13.7-58.8-.4-58.8 33.5v338c0 30.5 33.1 48.8 58.8 33.5l285.9-168.9c25.5-15 25.6-52 0-67.1z"/></symbol><symbol viewBox="0 0 500 500" id="vid_play_icon" xmlns="http://www.w3.org/2000/svg"><path fill="currentColor" d="M412.8 216.5l-285.9-169c-23.2-13.7-58.8-.4-58.8 33.5v338c0 30.5 33.1 48.8 58.8 33.5l285.9-168.9c25.5-15 25.6-52 0-67.1z"/></symbol><symbol viewBox="0 0 500 500" id="vid_play_icon_outline" xmlns="http://www.w3.org/2000/svg"><path fill="currentColor" d="M412.8 216.5l-285.9-169c-23.2-13.7-58.8-.4-58.8 33.5v338c0 30.5 33.1 48.8 58.8 33.5l285.9-168.9c25.5-15 25.6-52 0-67.1zm-13.2 44.8L113.7 430.2c-8.6 5-19.7-1-19.7-11.2V81c0-13.2 13.3-14.9 19.6-11.2l285.9 169c8.6 5.1 8.6 17.5.1 22.5z"/></symbol><symbol viewBox="0 0 500 500" id="vid_single_active" xmlns="http://www.w3.org/2000/svg"><path fill="currentColor" d="M427.1 83.3c17.1 0 31 13.7 31.2 30.7v271.3c0 17.1-13.7 31-30.7 31.2H72.9c-17.1 0-31-13.7-31.2-30.7V114.6c0-17.1 13.7-31 30.7-31.2h354.7zm0 20.9H72.9c-5.6 0-10.3 4.5-10.4 10.1v271.1c0 5.6 4.5 10.3 10.1 10.4h354.5c5.6 0 10.3-4.5 10.4-10.1V114.6c0-5.6-4.5-10.3-10.1-10.4h-.3zm-39.4 41.6c4.5 0 8.1 3.3 8.1 7.4v193.5c0 4.1-3.6 7.4-8.1 7.4H112.3c-4.5 0-8.1-3.3-8.1-7.4V153.3c0-4.1 3.6-7.4 8.1-7.4h275.4z"/></symbol><symbol viewBox="0 0 500 500" id="vid_single_inactive" xmlns="http://www.w3.org/2000/svg"><path fill="currentColor" d="M427.1 83.3H72.9c-17.3 0-31.2 14-31.2 31.2v270.8c0 17.3 14 31.2 31.2 31.2h354.2c17.3 0 31.2-14 31.2-31.2V114.6c0-17.3-14-31.3-31.2-31.3zm2.1 294.4c0 5.4-4.5 9.8-10 9.8H80.8c-5.5 0-10-4.4-10-9.8V122.3c0-5.4 4.5-9.8 10-9.8h338.4c5.5 0 10 4.4 10 9.8v255.4z"/></symbol><symbol viewBox="0 0 500 500" id="volume_high" xmlns="http://www.w3.org/2000/svg"><path fill="currentColor" d="M224.1 140.6v218.7c0 14-16.9 20.8-26.7 11l-57.9-57.9H73c-8.6 0-15.6-7-15.6-15.6v-93.7c0-8.6 7-15.6 15.6-15.6h66.4l57.9-57.9c9.9-9.8 26.8-2.9 26.8 11zm-20.9 12.6l-50.6 50.5c-2.9 2.9-6.9 4.6-11 4.6H78.2v83.3h63.4c4.1 0 8.1 1.6 11 4.6l50.6 50.5V153.2zm62.5 51.3c3-4.9 9.4-6.5 14.3-3.4 17.2 10.5 27.4 28.8 27.4 48.9s-10.3 38.4-27.4 48.9c-4.9 3-11.3 1.5-14.3-3.4s-1.5-11.3 3.4-14.3c10.9-6.7 17.5-18.3 17.5-31.1s-6.5-24.4-17.5-31.1c-4.9-3.1-6.4-9.5-3.4-14.5zM442.8 250c0 65.1-36.6 122.7-92.2 154.7-5.2 3-11.9 1.5-15.1-3.4-3.2-4.9-1.5-11.3 3.6-14.2 49-28.2 81.7-79.1 81.7-137.1 0-57.9-32.6-108.8-81.7-137.1-5.2-3-6.8-9.4-3.6-14.2 3.2-4.9 9.9-6.4 15.1-3.4 55.7 32 92.2 89.6 92.2 154.7zm-65.9 0c0-42.8-24-80.6-60.6-101.7-5.2-3-11.9-1.4-15.1 3.4-3.2 4.9-1.5 11.3 3.6 14.2 30.1 17.3 50 48.5 50 84s-20 66.7-50 84c-5.2 3-6.8 9.4-3.6 14.2 3.2 4.9 9.9 6.4 15.1 3.4 36.5-20.9 60.6-58.7 60.6-101.5z"/></symbol><symbol viewBox="0 0 500 500" id="volume_low" xmlns="http://www.w3.org/2000/svg"><path fill="currentColor" d="M224.1 140.6v218.7c0 14-16.9 20.8-26.7 11l-57.9-57.9H73c-8.6 0-15.6-7-15.6-15.6v-93.7c0-8.6 7-15.6 15.6-15.6h66.4l57.9-57.9c9.9-9.8 26.8-2.9 26.8 11zm-20.9 12.6l-50.6 50.5c-2.9 2.9-6.9 4.6-11 4.6H78.2v83.3h63.4c4.1 0 8.1 1.6 11 4.6l50.6 50.5V153.2zm62.5 51.3c3-4.9 9.4-6.5 14.3-3.4 17.2 10.5 27.4 28.8 27.4 48.9s-10.3 38.4-27.4 48.9c-4.9 3-11.3 1.5-14.3-3.4s-1.5-11.3 3.4-14.3c10.9-6.7 17.5-18.3 17.5-31.1s-6.5-24.4-17.5-31.1c-4.9-3.1-6.4-9.5-3.4-14.5z"/></symbol><symbol viewBox="0 0 500 500" id="volume_medium" xmlns="http://www.w3.org/2000/svg"><path fill="currentColor" d="M224.1 140.6v218.7c0 14-16.9 20.8-26.7 11l-57.9-57.9H73c-8.6 0-15.6-7-15.6-15.6v-93.7c0-8.6 7-15.6 15.6-15.6h66.4l57.9-57.9c9.9-9.8 26.8-2.9 26.8 11zm-20.9 12.6l-50.6 50.5c-2.9 2.9-6.9 4.6-11 4.6H78.2v83.3h63.4c4.1 0 8.1 1.6 11 4.6l50.6 50.5V153.2zm62.5 51.3c3-4.9 9.4-6.5 14.3-3.4 17.2 10.5 27.4 28.8 27.4 48.9s-10.3 38.4-27.4 48.9c-4.9 3-11.3 1.5-14.3-3.4s-1.5-11.3 3.4-14.3c10.9-6.7 17.5-18.3 17.5-31.1s-6.5-24.4-17.5-31.1c-4.9-3.1-6.4-9.5-3.4-14.5zM376.9 250c0-42.8-24-80.6-60.6-101.7-5.2-3-11.9-1.4-15.1 3.4-3.2 4.9-1.5 11.3 3.6 14.2 30.1 17.3 50 48.5 50 84s-20 66.7-50 84c-5.2 3-6.8 9.4-3.6 14.2 3.2 4.9 9.9 6.4 15.1 3.4 36.5-20.9 60.6-58.7 60.6-101.5z"/></symbol><symbol viewBox="0 0 500 500" id="volume_mute" xmlns="http://www.w3.org/2000/svg"><path fill="currentColor" d="M436.8 414.6L39.6 101.5c-3.4-2.7-3.9-7.6-1.3-11l3.2-4.1c2.7-3.4 7.6-3.9 11-1.3l397.2 313.1c3.4 2.7 3.9 7.6 1.3 11l-3.2 4.1c-2.7 3.5-7.6 4-11 1.3zm-132-248.7c28.4 17.4 50.3 48.4 50.3 84.1 0 13-3.5 25.7-8.1 37.1l17.9 12.9c7-15.3 12-32.2 12-50 0-43-22.8-78.9-60.6-101.7-4.9-3-12.3-1.5-15.3 3.4-2.9 4.9-1.1 11.2 3.8 14.2zm-115.2.9l13.5-13.5v24.1l20.8 16.4v-53.1c0-14-16.9-20.8-26.6-11l-24.1 24.1 16.4 13zm151.5-52.6c46.4 28.4 79.7 77.7 79.7 135.8 0 27.6-8 53.3-20.3 76l17.1 13.3c17.4-27.7 25.2-56.9 25.2-89.3 0-65.4-37.4-123.3-93.2-155.5-4.9-3-11.3-1.5-14.3 3.4-5.3 11.5 5.8 16.3 5.8 16.3zm-72 104.6c8.7 5.3 14.6 13.8 16.7 23.5l20.9 16.5c.5-3 .7-5.9.7-8.9 0-20.1-10.2-38.3-27.4-48.8-4.9-3-11.3-1.5-14.3 3.4s-1.5 11.3 3.4 14.3zm88.1 155.7c-5.8 4.8-12 9.2-18.4 13.1-4.9 3-6.4 9.4-3.4 14.3s9.4 6.4 14.3 3.4c8.5-5.2 16.6-11.1 24.2-17.7l-16.7-13.1zM203.1 256.9v89.7l-50.5-50.5c-2.9-2.9-6.9-4.6-11-4.6H78.3v-83.2h63.2l-26.4-20.8h-42c-8.6 0-15.6 7-15.6 15.6v93.6c0 8.6 7 15.6 15.6 15.6h66.3l57.8 57.8c9.8 9.8 26.6 2.9 26.6-11v-85.9l-20.7-16.3zm101.4 77.4c-4.9 3-6.4 9.4-3.4 14.3s9.4 6.4 14.3 3.4c2.2-1.3 4.3-2.7 6.3-4.2l-17.2-13.5z"/></symbol></svg>